<svg preserveAspectRatio="none" width="100%" height="100%" overflow="visible" style="display: block;" viewBox="0 0 60 60" fill="none" xmlns="http://www.w3.org/2000/svg">
<g id="BASIC UI GRADIENT FILL">
<path id="Vector" d="M58.1859 15.218C56.6121 9.41953 50.5816 3.38906 44.7832 1.81523C41.2289 0.928125 36.4652 0.0152344 30 0C23.5359 0.0164063 18.7723 0.928125 15.218 1.81523C9.41953 3.39023 3.38906 9.41953 1.81523 15.218C0.928125 18.7723 0.0164063 23.5359 0 30C0.0164063 36.4652 0.928125 41.2289 1.81523 44.7832C3.38906 50.5816 9.41953 56.6109 15.218 58.1859C18.7723 59.073 23.5383 59.9848 30 60.0012C36.4652 59.9848 41.2289 59.073 44.7832 58.1859C50.5816 56.6109 56.6121 50.5816 58.1859 44.7832C59.073 41.2289 59.9848 36.4629 60.0012 30C59.9848 23.5359 59.073 18.7723 58.1859 15.218Z" fill="var(--fill-0, #E5F4D9)"/>
<path id="Vector_2" d="M17.6637 49.2914C25.8645 50.1691 34.1355 50.1691 42.3363 49.2914C45.6879 48.9023 48.8988 45.6879 49.2914 42.3363C50.1691 34.1355 50.1691 25.8645 49.2914 17.6637C48.9023 14.3121 45.6879 11.1012 42.3363 10.7086C34.1355 9.83086 25.8645 9.83086 17.6637 10.7086C14.3121 11.0977 11.1012 14.3121 10.7086 17.6637C9.83086 25.8645 9.83086 34.1355 10.7086 42.3363C11.0977 45.6879 14.3121 48.9023 17.6637 49.2914Z" fill="url(#paint0_linear_0_105)"/>
<path id="Vector_3" d="M18.1254 27C18.7265 26.4636 19.5156 26.1871 20.3201 26.2311C21.1245 26.275 21.8788 26.6357 22.418 27.2344L27.0059 32.3437L37.6336 21.0727C38.1899 20.4998 38.9492 20.1689 39.7475 20.1513C40.5458 20.1338 41.319 20.431 41.8999 20.9789C42.4808 21.5267 42.8229 22.2811 42.8521 23.0791C42.8814 23.877 42.5955 24.6545 42.0563 25.2434L29.1656 38.918C28.8818 39.2203 28.539 39.4613 28.1585 39.6261C27.778 39.791 27.3678 39.8762 26.9531 39.8766H26.9156C26.4948 39.8716 26.0795 39.7792 25.6963 39.6053C25.313 39.4314 24.97 39.1798 24.6891 38.8664L17.8922 31.2926C17.3539 30.6924 17.0761 29.903 17.1198 29.098C17.1635 28.293 17.5252 27.5383 18.1254 27Z" fill="url(#paint1_linear_0_105)"/>
</g>
<defs>
<linearGradient id="paint0_linear_0_105" x1="46.9242" y1="46.9242" x2="13.0758" y2="13.0758" gradientUnits="userSpaceOnUse">
<stop stop-color="#13B601"/>
<stop offset="0.57" stop-color="#13B601"/>
<stop offset="1" stop-color="#CBF4B4"/>
</linearGradient>
<linearGradient id="paint1_linear_0_105" x1="35.741" y1="32.3438" x2="24.259" y2="20.8617" gradientUnits="userSpaceOnUse">
<stop stop-color="#CBF4B4"/>
<stop offset="0.57" stop-color="white"/>
<stop offset="1" stop-color="white"/>
</linearGradient>
</defs>
</svg>
