<svg preserveAspectRatio="none" width="100%" height="100%" overflow="visible" style="display: block;" viewBox="0 0 32 32" fill="none" xmlns="http://www.w3.org/2000/svg">
<g id="document_9388358 1" clip-path="url(#clip0_0_142)">
<path id="Vector" d="M19.8935 31.2126C19.2472 31.2126 18.7232 30.6887 18.7232 30.0424C18.7232 30.0419 18.7232 30.0413 18.7232 30.0408V30.0409C18.7232 29.3946 19.2472 28.8707 19.8935 28.8707H27.6948C28.7716 28.8698 29.6442 27.9971 29.6451 26.9204V5.07656C29.6433 4.00012 28.7712 3.12801 27.695 3.12623H7.41128C6.33484 3.12801 5.46273 4.00015 5.46095 5.07638V11.3176C5.46095 11.9639 4.93703 12.4878 4.29073 12.4878C3.64443 12.4878 3.12052 11.9639 3.12052 11.3176V5.07656C3.12406 2.70826 5.04299 0.789363 7.41093 0.785828H27.6948C30.0631 0.789363 31.982 2.70829 31.9855 5.07623V26.9203C31.982 29.2886 30.063 31.2075 27.6951 31.2111H27.6948L19.8935 31.2126ZM2.97122e-05 23.0212C0.00534819 18.4994 3.6696 14.8351 8.19093 14.8298H8.19144C12.7133 14.8351 16.3775 18.4994 16.3828 23.0207V23.0212C16.3784 27.5437 12.7138 31.2089 8.19191 31.2142H8.19141C3.66901 31.2089 0.00442711 27.5437 0 23.0216V23.0212H2.97122e-05ZM2.34043 23.0212C2.34396 26.2512 4.96146 28.8687 8.19111 28.8722H8.19144C11.4214 28.8687 14.0389 26.2512 14.0424 23.0215V23.0212C14.038 19.7919 11.4209 17.1753 8.19176 17.1718H8.19144C4.96199 17.1753 2.34485 19.7919 2.34043 23.0208V23.0212ZM7.02125 25.3616V24.1914H5.85104C5.20474 24.1914 4.68082 23.6675 4.68082 23.0212C4.68082 23.0207 4.68082 23.0201 4.68082 23.0196V23.0196C4.68082 22.3733 5.20474 21.8494 5.85104 21.8494H7.02125V20.6792C7.02125 20.0326 7.54499 19.5084 8.19138 19.5075H8.19147C8.83794 19.5084 9.36168 20.0326 9.36168 20.6792V21.8494H10.5319C11.1782 21.8494 11.7021 22.3733 11.7021 23.0196V23.0212C11.7021 23.6675 11.1782 24.1914 10.5319 24.1914H9.36168V25.3616C9.36168 26.0079 8.83776 26.5319 8.19147 26.5319C7.54517 26.5319 7.02125 26.0079 7.02125 25.3616ZM21.4537 23.4113C21.4533 23.4113 21.4527 23.4113 21.4522 23.4113C20.8059 23.4113 20.2819 22.8874 20.2819 22.2411C20.2819 21.5948 20.8059 21.0709 21.4522 21.0709H21.4538H24.5742C25.2205 21.0709 25.7445 21.5948 25.7445 22.2411C25.7445 22.8874 25.2205 23.4113 24.5742 23.4113H21.4537ZM19.8935 17.1702C19.2472 17.1702 18.7232 16.6463 18.7232 16C18.7232 15.9995 18.7232 15.9989 18.7232 15.9984V15.9985C18.7232 15.3522 19.2472 14.8282 19.8935 14.8282H24.5742C25.2205 14.8282 25.7445 15.3522 25.7445 15.9985V16C25.7445 16.6463 25.2205 17.1702 24.5742 17.1702L19.8935 17.1702ZM10.5319 10.9291C9.88556 10.9291 9.36165 10.4052 9.36165 9.7589C9.36165 9.1126 9.88556 8.58869 10.5319 8.58869H24.5743C25.2206 8.58869 25.7445 9.1126 25.7445 9.7589C25.7445 10.4052 25.2206 10.9291 24.5743 10.9291H10.5319Z" fill="var(--fill-0, #0A8778)"/>
</g>
<defs>
<clipPath id="clip0_0_142">
<rect width="32" height="32" fill="white"/>
</clipPath>
</defs>
</svg>
