<svg preserveAspectRatio="none" width="100%" height="100%" overflow="visible" style="display: block;" viewBox="0 0 50 50" fill="none" xmlns="http://www.w3.org/2000/svg">
<g id="Group">
<path id="Vector" d="M50 25C50 30.9082 47.9502 36.3369 44.5234 40.6162L44.5225 40.6172C43.9932 41.2783 42.7354 41.3525 42.1426 41.9561C38.502 45.6641 9.50664 43.6248 8.55644 42.6932C8.46562 42.6043 7.31934 42.6738 7.22949 42.583C2.75977 38.0674 0 31.8555 0 25C0 11.1934 11.1934 0 25 0C38.8066 0 50 11.1934 50 25Z" fill="var(--fill-0, #126D8A)"/>
<g id="Group_2">
<path id="Vector_2" d="M30.1243 49.2211L29.0471 49.6733C28.0998 49.8285 27.135 49.9291 26.1555 49.9741C25.7727 49.9916 25.3879 50.0004 25.0012 50.0004C24.6946 50.0004 24.3899 49.9946 24.0862 49.9838C22.3469 49.9213 20.6536 49.6811 19.0227 49.2807C18.844 49.2367 18.6662 49.1908 18.4885 49.143L14.4973 39.6401L24.3606 35.4975L30.1243 49.2211Z" fill="var(--fill-0, #F9C5AC)"/>
<path id="Vector_3" d="M19.0217 49.281C18.843 49.237 18.6653 49.1911 18.4875 49.1433C15.7532 48.4079 13.2034 47.2194 10.925 45.6648C10.803 45.5808 10.6819 45.4968 10.5618 45.4118C10.5618 45.4118 10.5608 45.4118 10.5608 45.4109C9.47289 44.6394 8.45043 43.7849 7.50023 42.8532C7.40941 42.7644 7.31957 42.6745 7.22972 42.5837L14.8606 39.3737L19.0217 49.281Z" fill="var(--fill-0, #DAE4EA)"/>
<path id="Vector_4" d="M24.0843 49.9843C19.057 49.8036 14.4066 48.1376 10.5609 45.412L9.60678 43.1395C9.01986 41.7421 9.67611 40.1337 11.0736 39.5468L15.8773 37.5292C17.2747 36.9423 18.8831 37.5995 19.4701 38.9969L24.0843 49.9843Z" fill="var(--fill-0, #F6F9F9)"/>
<path id="Vector_5" d="M21.0022 42.6439C20.4163 41.2474 18.8069 40.5911 17.4104 41.178L12.6057 43.1956C11.5755 43.6282 10.9475 44.6155 10.9241 45.6644C10.802 45.5804 10.6809 45.4964 10.5608 45.4114C10.5608 45.4114 10.5598 45.4114 10.5598 45.4105L9.60574 43.14C9.01883 41.7415 9.67606 40.1331 11.0735 39.5462L15.8772 37.5286C17.2737 36.9427 18.8831 37.5989 19.471 38.9964L21.0022 42.6439Z" fill="var(--fill-0, #DAE4EA)"/>
<path id="Vector_6" d="M28.3428 35.6846L36.4838 29.4513L34.1475 25.5939C33.3333 24.2496 31.6136 23.7708 30.2218 24.501L26.6481 26.3758C26.6481 26.3758 19.7261 28.2282 22.8518 35.6702" fill="var(--fill-0, #EFB29A)"/>
<path id="Vector_7" d="M24.3303 26.0688L29.8028 23.7718L34.8647 35.8314L29.3922 38.1284L24.3303 26.0688Z" fill="var(--fill-0, #005E53)"/>
<path id="Vector_8" d="M22.5676 28.3774C30.4026 28.3774 36.7541 22.0258 36.7541 14.1908C36.7541 6.35585 30.4026 0.00432478 22.5676 0.00432478C14.7326 0.00432478 8.38109 6.35585 8.38109 14.1908C8.38109 22.0258 14.7326 28.3774 22.5676 28.3774Z" fill="var(--fill-0, #0A8778)"/>
<path id="Vector_9" d="M26.8074 24.2851C21.2416 26.6228 14.8115 23.9964 12.4738 18.4306C10.1361 12.8647 12.7625 6.43457 18.3283 4.09687C23.8941 1.75918 30.3242 4.38555 32.6619 9.95137C34.9996 15.5173 32.3732 21.9474 26.8074 24.2851Z" fill="var(--fill-0, #F6F9F9)"/>
<path id="Vector_10" d="M20.6679 9.85263C20.235 10.0345 20.0314 10.5327 20.2133 10.9656L23.0432 17.7033C23.225 18.1362 23.7232 18.3397 24.1562 18.1579C24.5891 17.9761 24.7926 17.4778 24.6107 17.0449L21.7809 10.3072C21.5991 9.87431 21.1008 9.67079 20.6679 9.85263Z" fill="var(--fill-0, #0A8778)"/>
<path id="Vector_11" d="M26.0926 7.8095L24.2409 8.58723C24.0328 8.67464 23.8679 8.84124 23.7828 9.05032C23.6976 9.2594 23.6991 9.49378 23.7869 9.70169C23.7869 9.70179 24.8479 12.2148 25.161 12.9602C25.5427 13.8691 26.5467 16.2359 26.5467 16.2359C26.6348 16.4434 26.8017 16.6075 27.0108 16.692C27.2188 16.7761 27.4517 16.7745 27.6586 16.6876C27.6595 16.6872 27.6606 16.6867 27.6616 16.6864C27.7174 16.6626 29.0354 16.1031 29.559 15.8724C31.4894 15.0215 32.1876 12.7303 31.219 10.4242C30.2009 8.00003 28.1407 6.94925 26.0926 7.8095ZM28.8733 14.3166C28.6236 14.4267 28.1755 14.6191 27.7798 14.7881C27.4525 14.0159 26.968 12.8718 26.7287 12.3019C26.5287 11.8256 26.0237 10.6287 25.6844 9.82512L26.751 9.37718C28.1199 8.80227 29.1468 9.88128 29.6515 11.0827C30.3592 12.7678 29.7707 13.9211 28.8733 14.3166Z" fill="var(--fill-0, #0A8778)"/>
<path id="Vector_12" d="M19.0692 14.8155C19.1678 14.3335 19.1282 13.8183 18.9237 13.3314C18.3832 12.0443 16.8962 11.437 15.6092 11.9775L13.6521 12.7995C13.2192 12.9814 13.0157 13.4796 13.1975 13.9125L14.5006 17.015L14.5028 17.02L16.0275 20.6502C16.1151 20.8587 16.2821 21.0236 16.4916 21.1087C16.6999 21.1933 16.9333 21.1918 17.1405 21.1048C17.1416 21.1043 17.1428 21.1038 17.144 21.1033C17.144 21.1033 18.9401 20.3396 19.4361 20.1313C20.8683 19.5297 21.5441 17.8751 20.9425 16.443C20.5918 15.6083 19.8827 15.0333 19.0692 14.8155ZM16.2675 13.5452C16.6902 13.3677 17.1785 13.5671 17.356 13.9898C17.5336 14.4125 17.334 14.9008 16.9114 15.0783C16.7668 15.1391 16.4936 15.2547 16.1968 15.3807L15.7388 15.5731L15.0941 14.0381L16.2675 13.5452ZM18.7775 18.5638C18.4996 18.6805 17.8147 18.9711 17.2643 19.2048L16.398 17.1423C16.5478 17.0786 16.705 17.0119 16.8561 16.9479L17.9124 16.5042C18.4801 16.2657 19.1362 16.5337 19.3747 17.1015C19.6132 17.6692 19.3453 18.3253 18.7775 18.5638Z" fill="var(--fill-0, #0A8778)"/>
<path id="Vector_13" d="M44.5228 40.6182C40.1663 46.0577 33.5824 49.6368 26.1546 49.9747C25.5033 49.4502 24.9701 48.7608 24.6234 47.9366L20.9017 39.0743C20.4896 38.0918 20.4349 37.0489 20.68 36.0899C21.0306 34.7041 22.0052 33.4952 23.4232 32.8995L37.0443 27.1787C38.265 26.6661 39.7054 27.1787 40.2601 28.3809C40.4144 28.7129 40.4876 29.0606 40.4876 29.4024C40.4896 30.3594 39.9261 31.2686 38.9906 31.6612C39.0345 31.6426 39.0775 31.626 39.1214 31.6114C39.1673 31.5957 39.2103 31.5811 39.2552 31.5684C39.3246 31.5479 39.3929 31.5313 39.4632 31.5166C40.5794 31.2959 41.7318 31.8799 42.1888 32.9678C42.3079 33.25 42.3675 33.5401 42.3783 33.8282C42.3802 33.8282 42.3802 33.8282 42.3792 33.8301C42.4105 34.8135 41.8441 35.7627 40.8822 36.167C40.9691 36.1309 41.0589 36.0987 41.1468 36.0733C41.2171 36.0518 41.2855 36.0362 41.3558 36.0215C42.471 35.8008 43.6244 36.3858 44.0814 37.4737C44.1996 37.7549 44.2601 38.045 44.2708 38.333C44.304 39.3194 43.7367 40.2686 42.7747 40.6719C43.3538 40.4288 43.973 40.4258 44.5228 40.6182Z" fill="var(--fill-0, #F9C5AC)"/>
<g id="Group_3">
<path id="Vector_14" d="M40.4856 29.4027C39.8048 28.7292 38.7618 28.4946 37.824 28.8886L20.678 36.0899C21.0287 34.7044 22.0032 33.4954 23.4217 32.8996L37.0423 27.1789C38.2635 26.666 39.7032 27.1785 40.2587 28.3808C40.4122 28.7132 40.4857 29.0603 40.4856 29.4027Z" fill="var(--fill-0, #EFB29A)"/>
<path id="Vector_15" d="M42.3765 33.829C41.6957 33.1987 40.6842 32.9873 39.7732 33.3699L39.586 33.4485C39.1071 33.6497 38.5562 33.4246 38.3556 32.947C38.255 32.7076 38.2606 32.4511 38.3516 32.2284C38.4426 32.0056 38.6189 31.8166 38.8584 31.716L38.9878 31.6617C39.0318 31.6432 39.0751 31.6266 39.1189 31.6115C39.1641 31.5958 39.2078 31.5806 39.2528 31.5681C39.3218 31.5472 39.3911 31.5311 39.4609 31.5164C40.5759 31.2958 41.7294 31.8797 42.1865 32.9682C42.3051 33.2502 42.3654 33.5406 42.3765 33.829Z" fill="var(--fill-0, #EFB29A)"/>
<path id="Vector_16" d="M44.2688 38.3341C43.5881 37.7038 42.5765 37.4924 41.6656 37.875L41.4784 37.9536C40.9995 38.1548 40.4485 37.9297 40.2479 37.4522C40.1473 37.2127 40.1529 36.9563 40.2439 36.7335C40.3349 36.5107 40.5113 36.3217 40.7507 36.2212L40.8801 36.1669C40.9669 36.1305 41.0558 36.0996 41.1452 36.0734C41.2141 36.0525 41.2834 36.0364 41.3533 36.0217C42.4683 35.8011 43.6217 36.3851 44.0789 37.4735C44.1973 37.7554 44.2578 38.0457 44.2688 38.3341Z" fill="var(--fill-0, #EFB29A)"/>
<path id="Vector_17" d="M44.5212 40.6169L44.5203 40.6179C43.991 41.279 43.4285 41.9118 42.8357 42.5153C42.5349 42.4607 42.2673 42.2595 42.1404 41.9567C42.0398 41.7175 42.0456 41.4616 42.1365 41.238C42.2273 41.0153 42.4031 40.8269 42.6433 40.7263L42.7722 40.6716C42.8591 40.6355 42.948 40.6042 43.0378 40.5778C43.1062 40.5573 43.1755 40.5417 43.2458 40.5261C43.6794 40.4401 44.1189 40.4763 44.5212 40.6169Z" fill="var(--fill-0, #EFB29A)"/>
</g>
</g>
</g>
</svg>
