<svg preserveAspectRatio="none" width="100%" height="100%" overflow="visible" style="display: block;" viewBox="0 0 15 15" fill="none" xmlns="http://www.w3.org/2000/svg">
<path id="Vector" d="M11.6835 1.824L10.1835 1.0365C8.8665 0.34575 8.208 0 7.5 0C6.792 0 6.1335 0.345 4.8165 1.0365L3.3165 1.824C1.98675 2.5215 1.2045 2.9325 0.72 3.4815L7.5 6.8715L14.28 3.4815C13.7955 2.9325 13.014 2.5215 11.6835 1.824ZM14.811 4.473L8.0625 7.848V14.928C8.601 14.7937 9.21375 14.4728 10.1835 13.9635L11.6835 13.176C13.2967 12.3293 14.1037 11.9063 14.5522 11.145C15 10.3845 15 9.43725 15 7.545V7.45725C15 6.0375 15 5.1495 14.811 4.473ZM6.9375 14.928V7.848L0.189 4.473C6.70552e-08 5.1495 0 6.0375 0 7.45575V7.5435C0 9.43725 -8.9407e-08 10.3845 0.44775 11.145C0.89625 11.9063 1.70325 12.33 3.3165 13.1768L4.8165 13.9635C5.78625 14.4728 6.399 14.7937 6.9375 14.928Z" fill="var(--fill-0, white)"/>
</svg>
