<svg preserveAspectRatio="none" width="100%" height="100%" overflow="visible" style="display: block;" viewBox="0 0 13 15" fill="none" xmlns="http://www.w3.org/2000/svg">
<g id="Location">
<path id="Location_2" fill-rule="evenodd" clip-rule="evenodd" d="M0 6.23832C0 2.78842 2.88291 0 6.37008 0C9.86709 0 12.75 2.78842 12.75 6.23832C12.75 7.97677 12.1178 9.59072 11.0771 10.9587C9.9291 12.4676 8.51412 13.7823 6.92141 14.8143C6.55688 15.0528 6.22791 15.0708 5.82784 14.8143C4.22605 13.7823 2.81107 12.4676 1.67287 10.9587C0.631488 9.59072 0 7.97677 0 6.23832ZM4.27075 6.43258C4.27075 7.5883 5.21382 8.49727 6.37016 8.49727C7.52726 8.49727 8.47941 7.5883 8.47941 6.43258C8.47941 5.28586 7.52726 4.33264 6.37016 4.33264C5.21382 4.33264 4.27075 5.28586 4.27075 6.43258Z" fill="var(--fill-0, white)"/>
</g>
</svg>
