<svg preserveAspectRatio="none" width="100%" height="100%" overflow="visible" style="display: block;" viewBox="0 0 60 60" fill="none" xmlns="http://www.w3.org/2000/svg">
<g id="check_15092112 1" clip-path="url(#clip0_0_89)">
<path id="Vector" d="M58.1871 15.218C56.6133 9.41953 50.5828 3.39023 44.7844 1.81523C41.2301 0.928125 36.4664 0.0152344 30.0012 0C23.5359 0.0164063 18.7734 0.928125 15.218 1.81523C9.4207 3.39023 3.39023 9.41953 1.81641 15.218C0.929297 18.7723 0.0175781 23.5359 0 30C0.0164063 36.4652 0.928125 41.2277 1.81523 44.7832C3.39023 50.5816 9.41953 56.6109 15.218 58.1859C18.7734 59.073 23.5359 59.9848 30.0012 60.0012C36.4652 59.9848 41.2289 59.073 44.7844 58.1859C50.5828 56.6109 56.6121 50.5816 58.1871 44.7832C59.0742 41.2289 59.9859 36.4652 60.0023 30C59.9859 23.5348 59.0742 18.7723 58.1871 15.2168V15.218Z" fill="var(--fill-0, #E5F4D9)"/>
<g id="Group">
<path id="Vector_2" d="M29.3203 49.807C29.7586 49.998 30.2602 49.998 30.6984 49.807C35.8887 47.5477 46.5363 36.7676 46.5363 26.5687C46.5363 17.4457 39.1406 10.0512 30.0187 10.0512H29.9836C20.8605 10.0512 13.466 17.4469 13.466 26.5687C13.466 36.7688 24.1301 47.5477 29.3215 49.807H29.3203Z" fill="url(#paint0_linear_0_89)"/>
<path id="Vector_3" d="M30.0012 15.9152C24.2789 15.9152 19.6395 20.5547 19.6395 26.277C19.6395 31.9992 24.2789 36.6387 30.0012 36.6387C35.7234 36.6387 40.3629 31.9992 40.3629 26.277C40.3629 20.5547 35.7234 15.9152 30.0012 15.9152Z" fill="url(#paint1_linear_0_89)"/>
<path id="Vector_4" d="M35.8254 24.7266L29.898 30.9762C29.5441 31.3477 29.0543 31.5598 28.5398 31.5621H28.5316C28.0207 31.5621 27.532 31.3559 27.1769 30.9891L24.0715 27.7793C23.3449 27.0317 23.3636 25.8363 24.1113 25.1098C24.859 24.3832 26.0543 24.4008 26.7797 25.1496L28.5175 26.9496L33.0902 22.1215C33.8097 21.3656 35.0039 21.3375 35.7586 22.0559C36.5144 22.7742 36.5425 23.9695 35.8242 24.7242L35.8254 24.7266Z" fill="url(#paint2_linear_0_89)"/>
</g>
</g>
<defs>
<linearGradient id="paint0_linear_0_89" x1="42.2461" y1="39.9117" x2="17.7621" y2="15.4289" gradientUnits="userSpaceOnUse">
<stop stop-color="#13B601"/>
<stop offset="0.57" stop-color="#13B601"/>
<stop offset="1" stop-color="#CBF4B4"/>
</linearGradient>
<linearGradient id="paint1_linear_0_89" x1="37.3277" y1="33.6035" x2="22.6746" y2="18.9504" gradientUnits="userSpaceOnUse">
<stop stop-color="#CBF4B4"/>
<stop offset="0.57" stop-color="white"/>
<stop offset="1" stop-color="white"/>
</linearGradient>
<linearGradient id="paint2_linear_0_89" x1="34.4777" y1="29.5324" x2="25.0066" y2="20.0613" gradientUnits="userSpaceOnUse">
<stop stop-color="#13B601"/>
<stop offset="0.27" stop-color="#13B601"/>
<stop offset="1" stop-color="#CBF4B4"/>
</linearGradient>
<clipPath id="clip0_0_89">
<rect width="60" height="60" fill="white"/>
</clipPath>
</defs>
</svg>
