<svg preserveAspectRatio="none" width="100%" height="100%" overflow="visible" style="display: block;" viewBox="0 0 48 49" fill="none" xmlns="http://www.w3.org/2000/svg">
<g id="Group">
<path id="Vector" d="M23.93 1.28595C10.7161 1.28595 0.00404576 11.998 0.00404576 25.2119C0.00404576 37.377 9.08315 47.421 20.8349 48.939H27.0254C38.7771 47.4209 47.856 37.377 47.856 25.2119C47.856 11.998 37.144 1.28595 23.93 1.28595Z" fill="var(--fill-0, #126D8A)"/>
<path id="Vector_2" d="M36.826 30.1227C40.3915 30.1227 43.282 28.932 43.282 27.4632C43.282 25.9944 40.3915 24.8037 36.826 24.8037C33.2605 24.8037 30.3701 25.9944 30.3701 27.4632C30.3701 28.932 33.2605 30.1227 36.826 30.1227Z" fill="var(--fill-0, #55CBF0)"/>
<path id="Vector_3" d="M46.0535 31.0789C45.9587 31.5826 45.7343 32.0509 45.3759 32.4198C45.0269 32.779 44.5908 33.0431 44.1379 33.2505C43.1201 33.7164 42.0029 33.9497 40.9036 34.1291C39.7567 34.3164 38.598 34.4306 37.4397 34.5201C36.2734 34.6102 35.1058 34.6836 33.9375 34.7423C31.6055 34.8595 29.2722 34.9404 26.9407 35.071C24.6374 35.2001 22.3289 35.359 20.0491 35.7254C18.9545 35.9013 17.8531 36.1187 16.8134 36.5128C16.346 36.69 15.8186 36.9049 15.4683 37.275C15.3398 37.4107 15.2976 37.5154 15.3434 37.6976C15.3987 37.9176 15.5146 38.123 15.6356 38.3128C15.929 38.7727 16.3047 39.1796 16.6924 39.561C16.8024 39.6692 16.9144 39.7751 17.028 39.8796C17.0909 39.9375 17.1248 39.9521 17.2047 39.9862C17.6762 40.1875 18.2025 40.264 18.7077 40.3286C19.2641 40.3998 19.824 40.4414 20.384 40.473C21.3747 40.5288 22.3678 40.5472 23.3595 40.5758C25.5901 40.6402 27.8263 40.72 30.0335 41.0716C32.1524 41.4091 34.3021 42.0322 36.0563 43.3094C36.9196 43.9379 37.6726 44.7183 38.2379 45.6262C38.2537 45.6517 38.2693 45.6773 38.2848 45.7029C38.3138 45.751 38.3132 45.7301 38.2818 45.7701C38.2496 45.811 38.1722 45.8432 38.1275 45.8728C38.0088 45.9512 37.8894 46.0285 37.7695 46.1049C37.5449 46.2477 37.3181 46.387 37.0891 46.5227C36.6299 46.7948 36.1621 47.052 35.6864 47.2941C35.1977 47.5429 34.7008 47.7756 34.1968 47.9917C33.9552 48.0952 33.7122 48.1949 33.4675 48.2908C33.4209 48.309 33.3157 48.3684 33.2853 48.3422C33.2489 48.3108 33.2239 48.207 33.2003 48.1626C33.1403 48.0493 33.0718 47.9401 32.9953 47.8371C32.3886 47.0194 31.3796 46.528 30.4542 46.1685C29.4133 45.7641 28.3257 45.4943 27.2319 45.2784C26.101 45.0553 24.9608 44.889 23.8178 44.7436C22.6939 44.6007 21.5684 44.4705 20.4454 44.3201C19.345 44.1727 18.2385 44.009 17.1691 43.7031C16.2807 43.449 15.3987 43.0786 14.7298 42.4233C14.5649 42.2618 14.4139 42.0826 14.2635 41.9078C13.9055 41.4921 13.5667 41.0583 13.2667 40.5986C12.7196 39.7605 12.2802 38.8012 12.2605 37.7841C12.2393 36.6864 12.7579 35.6863 13.6056 35.0039C14.4482 34.3258 15.5116 33.9578 16.5507 33.7078C17.6402 33.4457 18.7579 33.2966 19.8724 33.1907C22.1666 32.9727 24.4795 32.9372 26.7825 32.9153C29.1175 32.8929 31.4525 32.9036 33.7874 32.8658C36.0935 32.8284 38.4152 32.7698 40.7013 32.4398C41.2621 32.3588 41.8213 32.2593 42.3704 32.1189C42.8821 31.9881 43.4043 31.8291 43.8584 31.5528C44.0532 31.4342 44.252 31.2887 44.362 31.0835C44.465 30.8912 44.5147 30.6389 44.4843 30.4228C44.4172 29.9447 43.9506 29.618 43.5624 29.3985C43.1019 29.1381 42.5972 28.9611 42.0894 28.8184C42.0458 28.8062 41.4871 28.6351 41.4686 28.676C41.4686 28.5957 41.5038 28.5026 41.5203 28.4248C41.5589 28.2433 41.598 28.062 41.6372 27.8808C41.6756 27.7032 41.7142 27.5258 41.7536 27.3483C41.7565 27.3353 41.7991 27.1015 41.8104 27.1015C41.812 27.1348 42.261 27.2181 42.3025 27.2286C42.7867 27.3509 43.2649 27.5049 43.7239 27.702C44.5658 28.0636 45.4015 28.5975 45.8327 29.4356C46.0929 29.9405 46.1651 30.5231 46.0535 31.0789Z" fill="var(--fill-0, #55CBF0)"/>
<path id="Vector_4" d="M46.4863 17.0005H1.48633C4.45065 7.73401 13.4032 1.00049 23.9863 1.00049C34.5695 1.00049 43.522 7.73401 46.4863 17.0005Z" fill="var(--fill-0, #C9F2FF)"/>
<g id="Group_2">
<path id="Vector_5" d="M23.3731 31.7422L14.0997 47.8045C12.4058 47.0402 10.8109 46.0933 9.34252 44.9882L1.69558 31.7422C-1.29524 26.5616 -0.108501 20.578 3.52721 16.7841C5.74762 14.4678 8.88129 12.9688 12.5344 12.9688C22.169 12.9688 28.1905 23.3984 23.3731 31.7422Z" fill="var(--fill-0, #153860)"/>
<path id="Vector_6" d="M19.0539 25.4839C19.0539 28.5546 16.931 31.129 14.0731 31.8208C13.5795 31.9416 13.0635 32.0046 12.5332 32.0046C8.93347 32.0046 6.01367 29.0849 6.01367 25.4839C6.01367 21.8841 8.93336 18.9644 12.5332 18.9644C13.0636 18.9644 13.5795 19.0274 14.0731 19.1482C16.9311 19.8401 19.0539 22.4145 19.0539 25.4839Z" fill="var(--fill-0, #BCE6F5)"/>
<path id="Vector_7" d="M19.054 25.484C19.054 28.5548 16.9311 31.1292 14.0731 31.821C11.2152 31.1292 9.09366 28.5547 9.09366 25.484C9.09366 22.4147 11.2152 19.8403 14.0731 19.1484C16.9312 19.8403 19.054 22.4147 19.054 25.484Z" fill="var(--fill-0, white)"/>
</g>
<g id="Group_3">
<path id="Vector_8" d="M36.8254 27.4627L44.7533 13.7313C48.2767 7.62847 43.8724 0 36.8254 0C29.7785 0 25.3741 7.62857 28.8975 13.7313L36.8254 27.4627Z" fill="var(--fill-0, #0A8778)"/>
<path id="Vector_9" d="M41.5945 9.1538C41.5945 11.3998 40.0418 13.2828 37.9514 13.7888C37.5904 13.8772 37.2131 13.9232 36.8251 13.9232C34.1922 13.9232 32.0566 11.7877 32.0566 9.1537C32.0566 6.52074 34.1922 4.38523 36.8251 4.38523C37.2131 4.38523 37.5904 4.43135 37.9514 4.51962C40.0418 5.02574 41.5945 6.9088 41.5945 9.1538Z" fill="var(--fill-0, #BCE6F5)"/>
<path id="Vector_10" d="M41.594 9.1541C41.594 11.4001 40.0414 13.2831 37.951 13.7891C35.8606 13.2831 34.3088 11.4 34.3088 9.1541C34.3088 6.9091 35.8606 5.02604 37.951 4.52002C40.0414 5.02604 41.594 6.9091 41.594 9.1541Z" fill="var(--fill-0, white)"/>
</g>
</g>
</svg>
