<svg preserveAspectRatio="none" width="100%" height="100%" overflow="visible" style="display: block;" viewBox="0 0 50 50" fill="none" xmlns="http://www.w3.org/2000/svg">
<g id="Group">
<path id="Vector" d="M50 25C50 30.9082 47.9502 36.3369 44.5234 40.6162L44.5225 40.6172C43.9932 41.2783 42.7354 41.3525 42.1426 41.9561C38.502 45.6641 9.50664 43.6248 8.55644 42.6932C8.46562 42.6043 7.31934 42.6738 7.22949 42.583C2.75977 38.0674 0 31.8555 0 25C0 11.1934 11.1934 0 25 0C38.8066 0 50 11.1934 50 25Z" fill="var(--fill-0, #126D8A)"/>
<g id="Group_2">
<path id="Vector_2" d="M30.124 49.2207L29.0469 49.6729C28.0996 49.8281 27.1348 49.9287 26.1553 49.9736C25.7725 49.9912 25.3877 50 25.001 50C24.6943 50 24.3896 49.9941 24.0859 49.9834C22.3467 49.9209 20.6533 49.6807 19.0225 49.2803C18.8437 49.2363 18.666 49.1904 18.4883 49.1426L14.4971 39.6396L24.3604 35.4971L30.124 49.2207Z" fill="var(--fill-0, #F9C5AC)"/>
<path id="Vector_3" d="M19.0215 49.2803C18.8428 49.2363 18.665 49.1904 18.4873 49.1426C15.7529 48.4072 13.2031 47.2188 10.9248 45.6641C10.8027 45.5801 10.6816 45.4961 10.5615 45.4111C10.5615 45.4111 10.5605 45.4111 10.5605 45.4102C9.47266 44.6387 8.4502 43.7842 7.5 42.8525C7.40918 42.7637 7.31934 42.6738 7.22949 42.583L14.8604 39.373L19.0215 49.2803Z" fill="var(--fill-0, #DAE4EA)"/>
<path id="Vector_4" d="M24.0841 49.9843C19.0567 49.8037 14.4063 48.1376 10.5606 45.4121L9.60654 43.1396C9.01963 41.7421 9.67588 40.1337 11.0733 39.5468L15.8771 37.5292C17.2745 36.9423 18.8829 37.5996 19.4698 38.997L24.0841 49.9843Z" fill="var(--fill-0, #F6F9F9)"/>
<path id="Vector_5" d="M21.0019 42.6431C20.416 41.2466 18.8066 40.5904 17.4101 41.1773L12.6054 43.1948C11.5751 43.6275 10.9472 44.6148 10.9238 45.6636C10.8017 45.5796 10.6806 45.4956 10.5605 45.4107C10.5605 45.4107 10.5595 45.4107 10.5595 45.4097L9.60542 43.1392C9.0185 41.7407 9.67573 40.1323 11.0732 39.5454L15.8769 37.5279C17.2734 36.9419 18.8828 37.5982 19.4707 38.9956L21.0019 42.6431Z" fill="var(--fill-0, #DAE4EA)"/>
<path id="Vector_6" d="M28.3426 35.6846L36.4835 29.4514L34.1473 25.594C33.333 24.2497 31.6134 23.7709 30.2216 24.501L26.6479 26.3758C26.6479 26.3758 19.7259 28.2283 22.8516 35.6703" fill="var(--fill-0, #EFB29A)"/>
<path id="Vector_7" d="M24.3301 26.0684L29.8026 23.7713L34.8645 35.831L29.392 38.128L24.3301 26.0684Z" fill="var(--fill-0, #005E53)"/>
<path id="Vector_8" d="M22.5674 28.377C30.4024 28.377 36.7539 22.0254 36.7539 14.1904C36.7539 6.35543 30.4024 0.00390625 22.5674 0.00390625C14.7324 0.00390625 8.38086 6.35543 8.38086 14.1904C8.38086 22.0254 14.7324 28.377 22.5674 28.377Z" fill="var(--fill-0, #0A8778)"/>
<path id="Vector_9" d="M26.8072 24.2846C21.2413 26.6223 14.8113 23.996 12.4736 18.4301C10.1359 12.8643 12.7622 6.43415 18.3281 4.09645C23.8939 1.75876 30.324 4.38513 32.6617 9.95095C34.9994 15.5169 32.373 21.9469 26.8072 24.2846Z" fill="var(--fill-0, #F6F9F9)"/>
<path id="Vector_10" d="M20.6676 9.85172C20.2347 10.0336 20.0312 10.5318 20.213 10.9647L23.0429 17.7024C23.2248 18.1353 23.723 18.3388 24.1559 18.157C24.5888 17.9752 24.7923 17.4769 24.6105 17.044L21.7806 10.3063C21.5989 9.8734 21.1005 9.66988 20.6676 9.85172Z" fill="var(--fill-0, #0A8778)"/>
<path id="Vector_11" d="M26.0924 7.80859L24.2407 8.58633C24.0325 8.67373 23.8677 8.84033 23.7825 9.04941C23.6974 9.25849 23.6989 9.49287 23.7867 9.70078C23.7867 9.70088 24.8477 12.2139 25.1608 12.9593C25.5425 13.8682 26.5465 16.235 26.5465 16.235C26.6346 16.4425 26.8015 16.6066 27.0106 16.6911C27.2186 16.7752 27.4515 16.7736 27.6583 16.6867C27.6593 16.6863 27.6604 16.6858 27.6614 16.6854C27.7172 16.6617 29.0352 16.1021 29.5587 15.8715C31.4892 15.0206 32.1873 12.7294 31.2188 10.4233C30.2007 7.99912 28.1405 6.94834 26.0924 7.80859ZM28.8731 14.3157C28.6234 14.4258 28.1752 14.6182 27.7795 14.7872C27.4523 14.015 26.9678 12.8709 26.7284 12.301C26.5284 11.8247 26.0235 10.6278 25.6842 9.82422L26.7508 9.37627C28.1197 8.80137 29.1466 9.88037 29.6513 11.0818C30.359 12.7669 29.7704 13.9202 28.8731 14.3157Z" fill="var(--fill-0, #0A8778)"/>
<path id="Vector_12" d="M19.0691 14.8148C19.1677 14.3328 19.1281 13.8175 18.9236 13.3306C18.3831 12.0436 16.8962 11.4363 15.6091 11.9768L13.652 12.7988C13.2191 12.9806 13.0156 13.4788 13.1974 13.9118L14.5005 17.0143L14.5027 17.0193L16.0274 20.6495C16.115 20.8579 16.282 21.0229 16.4915 21.1079C16.6998 21.1925 16.9332 21.1911 17.1404 21.104C17.1415 21.1036 17.1427 21.1031 17.1439 21.1026C17.1439 21.1026 18.94 20.3388 19.436 20.1305C20.8682 19.5289 21.544 17.8744 20.9424 16.4422C20.5917 15.6076 19.8826 15.0326 19.0691 14.8148ZM16.2674 13.5445C16.6901 13.3669 17.1784 13.5663 17.3559 13.9891C17.5335 14.4118 17.3339 14.9 16.9113 15.0776C16.7667 15.1383 16.4935 15.2539 16.1967 15.3799L15.7387 15.5723L15.094 14.0373L16.2674 13.5445ZM18.7774 18.563C18.4995 18.6797 17.8146 18.9704 17.2642 19.204L16.3979 17.1415C16.5477 17.0779 16.7049 17.0112 16.856 16.9471L17.9123 16.5035C18.48 16.265 19.1361 16.533 19.3746 17.1007C19.6131 17.6685 19.3452 18.3246 18.7774 18.563Z" fill="var(--fill-0, #0A8778)"/>
<path id="Vector_13" d="M44.5226 40.6178C40.1661 46.0572 33.5821 49.6363 26.1544 49.9742C25.503 49.4498 24.9698 48.7604 24.6231 47.9361L20.9015 39.0738C20.4894 38.0914 20.4347 37.0484 20.6798 36.0895C21.0304 34.7037 22.005 33.4947 23.423 32.899L37.044 27.1783C38.2647 26.6656 39.7052 27.1783 40.2599 28.3805C40.4142 28.7125 40.4874 29.0602 40.4874 29.402C40.4894 30.359 39.9259 31.2682 38.9903 31.6608C39.0343 31.6422 39.0772 31.6256 39.1212 31.6109C39.1671 31.5953 39.2101 31.5807 39.255 31.568C39.3243 31.5475 39.3927 31.5309 39.463 31.5162C40.5792 31.2955 41.7315 31.8795 42.1886 32.9674C42.3077 33.2496 42.3673 33.5397 42.378 33.8277C42.38 33.8277 42.38 33.8277 42.379 33.8297C42.4103 34.8131 41.8438 35.7623 40.8819 36.1666C40.9688 36.1305 41.0587 36.0983 41.1466 36.0729C41.2169 36.0514 41.2853 36.0358 41.3556 36.0211C42.4708 35.8004 43.6241 36.3854 44.0812 37.4733C44.1993 37.7545 44.2599 38.0445 44.2706 38.3326C44.3038 39.319 43.7364 40.2682 42.7745 40.6715C43.3536 40.4283 43.9728 40.4254 44.5226 40.6178Z" fill="var(--fill-0, #F9C5AC)"/>
<g id="Group_3">
<path id="Vector_14" d="M40.4854 29.4023C39.8046 28.7288 38.7615 28.4942 37.8237 28.8881L20.6777 36.0895C21.0284 34.704 22.0029 33.495 23.4215 32.8992L37.0421 27.1785C38.2633 26.6656 39.7029 27.1781 40.2585 28.3804C40.412 28.7128 40.4854 29.0599 40.4854 29.4023Z" fill="var(--fill-0, #EFB29A)"/>
<path id="Vector_15" d="M42.3762 33.8285C41.6955 33.1983 40.6839 32.9868 39.773 33.3695L39.5858 33.4481C39.1069 33.6492 38.5559 33.4241 38.3553 32.9466C38.2547 32.7072 38.2603 32.4507 38.3513 32.228C38.4423 32.0052 38.6187 31.8161 38.8582 31.7156L38.9876 31.6613C39.0316 31.6428 39.0749 31.6262 39.1186 31.6111C39.1638 31.5953 39.2076 31.5802 39.2526 31.5677C39.3215 31.5468 39.3909 31.5307 39.4607 31.5159C40.5756 31.2953 41.7292 31.8793 42.1863 32.9678C42.3048 33.2498 42.3652 33.5402 42.3762 33.8285Z" fill="var(--fill-0, #EFB29A)"/>
<path id="Vector_16" d="M44.2686 38.3332C43.5878 37.7029 42.5763 37.4915 41.6654 37.8741L41.4781 37.9527C40.9992 38.1539 40.4483 37.9288 40.2477 37.4512C40.1471 37.2118 40.1527 36.9553 40.2437 36.7326C40.3347 36.5098 40.5111 36.3208 40.7505 36.2203L40.8799 36.166C40.9666 36.1296 41.0556 36.0987 41.1449 36.0725C41.2139 36.0516 41.2831 36.0355 41.3531 36.0208C42.4681 35.8002 43.6215 36.3842 44.0786 37.4726C44.1971 37.7545 44.2575 38.0448 44.2686 38.3332Z" fill="var(--fill-0, #EFB29A)"/>
<path id="Vector_17" d="M44.521 40.6165L44.52 40.6175C43.9907 41.2786 43.4282 41.9114 42.8355 42.5149C42.5347 42.4602 42.2671 42.2591 42.1401 41.9563C42.0396 41.7171 42.0454 41.4612 42.1362 41.2376C42.2271 41.0149 42.4028 40.8264 42.6431 40.7259L42.772 40.6712C42.8589 40.635 42.9478 40.6038 43.0376 40.5774C43.106 40.5569 43.1753 40.5413 43.2456 40.5257C43.6792 40.4397 44.1187 40.4759 44.521 40.6165Z" fill="var(--fill-0, #EFB29A)"/>
</g>
</g>
</g>
</svg>
