<svg preserveAspectRatio="none" width="100%" height="100%" overflow="visible" style="display: block;" viewBox="0 0 60 60" fill="none" xmlns="http://www.w3.org/2000/svg">
<g id="FILES AND FOLDER grad fill">
<path id="Vector" d="M58.1871 15.218C56.6121 9.41953 50.5828 3.38906 44.7844 1.81523C41.2289 0.928125 36.4664 0.0152344 30 0C23.5359 0.0164063 18.7734 0.928125 15.218 1.81523C9.4207 3.39023 3.39023 9.41953 1.81523 15.218C0.929297 18.7723 0.0164063 23.5359 0 30C0.0164063 36.4652 0.929297 41.2289 1.81523 44.7832C3.39023 50.5816 9.4207 56.6109 15.218 58.1859C18.7734 59.073 23.5383 59.9848 30.0012 60.0012C36.4652 59.9848 41.2289 59.073 44.7844 58.1859C50.5828 56.6109 56.6121 50.5816 58.1871 44.7832C59.073 41.2289 59.9859 36.4629 60.0012 30C59.9859 23.5359 59.073 18.7723 58.1871 15.218Z" fill="var(--fill-0, #FFE5E5)"/>
<path id="Vector_2" d="M44.2465 44.2641C34.7703 45.1336 25.2344 45.1336 15.7582 44.2641C13.3535 44.0297 11.0438 41.8148 10.7379 39.4043C9.82617 31.7948 9.82617 24.1036 10.7379 16.4941C11.0438 14.0848 13.3523 11.8723 15.7582 11.6367C17.8465 11.4445 19.9363 11.2949 22.0277 11.1879C22.4144 11.1659 22.8008 11.2363 23.1548 11.3935C23.5088 11.5506 23.8202 11.7898 24.0633 12.0914C25.2926 13.5926 26.5793 15.1219 27.9023 16.6617C28.0708 16.8582 28.2799 17.0158 28.5152 17.1236C28.7505 17.2315 29.0064 17.287 29.2652 17.2863C34.4652 17.2723 39.6629 17.4066 44.8582 17.6895C47.3766 17.8406 49.6488 19.9641 49.7965 22.377C50.1244 28.0552 49.9484 33.7513 49.2703 39.3984C48.9609 41.8137 46.6512 44.0262 44.2465 44.2641Z" fill="url(#paint0_linear_0_77)"/>
<path id="Vector_3" d="M30 22.7496C25.0469 22.7496 20.0961 22.8836 15.1477 23.1516C12.6293 23.3027 10.357 25.4262 10.2094 27.8391C9.88359 33.5121 10.0547 37.6371 10.7344 43.302C11.0437 45.7137 13.3594 47.9297 15.7582 48.1641C20.498 48.5984 25.2461 48.816 30.0023 48.8168C34.7586 48.8176 39.5063 48.6 44.2453 48.1641C46.6512 47.9297 48.9598 45.7148 49.2668 43.3055C49.9465 37.6406 50.1176 33.5156 49.7918 27.8426C49.6441 25.4273 47.373 23.3039 44.8535 23.1551C39.9074 22.8824 34.9563 22.7473 30 22.7496Z" fill="url(#paint1_linear_0_77)"/>
<path id="Vector_4" d="M29.9998 44.0133C28.6717 44.0123 27.3477 43.8654 26.0517 43.575L26.0224 43.568C25.5529 43.44 25.1174 43.21 24.7469 42.8944C24.3764 42.5788 24.0801 42.1854 23.879 41.7422C23.504 40.9359 23.4865 40.0676 23.8298 39.3586C24.7896 37.3664 27.0654 35.3508 29.9915 35.3309H30.0068C32.9365 35.3508 35.2111 37.3688 36.1697 39.3609C36.5119 40.0641 36.4943 40.9348 36.1193 41.7422C35.919 42.1845 35.624 42.5773 35.255 42.8928C34.886 43.2083 34.4521 43.4388 33.9841 43.568L33.9548 43.575C32.6565 43.8657 31.3302 44.0127 29.9998 44.0133ZM29.9998 34.4824C29.2719 34.4827 28.5603 34.267 27.955 33.8628C27.3497 33.4585 26.8779 32.8839 26.5992 32.2114C26.3206 31.539 26.2476 30.7991 26.3895 30.0852C26.5315 29.3713 26.882 28.7155 27.3966 28.2008C27.9113 27.6861 28.5671 27.3356 29.281 27.1937C29.9949 27.0518 30.7349 27.1247 31.4073 27.4034C32.0797 27.682 32.6544 28.1538 33.0586 28.7591C33.4629 29.3644 33.6785 30.076 33.6783 30.8039C33.677 31.7791 33.2891 32.7141 32.5995 33.4036C31.9099 34.0932 30.975 34.4812 29.9998 34.4824Z" fill="url(#paint2_linear_0_77)"/>
</g>
<defs>
<linearGradient id="paint0_linear_0_77" x1="44.8066" y1="45.3879" x2="12.5625" y2="13.1438" gradientUnits="userSpaceOnUse">
<stop stop-color="#CE1D26"/>
<stop offset="0.54" stop-color="#CE1D26"/>
<stop offset="1" stop-color="#F95353"/>
</linearGradient>
<linearGradient id="paint1_linear_0_77" x1="44.4164" y1="49.677" x2="15.5883" y2="20.8488" gradientUnits="userSpaceOnUse">
<stop stop-color="#EF3739"/>
<stop offset="0.54" stop-color="#EF3739"/>
<stop offset="1" stop-color="#FF8C8B"/>
</linearGradient>
<linearGradient id="paint2_linear_0_77" x1="35.6412" y1="42.5203" x2="24.363" y2="31.2422" gradientUnits="userSpaceOnUse">
<stop stop-color="#FFD2D2"/>
<stop offset="0.52" stop-color="white"/>
<stop offset="1" stop-color="white"/>
</linearGradient>
</defs>
</svg>
