<svg preserveAspectRatio="none" width="100%" height="100%" overflow="visible" style="display: block;" viewBox="0 0 20 20" fill="none" xmlns="http://www.w3.org/2000/svg">
<path id="Vector" d="M15.578 2.432L13.578 1.382C11.822 0.461 10.944 0 10 0C9.056 0 8.178 0.46 6.422 1.382L4.422 2.432C2.649 3.362 1.606 3.91 0.96 4.642L10 9.162L19.04 4.642C18.394 3.91 17.352 3.362 15.578 2.432ZM19.748 5.964L10.75 10.464V19.904C11.468 19.725 12.285 19.297 13.578 18.618L15.578 17.568C17.729 16.439 18.805 15.875 19.403 14.86C20 13.846 20 12.583 20 10.06V9.943C20 8.05 20 6.866 19.748 5.964ZM9.25 19.904V10.464L0.252 5.964C8.9407e-08 6.866 0 8.05 0 9.941V10.058C0 12.583 -1.19209e-07 13.846 0.597 14.86C1.195 15.875 2.271 16.44 4.422 17.569L6.422 18.618C7.715 19.297 8.532 19.725 9.25 19.904Z" fill="var(--fill-0, #7F7F7F)"/>
</svg>
