<svg preserveAspectRatio="none" width="100%" height="100%" overflow="visible" style="display: block;" viewBox="0 0 18 18" fill="none" xmlns="http://www.w3.org/2000/svg">
<g id="fluent:status-24-filled">
<path id="Vector" d="M12.019 2.2687C12.5113 1.77639 13.179 1.49982 13.8752 1.49982C14.22 1.49982 14.5613 1.56772 14.8798 1.69964C15.1983 1.83157 15.4877 2.02493 15.7315 2.2687C15.9752 2.51247 16.1686 2.80186 16.3005 3.12036C16.4325 3.43885 16.5004 3.78021 16.5004 4.12495C16.5004 4.46969 16.4325 4.81105 16.3005 5.12955C16.1686 5.44804 15.9752 5.73743 15.7315 5.9812L11.1865 10.5262C10.9265 10.7861 10.6018 10.9717 10.246 11.064L6.70373 11.982C6.60893 12.0065 6.50936 12.0059 6.41488 11.9801C6.3204 11.9544 6.23428 11.9044 6.16504 11.8351C6.09579 11.7659 6.04583 11.6798 6.02008 11.5853C5.99433 11.4908 5.99369 11.3913 6.01823 11.2965L6.93623 7.7542C7.02868 7.3983 7.2146 7.07359 7.47473 6.8137L12.019 2.2687ZM10.7485 2.4787C9.31321 2.09413 7.79114 2.19389 6.41834 2.76253C5.04555 3.33116 3.89875 4.33688 3.1558 5.62372C2.41285 6.91055 2.11527 8.40657 2.30922 9.87976C2.50317 11.353 3.17781 12.721 4.2285 13.7717C5.2792 14.8224 6.64723 15.497 8.12042 15.691C9.59361 15.8849 11.0896 15.5873 12.3765 14.8444C13.6633 14.1014 14.669 12.9546 15.2377 11.5818C15.8063 10.209 15.9061 8.68697 15.5215 7.2517L14.569 8.2042C14.6065 8.4642 14.6252 8.72945 14.6252 8.99995C14.6252 10.1465 14.2747 11.2656 13.6209 12.2074C12.9671 13.1493 12.041 13.8688 10.9669 14.2696C9.8927 14.6705 8.72168 14.7335 7.61069 14.4503C6.49969 14.1671 5.50177 13.5511 4.75061 12.6849C3.99945 11.8187 3.53091 10.7437 3.40777 9.60379C3.28462 8.46389 3.51275 7.31359 4.06159 6.30696C4.61043 5.30033 5.45378 4.48545 6.47865 3.97148C7.50352 3.45752 8.66098 3.26901 9.79598 3.4312L10.7485 2.4787Z" fill="var(--fill-0, white)"/>
</g>
</svg>
