<svg preserveAspectRatio="none" width="100%" height="100%" overflow="visible" style="display: block;" viewBox="0 0 15 15" fill="none" xmlns="http://www.w3.org/2000/svg">
<path id="Vector" fill-rule="evenodd" clip-rule="evenodd" d="M3.1065 3.1065C5.178 1.03575 6.213 0 7.5 0C8.787 0 9.822 1.035 11.8935 3.1065C13.965 5.178 15 6.213 15 7.5C15 8.787 13.965 9.822 11.8935 11.8935C9.822 13.965 8.787 15 7.5 15C6.213 15 5.178 13.965 3.1065 11.8935C1.035 9.822 0 8.787 0 7.5C0 6.213 1.035 5.178 3.1065 3.1065ZM8.8845 4.839C8.83058 4.78847 8.76723 4.74906 8.69807 4.72302C8.62892 4.69698 8.55531 4.68481 8.48145 4.68721C8.4076 4.68961 8.33494 4.70654 8.26762 4.73702C8.2003 4.76751 8.13965 4.81095 8.08912 4.86487C8.0386 4.9188 7.99919 4.98215 7.97314 5.0513C7.9471 5.12046 7.93493 5.19406 7.93734 5.26792C7.93974 5.34178 7.95666 5.41444 7.98715 5.48176C8.01763 5.54907 8.06108 5.60972 8.115 5.66025L9.07725 6.5625H6.50025C6.084 6.5625 5.46675 6.675 4.935 7.0335C4.374 7.41225 3.9375 8.05125 3.9375 9C3.9375 9.14918 3.99676 9.29226 4.10225 9.39775C4.20774 9.50324 4.35082 9.5625 4.5 9.5625C4.64918 9.5625 4.79226 9.50324 4.89775 9.39775C5.00324 9.29226 5.0625 9.14918 5.0625 9C5.0625 8.44875 5.29275 8.15025 5.565 7.9665C5.84461 7.78806 6.16857 7.69141 6.50025 7.6875H9.07725L8.115 8.58975C8.00873 8.6924 7.94711 8.83274 7.94346 8.98044C7.93982 9.12814 7.99443 9.27135 8.0955 9.37912C8.19657 9.4869 8.33599 9.55057 8.48362 9.5564C8.63125 9.56222 8.77525 9.50972 8.8845 9.41025L10.8848 7.53525C10.9408 7.48264 10.9855 7.41909 11.0161 7.34853C11.0466 7.27797 11.0624 7.20189 11.0624 7.125C11.0624 7.04811 11.0466 6.97203 11.0161 6.90147C10.9855 6.83091 10.9408 6.76736 10.8848 6.71475L8.8845 4.839Z" fill="var(--fill-0, #153860)"/>
</svg>
