<svg preserveAspectRatio="none" width="100%" height="100%" overflow="visible" style="display: block;" viewBox="0 0 18 17" fill="none" xmlns="http://www.w3.org/2000/svg">
<g id="Filter">
<path id="Stroke 1" d="M7.33016 13.0929H1.02944" stroke="var(--stroke-0, #E0FFEA)" stroke-width="1.5" stroke-linecap="round" stroke-linejoin="round"/>
<path id="Stroke 3" d="M10.1405 3.40038H16.4412" stroke="var(--stroke-0, #E0FFEA)" stroke-width="1.5" stroke-linecap="round" stroke-linejoin="round"/>
<path id="Stroke 5" fill-rule="evenodd" clip-rule="evenodd" d="M5.72629 3.34625C5.72629 2.0506 4.66813 1 3.36314 1C2.05816 1 1 2.0506 1 3.34625C1 4.64191 2.05816 5.69251 3.36314 5.69251C4.66813 5.69251 5.72629 4.64191 5.72629 3.34625Z" stroke="var(--stroke-0, #E0FFEA)" stroke-width="1.5" stroke-linecap="round" stroke-linejoin="round"/>
<path id="Stroke 7" fill-rule="evenodd" clip-rule="evenodd" d="M17 13.0537C17 11.7581 15.9427 10.7075 14.6377 10.7075C13.3319 10.7075 12.2737 11.7581 12.2737 13.0537C12.2737 14.3494 13.3319 15.4 14.6377 15.4C15.9427 15.4 17 14.3494 17 13.0537Z" stroke="var(--stroke-0, #E0FFEA)" stroke-width="1.5" stroke-linecap="round" stroke-linejoin="round"/>
</g>
</svg>
