<svg preserveAspectRatio="none" width="100%" height="100%" overflow="visible" style="display: block;" viewBox="0 0 50 50" fill="none" xmlns="http://www.w3.org/2000/svg">
<g id="History" clip-path="url(#clip0_0_4)">
<path id="Vector" d="M25.2512 1.14795C12.0372 1.14795 1.3252 11.86 1.3252 25.0739C1.3252 37.239 10.4043 47.283 22.1561 48.801H28.3466C40.0982 47.2829 49.1772 37.239 49.1772 25.0739C49.1772 11.86 38.4651 1.14795 25.2512 1.14795Z" fill="var(--fill-0, #126D8A)"/>
<path id="Vector_2" d="M22.7909 8.47168C11.0252 8.47168 1.4873 18.0096 1.4873 29.7752C1.4873 31.6822 1.73946 33.53 2.20943 35.2886C6.1317 43.9636 14.8613 50 25.0007 50C27.399 50 29.718 49.6616 31.9133 49.0311C39.1147 45.6135 44.0944 38.2763 44.0944 29.7752C44.0948 18.0096 34.5565 8.47168 22.7909 8.47168Z" fill="var(--fill-0, #ECEBED)"/>
<path id="Vector_3" d="M10.6128 27.4929C10.6128 18.948 15.8035 11.6162 23.2036 8.47706C11.2281 8.25047 1.4873 17.8914 1.4873 29.7753C1.4873 31.6822 1.73946 33.5301 2.20943 35.289C6.1317 43.9637 14.8613 50 25.0007 50C27.399 50 29.718 49.6617 31.9133 49.0311C32.5836 48.713 33.2347 48.3609 33.8642 47.9771C21.4427 49.54 10.6128 39.8556 10.6128 27.4929Z" fill="var(--fill-0, #D4D1DA)"/>
<path id="Vector_4" d="M39.7643 29.7278C39.7643 39.1024 32.1651 46.702 22.7905 46.702C13.4162 46.702 5.81658 39.1024 5.81658 29.7278C5.81658 20.3535 13.4162 12.7539 22.7905 12.7539C32.1651 12.7539 39.7643 20.3535 39.7643 29.7278Z" fill="var(--fill-0, #D4D1DA)"/>
<path id="Vector_5" d="M10.6124 27.4928C10.6124 22.597 12.3172 18.0998 15.1645 14.5606C9.62022 17.3537 5.81658 23.0963 5.81658 29.7278C5.81658 39.1024 13.4162 46.7021 22.7905 46.7021C23.0701 46.7021 23.3482 46.6948 23.6244 46.6815C16.0011 43.6453 10.6124 36.1987 10.6124 27.4928Z" fill="var(--fill-0, #BCB7C6)"/>
<path id="Vector_6" d="M22.0447 12.7711V14.1196C22.0447 14.5312 22.3789 14.8653 22.7905 14.8653C23.2025 14.8653 23.5367 14.5312 23.5367 14.1196V12.7711C23.0133 12.7486 22.5818 12.7478 22.0447 12.7711Z" fill="var(--fill-0, #BCB7C6)"/>
<path id="Vector_7" d="M22.7905 44.5906C22.3785 44.5906 22.0447 44.9248 22.0447 45.3364V46.6849C22.2923 46.6952 22.5406 46.702 22.7905 46.702C23.0407 46.702 23.2891 46.6952 23.5363 46.6849V45.3364C23.5363 44.9248 23.2025 44.5906 22.7905 44.5906Z" fill="var(--fill-0, #A7A3AF)"/>
<path id="Vector_8" d="M5.83375 30.4736H7.18186C7.59385 30.4736 7.92764 30.1398 7.92764 29.7278C7.92764 29.3158 7.59385 28.982 7.18186 28.982H5.83375C5.82307 29.2296 5.81658 29.4779 5.81658 29.7278C5.81658 29.978 5.82307 30.2264 5.83375 30.4736Z" fill="var(--fill-0, #A7A3AF)"/>
<path id="Vector_9" d="M39.7472 28.982H38.3991C37.9871 28.982 37.6533 29.3162 37.6533 29.7278C37.6533 30.1398 37.9871 30.4739 38.3991 30.4739H39.7472C39.7579 30.2264 39.7644 29.978 39.7644 29.7278C39.7648 29.4779 39.7579 29.2296 39.7472 28.982Z" fill="var(--fill-0, #BCB7C6)"/>
<path id="Vector_10" d="M22.7905 27.4909C23.2837 27.4909 23.7437 27.632 24.1328 27.8754V18.2627C24.1328 17.5211 23.532 16.9203 22.7905 16.9203C22.0493 16.9203 21.4481 17.5211 21.4481 18.2627V27.8754C21.8375 27.632 22.2976 27.4909 22.7905 27.4909Z" fill="var(--fill-0, #126D8A)"/>
<path id="Vector_11" d="M22.7905 24.0668C22.0493 24.0668 21.4481 23.466 21.4481 22.7244V27.8754C21.8375 27.632 22.2976 27.4908 22.7905 27.4908C23.2837 27.4908 23.7437 27.632 24.1328 27.8754V22.7244C24.1328 23.466 23.532 24.0668 22.7905 24.0668Z" fill="var(--fill-0, #126D8A)"/>
<g id="Group">
<path id="Vector_12" d="M22.8565 32.1324C21.6263 32.1324 20.6066 31.2329 20.4182 30.0557L18.5093 36.662C18.4372 36.9111 18.7469 37.09 18.9266 36.9031L23.6362 32.0061C23.3909 32.0878 23.1293 32.1324 22.8565 32.1324Z" fill="var(--fill-0, #FFB300)"/>
<path id="Vector_13" d="M0.12088 27.4575C0.781204 34.2217 4.13585 40.1959 9.09877 44.2918C7.14336 42.455 5.51906 40.1791 4.39105 37.5012C-1.18527 24.3081 8.60171 9.75426 22.8111 9.75426C32.7556 9.75426 41.1518 17.0975 42.5838 26.8147L39.8483 24.6613C39.2349 24.178 38.3449 24.2837 37.8612 24.8978C37.3779 25.5116 37.4839 26.4016 38.0977 26.8849L43.4761 31.1188C44.0876 31.6003 44.9779 31.4992 45.4631 30.8823L49.6974 25.504C50.1831 24.8872 50.0686 23.9953 49.4609 23.5169C48.8471 23.0336 47.9572 23.1393 47.4739 23.7534L45.3876 26.4031C43.5531 13.8169 31.4483 4.7448 18.2998 7.3674C7.65185 9.5372 1.07303 18.1363 0.12088 27.4575Z" fill="var(--fill-0, #00C188)"/>
<path id="Vector_14" d="M39.4298 45.4175C41.2773 43.4548 42.8219 41.0981 43.9392 38.3595C44.2341 37.6359 43.8869 36.81 43.1633 36.5151C42.4392 36.2199 41.6137 36.567 41.3185 37.2906C40.3118 39.7591 38.8794 41.9408 36.9446 43.8752C32.2727 48.5474 26.1444 50.3007 20.3628 49.569C21.8658 49.8509 23.4157 50.0001 25.0007 50.0001C30.3753 50.0001 35.3534 48.3037 39.4298 45.4175Z" fill="var(--fill-0, #00C188)"/>
</g>
<path id="Vector_15" d="M24.9859 28.4594C24.2855 27.2467 22.7348 26.8313 21.5221 27.5313C20.3094 28.2317 19.894 29.7823 20.5944 30.995C21.2944 32.2077 22.8451 32.6231 24.0577 31.9231C25.2704 31.2228 25.6859 29.6721 24.9859 28.4594Z" fill="var(--fill-0, #58596C)"/>
<path id="Vector_16" d="M21.5594 33.453C21.6537 33.6159 21.7174 33.788 21.754 33.9623L23.6354 32.0061C23.3901 32.0878 23.1284 32.1324 22.8557 32.1324C21.6254 32.1324 20.6058 31.2329 20.4173 30.0557L19.6738 32.6298C20.3956 32.465 21.17 32.7782 21.5594 33.453Z" fill="var(--fill-0, #FFB300)"/>
<path id="Vector_17" d="M22.7909 27.1925C22.3598 27.1922 21.923 27.3013 21.5229 27.532C20.3102 28.2324 19.8947 29.7831 20.5947 30.9958C21.2951 32.2085 22.8458 32.6239 24.0585 31.9235C24.4583 31.6927 24.7711 31.3689 24.9862 30.9954C23.0342 30.9935 21.817 28.8836 22.7909 27.1925Z" fill="var(--fill-0, #484A5E)"/>
<path id="Vector_18" d="M4.39029 37.5009C-0.873611 25.0475 7.55229 11.381 20.4654 9.88864C19.2268 9.38167 19.16 7.64903 20.3632 7.05127C9.18803 8.26663 1.19205 16.9607 0.120117 27.4572C0.780441 34.2215 4.13509 40.1956 9.09801 44.2915C7.14297 42.4547 5.5183 40.1789 4.39029 37.5009Z" fill="var(--fill-0, #00C188)"/>
<path id="Vector_19" d="M30.6988 48.1314C27.3853 49.5566 23.8125 50.0052 20.3624 49.5688C21.8654 49.8507 23.4154 49.9998 25.0004 49.9998C26.923 49.9998 28.7945 49.7816 30.5923 49.3708C30.4516 48.952 30.4958 48.5052 30.6988 48.1314Z" fill="var(--fill-0, #00C188)"/>
</g>
<defs>
<clipPath id="clip0_0_4">
<rect width="50" height="50" fill="white"/>
</clipPath>
</defs>
</svg>
