<svg preserveAspectRatio="none" width="100%" height="100%" overflow="visible" style="display: block;" viewBox="0 0 23 19" fill="none" xmlns="http://www.w3.org/2000/svg">
<path id="Vector" fill-rule="evenodd" clip-rule="evenodd" d="M22.5723 10.4616L21.2752 5.17064C21.1931 4.83506 20.8923 4.59928 20.5468 4.59928H18.6089L17.0858 11.3992C17.0087 11.748 16.6994 11.9883 16.3563 11.988H1.6208L0.744047 15.9038C0.639188 16.37 0.998203 16.8173 1.47572 16.8173H2.08556C2.03489 14.6982 3.73739 12.9564 5.85342 12.9564C7.96945 12.9564 9.67195 14.6982 9.62128 16.8173H12.305C12.2543 14.6982 13.9568 12.9564 16.0729 12.9564C18.1889 12.9564 19.8914 14.6982 19.8407 16.8173H20.6279C20.9789 16.8173 21.2832 16.574 21.36 16.2314L22.5757 10.8042C22.6007 10.6912 22.5998 10.5741 22.5723 10.4616ZM17.6773 15.1209C18.5633 16.0069 18.5633 17.4438 17.6773 18.3298C16.7913 19.2158 15.3544 19.2158 14.4684 18.3298C13.5824 17.4438 13.5824 16.0069 14.4684 15.1209C15.3544 14.2349 16.7913 14.2349 17.6773 15.1209ZM7.45786 15.1209C8.34384 16.0069 8.34384 17.4438 7.45786 18.3298C6.57188 19.2158 5.13492 19.2158 4.24894 18.3298C3.36295 17.4438 3.36295 16.0069 4.24894 15.1209C5.13492 14.2349 6.57188 14.2349 7.45786 15.1209ZM17.8881 0.914016C17.1716 4.11253 16.477 7.28119 15.7587 10.488H1.95666L2.35027 8.73047H1.11328C0.698906 8.73047 0.363328 8.39489 0.363328 7.98052C0.363328 7.56614 0.698906 7.23056 1.11328 7.23056H2.68655L3.16041 5.11542H1.11328C0.698906 5.11542 0.363328 4.77942 0.363328 4.36547C0.363328 3.95109 0.698906 3.61552 1.11328 3.61552H3.49636L3.97041 1.49995H0.749953C0.335766 1.49991 0 1.16433 0 0.749953C0 0.336 0.335766 0 0.749953 0H17.1562C17.6343 0 17.992 0.447844 17.8881 0.914016Z" fill="var(--fill-0, white)"/>
</svg>
