<svg preserveAspectRatio="none" width="100%" height="100%" overflow="visible" style="display: block;" viewBox="0 0 24 24" fill="none" xmlns="http://www.w3.org/2000/svg">
<g id="tabler:device-mobile-share">
<path id="Vector" d="M11.8 21.8947H7.26667C6.66551 21.8947 6.08897 21.6618 5.66389 21.2473C5.23881 20.8327 5 20.2705 5 19.6842V4.21053C5 3.62426 5.23881 3.062 5.66389 2.64745C6.08897 2.23289 6.66551 2 7.26667 2H16.3333C16.9345 2 17.511 2.23289 17.9361 2.64745C18.3612 3.062 18.6 3.62426 18.6 4.21053V13.0526M10.6667 3.10526H12.9333M16.3333 23L22 17.4737M22 17.4737V22.4474M22 17.4737H16.9M11.8 17.4737V17.4847" stroke="var(--stroke-0, #7F7F7F)" stroke-width="2" stroke-linecap="round" stroke-linejoin="round"/>
</g>
</svg>
