<svg preserveAspectRatio="none" width="100%" height="100%" overflow="visible" style="display: block;" viewBox="0 0 24 24" fill="none" xmlns="http://www.w3.org/2000/svg">
<g id="la:qrcode">
<path id="Vector" d="M1 1V9H3V11H5V9H9V1H1ZM9 9V11H11V13H7V15H1V23H9V15H15V13H13V11H17V9H19V11H21V9H23V1H15V9H9ZM21 11V13H23V11H21ZM21 13H19V15H21V13ZM21 15V17H23V15H21ZM21 17H19V15H17V17H12V23H14V19H18V21H20V19H21V17ZM18 21H16V23H18V21ZM19 13V11H17V13H19ZM7 13V11H5V13H7ZM3 11H1V13H3V11ZM11 1V5H10V7H11V8H13V5H14V3H13V1H11ZM3 3H7V7H3V3ZM17 3H21V7H17V3ZM4 4V6H6V4H4ZM18 4V6H20V4H18ZM3 17H7V21H3V17ZM4 18V20H6V18H4ZM21 21V23H23V21H21Z" fill="var(--fill-0, #7F7F7F)"/>
</g>
</svg>
