<svg preserveAspectRatio="none" width="100%" height="100%" overflow="visible" style="display: block;" viewBox="0 0 21 19" fill="none" xmlns="http://www.w3.org/2000/svg">
<g id="Camera">
<path id="Stroke 1" fill-rule="evenodd" clip-rule="evenodd" d="M13.29 1.3015C14.3 1.7035 14.609 3.1035 15.022 3.5535C15.435 4.0035 16.026 4.1565 16.353 4.1565C18.091 4.1565 19.5 5.5655 19.5 7.3025V13.0975C19.5 15.4275 17.61 17.3175 15.28 17.3175H5.22C2.889 17.3175 1 15.4275 1 13.0975V7.3025C1 5.5655 2.409 4.1565 4.147 4.1565C4.473 4.1565 5.064 4.0035 5.478 3.5535C5.891 3.1035 6.199 1.7035 7.209 1.3015C8.22 0.8995 12.28 0.8995 13.29 1.3015Z" stroke="var(--stroke-0, #454545)" stroke-width="1.5" stroke-linecap="round" stroke-linejoin="round"/>
<path id="Stroke 13" d="M15.7453 6.7502H15.7543" stroke="var(--stroke-0, #454545)" stroke-width="2" stroke-linecap="round" stroke-linejoin="round"/>
<path id="Stroke 5" fill-rule="evenodd" clip-rule="evenodd" d="M13.4287 10.3782C13.4287 8.6222 12.0057 7.1992 10.2497 7.1992C8.4937 7.1992 7.0707 8.6222 7.0707 10.3782C7.0707 12.1342 8.4937 13.5572 10.2497 13.5572C12.0057 13.5572 13.4287 12.1342 13.4287 10.3782Z" stroke="var(--stroke-0, #454545)" stroke-width="1.5" stroke-linecap="round" stroke-linejoin="round"/>
</g>
</svg>
