<svg preserveAspectRatio="none" width="100%" height="100%" overflow="visible" style="display: block;" viewBox="0 0 21 21" fill="none" xmlns="http://www.w3.org/2000/svg">
<g id="Image 2">
<path id="Stroke 1" fill-rule="evenodd" clip-rule="evenodd" d="M14.553 1H5.901C2.889 1 1 3.134 1 6.154V14.3C1 17.32 2.881 19.454 5.901 19.454H14.548C17.573 19.454 19.453 17.32 19.453 14.3V6.154C19.457 3.134 17.576 1 14.553 1Z" stroke="var(--stroke-0, #454545)" stroke-width="1.5" stroke-linecap="round" stroke-linejoin="round"/>
<path id="Stroke 3" fill-rule="evenodd" clip-rule="evenodd" d="M8.9534 7.0352C8.9534 8.0552 8.1274 8.8812 7.1074 8.8812C6.0884 8.8812 5.2614 8.0552 5.2614 7.0352C5.2614 6.0152 6.0884 5.1892 7.1074 5.1892C8.1264 5.1902 8.9524 6.0162 8.9534 7.0352Z" stroke="var(--stroke-0, #454545)" stroke-width="1.5" stroke-linecap="round" stroke-linejoin="round"/>
<path id="Stroke 5" d="M19.4573 13.2012C18.5343 12.2512 16.7593 10.3322 14.8293 10.3322C12.8983 10.3322 11.7853 14.5652 9.9283 14.5652C8.0713 14.5652 6.3843 12.6512 4.8963 13.8782C3.4083 15.1042 2.0003 17.6112 2.0003 17.6112" stroke="var(--stroke-0, #454545)" stroke-width="1.5" stroke-linecap="round" stroke-linejoin="round"/>
</g>
</svg>
