<svg preserveAspectRatio="none" width="100%" height="100%" overflow="visible" style="display: block;" viewBox="0 0 23 17" fill="none" xmlns="http://www.w3.org/2000/svg">
<g id="Group">
<path id="Vector" opacity="0.2" d="M21.75 8.625C21.75 10.4887 18.3919 12 14.25 12C12.4125 12 10.7287 11.7028 9.42469 11.2087C13.0087 10.9547 15.75 9.5625 15.75 7.875V5.3175C19.1738 5.63063 21.75 6.99187 21.75 8.625ZM15.75 4.125C15.75 2.26125 12.3919 0.75 8.25 0.75C4.10812 0.75 0.75 2.26125 0.75 4.125C0.75 5.98875 4.10812 7.5 8.25 7.5C12.3919 7.5 15.75 5.98875 15.75 4.125Z" fill="var(--fill-0, #0A8778)"/>
<path id="Vector_2" d="M16.5 4.64719V4.125C16.5 1.77375 12.9534 0 8.25 0C3.54656 0 0 1.77375 0 4.125V7.875C0 9.83344 2.46094 11.3897 6 11.8556V12.375C6 14.7262 9.54656 16.5 14.25 16.5C18.9534 16.5 22.5 14.7262 22.5 12.375V8.625C22.5 6.68437 20.1169 5.12625 16.5 4.64719ZM21 8.625C21 9.86438 18.1134 11.25 14.25 11.25C13.9003 11.25 13.5534 11.2378 13.2112 11.2153C15.2334 10.4784 16.5 9.28125 16.5 7.875V6.16312C19.3003 6.58031 21 7.71281 21 8.625ZM6 10.3359V8.10562C6.74605 8.20276 7.49765 8.25099 8.25 8.25C9.00235 8.25099 9.75395 8.20276 10.5 8.10562V10.3359C9.75507 10.446 9.00302 10.5008 8.25 10.5C7.49698 10.5008 6.74493 10.446 6 10.3359ZM15 6.55594V7.875C15 8.66156 13.8366 9.50625 12 10.0191V7.82812C13.2103 7.53469 14.235 7.09781 15 6.55594ZM8.25 1.5C12.1134 1.5 15 2.88562 15 4.125C15 5.36438 12.1134 6.75 8.25 6.75C4.38656 6.75 1.5 5.36438 1.5 4.125C1.5 2.88562 4.38656 1.5 8.25 1.5ZM1.5 7.875V6.55594C2.265 7.09781 3.28969 7.53469 4.5 7.82812V10.0191C2.66344 9.50625 1.5 8.66156 1.5 7.875ZM7.5 12.375V11.9841C7.74656 11.9934 7.99594 12 8.25 12C8.61375 12 8.96906 11.9878 9.31781 11.9672C9.70525 12.1059 10.0999 12.2235 10.5 12.3197V14.5191C8.66344 14.0062 7.5 13.1616 7.5 12.375ZM12 14.8359V12.6C12.7458 12.7003 13.4975 12.7504 14.25 12.75C15.0023 12.751 15.754 12.7028 16.5 12.6056V14.8359C15.008 15.0546 13.492 15.0546 12 14.8359ZM18 14.5191V12.3281C19.2103 12.0347 20.235 11.5978 21 11.0559V12.375C21 13.1616 19.8366 14.0062 18 14.5191Z" fill="var(--fill-0, #0A8778)"/>
</g>
</svg>
