<svg preserveAspectRatio="none" width="100%" height="100%" overflow="visible" style="display: block;" viewBox="0 0 18 18" fill="none" xmlns="http://www.w3.org/2000/svg">
<g id="octicon:report-16" clip-path="url(#clip0_0_169)">
<path id="Vector" d="M0 1.96875C0 0.882 0.882 0 1.96875 0H16.0312C17.118 0 18 0.882 18 1.96875V12.6562C18 13.1784 17.7926 13.6792 17.4234 14.0484C17.0542 14.4176 16.5534 14.625 16.0312 14.625H9.0675L6.17287 17.5196C5.94343 17.7482 5.65146 17.9037 5.33376 17.9666C5.01606 18.0295 4.68685 17.9969 4.38763 17.873C4.08841 17.7491 3.83257 17.5394 3.65236 17.2703C3.47216 17.0012 3.37565 16.6847 3.375 16.3609V14.625H1.96875C1.44661 14.625 0.945846 14.4176 0.576633 14.0484C0.207421 13.6792 0 13.1784 0 12.6562L0 1.96875ZM1.96875 1.6875C1.89416 1.6875 1.82262 1.71713 1.76988 1.76988C1.71713 1.82262 1.6875 1.89416 1.6875 1.96875V12.6562C1.6875 12.8115 1.8135 12.9375 1.96875 12.9375H4.21875C4.44253 12.9375 4.65714 13.0264 4.81537 13.1846C4.97361 13.3429 5.0625 13.5575 5.0625 13.7812V16.245L8.1225 13.185C8.28058 13.0267 8.49505 12.9377 8.71875 12.9375H16.0312C16.1058 12.9375 16.1774 12.9079 16.2301 12.8551C16.2829 12.8024 16.3125 12.7308 16.3125 12.6562V1.96875C16.3125 1.89416 16.2829 1.82262 16.2301 1.76988C16.1774 1.71713 16.1058 1.6875 16.0312 1.6875H1.96875ZM9.84375 4.21875V7.03125C9.84375 7.25503 9.75485 7.46964 9.59662 7.62787C9.43839 7.78611 9.22378 7.875 9 7.875C8.77622 7.875 8.56161 7.78611 8.40338 7.62787C8.24514 7.46964 8.15625 7.25503 8.15625 7.03125V4.21875C8.15625 3.99497 8.24514 3.78036 8.40338 3.62213C8.56161 3.46389 8.77622 3.375 9 3.375C9.22378 3.375 9.43839 3.46389 9.59662 3.62213C9.75485 3.78036 9.84375 3.99497 9.84375 4.21875ZM10.125 10.125C10.125 10.4234 10.0065 10.7095 9.79549 10.9205C9.58452 11.1315 9.29837 11.25 9 11.25C8.70163 11.25 8.41548 11.1315 8.20451 10.9205C7.99353 10.7095 7.875 10.4234 7.875 10.125C7.875 9.82663 7.99353 9.54048 8.20451 9.32951C8.41548 9.11853 8.70163 9 9 9C9.29837 9 9.58452 9.11853 9.79549 9.32951C10.0065 9.54048 10.125 9.82663 10.125 10.125Z" fill="var(--fill-0, #153860)"/>
</g>
<defs>
<clipPath id="clip0_0_169">
<rect width="18" height="18" fill="white"/>
</clipPath>
</defs>
</svg>
