<svg width="24" height="24" viewBox="0 0 24 24" fill="none" xmlns="http://www.w3.org/2000/svg">
  <rect x="3" y="13" width="18" height="7" rx="3.5" fill="#153860" />
  <path
    d="M12 4C11.5858 4 11.25 4.33579 11.25 4.75V11.1893L9.53033 9.46967C9.23744 9.17678 8.76256 9.17678 8.46967 9.46967C8.17678 9.76256 8.17678 10.2374 8.46967 10.5303L11.4697 13.5303C11.7626 13.8232 12.2374 13.8232 12.5303 13.5303L15.5303 10.5303C15.8232 10.2374 15.8232 9.76256 15.5303 9.46967C15.2374 9.17678 14.7626 9.17678 14.4697 9.46967L12.75 11.1893V4.75C12.75 4.33579 12.4142 4 12 4Z"
    fill="#FFFFFF"
  />
</svg>









