<svg preserveAspectRatio="none" width="100%" height="100%" overflow="visible" style="display: block;" viewBox="0 0 48 56" fill="none" xmlns="http://www.w3.org/2000/svg">
<g id="Group">
<path id="Vector" d="M23.926 7.58081C10.712 7.58081 0 18.2928 0 31.5068C0 43.6718 9.0791 53.7159 20.8309 55.2338H27.0214C38.7731 53.7158 47.852 43.6718 47.852 31.5068C47.852 18.2928 37.1399 7.58081 23.926 7.58081Z" fill="var(--fill-0, #126D8A)"/>
<path id="Vector_2" d="M33.2016 27.8383C38.3265 22.7134 38.3265 14.4043 33.2016 9.27944C28.0767 4.15455 19.7676 4.15455 14.6427 9.27944C9.51783 14.4043 9.51783 22.7134 14.6427 27.8383C19.7676 32.9632 28.0767 32.9632 33.2016 27.8383Z" fill="var(--fill-0, #FFDD40)"/>
<path id="Vector_3" d="M10.8018 18.5576C10.8018 25.8064 16.678 31.6827 23.9269 31.6827C27.4312 31.6827 30.6121 30.3067 32.966 28.0689C32.9055 28.0166 32.8304 27.9806 32.7469 27.9697C31.9283 27.8635 31.7788 27.3274 31.7753 26.962C31.7734 26.7669 31.6426 26.5996 31.4532 26.5527C30.5521 26.3296 30.3919 25.6772 30.3838 25.2731C30.3799 25.077 30.2347 24.9146 30.0419 24.8775C26.8313 24.2614 27.0346 21.7579 27.1155 21.2263C27.127 21.1509 27.1188 21.0748 27.0895 21.0044C26.9313 20.6235 26.2676 19.432 23.9269 18.5577C21.6388 17.703 21.5821 15.2835 21.6426 14.3988C21.6557 14.2074 21.5354 14.0369 21.3539 13.9744C19.5321 13.3468 19.5457 11.6663 19.6498 10.9214C19.6779 10.7199 19.5569 10.533 19.365 10.4657C18.4611 10.1488 18.4367 9.37676 18.5078 8.92998C18.5374 8.74473 18.4359 8.56953 18.2642 8.49424C17.6684 8.23321 17.6011 7.69063 17.6285 7.33819C17.6358 7.24375 17.611 7.15352 17.5632 7.07842C13.5314 9.31846 10.8018 13.6185 10.8018 18.5576Z" fill="var(--fill-0, #FFB332)"/>
<path id="Vector_4" d="M32.838 20.0033C33.6364 15.0784 30.2911 10.4387 25.3662 9.64035C20.4412 8.84198 15.8016 12.1872 15.0032 17.1122C14.2048 22.0371 17.5501 26.6768 22.475 27.4752C27.4 28.2735 32.0396 24.9283 32.838 20.0033Z" fill="var(--fill-0, #FCECA9)"/>
<path id="Vector_5" d="M30.2628 24.9962C30.2039 24.9373 30.1279 24.8945 30.0413 24.8779C26.8307 24.2618 27.034 21.7582 27.115 21.2266C27.1264 21.1512 27.1183 21.0751 27.089 21.0047C26.9308 20.6239 26.267 19.4324 23.9263 18.558C21.6382 17.7034 21.5816 15.2838 21.642 14.3992C21.6551 14.2077 21.5348 14.0372 21.3533 13.9747C19.5316 13.3471 19.5451 11.6666 19.6492 10.9217C19.6639 10.8171 19.6376 10.7169 19.5827 10.6349C16.7868 12.1709 14.8914 15.1427 14.8914 18.558C14.8914 23.5479 18.9364 27.5929 23.9263 27.5929C26.3953 27.5928 28.632 26.6015 30.2628 24.9962Z" fill="var(--fill-0, #FFDD40)"/>
<path id="Vector_6" d="M23.9258 7.2739C17.7037 7.2739 12.6418 12.3359 12.6418 18.5579C12.6418 24.7799 17.7038 29.8419 23.9258 29.8419C30.1478 29.8419 35.2098 24.7799 35.2098 18.5579C35.2098 12.3359 30.1479 7.2739 23.9258 7.2739ZM23.9258 27.5928C18.936 27.5928 14.891 23.5477 14.891 18.558C14.891 13.5681 18.936 9.52311 23.9258 9.52311C28.9157 9.52311 32.9607 13.5681 32.9607 18.558C32.9607 23.5477 28.9157 27.5928 23.9258 27.5928Z" fill="var(--fill-0, #FFB332)"/>
<path id="Vector_7" d="M23.9259 29.8422C26.9369 29.8422 29.6738 28.6545 31.6993 26.7259C31.6422 26.6423 31.5567 26.579 31.4522 26.5531C30.551 26.33 30.3909 25.6775 30.3828 25.2735C30.3806 25.1654 30.3345 25.0687 30.2623 24.9964C28.6316 26.6016 26.3949 27.593 23.9258 27.593C18.936 27.593 14.891 23.5479 14.891 18.5581C14.891 15.1429 16.7865 12.171 19.5823 10.635C19.5315 10.559 19.4563 10.4985 19.364 10.4661C18.4601 10.1492 18.4357 9.37715 18.5068 8.93037C18.5206 8.84365 18.5048 8.75957 18.4674 8.68642C14.9968 10.6131 12.6418 14.315 12.6418 18.558C12.6419 24.7802 17.7038 29.8422 23.9259 29.8422Z" fill="var(--fill-0, #FF9100)"/>
<path id="Vector_8" d="M33.1995 36.16C38.3244 31.0351 38.3244 22.726 33.1996 17.6012C28.0747 12.4763 19.7657 12.4763 14.6408 17.6012C9.51588 22.7261 9.51585 31.0352 14.6407 36.16C19.7656 41.2849 28.0746 41.2849 33.1995 36.16Z" fill="var(--fill-0, #FFDD40)"/>
<path id="Vector_9" d="M10.8018 26.8799C10.8018 34.1287 16.678 40.0049 23.9269 40.0049C27.4312 40.0049 30.6121 38.6289 32.966 36.3911C32.9055 36.3388 32.8304 36.3027 32.7469 36.2919C31.9283 36.1856 31.7788 35.6496 31.7753 35.2842C31.7734 35.0891 31.6426 34.9218 31.4532 34.8749C30.5521 34.6518 30.3919 33.9993 30.3838 33.5953C30.3799 33.3991 30.2347 33.2367 30.0419 33.1997C26.8313 32.5836 27.0346 30.0801 27.1155 29.5485C27.127 29.4731 27.1188 29.3971 27.0895 29.3267C26.9313 28.9458 26.2676 27.7543 23.9269 26.88C21.6388 26.0253 21.5821 23.6058 21.6426 22.7211C21.6557 22.5297 21.5354 22.3592 21.3539 22.2967C19.5321 21.669 19.5457 19.9886 19.6498 19.2437C19.6779 19.0422 19.5569 18.8553 19.365 18.788C18.4611 18.4711 18.4367 17.699 18.5078 17.2522C18.5374 17.067 18.4359 16.8918 18.2642 16.8165C17.6684 16.5554 17.6011 16.0129 17.6285 15.6605C17.6358 15.5661 17.611 15.4759 17.5632 15.4007C13.5314 17.6406 10.8018 21.9406 10.8018 26.8799Z" fill="var(--fill-0, #FFB332)"/>
<path id="Vector_10" d="M30.3085 33.2678C33.8363 29.74 33.8363 24.0203 30.3085 20.4925C26.7807 16.9647 21.0611 16.9647 17.5332 20.4925C14.0054 24.0203 14.0054 29.74 17.5332 33.2678C21.0611 36.7956 26.7807 36.7956 30.3085 33.2678Z" fill="var(--fill-0, #FCECA9)"/>
<path id="Vector_11" d="M30.2628 33.3184C30.2039 33.2595 30.1279 33.2167 30.0413 33.2001C26.8307 32.5839 27.034 30.0804 27.115 29.5489C27.1264 29.4735 27.1183 29.3974 27.089 29.327C26.9308 28.9462 26.267 27.7546 23.9263 26.8803C21.6382 26.0256 21.5816 23.6061 21.642 22.7214C21.6551 22.53 21.5348 22.3595 21.3533 22.297C19.5316 21.6694 19.5451 19.9889 19.6492 19.244C19.6639 19.1394 19.6376 19.0392 19.5827 18.9572C16.7868 20.4932 14.8914 23.465 14.8914 26.8803C14.8914 31.8702 18.9364 35.9152 23.9263 35.9152C26.3953 35.915 28.632 34.9236 30.2628 33.3184Z" fill="var(--fill-0, #FFDD40)"/>
<path id="Vector_12" d="M23.9258 15.5956C17.7037 15.5956 12.6418 20.6576 12.6418 26.8796C12.6418 33.1016 17.7038 38.1636 23.9258 38.1636C30.1478 38.1636 35.2098 33.1016 35.2098 26.8796C35.2098 20.6576 30.1479 15.5956 23.9258 15.5956ZM23.9258 35.9145C18.936 35.9145 14.891 31.8693 14.891 26.8796C14.891 21.8897 18.936 17.8447 23.9258 17.8447C28.9157 17.8447 32.9607 21.8897 32.9607 26.8796C32.9607 31.8694 28.9157 35.9145 23.9258 35.9145Z" fill="var(--fill-0, #FFB332)"/>
<path id="Vector_13" d="M23.9259 38.1644C26.9369 38.1644 29.6738 36.9767 31.6993 35.0481C31.6422 34.9645 31.5567 34.9012 31.4522 34.8753C30.551 34.6522 30.3909 33.9997 30.3828 33.5957C30.3806 33.4876 30.3345 33.3908 30.2623 33.3186C28.6316 34.9238 26.3949 35.9152 23.9258 35.9152C18.936 35.9152 14.891 31.8701 14.891 26.8803C14.891 23.4651 16.7865 20.4932 19.5823 18.9572C19.5315 18.8812 19.4563 18.8207 19.364 18.7884C18.4601 18.4715 18.4357 17.6994 18.5068 17.2527C18.5206 17.1659 18.5048 17.0819 18.4674 17.0087C14.9968 18.9354 12.6418 22.6373 12.6418 26.8803C12.6419 33.1024 17.7038 38.1644 23.9259 38.1644Z" fill="var(--fill-0, #FF9100)"/>
<path id="Vector_14" d="M27.6427 46.4509C27.252 45.0054 27.3789 43.895 28.0196 43.1508C28.8434 42.1941 30.3363 42.0544 31.1383 42.0544C31.4635 42.0544 31.6752 42.0773 31.6823 42.0782L31.7412 42.0849L31.8037 42.0371L26.1125 36.3563C24.904 35.1503 22.9478 35.1503 21.7392 36.3563L12.7239 45.3549C11.514 46.5625 11.5121 48.5223 12.7197 49.7322C13.9276 50.9424 15.8875 50.9438 17.0973 49.7363L20.3507 46.4889C20.5279 46.312 20.8306 46.4376 20.8306 46.688V55.2338C21.844 55.3647 22.8769 55.4328 23.9258 55.4328C24.9748 55.4328 26.0078 55.3647 27.0212 55.2339V46.6883C27.0212 46.4378 27.3239 46.3123 27.5012 46.4892L27.7159 46.7036C27.6914 46.6193 27.6659 46.537 27.6427 46.4509Z" fill="var(--fill-0, #00C188)"/>
<g id="Group_2">
<path id="Vector_15" d="M5.94107 23.5226H3.09907C2.5772 23.5226 2.15425 23.0996 2.15425 22.5777C2.15425 22.0558 2.5773 21.6329 3.09907 21.6329H5.94097C6.46284 21.6329 6.88589 22.0559 6.88589 22.5777C6.88589 23.0996 6.46284 23.5226 5.94107 23.5226Z" fill="var(--fill-0, #FCECA9)"/>
</g>
<g id="Group_3">
<path id="Vector_16" d="M44.7525 23.5226H41.9105C41.3886 23.5226 40.9656 23.0996 40.9656 22.5777C40.9656 22.0558 41.3887 21.6329 41.9105 21.6329H44.7525C45.2743 21.6329 45.6974 22.0559 45.6974 22.5777C45.6973 23.0996 45.2743 23.5226 44.7525 23.5226Z" fill="var(--fill-0, #FCECA9)"/>
</g>
<g id="Group_4">
<path id="Vector_17" d="M4.71259 29.5402C4.38602 29.5402 4.06845 29.3708 3.89345 29.0676C3.63261 28.6156 3.78739 28.0378 4.23934 27.7769L6.70057 26.3559C7.15243 26.0949 7.73036 26.2497 7.9913 26.7017C8.25214 27.1536 8.09735 27.7314 7.6454 27.9924L5.18407 29.4134C5.03534 29.4993 4.87284 29.5402 4.71259 29.5402Z" fill="var(--fill-0, #FCECA9)"/>
</g>
<g id="Group_5">
<path id="Vector_18" d="M40.6803 18.927C40.3537 18.927 40.0362 18.7575 39.8612 18.4544C39.6003 18.0024 39.7551 17.4246 40.2071 17.1637L42.6683 15.7427C43.1203 15.4818 43.6981 15.6366 43.959 16.0885C44.2199 16.5404 44.0651 17.1182 43.6131 17.3791L41.1519 18.8001C41.0032 18.8861 40.8407 18.927 40.6803 18.927Z" fill="var(--fill-0, #FCECA9)"/>
</g>
<g id="Group_6">
<path id="Vector_19" d="M43.1399 29.5402C42.9795 29.5402 42.8171 29.4993 42.6683 29.4134L40.2071 27.9924C39.7551 27.7314 39.6003 27.1536 39.8612 26.7017C40.1221 26.2497 40.6999 26.0949 41.1519 26.3559L43.6131 27.7769C44.0651 28.0378 44.2199 28.6156 43.959 29.0676C43.7841 29.3706 43.4664 29.5402 43.1399 29.5402Z" fill="var(--fill-0, #FCECA9)"/>
</g>
<g id="Group_7">
<path id="Vector_20" d="M7.17216 18.927C7.0118 18.927 6.8494 18.8861 6.70057 18.8001L4.23934 17.3791C3.78739 17.1182 3.63261 16.5404 3.89345 16.0885C4.15438 15.6366 4.73231 15.4818 5.18417 15.7427L7.6454 17.1637C8.09735 17.4247 8.25214 18.0025 7.9913 18.4544C7.8163 18.7574 7.49862 18.927 7.17216 18.927Z" fill="var(--fill-0, #FCECA9)"/>
</g>
<path id="Vector_21" opacity="0.2" d="M8.18389 34.1518C5.16611 32.187 2.1042 33.8728 0.303711 35.3253C1.21953 41.0346 4.15518 46.0682 8.35479 49.6713C8.18184 47.9965 8.78916 46.3998 9.1332 45.4422C10.2075 42.4525 14.3462 38.1638 8.18389 34.1518Z" fill="var(--fill-0, #E2F8FF)"/>
<path id="Vector_22" opacity="0.2" d="M39.6685 34.1518C42.6862 32.187 45.7481 33.8728 47.5486 35.3253C46.6328 41.0346 43.6972 46.0682 39.4976 49.6713C39.6705 47.9965 39.0632 46.3998 38.7191 45.4422C37.6449 42.4525 33.5063 38.1638 39.6685 34.1518Z" fill="var(--fill-0, #E2F8FF)"/>
<path id="Vector_23" d="M35.1322 49.7321C36.34 48.5222 36.3383 46.5624 35.1283 45.3547L31.6999 41.9325C31.6999 41.9325 26.0943 41.2806 27.5019 46.4889L30.7551 49.7361C31.9652 50.9434 33.9249 50.942 35.1322 49.7321Z" fill="var(--fill-0, #00C188)"/>
</g>
</svg>
