<svg preserveAspectRatio="none" width="100%" height="100%" overflow="visible" style="display: block;" viewBox="0 0 18 18" fill="none" xmlns="http://www.w3.org/2000/svg">
<g id="uil:question">
<path id="Vector" d="M13 6.08607C13.0009 5.18673 12.6962 4.31227 12.1332 3.59853C11.5703 2.88479 10.7806 2.37173 9.88686 2.13902C8.99311 1.90632 8.04531 1.967 7.19068 2.31165C6.33606 2.6563 5.62245 3.26562 5.16069 4.04497C5.00157 4.31301 4.95851 4.63151 5.04098 4.93041C5.12346 5.2293 5.32471 5.48411 5.60047 5.63878C5.87624 5.79345 6.20391 5.8353 6.51143 5.75514C6.81894 5.67497 7.08109 5.47935 7.24021 5.21132C7.39829 4.94519 7.62569 4.72423 7.89953 4.57067C8.17338 4.41711 8.48401 4.33636 8.80015 4.33656C9.27753 4.33656 9.73535 4.52088 10.0729 4.84898C10.4105 5.17708 10.6001 5.62207 10.6001 6.08607C10.6001 6.55007 10.4105 6.99507 10.0729 7.32317C9.73535 7.65127 9.27753 7.83559 8.80015 7.83559H8.79655C8.71922 7.84354 8.64287 7.85877 8.56856 7.88108C8.48795 7.88879 8.40835 7.90443 8.33097 7.92773C8.26517 7.96281 8.2029 8.00381 8.14498 8.0502C8.07602 8.08668 8.01091 8.12965 7.95059 8.1785C7.8966 8.24117 7.84954 8.3092 7.81019 8.38144C7.76646 8.43404 7.72751 8.49023 7.6938 8.54939C7.66745 8.62976 7.65015 8.71267 7.6422 8.79666C7.6219 8.86372 7.60784 8.93242 7.6002 9.00193V10.1683L7.6026 10.1811V10.7538C7.60324 11.0627 7.72994 11.3588 7.95491 11.577C8.17987 11.7952 8.48472 11.9178 8.80255 11.9178H8.80615C8.96374 11.9175 9.11971 11.887 9.26518 11.8281C9.41064 11.7692 9.54275 11.6831 9.65395 11.5745C9.76515 11.466 9.85328 11.3373 9.91329 11.1956C9.9733 11.054 10.004 10.9023 10.0037 10.7491L10.0013 9.977C10.8653 9.72831 11.6237 9.21541 12.1639 8.51445C12.7041 7.8135 12.9973 6.96188 13 6.08607ZM7.95659 14.0056C7.78809 14.168 7.67293 14.3753 7.62567 14.6014C7.5784 14.8275 7.60117 15.062 7.69108 15.2755C7.78098 15.489 7.934 15.6718 8.13077 15.8007C8.32754 15.9297 8.55924 15.999 8.79655 16C9.11451 15.9969 9.41924 15.8759 9.64852 15.6618C9.87132 15.4405 9.9961 15.1432 9.9961 14.8337C9.9961 14.5241 9.87132 14.2268 9.64852 14.0056C9.41884 13.7975 9.11654 13.6818 8.80255 13.6818C8.48857 13.6818 8.18627 13.7975 7.95659 14.0056Z" fill="var(--fill-0, black)"/>
</g>
</svg>
