<svg preserveAspectRatio="none" width="100%" height="100%" overflow="visible" style="display: block;" viewBox="0 0 18 18" fill="none" xmlns="http://www.w3.org/2000/svg">
<g id="bi:info">
<path id="Vector" d="M10.8722 6.39012L6.69287 6.91391L6.54321 7.60743L7.36449 7.75891C7.90105 7.88666 8.00691 8.08012 7.8901 8.61486L6.54321 14.9442C6.18915 16.5812 6.73484 17.3514 8.01786 17.3514C9.01251 17.3514 10.1678 16.8915 10.6916 16.26L10.8522 15.5008C10.4872 15.822 9.95424 15.9498 9.60018 15.9498C9.09829 15.9498 8.91579 15.5975 9.04536 14.977L10.8722 6.39012ZM11 2.5794C11 3.06343 10.8077 3.52764 10.4655 3.86991C10.1232 4.21217 9.65898 4.40446 9.17494 4.40446C8.69091 4.40446 8.2267 4.21217 7.88443 3.86991C7.54217 3.52764 7.34989 3.06343 7.34989 2.5794C7.34989 2.09536 7.54217 1.63115 7.88443 1.28889C8.2267 0.946625 8.69091 0.754343 9.17494 0.754343C9.65898 0.754343 10.1232 0.946625 10.4655 1.28889C10.8077 1.63115 11 2.09536 11 2.5794Z" fill="var(--fill-0, black)"/>
</g>
</svg>
