<svg preserveAspectRatio="none" width="100%" height="100%" overflow="visible" style="display: block;" viewBox="0 0 17 15" fill="none" xmlns="http://www.w3.org/2000/svg">
<path id="Vector" d="M16.9291 7.84603L15.9564 3.87788C15.8947 3.62626 15.6691 3.44932 15.4101 3.44932H12.7969L13.416 0.685441C13.4534 0.518801 13.413 0.344215 13.3062 0.210902C13.1995 0.0775899 13.0379 0 12.8672 0H3.68005H0.5625C0.251824 0 0 0.251824 0 0.5625C0 0.873176 0.251824 1.125 0.5625 1.125H2.97759L2.62223 2.71139H0.83482C0.524145 2.71139 0.27232 2.96321 0.27232 3.27389C0.27232 3.58457 0.524145 3.83639 0.83482 3.83639H2.37023L2.01488 5.42275H0.83482C0.524145 5.42275 0.27232 5.67457 0.27232 5.98525C0.27232 6.29592 0.524145 6.54775 0.83482 6.54775H1.76288L1.33042 8.47825L0.557754 11.9275C0.520418 12.0942 0.560848 12.2688 0.667582 12.4021C0.774352 12.5354 0.935895 12.613 1.10665 12.613H2.23358C2.48288 13.5561 3.34318 14.2535 4.36359 14.2535C5.384 14.2535 6.24431 13.5561 6.49361 12.613H10.0614C10.3107 13.5561 11.171 14.2535 12.1914 14.2535C13.2118 14.2535 14.0721 13.5561 14.3214 12.613H15.4709C15.7342 12.613 15.9623 12.4304 16.0198 12.1734L16.9317 8.10288C16.9507 8.01823 16.9498 7.9303 16.9291 7.84603ZM5.27903 5.42275H3.16775L3.52311 3.83636H6.09377C6.40445 3.83636 6.65627 3.58453 6.65627 3.27386C6.65627 2.96318 6.40445 2.71136 6.09377 2.71136H3.77511L4.13047 1.12496H12.1647L10.616 8.03869H2.58177L2.91575 6.54775H5.27903C5.5897 6.54775 5.84153 6.29592 5.84153 5.98525C5.84153 5.67457 5.5897 5.42275 5.27903 5.42275ZM4.36363 13.1286C3.76917 13.1286 3.28556 12.645 3.28556 12.0505C3.28556 11.4561 3.76917 10.9725 4.36363 10.9725C4.95809 10.9725 5.4417 11.4561 5.4417 12.0505C5.4417 12.645 4.95809 13.1286 4.36363 13.1286ZM12.1914 13.1286C11.597 13.1286 11.1134 12.645 11.1134 12.0505C11.1134 11.4561 11.597 10.9725 12.1914 10.9725C12.7859 10.9725 13.2695 11.4561 13.2695 12.0505C13.2695 12.645 12.7859 13.1286 12.1914 13.1286ZM15.0205 11.488H14.3214C14.0721 10.5449 13.2118 9.84748 12.1914 9.84748C11.171 9.84748 10.3107 10.5449 10.0614 11.488H6.49364C6.24435 10.5449 5.38404 9.84748 4.36363 9.84748C3.34322 9.84748 2.48291 10.5449 2.23362 11.488H1.80914L2.3298 9.16372H11.0665C11.3298 9.16372 11.5579 8.98112 11.6154 8.72416L12.5449 4.57432H14.9688L15.8051 7.98574L15.0205 11.488Z" fill="var(--fill-0, #130F26)"/>
</svg>
