<svg preserveAspectRatio="none" width="100%" height="100%" overflow="visible" style="display: block;" viewBox="0 0 17 17" fill="none" xmlns="http://www.w3.org/2000/svg">
<g id="Group">
<path id="Vector" d="M1 8.5C1 12.6422 4.35775 16 8.5 16C12.6422 16 16 12.6422 16 8.5C16 4.35775 12.6422 1 8.5 1C4.35775 1 1 4.35775 1 8.5Z" stroke="var(--stroke-0, #130F26)" stroke-width="1.5" stroke-linecap="round" stroke-linejoin="round"/>
<path id="Vector_2" d="M9.25 1.0375C9.25 1.0375 11.5 4 11.5 8.5C11.5 13 9.25 15.9625 9.25 15.9625M7.75 15.9625C7.75 15.9625 5.5 13 5.5 8.5C5.5 4 7.75 1.0375 7.75 1.0375M1.4725 11.125H15.5275M1.4725 5.875H15.5275" stroke="var(--stroke-0, #130F26)" stroke-width="1.5" stroke-linecap="round" stroke-linejoin="round"/>
</g>
</svg>
