<svg preserveAspectRatio="none" width="100%" height="100%" overflow="visible" style="display: block;" viewBox="0 0 60 60" fill="none" xmlns="http://www.w3.org/2000/svg">
<g id="BASIC UI GRADIENT FILL">
<path id="Vector" d="M58.1871 15.218C56.6121 9.4207 50.5828 3.39023 44.7844 1.81523C41.2289 0.929297 36.4664 0.0164063 30 0C23.5359 0.0164063 18.7734 0.929297 15.218 1.81523C9.4207 3.39023 3.39023 9.41953 1.81523 15.218C0.929297 18.7723 0.0164063 23.5359 0 30C0.0152344 36.4652 0.928125 41.2277 1.81406 44.7832C3.38906 50.5816 9.41953 56.6109 15.2168 58.1859C18.7723 59.0719 23.5371 59.9848 30 60C36.4641 59.9848 41.2277 59.0719 44.7832 58.1859C50.5816 56.6109 56.6109 50.5816 58.1859 44.7832C59.0719 41.2277 59.9848 36.4629 60.0012 30C59.9859 23.5359 59.073 18.7734 58.1871 15.218Z" fill="var(--fill-0, #E6F1F4)"/>
<path id="Vector_2" d="M30 49.95C33.6637 49.9501 37.2451 48.8638 40.2914 46.8285C43.3377 44.7931 45.7121 41.9002 47.1142 38.5154C48.5163 35.1306 48.8833 31.4061 48.1686 27.8128C47.4539 24.2195 45.6898 20.9188 43.0992 18.3281C42.5261 17.7731 41.7578 17.4656 40.9601 17.472C40.1623 17.4784 39.399 17.7981 38.8349 18.3623C38.2708 18.9264 37.951 19.6897 37.9447 20.4874C37.9383 21.2852 38.2458 22.0535 38.8008 22.6266C40.5413 24.3671 41.7266 26.5846 42.2068 28.9988C42.687 31.4129 42.4405 33.9153 41.4985 36.1893C40.5566 38.4634 38.9614 40.4071 36.9148 41.7746C34.8682 43.1421 32.462 43.872 30.0006 43.872C27.5391 43.872 25.133 43.1421 23.0863 41.7746C21.0397 40.4071 19.4446 38.4634 18.5026 36.1893C17.5607 33.9153 17.3142 31.4129 17.7944 28.9988C18.2746 26.5846 19.4599 24.3671 21.2004 22.6266C21.7554 22.0535 22.0629 21.2852 22.0565 20.4874C22.0501 19.6897 21.7304 18.9264 21.1663 18.3623C20.6021 17.7981 19.8389 17.4784 19.0411 17.472C18.2433 17.4656 17.475 17.7731 16.902 18.3281C14.3115 20.9187 12.5473 24.2193 11.8326 27.8125C11.1179 31.4057 11.4848 35.1301 12.8867 38.5149C14.2887 41.8996 16.6629 44.7926 19.709 46.828C22.7551 48.8634 26.3364 49.9499 30 49.95Z" fill="url(#paint0_linear_0_215)"/>
<path id="Vector_3" d="M26.9613 25.5469C26.977 26.3426 27.304 27.1005 27.8723 27.6577C28.4406 28.2149 29.2047 28.527 30.0006 28.527C30.7965 28.527 31.5606 28.2149 32.1289 27.6577C32.6971 27.1005 33.0242 26.3426 33.0398 25.5469V13.0898C33.0242 12.2941 32.6971 11.5363 32.1289 10.979C31.5606 10.4218 30.7965 10.1097 30.0006 10.1097C29.2047 10.1097 28.4406 10.4218 27.8723 10.979C27.304 11.5363 26.977 12.2941 26.9613 13.0898V25.5469Z" fill="url(#paint1_linear_0_215)"/>
</g>
<defs>
<linearGradient id="paint0_linear_0_215" x1="43.0992" y1="44.5254" x2="16.902" y2="18.3281" gradientUnits="userSpaceOnUse">
<stop stop-color="#34344F"/>
<stop offset="0.26" stop-color="#3B3B57"/>
<stop offset="0.66" stop-color="#50506D"/>
<stop offset="1" stop-color="#666684"/>
</linearGradient>
<linearGradient id="paint1_linear_0_215" x1="35.2641" y1="24.5801" x2="24.7383" y2="14.0543" gradientUnits="userSpaceOnUse">
<stop stop-color="#34344F"/>
<stop offset="0.26" stop-color="#3B3B57"/>
<stop offset="0.66" stop-color="#50506D"/>
<stop offset="1" stop-color="#666684"/>
</linearGradient>
</defs>
</svg>
