<svg preserveAspectRatio="none" width="100%" height="100%" overflow="visible" style="display: block;" viewBox="0 0 50 48" fill="none" xmlns="http://www.w3.org/2000/svg">
<g id="g5911">
<g id="g5917">
<path id="path5919" d="M6.32529 12.6364L6.2207 7.83457C10.5969 3.02178 16.9077 0 23.9253 0C33.0562 0 40.9913 5.11553 45.024 12.6364H6.32529Z" fill="var(--fill-0, #74727F)"/>
</g>
<g id="g5921">
<path id="path5923" d="M22.4035 12.6364C30.5798 12.6364 30.9235 0.44082 22.7783 0.0286132C23.1586 0.0106445 23.5408 0 23.9254 0C33.0564 0 40.9916 5.11553 45.0243 12.6364H22.4035Z" fill="var(--fill-0, #5F5E6A)"/>
</g>
<g id="g5925">
<path id="path5927" d="M23.9252 47.8519C17.2828 47.8519 11.2734 45.1443 6.93838 40.7738L6.3252 12.6367H45.024C46.8272 15.9997 47.851 19.8432 47.851 23.9261C47.851 37.14 37.1391 47.8519 23.9252 47.8519Z" fill="var(--fill-0, #126D8A)"/>
</g>
<g id="g5929">
<path id="path5931" d="M6.875 17.6048V12.0686L10.5987 10.7012L14.3246 12.0686V17.6048H6.875Z" fill="var(--fill-0, #21212B)"/>
</g>
<g id="g5933">
<path id="path5935" d="M21.1299 17.2755C21.5443 17.2755 21.915 16.999 22.0584 16.5827L22.5055 15.2852H28.2542V17.2755H21.1299Z" fill="var(--fill-0, #363540)"/>
</g>
<g id="g5937">
<path id="path5939" d="M33.4357 11.0619V15.4156H22.4823L24.0878 11.0619C24.2514 10.6186 24.0769 10.1337 23.6954 9.88812L23.7351 9.79095H34.0257C33.5109 9.97894 33.2462 10.5481 33.4357 11.0619Z" fill="var(--fill-0, #21212B)"/>
</g>
<g id="g5941">
<path id="path5943" d="M33.4356 11.062V15.4156H27.8755C28.2508 15.2276 28.5106 14.8401 28.5106 14.3937V10.8791C28.5106 10.3718 28.1755 9.93926 27.7158 9.79102H34.0257C33.5108 9.979 33.2462 10.5481 33.4356 11.062Z" fill="var(--fill-0, black)"/>
</g>
<g id="g5945">
<path id="path5947" d="M38.545 34.2148H35.8901C35.308 34.2148 34.8359 33.7429 34.8359 33.1605V28.3232H45.3034C44.8449 31.6393 41.9819 34.2148 38.545 34.2148Z" fill="var(--fill-0, #EEEFEB)"/>
</g>
<g id="g5949">
<path id="path5951" d="M38.545 34.2148H35.8901C35.308 34.2148 34.8359 33.7429 34.8359 33.1605V28.3232H45.3034C44.8449 31.6393 41.9819 34.2148 38.545 34.2148Z" fill="var(--fill-0, #EEEFEB)"/>
</g>
<g id="g5953">
<path id="path5955" d="M44.5978 29.3782H41.943C41.3608 29.3782 40.8888 29.8503 40.8888 30.4326V33.7961C40.1569 34.0661 39.3677 34.215 38.5452 34.215H35.8903C35.308 34.215 34.836 33.7431 34.836 33.1607V28.3234H45.3036C45.2527 28.6911 45.1706 29.049 45.0632 29.396C44.9092 29.3853 44.7544 29.3782 44.5978 29.3782Z" fill="var(--fill-0, #D6D6D0)"/>
</g>
<g id="g5957">
<path id="path5959" d="M1.5598 15.4156C1.70111 15.0443 1.85238 14.6781 2.01137 14.316L3.63002 11.6541H8.52699V15.4156H1.5598Z" fill="var(--fill-0, black)"/>
</g>
<g id="g5961">
<path id="path5963" d="M3.7084 16.2298C2.89668 16.2298 2.13438 16.0163 1.47266 15.6442C1.63818 15.1959 1.81768 14.7545 2.00898 14.3194L2.31074 13.823C2.71416 14.0838 3.19346 14.237 3.7084 14.237C5.13281 14.237 6.2917 13.0781 6.2917 11.6537C6.2917 10.6965 5.76748 9.86045 4.99189 9.41426L5.29375 8.91768C5.59238 8.54668 5.90107 8.18408 6.22129 7.83203C7.46299 8.65127 8.28447 10.0581 8.28447 11.6537C8.28447 14.177 6.23164 16.2298 3.7084 16.2298Z" fill="var(--fill-0, black)"/>
</g>
<g id="g5965">
<path id="path5967" d="M3.70752 14.2373C3.16719 14.2373 2.66514 14.0701 2.25 13.7854C2.98545 12.2161 3.88613 10.7399 4.92998 9.37891C5.73945 9.81562 6.29082 10.6716 6.29082 11.654C6.29082 13.0784 5.13193 14.2373 3.70752 14.2373Z" fill="var(--fill-0, #C6C6C1)"/>
</g>
<g id="g5969">
<path id="path5971" d="M3.70713 14.8203C3.08125 14.8203 2.49766 14.637 2.00586 14.3224C2.16475 13.9603 2.33223 13.6029 2.5083 13.2506C2.84277 13.5023 3.25713 13.6535 3.70713 13.6535C4.80986 13.6535 5.70703 12.7563 5.70703 11.6536C5.70703 10.8618 5.24316 10.178 4.57402 9.8542C4.80645 9.53516 5.04658 9.22197 5.29414 8.91504C6.23769 9.46396 6.87383 10.4855 6.87383 11.6536C6.87383 13.3997 5.45322 14.8203 3.70713 14.8203Z" fill="var(--fill-0, #D6D6D0)"/>
</g>
<g id="g5973">
<path id="path5975" d="M8.48576 16.628C8.3423 17.0169 7.9717 17.2753 7.55715 17.2753H0.937614C1.13185 16.6027 1.355 15.9426 1.60529 15.2958H6.634C6.77424 15.2958 6.89953 15.2085 6.94806 15.0769L8.68136 10.3772C8.87072 9.86355 9.44035 9.60222 9.95236 9.79109C10.4652 9.98025 10.7276 10.5493 10.5384 11.0621L8.48576 16.628Z" fill="var(--fill-0, #363540)"/>
</g>
<g id="g5977">
<path id="path5979" d="M29.3318 40.7733H6.93887C2.65 36.4492 0 30.4972 0 23.9257C0 21.5793 0.339257 19.3125 0.968847 17.1699H29.3318C30.041 17.1699 30.6158 17.7448 30.6158 18.4539V39.4893C30.6158 40.1984 30.041 40.7733 29.3318 40.7733Z" fill="var(--fill-0, #EEEFEB)"/>
</g>
<g id="g5981">
<path id="path5983" d="M12.8435 40.7735H6.93896C2.6501 36.4494 0 30.4973 0 23.9258C0 21.5794 0.339355 19.3126 0.968847 17.1701H13.4302C13.3737 17.257 13.3012 17.3341 13.2136 17.3954C12.7225 17.7385 12.0104 18.4823 12.5827 19.686C12.7076 19.9487 12.677 20.2545 12.5238 20.5017C12.3238 20.8241 12.1842 21.3345 12.6561 21.9348C12.7741 22.0849 12.8435 22.2674 12.8435 22.4584V37.9288C12.8435 38.1536 12.7563 38.3702 12.5969 38.5286C12.2045 38.9181 11.6017 39.8004 12.8435 40.7735Z" fill="var(--fill-0, #D6D6D0)"/>
</g>
<g id="g5985">
<path id="path5987" d="M26.7146 22.1445C26.2789 22.1445 25.9258 22.4977 25.9258 22.9334V37.5285C25.9258 37.9642 26.2789 38.3174 26.7146 38.3174C27.1503 38.3174 27.5035 37.9642 27.5035 37.5285V22.9334C27.5035 22.4977 27.1503 22.1445 26.7146 22.1445Z" fill="var(--fill-0, #D6D6D0)"/>
</g>
<g id="g5989">
<path id="path5991" d="M23.2471 22.1447C22.8113 22.1447 22.4581 22.4979 22.4581 22.9336V37.5287C22.4581 37.9644 22.8113 38.3176 23.2471 38.3176C23.6827 38.3176 24.036 37.9644 24.036 37.5287V22.9336C24.036 22.4979 23.6827 22.1447 23.2471 22.1447Z" fill="var(--fill-0, #D6D6D0)"/>
</g>
<g id="g5993">
<path id="path5995" d="M19.7781 22.1445C19.3425 22.1445 18.9893 22.4977 18.9893 22.9334V37.5285C18.9893 37.9642 19.3425 38.3174 19.7781 38.3174C20.2139 38.3174 20.567 37.9642 20.567 37.5285V22.9334C20.567 22.4977 20.2139 22.1445 19.7781 22.1445Z" fill="var(--fill-0, #D6D6D0)"/>
</g>
<g id="g5997">
<path id="path5999" d="M16.3114 22.1447C15.8756 22.1447 15.5225 22.4978 15.5225 22.9335V37.5286C15.5225 37.9643 15.8756 38.3175 16.3114 38.3175C16.747 38.3175 17.1002 37.9643 17.1002 37.5286V22.9335C17.1002 22.4978 16.747 22.1447 16.3114 22.1447Z" fill="var(--fill-0, #D6D6D0)"/>
</g>
<g id="g6001">
<path id="path6003" d="M12.8434 22.1447C12.4078 22.1447 12.0546 22.4978 12.0546 22.9335V37.5286C12.0546 37.9643 12.4078 38.3175 12.8434 38.3175C13.2792 38.3175 13.6323 37.9643 13.6323 37.5286V22.9335C13.6323 22.4978 13.2792 22.1447 12.8434 22.1447Z" fill="var(--fill-0, #C6C6C1)"/>
</g>
<g id="g6005">
<path id="path6007" d="M9.3748 22.1445C8.93906 22.1445 8.58594 22.4977 8.58594 22.9334V37.5285C8.58594 37.9642 8.93906 38.3174 9.3748 38.3174C9.81045 38.3174 10.1637 37.9642 10.1637 37.5285V22.9334C10.1637 22.4977 9.81045 22.1445 9.3748 22.1445Z" fill="var(--fill-0, #C6C6C1)"/>
</g>
<g id="g6009">
<path id="path6011" d="M5.90729 22.1447C5.47154 22.1447 5.11832 22.4979 5.11832 22.9336V37.5287C5.11832 37.9644 5.47154 38.3176 5.90729 38.3176C6.34293 38.3176 6.69615 37.9644 6.69615 37.5287V22.9336C6.69615 22.4979 6.34293 22.1447 5.90729 22.1447Z" fill="var(--fill-0, #C6C6C1)"/>
</g>
<g id="g6013">
<path id="path6015" d="M1.65039 32.675V22.9334C1.65039 22.4977 2.00361 22.1445 2.43926 22.1445C2.875 22.1445 3.22822 22.4977 3.22822 22.9334V35.9338C2.62393 34.8945 2.09502 33.806 1.65039 32.675Z" fill="var(--fill-0, #C6C6C1)"/>
</g>
<path id="path6017" d="M35.3418 11.7256H44.9485V15.472H35.3418V11.7256Z" fill="var(--fill-0, black)"/>
<g id="g6019">
<path id="path6021" d="M48.5313 14.9889C48.1981 14.9889 47.927 15.2477 47.927 15.5658V18.5104C47.927 18.8285 48.1981 19.0874 48.5313 19.0874H49.0951V20.8319C49.0951 21.2411 49.0251 21.6474 48.8879 22.0329L46.7543 28.0313C46.4587 28.8621 45.6724 29.4172 44.7903 29.4172H34.7729C33.9853 29.4172 33.3467 28.7785 33.3467 27.9908V11.1357L33.4054 11.1402L35.391 16.5244C35.5339 16.9118 35.9031 17.169 36.3159 17.169H43.9827C44.3955 17.169 44.7647 16.9118 44.9076 16.5244L46.185 13.0609H49.0951V14.9889H48.5313Z" fill="var(--fill-0, #59B37D)"/>
</g>
<g id="g6023">
<path id="path6025" d="M40.937 18.2382V28.3749C40.937 28.8523 41.2429 29.2608 41.6678 29.4173H34.773C33.9853 29.4173 33.3467 28.7786 33.3467 27.9908V11.1357L33.4055 11.1402L35.3911 16.5244C35.534 16.9119 35.9031 17.1691 36.316 17.1691H41.7495C41.2824 17.3006 40.937 17.7306 40.937 18.2382Z" fill="var(--fill-0, #168C80)"/>
</g>
<g id="g6027">
<path id="path6029" d="M37.343 27.8676H35.3188C35.0855 27.8676 34.8965 27.6784 34.8965 27.4452V23.8481C34.8965 23.6148 35.0855 23.4258 35.3188 23.4258H37.343C37.5763 23.4258 37.7653 23.6148 37.7653 23.8481V27.4452C37.7653 27.6784 37.5763 27.8676 37.343 27.8676Z" fill="var(--fill-0, #21212B)"/>
</g>
<g id="g6031">
<path id="path6033" d="M47.376 21.6631C47.1967 22.1764 46.7137 23.5063 45.2944 27.5122C45.2187 27.7249 45.0162 27.8679 44.7903 27.8679H39.7907C39.5676 27.8679 39.3867 27.6871 39.3867 27.4639V23.83C39.3867 23.6069 39.5676 23.4261 39.7907 23.4261H42.2976C42.4614 23.4261 42.6091 23.3271 42.6713 23.1755L43.276 21.7027C43.391 21.4224 43.6642 21.2393 43.9674 21.2393H47.0745C47.2943 21.2393 47.4484 21.4556 47.376 21.6631Z" fill="var(--fill-0, #363540)"/>
</g>
<g id="g6035">
<path id="path6037" d="M39.7907 27.8676C39.5676 27.8676 39.3867 27.6867 39.3867 27.4636V23.8297C39.3867 23.6066 39.5676 23.4258 39.7907 23.4258H40.9369V27.8676H39.7907Z" fill="var(--fill-0, #21212B)"/>
</g>
<g id="g6039">
<path id="path6041" d="M41.0691 20.9141H40.1737C39.8528 20.9141 39.5928 21.1742 39.5928 21.4951C39.5928 21.816 39.8528 22.0762 40.1737 22.0762H41.0691C41.39 22.0762 41.6502 21.816 41.6502 21.4951C41.6502 21.1742 41.39 20.9141 41.0691 20.9141Z" fill="var(--fill-0, #7AF4AB)"/>
</g>
<g id="g6043">
<path id="path6045" d="M40.1495 14.2986C38.7309 14.2986 37.5766 13.1445 37.5766 11.7257C37.5766 10.307 38.7309 9.15283 40.1495 9.15283C41.5682 9.15283 42.7225 10.307 42.7225 11.7257C42.7225 13.1445 41.5682 14.2986 40.1495 14.2986ZM40.1495 7.16797C37.6364 7.16797 35.5918 9.2126 35.5918 11.7257C35.5918 14.2389 37.6364 16.2835 40.1495 16.2835C42.6626 16.2835 44.7073 14.2389 44.7073 11.7257C44.7073 9.2126 42.6626 7.16797 40.1495 7.16797Z" fill="var(--fill-0, #21212B)"/>
</g>
<g id="g6047">
<path id="path6049" d="M42.556 9.40527C42.5339 9.53906 42.4209 9.6376 42.2863 9.65449C42.1002 9.67773 41.9703 9.74111 41.8791 9.82246C41.422 9.40664 40.8147 9.15273 40.1494 9.15273C38.7308 9.15273 37.5766 10.3069 37.5766 11.7257C37.5766 12.4563 37.8831 13.1163 38.3739 13.5852C38.2715 13.7214 38.257 13.8935 38.2699 14.0347C38.2834 14.1811 38.1938 14.3146 38.0541 14.3604C37.2937 14.6099 37.3908 15.3379 37.3929 15.3521C36.2993 14.5187 35.5918 13.2036 35.5918 11.7257C35.5918 9.2125 37.6363 7.16797 40.1494 7.16797C41.5188 7.16797 42.7481 7.77578 43.5843 8.73496C42.8045 8.67754 42.6038 9.11582 42.556 9.40527Z" fill="var(--fill-0, black)"/>
</g>
<g id="g6051">
<path id="path6053" d="M40.1491 14.2981C38.7305 14.2981 37.5762 13.144 37.5762 11.7252C37.5762 10.3065 38.7305 9.15234 40.1491 9.15234C41.5678 9.15234 42.7221 10.3065 42.7221 11.7252C42.7221 13.144 41.5678 14.2981 40.1491 14.2981Z" fill="var(--fill-0, #D6D6D0)"/>
</g>
<g id="g6055">
<path id="path6057" d="M41.8788 9.82207C41.7437 9.94268 41.6943 10.1029 41.6795 10.2334C41.664 10.3698 41.5584 10.4764 41.4229 10.4987C39.3459 10.8401 39.0362 12.4529 38.9958 13.0906C38.987 13.2294 38.8861 13.3457 38.7497 13.3723C38.5641 13.4084 38.4466 13.4875 38.3735 13.5847C37.8828 13.1159 37.5762 12.456 37.5762 11.7252C37.5762 10.3065 38.7305 9.15234 40.1491 9.15234C40.8145 9.15234 41.4216 9.40615 41.8788 9.82207Z" fill="var(--fill-0, #C6C6C1)"/>
</g>
<g id="g6059">
<path id="path6061" d="M40.1491 13.7171C39.0508 13.7171 38.1573 12.8235 38.1573 11.7252C38.1573 10.6269 39.0508 9.7333 40.1491 9.7333C41.2475 9.7333 42.1409 10.6269 42.1409 11.7252C42.1409 12.8235 41.2475 13.7171 40.1491 13.7171ZM40.1491 8.57129C38.41 8.57129 36.9951 9.98604 36.9951 11.7252C36.9951 13.4643 38.41 14.8791 40.1491 14.8791C41.8883 14.8791 43.3031 13.4643 43.3031 11.7252C43.3031 9.98604 41.8883 8.57129 40.1491 8.57129Z" fill="var(--fill-0, #EEEFEB)"/>
</g>
<g id="g6063">
<path id="path6065" d="M42.4566 9.57822C42.4097 9.61875 42.3505 9.6459 42.286 9.654C41.8239 9.71182 41.7044 10.015 41.6795 10.2334C41.6731 10.2894 41.651 10.3398 41.6185 10.3819C41.254 9.98369 40.7303 9.7334 40.1491 9.7334C39.0509 9.7334 38.1573 10.627 38.1573 11.7252C38.1573 12.3556 38.452 12.9182 38.9104 13.2834C38.8682 13.3277 38.813 13.36 38.7497 13.3723C38.3037 13.459 38.2475 13.7924 38.2696 14.0343C38.2758 14.1024 38.2591 14.1674 38.226 14.2226C37.4782 13.6452 36.9951 12.7408 36.9951 11.7252C36.9951 9.98613 38.41 8.57129 40.1491 8.57129C41.0594 8.57129 41.8805 8.95937 42.4566 9.57822Z" fill="var(--fill-0, #D6D6D0)"/>
</g>
<g id="g6067">
<path id="path6069" d="M49.1628 19.1646H48.5317C48.1566 19.1646 47.8498 18.8701 47.8498 18.5101V15.5656C47.8498 15.2057 48.1566 14.9112 48.5317 14.9112H49.1628C49.5379 14.9112 49.8447 15.2057 49.8447 15.5656V18.5101C49.8447 18.8701 49.5379 19.1646 49.1628 19.1646Z" fill="var(--fill-0, #EB5793)"/>
</g>
<g id="g6071">
<path id="path6073" d="M49.1628 16.8185H48.5317C48.1566 16.8185 47.8498 17.113 47.8498 17.473V15.5657C47.8498 15.2057 48.1566 14.9113 48.5317 14.9113H49.1628C49.5379 14.9113 49.8447 15.2057 49.8447 15.5657V17.473C49.8447 17.113 49.5379 16.8185 49.1628 16.8185Z" fill="var(--fill-0, #E7387F)"/>
</g>
<g id="g6075">
<path id="path6077" d="M49.0952 13.2157H44.3005L45.4028 10.2351H49.0952C49.5925 10.2351 49.9995 10.6421 49.9995 11.1394V12.3114C49.9995 12.8088 49.5925 13.2157 49.0952 13.2157Z" fill="var(--fill-0, #363540)"/>
</g>
<g id="g6079">
<path id="path6081" d="M47.8498 11.1397V12.3117C47.8498 12.8091 48.2567 13.216 48.7541 13.216H44.3008L45.403 10.2354H48.7541C48.2567 10.2354 47.8498 10.6423 47.8498 11.1397Z" fill="var(--fill-0, #21212B)"/>
</g>
<g id="g6083">
<path id="path6085" d="M46.9526 11.1354L44.908 16.6791C44.7653 17.0664 44.396 17.3237 43.9833 17.3237H36.3164C35.9035 17.3237 35.5344 17.0664 35.3915 16.6791L33.3472 11.1354C33.1533 10.6098 33.4358 10.025 33.976 9.85418C34.4821 9.69412 35.0228 9.98152 35.2064 10.4794L36.9231 15.1343C36.9714 15.2652 37.0962 15.3523 37.2359 15.3523H43.0638C43.2034 15.3523 43.3283 15.2652 43.3766 15.1343L45.103 10.4534C45.2915 9.94168 45.8589 9.68142 46.3687 9.8696C46.8795 10.058 47.1409 10.6248 46.9526 11.1354Z" fill="var(--fill-0, #4B4A55)"/>
</g>
<g id="g6087">
<path id="path6089" d="M37.236 15.3521C35.7257 16.0048 36.3166 17.3235 36.3166 17.3235C35.9037 17.3235 35.5345 17.0662 35.3917 16.6788L33.3473 11.1352C33.1534 10.6096 33.4358 10.0247 33.9761 9.85394C34.4822 9.69398 35.0229 9.98128 35.2065 10.4792L36.9232 15.1341C36.9716 15.265 37.0964 15.3521 37.236 15.3521Z" fill="var(--fill-0, #363540)"/>
</g>
<path id="path6091" d="M12.6836 11.7256H22.2903V15.472H12.6836V11.7256Z" fill="var(--fill-0, black)"/>
<g id="g6093">
<path id="path6095" d="M17.4914 14.2986C16.0728 14.2986 14.9185 13.1445 14.9185 11.7257C14.9185 10.307 16.0728 9.15283 17.4914 9.15283C18.9101 9.15283 20.0644 10.307 20.0644 11.7257C20.0644 13.1445 18.9101 14.2986 17.4914 14.2986ZM17.4914 7.16797C14.9783 7.16797 12.9336 9.2126 12.9336 11.7257C12.9336 14.2389 14.9783 16.2835 17.4914 16.2835C20.0045 16.2835 22.0491 14.2389 22.0491 11.7257C22.0491 9.2126 20.0045 7.16797 17.4914 7.16797Z" fill="var(--fill-0, #21212B)"/>
</g>
<g id="g6097">
<path id="path6099" d="M19.8979 9.40527C19.8757 9.53906 19.7627 9.6376 19.6281 9.65449C19.442 9.67773 19.3121 9.74111 19.2209 9.82246C18.7638 9.40664 18.1566 9.15273 17.4913 9.15273C16.0727 9.15273 14.9185 10.3069 14.9185 11.7257C14.9185 12.4563 15.225 13.1163 15.7158 13.5852C15.6134 13.7214 15.5989 13.8935 15.6118 14.0347C15.6252 14.1811 15.5356 14.3146 15.396 14.3604C14.6354 14.6099 14.7327 15.3379 14.7347 15.3521C13.6411 14.5187 12.9336 13.2036 12.9336 11.7257C12.9336 9.2125 14.9782 7.16797 17.4913 7.16797C18.8606 7.16797 20.0899 7.77578 20.9261 8.73496C20.1463 8.67754 19.9457 9.11582 19.8979 9.40527Z" fill="var(--fill-0, black)"/>
</g>
<g id="g6101">
<path id="path6103" d="M17.491 14.2982C16.0723 14.2982 14.918 13.1441 14.918 11.7252C14.918 10.3066 16.0723 9.15239 17.491 9.15239C18.9096 9.15239 20.0639 10.3066 20.0639 11.7252C20.0639 13.1441 18.9096 14.2982 17.491 14.2982Z" fill="var(--fill-0, #D6D6D0)"/>
</g>
<g id="g6105">
<path id="path6107" d="M19.2206 9.82214C19.0854 9.94274 19.0361 10.103 19.0213 10.2335C19.0058 10.3699 18.9003 10.4764 18.7647 10.4988C16.6877 10.8402 16.378 12.453 16.3376 13.0907C16.3288 13.2295 16.2279 13.3458 16.0915 13.3723C15.9059 13.4085 15.7884 13.4876 15.7154 13.5847C15.2247 13.116 14.918 12.456 14.918 11.7253C14.918 10.3066 16.0723 9.15241 17.491 9.15241C18.1563 9.15241 18.7634 9.40622 19.2206 9.82214Z" fill="var(--fill-0, #C6C6C1)"/>
</g>
<g id="g6109">
<path id="path6111" d="M17.4907 13.7173C16.3924 13.7173 15.4988 12.8238 15.4988 11.7254C15.4988 10.6271 16.3924 9.73353 17.4907 9.73353C18.589 9.73353 19.4825 10.6271 19.4825 11.7254C19.4825 12.8238 18.589 13.7173 17.4907 13.7173ZM17.4907 8.57151C15.7516 8.57151 14.3367 9.98626 14.3367 11.7254C14.3367 13.4645 15.7516 14.8793 17.4907 14.8793C19.2299 14.8793 20.6446 13.4645 20.6446 11.7254C20.6446 9.98626 19.2299 8.57151 17.4907 8.57151Z" fill="var(--fill-0, #EEEFEB)"/>
</g>
<g id="g6113">
<path id="path6115" d="M19.7981 9.57827C19.7513 9.61879 19.692 9.64594 19.6275 9.65405C19.1654 9.71186 19.0459 10.0151 19.021 10.2334C19.0147 10.2894 18.9926 10.3399 18.96 10.382C18.5956 9.98374 18.0718 9.73344 17.4907 9.73344C16.3924 9.73344 15.4988 10.627 15.4988 11.7252C15.4988 12.3556 15.7935 12.9182 16.2519 13.2834C16.2097 13.3278 16.1545 13.36 16.0912 13.3723C15.6452 13.459 15.5891 13.7924 15.6112 14.0343C15.6174 14.1025 15.6006 14.1674 15.5675 14.2226C14.8197 13.6453 14.3367 12.7409 14.3367 11.7252C14.3367 9.98618 15.7516 8.57133 17.4907 8.57133C18.401 8.57133 19.222 8.95942 19.7981 9.57827Z" fill="var(--fill-0, #D6D6D0)"/>
</g>
<g id="g6117">
<path id="path6119" d="M24.2936 11.1355L22.2491 16.6792C22.1064 17.0665 21.7372 17.3238 21.3244 17.3238H13.6575C13.2446 17.3238 12.8755 17.0665 12.7327 16.6792L10.6883 11.1355C10.4943 10.61 10.7768 10.0251 11.3172 9.85429C11.8232 9.69423 12.3639 9.98163 12.5475 10.4795L14.2642 15.1344C14.3126 15.2653 14.4373 15.3524 14.577 15.3524H20.405C20.5445 15.3524 20.6694 15.2653 20.7178 15.1344L22.444 10.4535C22.6326 9.94179 23.2 9.68154 23.7099 9.86972C24.2207 10.0581 24.482 10.6249 24.2936 11.1355Z" fill="var(--fill-0, #4B4A55)"/>
</g>
<g id="g6121">
<path id="path6123" d="M14.5769 15.3521C13.0665 16.0048 13.6574 17.3235 13.6574 17.3235C13.2445 17.3235 12.8754 17.0662 12.7326 16.6788L10.6881 11.1352C10.4942 10.6096 10.7767 10.0247 11.3171 9.85394C11.8231 9.69398 12.3637 9.98128 12.5474 10.4792L14.2641 15.1341C14.3125 15.265 14.4372 15.3521 14.5769 15.3521Z" fill="var(--fill-0, #363540)"/>
</g>
<g id="g6125">
<path id="path6127" d="M0.968555 17.1699H29.3315C30.0407 17.1699 30.6156 17.7448 30.6156 18.4539V20.1342H0.299805C0.46084 19.1235 0.685254 18.1342 0.968555 17.1699Z" fill="var(--fill-0, #D6D6D0)"/>
</g>
<g id="g6129">
<path id="path6131" d="M0.968555 17.1699H13.4299C13.3733 17.2569 13.3009 17.3341 13.2133 17.3953C12.7221 17.7384 12.01 18.4822 12.5824 19.6859C12.65 19.8281 12.6706 19.9829 12.6523 20.1342H0.299805C0.46084 19.1235 0.685254 18.1342 0.968555 17.1699Z" fill="var(--fill-0, #C6C6C1)"/>
</g>
</g>
</svg>
