<svg preserveAspectRatio="none" width="100%" height="100%" overflow="visible" style="display: block;" viewBox="0 0 48 56" fill="none" xmlns="http://www.w3.org/2000/svg">
<g id="Group">
<path id="Vector" d="M23.926 7.58135C10.712 7.58135 0 18.2934 0 31.5073C0 43.6724 9.0791 53.7164 20.8309 55.2344H27.0214C38.7731 53.7163 47.852 43.6724 47.852 31.5073C47.852 18.2934 37.1399 7.58135 23.926 7.58135Z" fill="var(--fill-0, #126D8A)"/>
<path id="Vector_2" d="M33.2016 27.8383C38.3265 22.7134 38.3265 14.4043 33.2016 9.27944C28.0767 4.15455 19.7676 4.15455 14.6427 9.27944C9.51783 14.4043 9.51783 22.7134 14.6427 27.8383C19.7676 32.9632 28.0767 32.9632 33.2016 27.8383Z" fill="var(--fill-0, #FFDD40)"/>
<path id="Vector_3" d="M10.8008 18.5586C10.8008 25.8074 16.6771 31.6837 23.9259 31.6837C27.4302 31.6837 30.6111 30.3077 32.965 28.0699C32.9045 28.0176 32.8294 27.9815 32.7459 27.9707C31.9273 27.8645 31.7778 27.3284 31.7743 26.963C31.7725 26.7679 31.6416 26.6006 31.4522 26.5537C30.5511 26.3306 30.3909 25.6781 30.3828 25.2741C30.3789 25.0779 30.2337 24.9155 30.0409 24.8785C26.8303 24.2624 27.0336 21.7589 27.1146 21.2273C27.126 21.1519 27.1179 21.0758 27.0886 21.0054C26.9304 20.6245 26.2666 19.433 23.9259 18.5587C21.6378 17.704 21.5812 15.2845 21.6416 14.3998C21.6547 14.2084 21.5344 14.0379 21.3529 13.9754C19.5312 13.3478 19.5447 11.6673 19.6488 10.9224C19.677 10.7209 19.556 10.534 19.3641 10.4667C18.4602 10.1498 18.4357 9.37774 18.5068 8.93096C18.5364 8.74571 18.435 8.57051 18.2632 8.49522C17.6674 8.23418 17.6001 7.6916 17.6275 7.33916C17.6349 7.24473 17.6101 7.15449 17.5622 7.0794C13.5305 9.31944 10.8008 13.6194 10.8008 18.5586Z" fill="var(--fill-0, #FFB332)"/>
<path id="Vector_4" d="M32.837 20.0033C33.6354 15.0784 30.2902 10.4387 25.3652 9.64035C20.4403 8.84198 15.8006 12.1872 15.0022 17.1122C14.2038 22.0371 17.5491 26.6768 22.474 27.4752C27.399 28.2735 32.0387 24.9283 32.837 20.0033Z" fill="var(--fill-0, #FCECA9)"/>
<path id="Vector_5" d="M30.264 24.9974C30.2051 24.9385 30.1291 24.8956 30.0425 24.879C26.8318 24.2629 27.0352 21.7594 27.1161 21.2277C27.1275 21.1523 27.1194 21.0763 27.0901 21.0059C26.9319 20.625 26.2682 19.4335 23.9274 18.5592C21.6394 17.7045 21.5827 15.285 21.6432 14.4003C21.6562 14.2089 21.5359 14.0384 21.3545 13.9759C19.5327 13.3482 19.5463 11.6678 19.6504 10.9229C19.665 10.8183 19.6388 10.7181 19.5839 10.636C16.788 12.1721 14.8926 15.1438 14.8926 18.5592C14.8926 23.549 18.9376 27.594 23.9274 27.594C26.3965 27.5939 28.6332 26.6026 30.264 24.9974Z" fill="var(--fill-0, #FFDD40)"/>
<path id="Vector_6" d="M23.9256 7.27471C17.7035 7.27471 12.6416 12.3367 12.6416 18.5587C12.6416 24.7808 17.7036 29.8427 23.9256 29.8427C30.1476 29.8427 35.2096 24.7808 35.2096 18.5587C35.2096 12.3367 30.1477 7.27471 23.9256 7.27471ZM23.9256 27.5937C18.9357 27.5937 14.8907 23.5485 14.8907 18.5588C14.8907 13.5689 18.9357 9.52393 23.9256 9.52393C28.9154 9.52393 32.9604 13.5689 32.9604 18.5588C32.9604 23.5485 28.9154 27.5937 23.9256 27.5937Z" fill="var(--fill-0, #FFB332)"/>
<path id="Vector_7" d="M23.9257 29.8426C26.9366 29.8426 29.6735 28.6549 31.699 26.7263C31.642 26.6427 31.5564 26.5794 31.452 26.5535C30.5508 26.3304 30.3906 25.6779 30.3825 25.2739C30.3804 25.1658 30.3343 25.069 30.2621 24.9968C28.6313 26.602 26.3946 27.5934 23.9256 27.5934C18.9357 27.5934 14.8907 23.5483 14.8907 18.5585C14.8907 15.1433 16.7862 12.1714 19.582 10.6354C19.5312 10.5594 19.4561 10.4989 19.3638 10.4665C18.4599 10.1496 18.4354 9.37754 18.5065 8.93076C18.5204 8.84405 18.5046 8.75996 18.4672 8.68682C14.9966 10.6135 12.6416 14.3154 12.6416 18.5584C12.6417 24.7806 17.7036 29.8426 23.9257 29.8426Z" fill="var(--fill-0, #FF9100)"/>
<path id="Vector_8" d="M33.1995 36.1605C38.3244 31.0356 38.3244 22.7265 33.1996 17.6016C28.0747 12.4768 19.7657 12.4768 14.6408 17.6017C9.51588 22.7266 9.51585 31.0357 14.6407 36.1605C19.7656 41.2854 28.0746 41.2854 33.1995 36.1605Z" fill="var(--fill-0, #FFDD40)"/>
<path id="Vector_9" d="M10.8008 26.8809C10.8008 34.1297 16.6771 40.0059 23.9259 40.0059C27.4302 40.0059 30.6111 38.6299 32.965 36.3921C32.9045 36.3398 32.8294 36.3037 32.7459 36.2929C31.9273 36.1866 31.7778 35.6506 31.7743 35.2852C31.7725 35.09 31.6416 34.9228 31.4522 34.8759C30.5511 34.6527 30.3909 34.0003 30.3828 33.5963C30.3789 33.4001 30.2337 33.2377 30.0409 33.2007C26.8303 32.5846 27.0336 30.0811 27.1146 29.5495C27.126 29.4741 27.1179 29.3981 27.0886 29.3276C26.9304 28.9468 26.2666 27.7553 23.9259 26.881C21.6378 26.0263 21.5812 23.6067 21.6416 22.7221C21.6547 22.5307 21.5344 22.3602 21.3529 22.2977C19.5312 21.67 19.5447 19.9896 19.6488 19.2446C19.677 19.0432 19.556 18.8563 19.3641 18.789C18.4602 18.4721 18.4357 17.7 18.5068 17.2532C18.5364 17.068 18.435 16.8928 18.2632 16.8175C17.6674 16.5564 17.6001 16.0139 17.6275 15.6614C17.6349 15.5671 17.6101 15.4769 17.5622 15.4017C13.5305 17.6416 10.8008 21.9416 10.8008 26.8809Z" fill="var(--fill-0, #FFB332)"/>
<path id="Vector_10" d="M30.3075 33.2678C33.8353 29.74 33.8353 24.0203 30.3075 20.4925C26.7797 16.9647 21.06 16.9647 17.5322 20.4925C14.0044 24.0203 14.0044 29.74 17.5322 33.2678C21.06 36.7956 26.7797 36.7956 30.3075 33.2678Z" fill="var(--fill-0, #FCECA9)"/>
<path id="Vector_11" d="M30.264 33.3195C30.2051 33.2606 30.1291 33.2178 30.0425 33.2012C26.8318 32.5851 27.0352 30.0815 27.1161 29.55C27.1275 29.4746 27.1194 29.3985 27.0901 29.3281C26.9319 28.9473 26.2682 27.7558 23.9274 26.8814C21.6394 26.0268 21.5827 23.6072 21.6432 22.7226C21.6562 22.5312 21.5359 22.3606 21.3545 22.2981C19.5327 21.6705 19.5463 19.99 19.6504 19.2451C19.665 19.1405 19.6388 19.0403 19.5839 18.9583C16.788 20.4943 14.8926 23.4661 14.8926 26.8814C14.8926 31.8713 18.9376 35.9163 23.9274 35.9163C26.3965 35.9161 28.6332 34.9247 30.264 33.3195Z" fill="var(--fill-0, #FFDD40)"/>
<path id="Vector_12" d="M23.9256 15.596C17.7035 15.596 12.6416 20.658 12.6416 26.88C12.6416 33.102 17.7036 38.164 23.9256 38.164C30.1476 38.164 35.2096 33.102 35.2096 26.88C35.2096 20.658 30.1477 15.596 23.9256 15.596ZM23.9256 35.9148C18.9357 35.9148 14.8907 31.8697 14.8907 26.88C14.8907 21.8901 18.9357 17.8451 23.9256 17.8451C28.9154 17.8451 32.9604 21.8901 32.9604 26.88C32.9604 31.8698 28.9154 35.9148 23.9256 35.9148Z" fill="var(--fill-0, #FFB332)"/>
<path id="Vector_13" d="M23.9257 38.1647C26.9366 38.1647 29.6735 36.9771 31.699 35.0484C31.642 34.9648 31.5564 34.9016 31.452 34.8757C30.5508 34.6525 30.3906 34.0001 30.3825 33.5961C30.3804 33.488 30.3343 33.3912 30.2621 33.319C28.6313 34.9241 26.3946 35.9155 23.9256 35.9155C18.9357 35.9155 14.8907 31.8705 14.8907 26.8807C14.8907 23.4654 16.7862 20.4936 19.582 18.9575C19.5312 18.8815 19.4561 18.8211 19.3638 18.7888C18.4599 18.4719 18.4354 17.6998 18.5065 17.253C18.5204 17.1663 18.5046 17.0822 18.4672 17.0091C14.9966 18.9357 12.6416 22.6377 12.6416 26.8807C12.6417 33.1027 17.7036 38.1647 23.9257 38.1647Z" fill="var(--fill-0, #FF9100)"/>
<path id="Vector_14" d="M27.6439 46.4515C27.2531 45.006 27.3801 43.8957 28.0208 43.1514C28.8445 42.1948 30.3375 42.055 31.1395 42.055C31.4646 42.055 31.6764 42.078 31.6835 42.0789L31.7424 42.0856L31.8049 42.0377L26.1137 36.357C24.9052 35.1509 22.9489 35.1509 21.7403 36.357L12.7251 45.3555C11.5151 46.5631 11.5133 48.523 12.7209 49.7329C13.9288 50.943 15.8887 50.9445 17.0984 49.737L20.3519 46.4896C20.5291 46.3126 20.8317 46.4382 20.8317 46.6886V55.2344C21.8451 55.3654 22.878 55.4334 23.927 55.4334C24.976 55.4334 26.009 55.3654 27.0224 55.2345V46.6889C27.0224 46.4384 27.3251 46.3129 27.5023 46.4899L27.7171 46.7042C27.6926 46.62 27.6671 46.5376 27.6439 46.4515Z" fill="var(--fill-0, #00C188)"/>
<g id="Group_2">
<path id="Vector_15" d="M5.94111 23.5229H3.09912C2.57725 23.5229 2.1543 23.0998 2.1543 22.5779C2.1543 22.0561 2.57734 21.6331 3.09912 21.6331H5.94102C6.46289 21.6331 6.88594 22.0562 6.88594 22.5779C6.88594 23.0998 6.46289 23.5229 5.94111 23.5229Z" fill="var(--fill-0, #FCECA9)"/>
</g>
<g id="Group_3">
<path id="Vector_16" d="M44.7536 23.5229H41.9116C41.3897 23.5229 40.9668 23.0998 40.9668 22.5779C40.9668 22.0561 41.3898 21.6331 41.9116 21.6331H44.7536C45.2755 21.6331 45.6985 22.0562 45.6985 22.5779C45.6984 23.0998 45.2755 23.5229 44.7536 23.5229Z" fill="var(--fill-0, #FCECA9)"/>
</g>
<g id="Group_4">
<path id="Vector_17" d="M4.70952 29.5409C4.38295 29.5409 4.06538 29.3715 3.89038 29.0683C3.62954 28.6163 3.78432 28.0385 4.23627 27.7776L6.6975 26.3566C7.14936 26.0956 7.72729 26.2504 7.98823 26.7024C8.24907 27.1543 8.09428 27.7321 7.64233 27.9931L5.181 29.4141C5.03227 29.5 4.86977 29.5409 4.70952 29.5409Z" fill="var(--fill-0, #FCECA9)"/>
</g>
<g id="Group_5">
<path id="Vector_18" d="M40.6792 18.9276C40.3527 18.9276 40.0351 18.7581 39.8601 18.4549C39.5993 18.003 39.754 17.4251 40.206 17.1642L42.6672 15.7432C43.1192 15.4824 43.697 15.6372 43.958 16.089C44.2188 16.541 44.064 17.1188 43.6121 17.3796L41.1508 18.8006C41.0021 18.8867 40.8396 18.9276 40.6792 18.9276Z" fill="var(--fill-0, #FCECA9)"/>
</g>
<g id="Group_6">
<path id="Vector_19" d="M43.1388 29.5409C42.9785 29.5409 42.8161 29.5 42.6672 29.4141L40.206 27.9931C39.754 27.7321 39.5993 27.1543 39.8601 26.7024C40.121 26.2504 40.6989 26.0956 41.1508 26.3566L43.6121 27.7776C44.064 28.0385 44.2188 28.6163 43.958 29.0683C43.7831 29.3713 43.4654 29.5409 43.1388 29.5409Z" fill="var(--fill-0, #FCECA9)"/>
</g>
<g id="Group_7">
<path id="Vector_20" d="M7.16909 18.9276C7.00874 18.9276 6.84633 18.8866 6.6975 18.8007L4.23627 17.3797C3.78432 17.1188 3.62954 16.5409 3.89038 16.0891C4.15131 15.6371 4.72924 15.4823 5.1811 15.7433L7.64233 17.1643C8.09428 17.4252 8.24907 18.003 7.98823 18.455C7.81323 18.7579 7.49555 18.9276 7.16909 18.9276Z" fill="var(--fill-0, #FCECA9)"/>
</g>
<path id="Vector_21" opacity="0.2" d="M8.18291 34.1522C5.16514 32.1875 2.10322 33.8733 0.302734 35.3258C1.21855 41.0351 4.1542 46.0686 8.35381 49.6718C8.18086 47.997 8.78818 46.4003 9.13223 45.4427C10.2065 42.453 14.3452 38.1643 8.18291 34.1522Z" fill="var(--fill-0, #E2F8FF)"/>
<path id="Vector_22" opacity="0.2" d="M39.6685 34.1522C42.6862 32.1875 45.7481 33.8733 47.5486 35.3258C46.6328 41.0351 43.6972 46.0686 39.4976 49.6718C39.6705 47.997 39.0632 46.4003 38.7191 45.4427C37.6449 42.453 33.5063 38.1643 39.6685 34.1522Z" fill="var(--fill-0, #E2F8FF)"/>
<path id="Vector_23" d="M35.1324 49.7332C36.3402 48.5233 36.3385 46.5635 35.1285 45.3558L31.7001 41.9337C31.7001 41.9337 26.0945 41.2817 27.5022 46.49L30.7553 49.7372C31.9654 50.9445 33.9251 50.9431 35.1324 49.7332Z" fill="var(--fill-0, #00C188)"/>
</g>
</svg>
