<svg preserveAspectRatio="none" width="100%" height="100%" overflow="visible" style="display: block;" viewBox="0 0 48 50" fill="none" xmlns="http://www.w3.org/2000/svg">
<g id="Group">
<path id="Vector" d="M23.926 2.14844C10.712 2.14844 0 12.8604 0 26.0744C0 26.8583 0.0389648 27.6331 0.112598 28.3978L7.76338 36.108L9.9668 45.4937L9.9582 45.5006C13.8887 48.3316 18.7122 50.0004 23.926 50.0004C37.1399 50.0004 47.852 39.2884 47.852 26.0744C47.852 12.8604 37.1399 2.14844 23.926 2.14844Z" fill="var(--fill-0, #126D8A)"/>
<path id="Vector_2" d="M27.3281 12.9941C26.2214 12.9941 25.3241 13.8914 25.3241 14.9981V25.7882L23.0537 33.51H25.3241V46.0144C25.3241 47.1211 26.2214 48.0184 27.3281 48.0184C28.4349 48.0184 29.3321 47.1211 29.3321 46.0144V14.9981C29.3321 13.8914 28.4349 12.9941 27.3281 12.9941Z" fill="var(--fill-0, #E0FFEA)"/>
<path id="Vector_3" d="M18.7477 30.3883L18.7467 30.3867C18.0692 30.9145 17.2226 31.2041 16.3613 31.2008L12.6123 31.2185V43.1171L17.8382 43.0632C18.5973 43.0287 19.353 43.1598 20.0626 43.4316L24.4799 38.0882L18.7477 30.3883Z" fill="var(--fill-0, #FFAA7B)"/>
<path id="Vector_4" d="M33.5034 32.752C33.6291 31.6688 32.7728 30.7566 31.7155 30.7799L26.0943 30.6364C25.5505 30.5307 25.3699 30.039 25.3236 29.456C25.3207 29.0996 25.3206 28.7396 25.3236 28.3854V25.7871H24.5898C23.2502 25.7871 21.8553 26.2776 20.7652 27.5494L20.2948 28.1698C19.7609 28.8539 19.2279 29.577 18.7472 30.3857L18.7481 30.3873C18.7481 30.3873 15.2003 37.341 20.0631 43.4307C23.1895 44.6284 26.7485 44.3469 26.7485 44.3469L30.905 44.2021C31.7312 44.1733 32.4881 43.4775 32.5371 42.6521C32.5954 41.6715 31.7916 40.8684 30.8322 40.9018L31.647 40.8734C32.4732 40.8446 33.2301 40.1488 33.2792 39.3234C33.3375 38.3428 32.5337 37.5396 31.5742 37.573C32.4814 37.5414 33.1977 36.7733 33.1662 35.8662C33.1389 35.0808 32.5591 34.4394 31.8152 34.3016L31.8179 34.3015C32.6776 34.2542 33.4041 33.6075 33.5034 32.752Z" fill="var(--fill-0, #FFC7AB)"/>
<path id="Vector_5" d="M27.3278 0C20.5016 0 14.9679 5.53369 14.9679 12.3598C14.9679 19.1859 20.5016 24.7195 27.3278 24.7195C28.3557 24.7195 29.3541 24.5933 30.3088 24.3567V0.362793C29.3541 0.12627 28.3557 0 27.3278 0Z" fill="var(--fill-0, #00B7A0)"/>
<path id="Vector_6" d="M30.3084 0.363281C24.9226 1.69727 20.9297 6.56211 20.9297 12.3603C20.9297 18.1585 24.9226 23.0233 30.3084 24.3572C35.6942 23.0232 39.6871 18.1584 39.6871 12.3603C39.6872 6.56211 35.6943 1.69727 30.3084 0.363281Z" fill="var(--fill-0, #3ECD8D)"/>
<g id="Group_2">
<path id="Vector_7" d="M41.0712 25.724L39.7715 23.4972C39.4142 22.8849 38.628 22.6782 38.0157 23.0356C37.4034 23.393 37.1968 24.179 37.5541 24.7913L38.8538 27.0182C39.2111 27.6305 39.9973 27.8371 40.6096 27.4798C41.2219 27.1224 41.4285 26.3363 41.0712 25.724Z" fill="var(--fill-0, #FFB300)"/>
<path id="Vector_8" d="M42.7957 19.5376L41.5279 19.275C40.8258 19.1296 40.1389 19.5876 40.0058 20.2953C39.8751 20.9899 40.3568 21.6544 41.0489 21.7977L42.275 22.0516C42.9693 22.1954 43.6486 21.7492 43.7924 21.055C43.9363 20.3607 43.49 19.6813 42.7957 19.5376Z" fill="var(--fill-0, #FFB300)"/>
<path id="Vector_9" d="M13.5825 25.724L14.8822 23.4972C15.2396 22.8849 16.0256 22.6782 16.6379 23.0356C17.2502 23.393 17.4569 24.179 17.0996 24.7913L15.7999 27.0182C15.4424 27.6305 14.6564 27.8371 14.0441 27.4798C13.4318 27.1224 13.225 26.3363 13.5825 25.724Z" fill="var(--fill-0, #FFB300)"/>
<path id="Vector_10" d="M11.8586 19.5376L13.1264 19.275C13.8285 19.1296 14.5154 19.5876 14.6485 20.2953C14.7792 20.9899 14.2975 21.6544 13.6054 21.7977L12.3793 22.0516C11.685 22.1954 11.0057 21.7492 10.8619 21.055C10.7181 20.3607 11.1643 19.6813 11.8586 19.5376Z" fill="var(--fill-0, #FFB300)"/>
</g>
<path id="Vector_11" d="M24.0445 10.6725C23.2611 9.84501 21.9493 9.82704 21.1435 10.6328C20.3658 11.4105 20.3515 12.667 21.1114 13.4621L25.0659 17.5287L27.2394 13.9626L24.0445 10.6725Z" fill="var(--fill-0, #BBF0F9)"/>
<path id="Vector_12" d="M33.4716 9.12268C32.679 8.3302 31.3943 8.3302 30.6018 9.12268L25.1146 14.6099C24.3503 15.3741 24.2598 16.6182 24.9731 17.4302C25.7547 18.32 27.1112 18.353 27.9353 17.5288L33.4717 11.9925C34.2641 11.2 34.2641 9.91516 33.4716 9.12268Z" fill="var(--fill-0, #E8F8FC)"/>
<path id="Vector_13" d="M10.0811 37.5195L11.4316 44.1813H13.8393C14.6687 44.1813 15.3474 43.5027 15.3474 42.6732V37.5195H10.0811Z" fill="var(--fill-0, #BBF0F9)"/>
<path id="Vector_14" d="M13.8387 29.71H11.4311L9.13574 33.9211L11.4405 38.3073H13.9028C14.5062 38.3073 15.0387 37.9924 15.3468 37.5193V31.218C15.3467 30.3886 14.6681 29.71 13.8387 29.71Z" fill="var(--fill-0, #E8F8FC)"/>
<path id="Vector_15" d="M7.10088 37.2344L4.08496 39.4448C5.66846 41.7899 7.65518 43.8404 9.94824 45.4937H9.96621C10.7771 45.4937 11.4405 44.8303 11.4405 44.0194V38.3074L7.10088 37.2344Z" fill="var(--fill-0, #6DA37F)"/>
<path id="Vector_16" d="M9.96654 28.3974H0.112343C0.504237 32.4639 1.91557 36.2313 4.08539 39.4445H9.64721C10.4365 39.4445 11.1202 38.9774 11.4409 38.3071V29.8717C11.4409 29.0608 10.7775 28.3974 9.96654 28.3974Z" fill="var(--fill-0, #98D6AD)"/>
</g>
</svg>
