<svg preserveAspectRatio="none" width="100%" height="100%" overflow="visible" style="display: block;" viewBox="0 0 50 50" fill="none" xmlns="http://www.w3.org/2000/svg">
<g id="cancel_1039367 1" clip-path="url(#clip0_0_62)">
<path id="Vector" d="M25 50C38.8071 50 50 38.8071 50 25C50 11.1929 38.8071 0 25 0C11.1929 0 0 11.1929 0 25C0 38.8071 11.1929 50 25 50Z" fill="var(--fill-0, #126D8A)"/>
<path id="Vector_2" opacity="0.2" d="M24.9997 42.1693C36.6444 42.1693 46.0844 32.7294 46.0844 21.0847C46.0844 9.43993 36.6444 0 24.9997 0C13.355 0 3.91504 9.43993 3.91504 21.0847C3.91504 32.7294 13.355 42.1693 24.9997 42.1693Z" fill="var(--fill-0, #E2F8FF)"/>
<path id="Vector_3" d="M20.8872 30.249C29.2402 30.249 36.0117 23.4775 36.0117 15.1245C36.0117 6.77147 29.2402 0 20.8872 0C12.5342 0 5.7627 6.77147 5.7627 15.1245C5.7627 23.4775 12.5342 30.249 20.8872 30.249Z" fill="var(--fill-0, #EF487D)"/>
<path id="Vector_4" d="M20.8864 28.0043C13.7846 28.0043 8.00684 22.2266 8.00684 15.1247C8.00674 8.02285 13.7845 2.24512 20.8864 2.24512C27.9883 2.24512 33.766 8.02285 33.766 15.1247C33.7659 22.2266 27.9882 28.0043 20.8864 28.0043Z" fill="var(--fill-0, #FF668C)"/>
<path id="Vector_5" d="M39.4467 34.5376V43.953C39.4467 44.4724 39.4089 44.9836 39.3334 45.4846C35.2752 48.3304 30.3334 49.9999 24.9997 49.9999C19.6956 49.9999 14.7783 48.3489 10.7323 45.5315C10.6129 44.6978 10.5518 43.854 10.5518 43.004V32.6325C10.5518 31.8467 10.8701 31.1355 11.3854 30.6203C11.515 30.4907 11.6568 30.3733 11.8089 30.2712C12.2619 29.9662 12.8089 29.7876 13.3967 29.7876C14.9681 29.7876 16.2416 31.061 16.2416 32.6325V30.2489C16.2416 29.4631 16.56 28.753 17.0753 28.2376C17.5906 27.7223 18.3019 27.404 19.0875 27.404C20.6579 27.404 21.9324 28.6785 21.9324 30.2489V29.2815C21.9324 28.4958 22.2508 27.7845 22.765 27.2693C23.2804 26.755 23.9916 26.4367 24.7772 26.4367C26.3486 26.4367 27.6222 27.7101 27.6222 29.2816V17.007C27.6222 16.2212 27.9405 15.51 28.4548 14.9958C28.5844 14.8662 28.7262 14.7488 28.8793 14.6458C29.3518 14.3274 29.9252 14.1467 30.5415 14.1631C32.0936 14.203 33.3119 15.5182 33.3119 17.0713V37.0856C33.3119 35.556 33.8721 34.1581 34.7977 33.0835C34.8977 32.9672 35.0007 32.856 35.1089 32.7478L35.1426 32.7141C36.7395 31.1417 39.4467 32.2958 39.4467 34.5376Z" fill="var(--fill-0, #F9D5A9)"/>
<g id="Group">
<path id="Vector_6" d="M28.8804 14.6455V35.1812C28.8804 35.5284 28.599 35.8099 28.2518 35.8099C27.9047 35.8099 27.6232 35.5284 27.6232 35.1812V17.0067C27.6232 16.221 27.9416 15.5098 28.4558 14.9955C28.5855 14.8659 28.7274 14.7486 28.8804 14.6455Z" fill="var(--fill-0, #E5A379)"/>
<path id="Vector_7" d="M23.1907 26.92V36.3363C23.1907 36.6835 22.9093 36.9649 22.5621 36.9649C22.2149 36.9649 21.9335 36.6835 21.9335 36.3363V29.2812C21.9335 28.4955 22.2519 27.7843 22.7661 27.27C22.8958 27.1404 23.0376 27.023 23.1907 26.92Z" fill="var(--fill-0, #E5A379)"/>
<path id="Vector_8" d="M17.5004 27.8877V37.051C17.5004 37.3981 17.2189 37.6796 16.8718 37.6796C16.5246 37.6796 16.2432 37.3981 16.2432 37.051V30.2489C16.2432 29.4632 16.5615 28.752 17.0758 28.2377C17.2055 28.1081 17.3473 27.9907 17.5004 27.8877Z" fill="var(--fill-0, #E5A379)"/>
<path id="Vector_9" d="M11.8099 30.2715V46.2409C11.4445 46.0134 11.0854 45.7767 10.7333 45.5317C10.6139 44.698 10.5527 43.8542 10.5527 43.0042V32.6327C10.5527 31.847 10.8711 31.1357 11.3864 30.6205C11.516 30.4909 11.6578 30.3735 11.8099 30.2715Z" fill="var(--fill-0, #E5A379)"/>
<path id="Vector_10" d="M34.7992 33.083V43.1605C34.7992 43.5709 34.4667 43.9034 34.0564 43.9034C33.646 43.9034 33.3135 43.5709 33.3135 43.1605V37.0851C33.3135 35.5555 33.8737 34.1575 34.7992 33.083Z" fill="var(--fill-0, #E5A379)"/>
</g>
<path id="Vector_11" d="M26.3998 18.136L23.3884 15.1244L26.3998 12.113C26.6892 11.8237 26.6892 11.3543 26.3998 11.065L24.9465 9.61165C24.6572 9.32229 24.1878 9.32229 23.8985 9.61165L20.887 12.6231L17.8755 9.61155C17.5862 9.32219 17.1168 9.32219 16.8275 9.61155L15.3742 11.0648C15.0849 11.3541 15.0849 11.8235 15.3742 12.1128L18.3858 15.1243L15.3743 18.1358C15.085 18.4251 15.085 18.8945 15.3743 19.1838L16.8276 20.637C17.1169 20.9264 17.5863 20.9264 17.8756 20.637L20.887 17.6256L23.8986 20.6371C24.1879 20.9265 24.6573 20.9265 24.9466 20.6371L26.3998 19.1839C26.6892 18.8948 26.6892 18.4254 26.3998 18.136Z" fill="var(--fill-0, white)"/>
</g>
<defs>
<clipPath id="clip0_0_62">
<rect width="50" height="50" fill="white"/>
</clipPath>
</defs>
</svg>
