<svg preserveAspectRatio="none" width="100%" height="100%" overflow="visible" style="display: block;" viewBox="0 0 60 60" fill="none" xmlns="http://www.w3.org/2000/svg">
<g id="BASIC UI GRADIENT FILL">
<path id="Vector" d="M58.1871 15.218C56.6121 9.4207 50.5828 3.39023 44.7844 1.81523C41.2289 0.929297 36.4664 0.0164063 30 0C23.5359 0.0164063 18.7734 0.929297 15.218 1.81523C9.4207 3.39023 3.39023 9.41953 1.81523 15.218C0.929297 18.7723 0.0164063 23.5359 0 30C0.0152344 36.4652 0.928125 41.2277 1.81406 44.7832C3.38906 50.5816 9.41953 56.6109 15.2168 58.1859C18.7723 59.0719 23.5371 59.9848 30 60C36.4641 59.9848 41.2277 59.0719 44.7832 58.1859C50.5816 56.6109 56.6109 50.5816 58.1859 44.7832C59.0719 41.2277 59.9848 36.4629 60.0012 30C59.9859 23.5359 59.073 18.7734 58.1871 15.218Z" fill="var(--fill-0, #E6F1F4)"/>
<path id="Vector_2" d="M34.9102 14.9602C34.8903 13.6712 34.3643 12.4418 33.4457 11.5373C32.5272 10.6328 31.2898 10.1259 30.0006 10.1259C28.7115 10.1259 27.4741 10.6328 26.5556 11.5373C25.637 12.4418 25.111 13.6712 25.0911 14.9602V32.3203C25.081 32.9714 25.2006 33.618 25.4428 34.2225C25.685 34.827 26.045 35.3772 26.5019 35.8412C26.9588 36.3053 27.5034 36.6737 28.1041 36.9253C28.7048 37.1768 29.3494 37.3063 30.0006 37.3063C30.6518 37.3063 31.2965 37.1768 31.8972 36.9253C32.4978 36.6737 33.0425 36.3053 33.4994 35.8412C33.9563 35.3772 34.3163 34.827 34.5585 34.2225C34.8007 33.618 34.9203 32.9714 34.9102 32.3203V14.9602Z" fill="url(#paint0_linear_0_88)"/>
<path id="Vector_3" d="M32.461 40.3582C30.8347 40.1067 29.1794 40.1067 27.5532 40.3582C26.461 40.5504 25.4965 41.516 25.3043 42.6035C25.052 44.2301 25.052 45.8859 25.3043 47.5125C25.4977 48.6035 26.4622 49.5691 27.5508 49.7613C28.3606 49.8918 29.1798 49.9549 30 49.95C30.8211 49.9554 31.6411 49.8923 32.4516 49.7613C33.5438 49.5691 34.5082 48.6035 34.7004 47.516C34.9528 45.8894 34.9528 44.2336 34.7004 42.607C34.5094 41.516 33.545 40.5469 32.461 40.3582Z" fill="url(#paint1_linear_0_88)"/>
</g>
<defs>
<linearGradient id="paint0_linear_0_88" x1="37.8129" y1="31.4531" x2="22.1883" y2="15.8285" gradientUnits="userSpaceOnUse">
<stop stop-color="#34344F"/>
<stop offset="0.26" stop-color="#3B3B57"/>
<stop offset="0.66" stop-color="#50506D"/>
<stop offset="1" stop-color="#666684"/>
</linearGradient>
<linearGradient id="paint1_linear_0_88" x1="33.9153" y1="48.9738" x2="26.086" y2="41.1457" gradientUnits="userSpaceOnUse">
<stop stop-color="#34344F"/>
<stop offset="0.26" stop-color="#3B3B57"/>
<stop offset="0.66" stop-color="#50506D"/>
<stop offset="1" stop-color="#666684"/>
</linearGradient>
</defs>
</svg>
