<svg preserveAspectRatio="none" width="100%" height="100%" overflow="visible" style="display: block;" viewBox="0 0 20 20" fill="none" xmlns="http://www.w3.org/2000/svg">
<g id="Group">
<path id="Vector" opacity="0.4" d="M10 20C15.5228 20 20 15.5228 20 10C20 4.47715 15.5228 0 10 0C4.47715 0 0 4.47715 0 10C0 15.5228 4.47715 20 10 20Z" fill="var(--fill-0, #118840)"/>
<path id="Fill 5" d="M8.81344 13.2485C8.58944 13.2485 8.36544 13.1635 8.19444 12.9925L5.82144 10.6195C5.47944 10.2775 5.47944 9.72345 5.82144 9.38245C6.16344 9.04045 6.71644 9.03945 7.05844 9.38145L8.81344 11.1365L12.9414 7.00845C13.2834 6.66645 13.8364 6.66645 14.1784 7.00845C14.5204 7.35045 14.5204 7.90445 14.1784 8.24645L9.43244 12.9925C9.26144 13.1635 9.03744 13.2485 8.81344 13.2485" fill="var(--fill-0, #118840)"/>
</g>
</svg>
