<svg preserveAspectRatio="none" width="100%" height="100%" overflow="visible" style="display: block;" viewBox="0 0 17 17" fill="none" xmlns="http://www.w3.org/2000/svg">
<g id="Chat">
<path id="Stroke 4" fill-rule="evenodd" clip-rule="evenodd" d="M13.8035 13.8024C11.5114 16.0948 8.11733 16.59 5.33981 15.3055C4.92978 15.1404 4.59361 15.007 4.27403 15.007C3.38387 15.0123 2.27587 15.8754 1.70002 15.3002C1.12417 14.7243 1.98795 13.6155 1.98795 12.7199C1.98795 12.4003 1.85981 12.0701 1.69474 11.6593C0.409623 8.88222 0.905582 5.48702 3.19769 3.1954C6.1237 0.268324 10.8775 0.268324 13.8035 3.19465C16.7348 6.12625 16.7295 10.8761 13.8035 13.8024Z" stroke="var(--stroke-0, #153860)" stroke-width="1.125" stroke-linecap="round" stroke-linejoin="round"/>
<path id="Stroke 11" d="M11.4541 8.80981H11.4609" stroke="var(--stroke-0, #153860)" stroke-width="1.5" stroke-linecap="round" stroke-linejoin="round"/>
<path id="Stroke 13" d="M8.44829 8.80981H8.45504" stroke="var(--stroke-0, #153860)" stroke-width="1.5" stroke-linecap="round" stroke-linejoin="round"/>
<path id="Stroke 15" d="M5.44096 8.80981H5.44771" stroke="var(--stroke-0, #153860)" stroke-width="1.5" stroke-linecap="round" stroke-linejoin="round"/>
</g>
</svg>
