<svg preserveAspectRatio="xMidYMid meet" width="24" height="24" viewBox="0 0 24 24" fill="none" xmlns="http://www.w3.org/2000/svg">
  <path
    d="M7.5 3H9.8C10.2 3 10.5 3.3 10.6 3.7L11.5 7.1C11.6 7.5 11.5 7.9 11.2 8.2L9.8 9.6C11 12 13 14 15.4 15.2L16.8 13.8C17.1 13.5 17.5 13.4 17.9 13.5L21.3 14.4C21.7 14.5 22 14.8 22 15.2V17.5C22 18.3 21.3 19 20.5 19C11.4 19 4 11.6 4 2.5C4 1.7 4.7 1 5.5 1H7.8C8.2 1 8.5 1.3 8.6 1.7L9.1 3.5C9.2 3.7 9 3.9 8.8 3.9H7.5C7.2 3.9 7 3.7 7 3.4V3.5C7 3.2 7.2 3 7.5 3Z"
    fill="#FFFFFF"
  />
</svg>










