<svg preserveAspectRatio="none" width="100%" height="100%" overflow="visible" style="display: block;" viewBox="0 0 18 16" fill="none" xmlns="http://www.w3.org/2000/svg">
<g id="Camera">
<path id="Stroke 1" fill-rule="evenodd" clip-rule="evenodd" d="M11.2417 1.25125C12.0833 1.58625 12.3408 2.75292 12.685 3.12792C13.0292 3.50292 13.5217 3.63042 13.7942 3.63042C15.2425 3.63042 16.4167 4.80458 16.4167 6.25208V11.0812C16.4167 13.0229 14.8417 14.5979 12.9 14.5979H4.51667C2.57417 14.5979 1 13.0229 1 11.0812V6.25208C1 4.80458 2.17417 3.63042 3.6225 3.63042C3.89417 3.63042 4.38667 3.50292 4.73167 3.12792C5.07583 2.75292 5.3325 1.58625 6.17417 1.25125C7.01667 0.91625 10.4 0.91625 11.2417 1.25125Z" stroke="var(--stroke-0, #454545)" stroke-width="1.25" stroke-linecap="round" stroke-linejoin="round"/>
<path id="Stroke 13" d="M13.2881 5.79183H13.2956" stroke="var(--stroke-0, #454545)" stroke-width="1.66667" stroke-linecap="round" stroke-linejoin="round"/>
<path id="Stroke 5" fill-rule="evenodd" clip-rule="evenodd" d="M11.3575 8.81517C11.3575 7.35184 10.1717 6.16601 8.70833 6.16601C7.245 6.16601 6.05916 7.35184 6.05916 8.81517C6.05916 10.2785 7.245 11.4643 8.70833 11.4643C10.1717 11.4643 11.3575 10.2785 11.3575 8.81517Z" stroke="var(--stroke-0, #454545)" stroke-width="1.25" stroke-linecap="round" stroke-linejoin="round"/>
</g>
</svg>
