<svg preserveAspectRatio="none" width="100%" height="100%" overflow="visible" style="display: block;" viewBox="0 0 32 32" fill="none" xmlns="http://www.w3.org/2000/svg">
<g id="calculation_17687093 1" clip-path="url(#clip0_0_120)">
<path id="Vector" d="M16.3828 22.3749C16.3828 22.8063 16.033 23.1561 15.6016 23.1561H4.71094C4.2795 23.1561 3.92969 22.8063 3.92969 22.3749C3.92969 21.9434 4.2795 21.5936 4.71094 21.5936H15.6016C16.0331 21.5936 16.3829 21.9434 16.3829 22.3749H16.3828ZM4.71088 14.875H12.1328C12.5642 14.875 12.9141 14.5252 12.9141 14.0938C12.9141 13.6623 12.5642 13.3125 12.1328 13.3125H4.71088C4.27944 13.3125 3.92963 13.6623 3.92963 14.0938C3.92963 14.5252 4.27944 14.875 4.71088 14.875ZM15.6016 17.4531H4.71094C4.2795 17.4531 3.92969 17.8029 3.92969 18.2343C3.92969 18.6657 4.2795 19.0156 4.71094 19.0156H15.6016C16.0331 19.0156 16.3829 18.6657 16.3829 18.2343C16.3829 17.8029 16.0331 17.4531 15.6016 17.4531H15.6016ZM20.9766 9.95319C20.9766 9.52175 20.6268 9.17194 20.1953 9.17194H16.7578C16.3264 9.17194 15.9766 9.52175 15.9766 9.95319C15.9766 10.3846 16.3264 10.7344 16.7578 10.7344H20.1953C20.6268 10.7344 20.9766 10.3846 20.9766 9.95319ZM15.6016 25.7342H4.71094C4.2795 25.7342 3.92969 26.084 3.92969 26.5154C3.92969 26.9469 4.2795 27.2967 4.71094 27.2967H15.6016C16.0331 27.2967 16.3829 26.9469 16.3829 26.5154C16.3829 26.084 16.0331 25.7342 15.6016 25.7342H15.6016ZM31.7663 17.875V29.625C31.7663 30.8139 30.7989 31.7812 29.61 31.7812H1.015C0.583563 31.7812 0.23375 31.4314 0.23375 31V1C0.23375 0.568563 0.583563 0.21875 1.015 0.21875H18.4466C18.6538 0.21875 18.8525 0.301062 18.9991 0.447562L24.5466 5.995C24.6931 6.1415 24.7754 6.34025 24.7754 6.54744V15.7187H29.61C30.7989 15.7187 31.7663 16.686 31.7663 17.8749V17.875ZM19.2279 5.76625H22.108L19.2279 2.88613V5.76625ZM1.79625 30.2188H18.6001C18.5459 30.03 18.5163 29.8309 18.5163 29.625V17.875C18.5163 16.6861 19.4836 15.7188 20.6725 15.7188H23.2129V7.32869H18.4466C18.0152 7.32869 17.6654 6.97888 17.6654 6.54744V1.78125H1.79625V30.2188ZM30.2038 17.875C30.2038 17.5476 29.9374 17.2812 29.6101 17.2812H20.6726C20.3452 17.2812 20.0788 17.5476 20.0788 17.875V29.625C20.0788 29.9524 20.3452 30.2188 20.6726 30.2188H29.6101C29.9374 30.2188 30.2038 29.9524 30.2038 29.625V17.875ZM29.2976 18.9766V23.6641C29.2976 24.0955 28.9478 24.4453 28.5163 24.4453H21.7663C21.3349 24.4453 20.9851 24.0955 20.9851 23.6641V18.9766C20.9851 18.5451 21.3349 18.1953 21.7663 18.1953H28.5163C28.9478 18.1953 29.2976 18.5451 29.2976 18.9766ZM27.7351 19.7578H22.5476V22.8828H27.7351V19.7578ZM22.4383 25.2578H21.7663C21.3349 25.2578 20.9851 25.6076 20.9851 26.0391C20.9851 26.4705 21.3349 26.8203 21.7663 26.8203H22.4383C22.8697 26.8203 23.2195 26.4705 23.2195 26.0391C23.2195 25.6076 22.8697 25.2578 22.4383 25.2578ZM25.4773 25.2578H24.8054C24.3739 25.2578 24.0241 25.6076 24.0241 26.0391C24.0241 26.4705 24.3739 26.8203 24.8054 26.8203H25.4773C25.9087 26.8203 26.2585 26.4705 26.2585 26.0391C26.2585 25.6076 25.9087 25.2578 25.4773 25.2578ZM28.5163 25.2578H27.8444C27.413 25.2578 27.0632 25.6076 27.0632 26.0391C27.0632 26.4705 27.413 26.8203 27.8444 26.8203H28.5163C28.9478 26.8203 29.2976 26.4705 29.2976 26.0391C29.2976 25.6076 28.9478 25.2578 28.5163 25.2578ZM22.4383 27.7421H21.7663C21.3349 27.7421 20.9851 28.0919 20.9851 28.5234C20.9851 28.9548 21.3349 29.3046 21.7663 29.3046H22.4383C22.8697 29.3046 23.2195 28.9548 23.2195 28.5234C23.2195 28.0919 22.8697 27.7421 22.4383 27.7421ZM25.4773 27.7421H24.8054C24.3739 27.7421 24.0241 28.0919 24.0241 28.5234C24.0241 28.9548 24.3739 29.3046 24.8054 29.3046H25.4773C25.9087 29.3046 26.2585 28.9548 26.2585 28.5234C26.2585 28.0919 25.9087 27.7421 25.4773 27.7421ZM28.5163 27.7421H27.8444C27.413 27.7421 27.0632 28.0919 27.0632 28.5234C27.0632 28.9548 27.413 29.3046 27.8444 29.3046H28.5163C28.9478 29.3046 29.2976 28.9548 29.2976 28.5234C29.2976 28.0919 28.9478 27.7421 28.5163 27.7421ZM6.78331 9.57263C6.22 9.557 5.60219 9.33694 5.51119 8.94637C5.41325 8.52619 4.99306 8.26488 4.57294 8.36294C4.15269 8.46088 3.8915 8.88094 3.98944 9.30112C4.19144 10.1678 4.93306 10.8036 5.95769 11.0378V11.3157C5.95769 11.7471 6.3075 12.0969 6.73894 12.0969C7.17038 12.0969 7.52019 11.7471 7.52019 11.3157V11.0809C8.48244 10.9152 9.21038 10.388 9.42513 9.653C9.5705 9.1555 9.52494 8.67094 9.29331 8.25175C8.98594 7.69531 8.36688 7.28144 7.45344 7.02175C7.27994 6.97237 7.09788 6.92931 6.92181 6.88769C6.5065 6.78944 6.03581 6.67813 5.81169 6.50419C5.69413 6.413 5.62556 6.31119 5.61875 6.21763C5.61269 6.13488 5.65331 6.04356 5.73306 5.9605C5.974 5.70944 6.69275 5.55462 7.33856 5.73394C7.4675 5.76975 7.89319 5.90763 7.955 6.17956C8.05063 6.60031 8.46938 6.86388 8.89 6.76819C9.31069 6.67256 9.57425 6.25388 9.47856 5.83319C9.30481 5.06881 8.67713 4.48387 7.75631 4.22837C7.68013 4.20725 7.60131 4.18831 7.52019 4.17188V3.91444C7.52019 3.483 7.17038 3.13319 6.73894 3.13319C6.3075 3.13319 5.95769 3.483 5.95769 3.91444V4.17331C5.448 4.28088 4.96519 4.50419 4.60588 4.8785C4.21538 5.28531 4.02169 5.80137 4.06044 6.33162C4.1 6.87269 4.38175 7.37244 4.85375 7.73869C5.34594 8.12056 5.992 8.27344 6.56206 8.40825C6.72875 8.44769 6.88619 8.48494 7.02606 8.52469C7.57969 8.68213 7.85375 8.87725 7.92569 9.00737C7.9385 9.03056 7.96513 9.07881 7.92538 9.21481C7.886 9.34962 7.46088 9.59106 6.78331 9.57275V9.57263Z" fill="var(--fill-0, #0A8778)"/>
</g>
<defs>
<clipPath id="clip0_0_120">
<rect width="32" height="32" fill="white"/>
</clipPath>
</defs>
</svg>
