<svg viewBox="0 0 100 100" fill="none" xmlns="http://www.w3.org/2000/svg">
<path d="M5.89534 72.3682H27.9394V97.2504H5.89534C4.32171 97.2504 3.04248 95.9708 3.04248 94.3975V75.221C3.04248 73.6477 4.32171 72.3682 5.89534 72.3682Z" fill="#FBAD3E"/>
<path d="M9.87662 24.1108C9.91001 24.6006 10.0202 25.0817 10.1954 25.5348C10.2066 25.5635 10.1922 25.5958 10.1635 25.6073C10.1348 25.618 10.1021 25.6037 10.091 25.575C10.0902 25.5735 10.0899 25.5721 10.0895 25.5707C9.94627 25.096 9.87267 24.602 9.87662 24.1108Z" fill="#3A3A3A"/>
<path d="M11.8392 27.8263C12.5522 28.4446 13.3992 28.9027 14.2961 29.1526C14.4214 29.1878 14.4946 29.3177 14.4598 29.4427C14.4246 29.5683 14.295 29.6416 14.1693 29.6064C14.1654 29.6057 14.1603 29.6043 14.1564 29.6028C13.2064 29.2783 12.3415 28.7411 11.6317 28.0518C11.5707 27.9929 11.5692 27.896 11.6285 27.835C11.6852 27.7768 11.7782 27.7739 11.8392 27.8263Z" fill="#3A3A3A"/>
<path d="M17.0469 29.2629C17.9581 29.1021 18.8302 28.7596 19.633 28.3036C19.819 28.198 20.0552 28.2627 20.1611 28.4486C20.2667 28.6346 20.2017 28.8716 20.0157 28.9771C20.0136 28.9786 20.0089 28.9807 20.0067 28.9822C19.1181 29.4575 18.1409 29.7742 17.1384 29.8919C16.9643 29.9121 16.8063 29.7878 16.7859 29.6133C16.7661 29.4453 16.8828 29.2924 17.0469 29.2629Z" fill="#3A3A3A"/>
<path d="M21.7835 26.5709C22.0625 26.2011 22.3907 25.8873 22.6233 25.4687L23.3787 24.2781L23.3981 24.2466C23.5424 24.0196 23.844 23.9521 24.0716 24.0965C24.2989 24.2401 24.3664 24.5417 24.2221 24.7693C24.2196 24.7736 24.2156 24.7794 24.2127 24.7837L23.3744 26.0094C23.1206 26.4295 22.7375 26.7871 22.4194 27.1727C22.2664 27.3579 21.9921 27.3845 21.8069 27.2315C21.6266 27.0829 21.5965 26.8201 21.7354 26.6348L21.7835 26.5709Z" fill="#3A3A3A"/>
<path d="M24.9758 21.7777C25.6066 20.9778 26.3477 20.2798 27.1314 19.6609C27.386 19.4591 27.7561 19.5022 27.9579 19.7564C28.16 20.0113 28.117 20.3811 27.8624 20.5836C27.8577 20.5872 27.8502 20.5929 27.8452 20.5965C27.0955 21.1472 26.4001 21.7605 25.8095 22.4584C25.6178 22.6853 25.2781 22.7141 25.0512 22.5223C24.8293 22.3342 24.7977 22.0046 24.9758 21.7777Z" fill="#3A3A3A"/>
<path d="M29.5859 17.9938C30.4196 17.489 31.2906 17.0373 32.1418 16.5569C32.451 16.3824 32.843 16.4909 33.0175 16.8003C33.1924 17.1091 33.0832 17.5012 32.7741 17.6764L32.768 17.6793L32.7285 17.7008C31.8948 18.1604 31.0457 18.5869 30.2232 19.0723C29.9252 19.2482 29.5414 19.1498 29.3654 18.8518C29.1906 18.556 29.2929 18.1718 29.5859 17.9938Z" fill="#3A3A3A"/>
<path d="M34.8484 15.3298C35.7826 14.9765 36.7538 14.6914 37.7559 14.5169C38.1239 14.453 38.4739 14.6993 38.5382 15.067C38.6025 15.4353 38.3562 15.7857 37.9881 15.8496L37.9799 15.8511C37.0766 15.9969 36.1833 16.2467 35.308 16.5663C34.9658 16.6912 34.5871 16.5153 34.4621 16.1728C34.3379 15.8331 34.5109 15.4576 34.8484 15.3298Z" fill="#3A3A3A"/>
<path d="M40.8057 14.3611C41.8221 14.4322 42.8213 14.621 43.7885 14.8867C44.1666 14.9901 44.3888 15.3807 44.2854 15.7584C44.1816 16.1369 43.7914 16.3587 43.4137 16.2553C43.4122 16.2553 43.4065 16.2532 43.4051 16.2532C42.515 15.9976 41.6103 15.8173 40.7012 15.7427C40.3196 15.7118 40.0356 15.3772 40.0668 14.9959C40.0973 14.6175 40.4276 14.3345 40.8057 14.3611Z" fill="#3A3A3A"/>
<path d="M46.6065 15.8766L49.2741 17.134C49.6374 17.3049 49.7933 17.7386 49.622 18.1019C49.4508 18.4652 49.0174 18.6211 48.6537 18.4502L48.6149 18.4315L46.0375 17.2129L45.9868 17.1893C45.6246 17.0176 45.4698 16.5854 45.6411 16.2227C45.8123 15.8608 46.2443 15.7057 46.6065 15.8766Z" fill="#3A3A3A"/>
<path d="M51.8412 18.49L54.3985 19.7969L54.4215 19.8083C54.7629 19.9828 54.8983 20.4015 54.7238 20.7425C54.5504 21.0815 54.1368 21.2172 53.7968 21.0484L51.1841 19.7509C50.8323 19.5764 50.6887 19.1492 50.8635 18.798C51.038 18.4462 51.4649 18.3026 51.8167 18.4771L51.8203 18.4792L51.8412 18.49Z" fill="#3A3A3A"/>
<path d="M56.9956 20.9732L59.6582 21.9354L59.7199 21.9576C60.0628 22.0819 60.2402 22.4596 60.1163 22.8028C59.9931 23.1424 59.6194 23.3198 59.2787 23.2013L56.4861 22.2291C56.1332 22.1056 55.9465 21.72 56.0697 21.3667C56.1924 21.0134 56.5784 20.8267 56.9317 20.9502L56.9356 20.9509L56.9956 20.9732Z" fill="#3A3A3A"/>
<path d="M62.3923 22.5964L65.1956 22.9246L65.2642 22.9325C65.6078 22.9727 65.8537 23.2836 65.8135 23.6276C65.7737 23.9679 65.4663 24.2128 65.1256 24.1776L62.1755 23.8667C61.8222 23.8294 61.5662 23.5127 61.6032 23.1594C61.6405 22.8061 61.9572 22.5498 62.3105 22.5871L62.314 22.5878L62.3923 22.5964Z" fill="#3A3A3A"/>
<path d="M68.0273 22.9838L70.8794 22.8272L70.9157 22.8251C71.2137 22.8085 71.4682 23.0369 71.4847 23.3342C71.5005 23.6257 71.2819 23.8756 70.9939 23.9022L68.0696 24.1657C67.7443 24.1944 67.4571 23.9546 67.4277 23.63C67.3986 23.3047 67.6384 23.0168 67.9634 22.9881C67.9695 22.9873 67.9756 22.9866 67.9813 22.9866L68.0273 22.9838Z" fill="#3A3A3A"/>
<path d="M73.729 22.4959C74.6844 22.363 75.6713 22.2151 76.6953 22.2525C76.938 22.2611 77.1276 22.4643 77.1186 22.707C77.1103 22.9447 76.9118 23.1306 76.6759 23.1306C75.764 23.1285 74.833 23.2958 73.8823 23.4638C73.6159 23.5105 73.3613 23.3331 73.3143 23.0667C73.2669 22.8003 73.4443 22.5461 73.711 22.4987C73.7161 22.4973 73.724 22.4966 73.729 22.4959Z" fill="#3A3A3A"/>
<path d="M79.635 23.2098L80.7692 24.098C81.1365 24.3623 81.5397 24.5806 81.9648 24.7493C82.1292 24.8139 82.21 24.9999 82.1457 25.1636C82.0836 25.3223 81.907 25.4028 81.7472 25.3503C81.265 25.1902 80.7994 24.9719 80.3656 24.6969L79.1855 23.8446L79.1676 23.8316C78.9934 23.706 78.9543 23.4626 79.08 23.2881C79.2056 23.1143 79.4487 23.0748 79.6232 23.2005C79.6268 23.2033 79.6314 23.2069 79.635 23.2098Z" fill="#3A3A3A"/>
<path d="M84.6823 25.1411L86.0459 24.8474C86.4857 24.693 86.9079 24.4812 87.3003 24.2212C87.3711 24.1746 87.4669 24.194 87.514 24.2643C87.5592 24.3333 87.5423 24.4245 87.4777 24.4733C87.0813 24.7698 86.6476 25.0197 86.1863 25.2122L84.739 25.6114C84.6133 25.6466 84.4834 25.5726 84.4486 25.447C84.4137 25.3213 84.4877 25.1913 84.6133 25.1569C84.6173 25.1554 84.6216 25.1547 84.6256 25.154L84.6823 25.1411Z" fill="#3A3A3A"/>
<path d="M89.2417 22.1662C89.4869 21.7462 89.6826 21.2938 89.8169 20.8213C89.7189 21.3031 89.5577 21.7734 89.3412 22.2194C89.3275 22.2474 89.2938 22.2588 89.2658 22.2452C89.2378 22.2323 89.2259 22.1985 89.2396 22.1698C89.2403 22.1691 89.241 22.1677 89.2417 22.1662Z" fill="#3A3A3A"/>
<path d="M19.819 72.3721V78.4403C19.819 79.1403 19.0537 79.545 18.4742 79.1622L16.4622 77.8061C16.1672 77.6096 15.7844 77.6096 15.4891 77.8173L13.5975 79.1291C13.0289 79.5231 12.2417 79.1184 12.2417 78.4185V72.3721H19.819Z" fill="#FA990E"/>
<path d="M17.0855 90.9382C16.2873 91.2773 15.4892 91.4631 14.691 91.5832C13.8928 91.7145 13.0946 91.7583 12.3071 91.7583C11.509 91.7583 10.7108 91.7033 9.9126 91.5832C9.11442 91.4631 8.31624 91.2773 7.51807 90.9382C8.31624 90.5992 9.11442 90.4241 9.9126 90.304C10.7108 90.1726 11.509 90.1288 12.3071 90.1182C13.0946 90.1182 13.8928 90.1726 14.691 90.304C15.4892 90.4241 16.2873 90.5992 17.0855 90.9382Z" fill="#FA990E"/>
<path d="M11.7385 93.4422C12.2089 93.5623 12.679 93.7481 13.1491 94.0872C12.679 94.4262 12.2089 94.6013 11.7385 94.7214C11.2684 94.8528 10.7983 94.9072 10.3282 94.9072C9.85814 94.8965 9.39872 94.8528 8.92862 94.7214C8.45826 94.6013 7.98816 94.4262 7.51807 94.0872C7.98816 93.7481 8.45826 93.5623 8.92862 93.4422C9.39872 93.3221 9.85814 93.2671 10.3282 93.2671C10.7983 93.2671 11.2684 93.3109 11.7385 93.4422Z" fill="#FA990E"/>
<path d="M59.3221 72.3682V97.2504H37.2776C35.7043 97.2504 34.4395 95.9708 34.4395 94.3975V75.221C34.4395 73.6477 35.7043 72.3682 37.2776 72.3682H59.3221Z" fill="#98D6AD"/>
<path d="M65.8217 74.6476V94.9716C65.8217 96.221 64.807 97.2507 63.5422 97.2507H59.3218V72.3828H63.5422C64.807 72.3828 65.8217 73.3974 65.8217 74.6476Z" fill="#31513C"/>
<path d="M51.2082 72.3726V78.4408C51.2082 79.1408 50.4429 79.5455 49.8633 79.1627L47.8513 77.8066C47.5563 77.6101 47.1735 77.6101 46.8783 77.8178L44.9867 79.1296C44.4181 79.5236 43.6309 79.1189 43.6309 78.4189V72.3726H51.2082Z" fill="#31513C"/>
<path d="M48.4752 90.9387C47.677 91.2777 46.8788 91.4635 46.0806 91.5837C45.2825 91.715 44.4843 91.7588 43.6968 91.7588C42.8986 91.7588 42.1004 91.7038 41.3022 91.5837C40.5041 91.4635 39.7059 91.2777 38.9077 90.9387C39.7059 90.5997 40.5041 90.4246 41.3022 90.3045C42.1004 90.1731 42.8986 90.1293 43.6968 90.1187C44.4843 90.1187 45.2825 90.1731 46.0806 90.3045C46.8788 90.4246 47.677 90.5997 48.4752 90.9387Z" fill="#31513C"/>
<path d="M43.1282 93.4427C43.5985 93.5628 44.0686 93.7486 44.5387 94.0876C44.0686 94.4267 43.5985 94.6018 43.1282 94.7219C42.6581 94.8533 42.188 94.9077 41.7179 94.9077C41.2478 94.897 40.7884 94.8533 40.3183 94.7219C39.8479 94.6018 39.3778 94.4267 38.9077 94.0876C39.3778 93.7486 39.8479 93.5628 40.3183 93.4427C40.7884 93.3226 41.2478 93.2676 41.7179 93.2676C42.188 93.2676 42.6581 93.3114 43.1282 93.4427Z" fill="#31513C"/>
<path d="M90.7045 72.3677V97.2499H68.6751C67.1015 97.2499 65.8223 95.9703 65.8223 94.3971V75.2205C65.8223 73.6473 67.1015 72.3677 68.6751 72.3677H90.7045Z" fill="#FBAD3E"/>
<path d="M97.2196 74.6466V94.9706C97.2196 96.22 96.1899 97.2497 94.9397 97.2497H90.7046V72.3818H94.9397C96.1899 72.3818 97.2196 73.3965 97.2196 74.6466Z" fill="#FA990E"/>
<path d="M34.4399 74.6466V94.9706C34.4399 96.22 33.4106 97.2497 32.1604 97.2497H27.9253V72.3818H32.1604C33.4106 72.3818 34.4399 73.3965 34.4399 74.6466Z" fill="#FA990E"/>
<path d="M82.5983 72.3716V78.4399C82.5983 79.1398 81.833 79.5445 81.2534 79.1617L79.2415 77.8056C78.9465 77.6091 78.5637 77.6091 78.2684 77.8168L76.3768 79.1286C75.8082 79.5226 75.021 79.1179 75.021 78.418V72.3716H82.5983Z" fill="#FA990E"/>
<path d="M79.8643 90.9377C79.0661 91.2768 78.268 91.4626 77.4698 91.5827C76.6716 91.714 75.8734 91.7578 75.0859 91.7578C74.2878 91.7578 73.4896 91.7028 72.6914 91.5827C71.8932 91.4626 71.0951 91.2768 70.2969 90.9377C71.0951 90.5987 71.8932 90.4236 72.6914 90.3035C73.4896 90.1721 74.2878 90.1284 75.0859 90.1177C75.8734 90.1177 76.6716 90.1721 77.4698 90.3035C78.268 90.4236 79.0661 90.5987 79.8643 90.9377Z" fill="#FA990E"/>
<path d="M74.5173 93.4417C74.9877 93.5618 75.4578 93.7476 75.9279 94.0867C75.4578 94.4257 74.9877 94.6008 74.5173 94.7209C74.0472 94.8523 73.5771 94.9067 73.107 94.9067C72.637 94.8961 72.1775 94.8523 71.7074 94.7209C71.2371 94.6008 70.767 94.4257 70.2969 94.0867C70.767 93.7476 71.2371 93.5618 71.7074 93.4417C72.1775 93.3216 72.637 93.2666 73.107 93.2666C73.5771 93.2666 74.0472 93.3104 74.5173 93.4417Z" fill="#FA990E"/>
<path d="M15.3779 60.2855C17.509 60.2855 19.2367 58.5579 19.2367 56.4267C19.2367 54.2955 17.509 52.5679 15.3779 52.5679C13.2467 52.5679 11.519 54.2955 11.519 56.4267C11.519 58.5579 13.2467 60.2855 15.3779 60.2855Z" fill="#88BBCC"/>
<path d="M29.5504 63.8782C32.1226 63.8782 34.2078 61.793 34.2078 59.2208C34.2078 56.6486 32.1226 54.5635 29.5504 54.5635C26.9782 54.5635 24.8931 56.6486 24.8931 59.2208C24.8931 61.793 26.9782 63.8782 29.5504 63.8782Z" fill="#88BBCC"/>
<path d="M15.3788 58.1566C16.334 58.1566 17.1082 57.3823 17.1082 56.4272C17.1082 55.472 16.334 54.6978 15.3788 54.6978C14.4237 54.6978 13.6494 55.472 13.6494 56.4272C13.6494 57.3823 14.4237 58.1566 15.3788 58.1566Z" fill="#F2F9FC"/>
<path d="M29.5509 61.7492C30.947 61.7492 32.0788 60.6174 32.0788 59.2213C32.0788 57.8252 30.947 56.6934 29.5509 56.6934C28.1547 56.6934 27.0229 57.8252 27.0229 59.2213C27.0229 60.6174 28.1547 61.7492 29.5509 61.7492Z" fill="#F2F9FC"/>
<path d="M84.5683 60.2855C86.6995 60.2855 88.4271 58.5579 88.4271 56.4267C88.4271 54.2955 86.6995 52.5679 84.5683 52.5679C82.4371 52.5679 80.7095 54.2955 80.7095 56.4267C80.7095 58.5579 82.4371 60.2855 84.5683 60.2855Z" fill="#88BBCC"/>
<path d="M70.3956 63.8782C72.9678 63.8782 75.053 61.793 75.053 59.2208C75.053 56.6486 72.9678 54.5635 70.3956 54.5635C67.8234 54.5635 65.7383 56.6486 65.7383 59.2208C65.7383 61.793 67.8234 63.8782 70.3956 63.8782Z" fill="#88BBCC"/>
<path d="M84.5683 58.1561C85.5234 58.1561 86.2977 57.3818 86.2977 56.4267C86.2977 55.4715 85.5234 54.6973 84.5683 54.6973C83.6131 54.6973 82.8389 55.4715 82.8389 56.4267C82.8389 57.3818 83.6131 58.1561 84.5683 58.1561Z" fill="#F2F9FC"/>
<path d="M70.3961 61.7488C71.7922 61.7488 72.924 60.617 72.924 59.2208C72.924 57.8247 71.7922 56.6929 70.3961 56.6929C69 56.6929 67.8682 57.8247 67.8682 59.2208C67.8682 60.617 69 61.7488 70.3961 61.7488Z" fill="#F2F9FC"/>
<path d="M44.8318 58.0233L4.42322 51.8853C3.47901 51.7419 2.78125 50.9301 2.78125 49.9751C2.78125 48.908 3.64629 48.043 4.71338 48.043H44.8318V58.0233Z" fill="#126D8A"/>
<path d="M55.1138 58.0228L95.5224 51.8848C96.4666 51.7414 97.1644 50.9296 97.1644 49.9746C97.1644 48.9075 96.2993 48.0425 95.2322 48.0425H55.1138V58.0228Z" fill="#126D8A"/>
<path d="M53.7534 35.3943H46.1859C45.8272 35.3943 45.55 35.0694 45.6129 34.7163C46.3759 30.4337 47.6834 26.1583 49.4229 21.89C49.6179 21.4116 50.3112 21.4199 50.4991 21.901C52.2414 26.3616 53.5743 30.6567 54.3264 34.7164C54.392 35.0705 54.1136 35.3943 53.7534 35.3943Z" fill="#126D8A"/>
<path d="M42.6838 36.652V40.5661C34.9699 40.6677 27.4873 39.3217 20.2168 36.652C28.1136 35.9448 35.6533 35.8575 42.6838 36.652Z" fill="#126D8A"/>
<path d="M57.2617 36.652V40.5661C64.9756 40.6677 72.4582 39.3217 79.7287 36.652C71.8319 35.9448 64.2922 35.8575 57.2617 36.652Z" fill="#126D8A"/>
<path d="M65.208 43.7399C65.208 50.927 58.3871 63.8653 49.9731 63.8653C41.5592 63.8653 34.7383 50.927 34.7383 43.7399C34.7383 36.5529 41.5592 30.7266 49.9731 30.7266C58.3871 30.7266 65.208 36.5529 65.208 43.7399Z" fill="#88BBCC"/>
<path d="M49.9689 54.9912C51.6308 55.0056 53.2777 55.1384 54.9397 55.7265C53.2777 56.3146 51.6308 56.4474 49.9689 56.4618C48.322 56.4324 46.6601 56.3002 45.0132 55.7265C46.6601 55.1528 48.322 55.0207 49.9689 54.9912Z" fill="#F2F9FC"/>
<path d="M49.9692 60.2264C51.5448 60.2264 52.8221 59.8972 52.8221 59.4912C52.8221 59.0851 51.5448 58.7559 49.9692 58.7559C48.3935 58.7559 47.1162 59.0851 47.1162 59.4912C47.1162 59.8972 48.3935 60.2264 49.9692 60.2264Z" fill="#F2F9FC"/>
<path d="M49.9689 52.6972C47.7924 52.6677 45.6012 52.5356 43.4248 51.9619C45.6012 51.3738 47.7924 51.2416 49.9689 51.2266C52.16 51.2416 54.3365 51.3738 56.5276 51.9619C54.3365 52.5356 52.16 52.6677 49.9689 52.6972Z" fill="#F2F9FC"/>
<path d="M60.7929 43.7418V44.1388C60.7193 45.3739 59.7043 46.3447 58.4545 46.3447H41.4839C40.2484 46.3447 39.2191 45.3739 39.1602 44.1388C39.1602 44.0067 39.1455 43.8739 39.1455 43.7418C39.1455 38.9918 43.9985 35.1387 49.9692 35.1387C55.9399 35.1387 60.7929 38.9918 60.7929 43.7418Z" fill="#F2F9FC"/>
<path d="M48.897 34.2192H51.0411V47.8839H48.897V34.2192Z" fill="#88BBCC"/>
<path d="M97.1636 9.51953C97.1636 12.3697 93.2294 18.3492 91.3594 21.0304C90.8899 21.7036 89.8982 21.7036 89.4287 21.0304C87.5587 18.3492 83.6245 12.3697 83.6245 9.51953C83.6245 5.78082 86.6553 2.75 90.394 2.75C94.1328 2.75 97.1636 5.78082 97.1636 9.51953Z" fill="#B53016"/>
<path d="M90.3933 14.581C93.1888 14.581 95.4551 12.3148 95.4551 9.51928C95.4551 6.72375 93.1888 4.45752 90.3933 4.45752C87.5978 4.45752 85.3315 6.72375 85.3315 9.51928C85.3315 12.3148 87.5978 14.581 90.3933 14.581Z" fill="#912010"/>
<path d="M90.3941 13.1677C92.4092 13.1677 94.0427 11.5342 94.0427 9.51913C94.0427 7.50411 92.4092 5.87061 90.3941 5.87061C88.3791 5.87061 86.7456 7.50411 86.7456 9.51913C86.7456 11.5342 88.3791 13.1677 90.3941 13.1677Z" fill="white"/>
<path d="M16.5859 13.3188C16.5859 16.169 12.6517 22.1485 10.7817 24.8298C10.3123 25.5029 9.32054 25.5029 8.85107 24.8298C6.98106 22.1485 3.04688 16.169 3.04688 13.3188C3.04688 9.58014 6.0777 6.54932 9.8164 6.54932C13.5551 6.54932 16.5859 9.58014 16.5859 13.3188Z" fill="#B53016"/>
<path d="M9.81665 18.3813C12.6122 18.3813 14.8784 16.1151 14.8784 13.3196C14.8784 10.524 12.6122 8.25781 9.81665 8.25781C7.02111 8.25781 4.75488 10.524 4.75488 13.3196C4.75488 16.1151 7.02111 18.3813 9.81665 18.3813Z" fill="#912010"/>
<path d="M9.8165 16.968C11.8315 16.968 13.465 15.3345 13.465 13.3194C13.465 11.3044 11.8315 9.6709 9.8165 9.6709C7.80147 9.6709 6.16797 11.3044 6.16797 13.3194C6.16797 15.3345 7.80147 16.968 9.8165 16.968Z" fill="white"/>
</svg>
