<svg viewBox="0 0 25 24" fill="none" xmlns="http://www.w3.org/2000/svg">
<path fill-rule="evenodd" clip-rule="evenodd" d="M16.2654 10.7901C16.115 10.6191 15.9112 10.523 15.6986 10.523C15.4861 10.523 15.2822 10.6191 15.1318 10.7901L13.2924 12.8841V2.9131C13.2924 2.67093 13.2079 2.43868 13.0575 2.26744C12.9071 2.0962 12.7031 2 12.4903 2C12.2776 2 12.0736 2.0962 11.9232 2.26744C11.7728 2.43868 11.6883 2.67093 11.6883 2.9131V12.8841L9.84886 10.7901C9.69682 10.6288 9.49571 10.541 9.28792 10.5451C9.08013 10.5493 8.88188 10.6452 8.73492 10.8124C8.58797 10.9797 8.50379 11.2054 8.50012 11.442C8.49646 11.6785 8.57359 11.9075 8.71527 12.0806L11.9236 15.733C12.0739 15.904 12.2778 16 12.4903 16C12.7029 16 12.9068 15.904 13.0571 15.733L16.2654 12.0806C16.4156 11.9094 16.5 11.6773 16.5 11.4353C16.5 11.1934 16.4156 10.9613 16.2654 10.7901Z" fill="#64748B"/>
<path opacity="0.4" d="M19.685 13C19.125 13 18.635 13.3425 18.2387 13.7387L14.4887 17.4887C14.2276 17.7499 13.9175 17.9571 13.5763 18.0984C13.2351 18.2398 12.8693 18.3125 12.5 18.3125C12.1307 18.3125 11.7649 18.2398 11.4237 18.0984C11.0825 17.9571 10.7724 17.7499 10.5113 17.4887L6.76125 13.7387C6.365 13.3425 5.875 13 5.315 13H2.5C2.5 15.6522 3.55357 18.1957 5.42893 20.0711C7.3043 21.9464 9.84784 23 12.5 23C15.1522 23 17.6957 21.9464 19.5711 20.0711C21.4464 18.1957 22.5 15.6522 22.5 13H19.685Z" fill="#64748B"/>
</svg>
