<svg viewBox="0 0 55 54" fill="none" xmlns="http://www.w3.org/2000/svg">
<circle cx="27.6665" cy="27" r="27" fill="white"/>
<g filter="url(#filter0_d_2212_273150)">
<path d="M40.9641 32.9764H40.9137C40.7738 33.0772 40.6736 33.1495 40.5338 33.2503C38.8675 38.3575 34.4838 42.3633 28.9886 43.4017C28.8663 43.5497 28.7861 43.6467 28.6638 43.7947C27.8431 43.9295 26.9997 43.9993 26.1405 43.9993C19.888 43.9993 14.5081 40.3 12.0671 34.9685C12.1768 34.8 12.2717 34.6557 12.2803 34.6425C9.71277 28.7743 11.089 22.1629 15.4324 17.8194C17.6322 15.6196 20.3758 14.1913 23.3582 13.6414C23.481 13.4933 23.5607 13.397 23.6836 13.2496C24.4902 13.1209 25.3127 13.0557 26.1405 13.0557C27.523 13.0557 28.8909 13.2383 30.2123 13.5975C29.3 14.8731 28.7627 16.4343 28.7627 18.1182C28.7627 24.1263 35.9083 28.3907 36.2124 28.5686C36.4203 28.6908 36.6766 28.6908 36.8844 28.5686C37.0504 28.4717 39.247 27.1615 41.2118 25.0181C41.8141 27.6072 41.7416 30.3799 40.9641 32.9764Z" fill="url(#paint0_linear_2212_273150)"/>
<path d="M21.6913 21.0247L27.6675 27.001V30.9851L21.6913 36.9614L19.6992 34.9693H12.0642C9.51263 29.4009 10.3956 22.393 15.1997 17.5877C17.5344 15.2537 20.484 13.7563 23.6833 13.249V19.0327L21.6913 21.0247Z" fill="#31513C"/>
<path d="M40.9659 32.9766C39.3194 38.4927 34.5962 42.8279 28.6636 43.7963V36.9607L32.6477 32.9766H40.9659V32.9766Z" fill="#486853"/>
<path d="M20.4426 24.3154C18.5053 24.3154 16.9292 25.8915 16.9292 27.8288C16.9292 30.5107 20.0899 32.3967 20.2244 32.4757C20.3592 32.5548 20.5261 32.5548 20.6608 32.4757C20.7954 32.3967 23.956 30.5107 23.956 27.8288C23.956 25.8916 22.3799 24.3154 20.4426 24.3154Z" fill="#6DA37F"/>
<path d="M17.759 13.5791C15.8217 13.5791 14.2456 15.1552 14.2456 17.0925C14.2456 19.7744 17.4063 21.6604 17.5408 21.7394C17.6756 21.8184 17.8425 21.8184 17.9772 21.7394C18.1118 21.6604 21.2724 19.7744 21.2724 17.0925C21.2724 15.1552 19.6963 13.5791 17.759 13.5791Z" fill="#6DA37F"/>
<path d="M32.0745 30.5791C30.1371 30.5791 28.561 32.1552 28.561 34.0925C28.561 36.7744 31.7217 38.6604 31.8563 38.7394C31.991 38.8184 32.1579 38.8184 32.2927 38.7394C32.4272 38.6604 35.5879 36.7744 35.5879 34.0925C35.5879 32.1552 34.0118 30.5791 32.0745 30.5791Z" fill="#6DA37F"/>
<path d="M36.5483 10.001C32.072 10.001 28.4302 13.6428 28.4302 18.1191C28.4302 24.3159 35.7333 28.6737 36.0442 28.8562C36.3555 29.0389 36.7412 29.0389 37.0526 28.8562C37.3634 28.6738 44.6665 24.3159 44.6665 18.1191C44.6665 13.6428 41.0247 10.001 36.5483 10.001Z" fill="#5B946E"/>
<circle cx="36.6138" cy="18.0528" r="4.47368" fill="white"/>
<circle cx="20.5087" cy="27.8949" r="1.78947" fill="white"/>
<circle cx="17.8241" cy="17.1576" r="1.78947" fill="white"/>
<circle cx="32.1405" cy="34.1576" r="1.78947" fill="white"/>
</g>
<defs>
<filter id="filter0_d_2212_273150" x="2.48469" y="3.45455" width="50.3636" height="50.3636" filterUnits="userSpaceOnUse" color-interpolation-filters="sRGB">
<feFlood flood-opacity="0" result="BackgroundImageFix"/>
<feColorMatrix in="SourceAlpha" type="matrix" values="0 0 0 0 0 0 0 0 0 0 0 0 0 0 0 0 0 0 127 0" result="hardAlpha"/>
<feOffset dy="1.63636"/>
<feGaussianBlur stdDeviation="4.09091"/>
<feComposite in2="hardAlpha" operator="out"/>
<feColorMatrix type="matrix" values="0 0 0 0 0.772549 0 0 0 0 0.854902 0 0 0 0 0.8 0 0 0 1 0"/>
<feBlend mode="normal" in2="BackgroundImageFix" result="effect1_dropShadow_2212_273150"/>
<feBlend mode="normal" in="SourceGraphic" in2="effect1_dropShadow_2212_273150" result="shape"/>
</filter>
<linearGradient id="paint0_linear_2212_273150" x1="26.3015" y1="13.0557" x2="26.3015" y2="43.9993" gradientUnits="userSpaceOnUse">
<stop stop-color="#6DA37F"/>
<stop offset="1" stop-color="#C5DACC"/>
</linearGradient>
</defs>
</svg>
