<svg viewBox="0 0 24 24" fill="none" xmlns="http://www.w3.org/2000/svg">
<path d="M14.701 8.41382L14.686 8.43281H14.7102H19.8735C20.0317 8.43281 20.1084 8.62617 19.9944 8.73366L19.9943 8.73371L6.4404 21.6665L6.44035 21.6666C6.31309 21.7894 6.10633 21.669 6.14816 21.4973L8.24345 13.1161L8.24709 13.1016H8.23208H4.14458C4.00835 13.1016 3.92488 12.9544 3.99298 12.8379L3.99301 12.8379L10.0657 2.34962L10.0657 2.34948C10.0964 2.29474 10.1557 2.26172 10.2172 2.26172H19.2055C19.3526 2.26172 19.4342 2.43078 19.3439 2.54747C19.3439 2.54749 19.3439 2.5475 19.3439 2.54752L14.701 8.41382ZM8.85118 17.1651L8.84136 17.2044L8.87064 17.1764L16.366 10.0257L16.3871 10.0055H16.3579H11.4368L16.3038 3.85336L16.3188 3.83438H16.2946H11.0305V3.82271L11.0204 3.84022L6.57663 11.5137L6.56644 11.5312H6.58677H10.2608L8.85118 17.1651Z" fill="#FFB300" stroke="white" stroke-width="0.0234375"/>
</svg>
