<svg viewBox="0 0 40 40" fill="none" xmlns="http://www.w3.org/2000/svg">
<g clip-path="url(#clip0_1681_57836)">
<path d="M19.9999 1.71826C9.42874 1.71826 0.859131 10.2879 0.859131 20.859C0.859131 27.4842 4.22538 33.3227 9.34046 36.7587L19.904 39.9986C19.936 39.9988 19.9679 39.9999 20 39.9999C30.5712 39.9999 39.1408 31.4303 39.1408 20.8591C39.1408 10.2879 30.5711 1.71826 19.9999 1.71826Z" fill="#126D8A"/>
<path d="M16.849 6.50627C16.849 6.50627 15.9375 3.48541 13.6198 3.22502C11.9138 3.0333 11.9574 1.4308 12.0993 0.598145C10.3044 1.51064 9.07373 3.37354 9.07373 5.52502C9.07373 8.57643 11.5474 11.0501 14.5988 11.0501C16.6072 11.0501 18.3649 9.97838 19.3322 8.3758C16.8029 8.96361 16.849 6.50627 16.849 6.50627Z" fill="#6DA37F"/>
<path d="M14.5987 0C13.6704 0 12.7962 0.23 12.0283 0.634453C11.8811 1.45391 11.8065 3.1082 13.5415 3.30312C15.8593 3.56352 16.7707 6.58437 16.7707 6.58437C16.7707 6.58437 16.724 9.06414 19.2879 8.44609C19.817 7.59852 20.1237 6.59781 20.1237 5.52508C20.1237 2.47367 17.6501 0 14.5987 0Z" fill="#6DA37F"/>
<path d="M32.8077 6.50627C32.8077 6.50627 31.8962 3.48541 29.5785 3.22502C27.8725 3.0333 27.9161 1.4308 28.0579 0.598145C26.263 1.51064 25.0323 3.37354 25.0323 5.52502C25.0323 8.57643 27.506 11.0501 30.5574 11.0501C32.5658 11.0501 34.3235 9.97838 35.2908 8.3758C32.7616 8.96361 32.8077 6.50627 32.8077 6.50627Z" fill="#6DA37F"/>
<path d="M30.5573 0C29.629 0 28.7549 0.23 27.9869 0.634453C27.8397 1.45391 27.7651 3.1082 29.5002 3.30312C31.8179 3.56352 32.7293 6.58437 32.7293 6.58437C32.7293 6.58437 32.6826 9.06414 35.2465 8.44609C35.7756 7.59852 36.0824 6.59781 36.0824 5.52508C36.0824 2.47367 33.6087 0 30.5573 0Z" fill="#6DA37F"/>
<path d="M16.7708 37.2615C16.9864 35.603 18.2265 35.2109 19.0108 35.131C18.0023 33.795 16.4016 32.9312 14.5987 32.9312C12.1397 32.9312 10.0568 34.5381 9.34045 36.7589C10.1265 37.2869 10.9544 37.7576 11.8172 38.1663L16.9916 39.7536C16.7801 39.2118 16.6225 38.4015 16.7708 37.2615Z" fill="#6DA37F"/>
<path d="M16.6144 37.1834C16.463 38.3477 16.6306 39.1682 16.8489 39.7098L17.0593 39.7743C17.9872 39.9173 18.937 39.994 19.9038 39.9987C20.046 39.509 20.1237 38.9918 20.1237 38.4562C20.1237 37.1684 19.6818 35.9844 18.943 35.0449C18.1674 35.1044 16.8384 35.4609 16.6144 37.1834Z" fill="#6DA37F"/>
<path d="M14.5986 7.66695C14.1267 7.66695 13.6687 7.6075 13.2314 7.49617V17.8718C13.2314 18.6269 13.8436 19.239 14.5986 19.239C15.3537 19.239 15.9658 18.6269 15.9658 17.8718V7.49609C15.5286 7.60742 15.0706 7.66695 14.5986 7.66695Z" fill="white"/>
<path d="M30.5574 7.58143C30.0854 7.58143 29.6275 7.52197 29.1902 7.41064V16.1429C29.1902 16.898 29.8023 17.5101 30.5574 17.5101C31.3125 17.5101 31.9246 16.898 31.9246 16.1429V7.41064C31.4873 7.52197 31.0292 7.58143 30.5574 7.58143Z" fill="white"/>
<path d="M14.5986 36.3796C15.0706 36.3796 15.5286 36.439 15.9658 36.5503V17.8716C15.9658 17.1165 15.3537 16.5044 14.5986 16.5044C13.8436 16.5044 13.2314 17.1165 13.2314 17.8716V36.5506C13.6687 36.4392 14.1267 36.3796 14.5986 36.3796Z" fill="white"/>
<path d="M14.5986 31.5429C13.8436 31.5429 13.2314 30.9307 13.2314 30.1757V27.7887C13.2314 23.8241 16.4569 20.5986 20.4215 20.5986H24.7344C25.4895 20.5986 26.1016 21.2107 26.1016 21.9658C26.1016 22.7209 25.4895 23.333 24.7344 23.333H20.4215C17.9646 23.333 15.9658 25.3318 15.9658 27.7887V30.1757C15.9658 30.9307 15.3537 31.5429 14.5986 31.5429Z" fill="white"/>
<path d="M24.7345 23.3327C23.9794 23.3327 23.3673 22.7205 23.3673 21.9655C23.3673 21.2104 23.9794 20.5983 24.7345 20.5983C27.1914 20.5983 29.1902 18.5995 29.1902 16.1426C29.1902 15.3875 29.8023 14.7754 30.5574 14.7754C31.3125 14.7754 31.9246 15.3875 31.9246 16.1426C31.9246 20.1072 28.6991 23.3327 24.7345 23.3327Z" fill="white"/>
<path d="M14.5987 8.32285C16.1438 8.32285 17.3963 7.0703 17.3963 5.5252C17.3963 3.98009 16.1438 2.72754 14.5987 2.72754C13.0536 2.72754 11.801 3.98009 11.801 5.5252C11.801 7.0703 13.0536 8.32285 14.5987 8.32285Z" fill="#F2F9FC"/>
<path d="M30.5574 8.32285C32.1025 8.32285 33.3551 7.0703 33.3551 5.5252C33.3551 3.98009 32.1025 2.72754 30.5574 2.72754C29.0123 2.72754 27.7598 3.98009 27.7598 5.5252C27.7598 7.0703 29.0123 8.32285 30.5574 8.32285Z" fill="#F2F9FC"/>
<path d="M14.5987 35.6587C13.1517 35.6587 11.9613 36.7574 11.816 38.166C13.452 38.941 15.2149 39.4916 17.0656 39.7763C17.2764 39.3831 17.3963 38.9338 17.3963 38.4563C17.3964 36.9112 16.1438 35.6587 14.5987 35.6587Z" fill="#F2F9FC"/>
<path d="M4.02546 10.3135C2.02499 13.3375 0.859131 16.9621 0.859131 20.8593C0.859131 25.5939 2.57858 29.9264 5.42655 33.2678C6.16968 33.2189 6.81632 33.0293 7.3739 32.7598C9.18835 31.8831 10.3124 30.0138 10.3124 27.9986V15.8554C10.3124 12.1596 6.29905 10.7918 4.02546 10.3135Z" fill="#153860"/>
<path d="M39.1407 20.8592C39.1407 18.4085 38.6794 16.0658 37.8401 13.9121C36.3078 14.1707 34.8437 15.0588 34.8437 17.5099C34.8437 22.6521 31.6201 25.012 27.6459 26.5274C23.9424 27.9396 20.0736 33.8777 26.3705 38.9127C33.8094 36.2877 39.1407 29.1966 39.1407 20.8592Z" fill="#153860"/>
</g>
<defs>
<clipPath id="clip0_1681_57836">
<rect width="40" height="40" fill="white"/>
</clipPath>
</defs>
</svg>
