<svg viewBox="0 0 21 21" fill="none" xmlns="http://www.w3.org/2000/svg">
<path opacity="0.4" fill-rule="evenodd" clip-rule="evenodd" d="M4.41064 18.5884C4.41064 17.7484 5.09064 17.0684 5.93064 17.0684C6.76064 17.0684 7.44064 17.7484 7.44064 18.5884C7.44064 19.4184 6.76064 20.0984 5.93064 20.0984C5.09064 20.0984 4.41064 19.4184 4.41064 18.5884ZM15.6606 18.5884C15.6606 17.7484 16.3406 17.0684 17.1806 17.0684C18.0106 17.0684 18.6906 17.7484 18.6906 18.5884C18.6906 19.4184 18.0106 20.0984 17.1806 20.0984C16.3406 20.0984 15.6606 19.4184 15.6606 18.5884Z" fill="#64748B"/>
<path fill-rule="evenodd" clip-rule="evenodd" d="M18.6907 4.34933C19.3007 4.34933 19.7007 4.55933 20.1007 5.01933C20.5007 5.47933 20.5707 6.13933 20.4807 6.73833L19.5307 13.2983C19.3507 14.5593 18.2707 15.4883 17.0007 15.4883H6.09074C4.76074 15.4883 3.66074 14.4683 3.55074 13.1493L2.63074 2.24833L1.12074 1.98833C0.720742 1.91833 0.440742 1.52833 0.510742 1.12833C0.580742 0.71833 0.970742 0.44833 1.38074 0.50833L3.76574 0.86833C4.10574 0.92933 4.35574 1.20833 4.38574 1.54833L4.57574 3.78833C4.60574 4.10933 4.86574 4.34933 5.18574 4.34933H18.6907ZM12.6307 9.54833H15.4007C15.8207 9.54833 16.1507 9.20833 16.1507 8.79833C16.1507 8.37833 15.8207 8.04833 15.4007 8.04833H12.6307C12.2107 8.04833 11.8807 8.37833 11.8807 8.79833C11.8807 9.20833 12.2107 9.54833 12.6307 9.54833Z" fill="#64748B"/>
</svg>
