<svg viewBox="0 0 19 18" fill="none" xmlns="http://www.w3.org/2000/svg">
<path fill-rule="evenodd" clip-rule="evenodd" d="M2.57812 12.6525V6.94275H16.0781V12.6982C16.0781 15.0525 14.5962 16.5 12.2252 16.5H6.42362C4.07483 16.5 2.57812 15.0225 2.57812 12.6525ZM6.29737 10.8075C5.95653 10.8233 5.67498 10.5525 5.66016 10.2083C5.66016 9.86325 5.9269 9.57825 6.26773 9.5625C6.60116 9.5625 6.8753 9.82575 6.88271 10.1625C6.89753 10.5082 6.63079 10.7933 6.29737 10.8075ZM9.34424 10.8075C9.00341 10.8233 8.72185 10.5525 8.70703 10.2083C8.70703 9.86325 8.97377 9.57825 9.31461 9.5625C9.64803 9.5625 9.92218 9.82575 9.92959 10.1625C9.94441 10.5082 9.67767 10.7933 9.34424 10.8075ZM12.3661 13.5675C12.0253 13.56 11.7511 13.275 11.7511 12.93C11.7437 12.585 12.0179 12.3007 12.3587 12.2932H12.3661C12.7144 12.2932 12.9959 12.5782 12.9959 12.93C12.9959 13.2825 12.7144 13.5675 12.3661 13.5675ZM8.70703 12.93C8.72185 13.275 9.00341 13.5458 9.34424 13.53C9.67767 13.5158 9.94441 13.2308 9.92959 12.8858C9.92218 12.5483 9.64803 12.285 9.31461 12.285C8.97377 12.3008 8.70703 12.585 8.70703 12.93ZM5.6543 12.93C5.66912 13.275 5.95067 13.5458 6.29151 13.53C6.62493 13.5158 6.89167 13.2308 6.87685 12.8858C6.86945 12.5483 6.5953 12.285 6.26187 12.285C5.92104 12.3008 5.6543 12.585 5.6543 12.93ZM11.7598 10.2007C11.7598 9.85574 12.0265 9.57824 12.3673 9.57074C12.7008 9.57074 12.9675 9.83999 12.9823 10.1707C12.9897 10.5157 12.723 10.8007 12.3896 10.8075C12.0487 10.815 11.7672 10.5525 11.7598 10.2082V10.2007Z" fill="#0059CD"/>
<path opacity="0.4" d="M2.58203 6.94268C2.59166 6.50243 2.62871 5.62868 2.69836 5.34743C3.05401 3.76568 4.26175 2.76068 5.98815 2.61743H12.6715C14.383 2.76818 15.6056 3.77993 15.9613 5.34743C16.0302 5.62118 16.0672 6.50168 16.0768 6.94268H2.58203Z" fill="#0059CD"/>
<path d="M6.5549 4.9425C6.88092 4.9425 7.12543 4.69575 7.12543 4.365V2.07825C7.12543 1.7475 6.88092 1.5 6.5549 1.5C6.22889 1.5 5.98438 1.7475 5.98438 2.07825V4.365C5.98438 4.69575 6.22889 4.9425 6.5549 4.9425" fill="#0059CD"/>
<path d="M12.0979 4.9425C12.4165 4.9425 12.6684 4.69575 12.6684 4.365V2.07825C12.6684 1.7475 12.4165 1.5 12.0979 1.5C11.7719 1.5 11.5273 1.7475 11.5273 2.07825V4.365C11.5273 4.69575 11.7719 4.9425 12.0979 4.9425" fill="#0059CD"/>
</svg>
