<svg viewBox="0 0 24 24" fill="none" xmlns="http://www.w3.org/2000/svg">
<path d="M8.7 19.7C5.6101 19.7 4.0657 19.7 2.9558 18.9586C2.4752 18.6375 2.06255 18.2249 1.7414 17.7442C1 16.6343 1 15.091 1 12C1 8.91015 1 7.36575 1.7414 6.25585C2.0625 5.77521 2.47516 5.36255 2.9558 5.04145C4.0657 4.30005 5.609 4.30005 8.7 4.30005H15.3C18.3899 4.30005 19.9343 4.30005 21.0442 5.04145C21.5248 5.36255 21.9375 5.77521 22.2586 6.25585C23 7.36575 23 8.90905 23 12C23 15.0899 23 16.6343 22.2586 17.7442C21.9374 18.2248 21.5248 18.6375 21.0442 18.9586C19.9343 19.7 18.391 19.7 15.3 19.7H8.7Z" stroke="currentColor" stroke-width="1.5"/>
<path d="M12.0002 8.70044C12.8754 8.70044 13.7148 9.04812 14.3336 9.66699C14.9525 10.2859 15.3002 11.1252 15.3002 12.0004C15.3002 12.8757 14.9525 13.715 14.3336 14.3339C13.7148 14.9528 12.8754 15.3004 12.0002 15.3004C11.125 15.3004 10.2856 14.9528 9.66674 14.3339C9.04787 13.715 8.7002 12.8757 8.7002 12.0004C8.7002 11.1252 9.04787 10.2859 9.66674 9.66699C10.2856 9.04812 11.125 8.70044 12.0002 8.70044Z" stroke="currentColor" stroke-width="1.5"/>
<path d="M4.84961 15.3004V8.70044M19.1496 15.3004V8.70044" stroke="currentColor" stroke-width="1.5" stroke-linecap="round"/>
</svg>
