<svg viewBox="0 0 48 48" fill="none" xmlns="http://www.w3.org/2000/svg">
<rect rx="12" fill="#F0FFF4"/>
<path d="M21 34H27C32 34 34 32 34 27V21C34 16 32 14 27 14H21C16 14 14 16 14 21V27C14 32 16 34 21 34Z" stroke="#48BB78" stroke-width="1.5" stroke-linecap="round" stroke-linejoin="round"/>
<path d="M14.6719 30.95L19.6019 27.64C20.3919 27.11 21.5319 27.17 22.2419 27.78L22.5719 28.07C23.3519 28.74 24.6119 28.74 25.3919 28.07L29.5519 24.5C30.3319 23.83 31.5919 23.83 32.3719 24.5L34.0019 25.9M21.0019 22C21.5323 22 22.041 21.7893 22.4161 21.4142C22.7912 21.0391 23.0019 20.5304 23.0019 20C23.0019 19.4696 22.7912 18.9609 22.4161 18.5858C22.041 18.2107 21.5323 18 21.0019 18C20.4714 18 19.9627 18.2107 19.5877 18.5858C19.2126 18.9609 19.0019 19.4696 19.0019 20C19.0019 20.5304 19.2126 21.0391 19.5877 21.4142C19.9627 21.7893 20.4714 22 21.0019 22Z" stroke="#48BB78" stroke-width="1.5" stroke-linecap="round" stroke-linejoin="round"/>
</svg>
