<svg viewBox="0 0 19 20" fill="none" xmlns="http://www.w3.org/2000/svg">
<path d="M12.1725 4.99968L5.58651 11.5857C5.39549 11.7702 5.24312 11.9909 5.13831 12.2349C5.03349 12.4789 4.97831 12.7413 4.97601 13.0069C4.9737 13.2724 5.0243 13.5358 5.12486 13.7816C5.22543 14.0274 5.37393 14.2507 5.56172 14.4385C5.7495 14.6263 5.97281 14.7748 6.2186 14.8753C6.46439 14.9759 6.72775 15.0265 6.99331 15.0242C7.25887 15.0219 7.52131 14.9667 7.76532 14.8619C8.00932 14.7571 8.23001 14.6047 8.41451 14.4137L14.8285 7.82768C15.5571 7.07327 15.9603 6.06286 15.9512 5.01407C15.9421 3.96528 15.5214 2.96203 14.7798 2.2204C14.0381 1.47877 13.0349 1.05809 11.9861 1.04898C10.9373 1.03987 9.92692 1.44304 9.17251 2.17168L2.75751 8.75668C1.63219 9.88199 1 11.4082 1 12.9997C1 14.5911 1.63219 16.1174 2.75751 17.2427C3.88282 18.368 5.40907 19.0002 7.00051 19.0002C8.59194 19.0002 10.1182 18.368 11.2435 17.2427L17.5005 10.9997" stroke="currentColor" stroke-width="1.5" stroke-linecap="round" stroke-linejoin="round"/>
</svg>
