<svg viewBox="0 0 24 24" fill="none" xmlns="http://www.w3.org/2000/svg">
<path opacity="0.4" d="M16.34 1.99979H7.67C4.28 1.99979 2 4.37979 2 7.91979V16.0898C2 19.6198 4.28 21.9998 7.67 21.9998H16.34C19.73 21.9998 22 19.6198 22 16.0898V7.91979C22 4.37979 19.73 1.99979 16.34 1.99979Z" fill="#6DA37F"/>
<path d="M15.0158 13.7703L13.2368 11.9923L15.0148 10.2143C15.3568 9.87329 15.3568 9.31829 15.0148 8.97729C14.6728 8.63329 14.1198 8.63429 13.7778 8.97629L11.9988 10.7543L10.2198 8.97429C9.87782 8.63229 9.32382 8.63429 8.98182 8.97429C8.64082 9.31629 8.64082 9.87129 8.98182 10.2123L10.7618 11.9923L8.98582 13.7673C8.64382 14.1093 8.64382 14.6643 8.98582 15.0043C9.15682 15.1763 9.37982 15.2613 9.60382 15.2613C9.82882 15.2613 10.0518 15.1763 10.2228 15.0053L11.9988 13.2293L13.7788 15.0083C13.9498 15.1793 14.1728 15.2643 14.3968 15.2643C14.6208 15.2643 14.8448 15.1783 15.0158 15.0083C15.3578 14.6663 15.3578 14.1123 15.0158 13.7703Z" fill="#6DA37F"/>
</svg>
