<svg viewBox="0 0 41 40" fill="none" xmlns="http://www.w3.org/2000/svg">
<path d="M18.8337 33.3334H11.3337C8.80588 33.3334 6.64644 32.4583 4.85533 30.7083C3.0631 28.9584 2.16699 26.8195 2.16699 24.2917C2.16699 22.125 2.81977 20.1945 4.12533 18.5C5.43088 16.8056 7.13921 15.7222 9.25033 15.25C9.94477 12.6945 11.3337 10.625 13.417 9.04169C15.5003 7.45835 17.8614 6.66669 20.5003 6.66669C23.7503 6.66669 26.507 7.79835 28.7703 10.0617C31.0348 12.3261 32.167 15.0834 32.167 18.3334C34.0837 18.5556 35.6742 19.3817 36.9387 20.8117C38.202 22.2428 38.8337 23.9167 38.8337 25.8334C38.8337 27.9167 38.1048 29.6878 36.647 31.1467C35.1881 32.6045 33.417 33.3334 31.3337 33.3334H22.167V21.4167L24.8337 24L27.167 21.6667L20.5003 15L13.8337 21.6667L16.167 24L18.8337 21.4167V33.3334Z" fill="url(#paint0_linear_797_63079)"/>
<defs>
<linearGradient id="paint0_linear_797_63079" x1="2.92636" y1="20" x2="38.8337" y2="20" gradientUnits="userSpaceOnUse">
<stop stop-color="#00C188"/>
<stop offset="1" stop-color="#23B9E9"/>
</linearGradient>
</defs>
</svg>
