<svg width="24" height="24" viewBox="0 0 24 24" fill="none" xmlns="http://www.w3.org/2000/svg">
<path opacity="0.4" d="M23.0889 8.37935L17.0212 4.09112C16.6724 3.8781 16.2484 4.0513 16.0743 4.47806C16.0255 4.59783 16 4.72991 16 4.86377V22.1364C16 22.6133 16.316 23 16.7059 23H21.4118C22.8408 22.9987 23.999 21.5817 24 19.8334V10.1815C24.0022 9.41728 23.6488 8.71818 23.0889 8.37935ZM20.4706 19.5455H18.5882C18.1984 19.5455 17.8824 19.1589 17.8824 18.6819C17.8824 18.2049 18.1984 17.8183 18.5882 17.8183H20.4706C20.8604 17.8183 21.1765 18.2049 21.1765 18.6819C21.1765 19.1589 20.8604 19.5455 20.4706 19.5455ZM20.4706 16.091H18.5882C18.1984 16.091 17.8824 15.7043 17.8824 15.2274C17.8824 14.7504 18.1984 14.3637 18.5882 14.3637H20.4706C20.8604 14.3637 21.1765 14.7504 21.1765 15.2274C21.1765 15.7043 20.8604 16.091 20.4706 16.091ZM20.4706 12.6365H18.5882C18.1984 12.6365 17.8824 12.2498 17.8824 11.7729C17.8824 11.2959 18.1984 10.9092 18.5882 10.9092H20.4706C20.8604 10.9092 21.1765 11.2959 21.1765 11.7729C21.1765 12.2498 20.8604 12.6365 20.4706 12.6365Z" fill="white"/>
<path d="M12 1.11719H1.95349C0.875137 1.11841 0.00122622 1.99232 0 3.07068V20.9311C0.00122622 22.0095 0.875137 22.8834 1.95349 22.8846H3.34884V18.1404C3.35006 17.3703 3.97408 16.7463 4.74419 16.7451H9.2093C9.97941 16.7463 10.6034 17.3703 10.6047 18.1404V22.8846H13.1163C13.5786 22.8846 13.9535 22.5098 13.9535 22.0474V3.07068C13.9523 1.99232 13.0784 1.11841 12 1.11719ZM5.30233 13.3963H4.18605C3.72368 13.3963 3.34884 13.0214 3.34884 12.559C3.34884 12.0967 3.72368 11.7218 4.18605 11.7218H5.30233C5.76469 11.7218 6.13953 12.0967 6.13953 12.559C6.13953 13.0214 5.76469 13.3963 5.30233 13.3963ZM5.30233 10.0474H4.18605C3.72368 10.0474 3.34884 9.67258 3.34884 9.21021C3.34884 8.74784 3.72368 8.373 4.18605 8.373H5.30233C5.76469 8.373 6.13953 8.74784 6.13953 9.21021C6.13953 9.67258 5.76469 10.0474 5.30233 10.0474ZM5.30233 6.69858H4.18605C3.72368 6.69858 3.34884 6.32374 3.34884 5.86137C3.34884 5.39901 3.72368 5.02416 4.18605 5.02416H5.30233C5.76469 5.02416 6.13953 5.39901 6.13953 5.86137C6.13953 6.32374 5.76469 6.69858 5.30233 6.69858ZM9.76744 13.3963H8.65116C8.1888 13.3963 7.81395 13.0214 7.81395 12.559C7.81395 12.0967 8.1888 11.7218 8.65116 11.7218H9.76744C10.2298 11.7218 10.6047 12.0967 10.6047 12.559C10.6047 13.0214 10.2298 13.3963 9.76744 13.3963ZM9.76744 10.0474H8.65116C8.1888 10.0474 7.81395 9.67258 7.81395 9.21021C7.81395 8.74784 8.1888 8.373 8.65116 8.373H9.76744C10.2298 8.373 10.6047 8.74784 10.6047 9.21021C10.6047 9.67258 10.2298 10.0474 9.76744 10.0474ZM9.76744 6.69858H8.65116C8.1888 6.69858 7.81395 6.32374 7.81395 5.86137C7.81395 5.39901 8.1888 5.02416 8.65116 5.02416H9.76744C10.2298 5.02416 10.6047 5.39901 10.6047 5.86137C10.6047 6.32374 10.2298 6.69858 9.76744 6.69858Z" fill="white"/>
<path opacity="0.4" d="M5.02344 18.4199H8.93041V22.885H5.02344V18.4199Z" fill="white"/>
</svg>
