<svg viewBox="0 0 24 22" fill="none" xmlns="http://www.w3.org/2000/svg">
<path opacity="0.4" d="M23.0889 7.37935L17.0212 3.09112C16.6724 2.8781 16.2484 3.0513 16.0743 3.47806C16.0255 3.59783 16 3.72991 16 3.86377V21.1364C16 21.6133 16.316 22 16.7059 22H21.4118C22.8408 21.9987 23.999 20.5817 24 18.8334V9.18146C24.0022 8.41728 23.6488 7.71818 23.0889 7.37935ZM20.4706 18.5455H18.5882C18.1984 18.5455 17.8824 18.1589 17.8824 17.6819C17.8824 17.2049 18.1984 16.8183 18.5882 16.8183H20.4706C20.8604 16.8183 21.1765 17.2049 21.1765 17.6819C21.1765 18.1589 20.8604 18.5455 20.4706 18.5455ZM20.4706 15.091H18.5882C18.1984 15.091 17.8824 14.7043 17.8824 14.2274C17.8824 13.7504 18.1984 13.3637 18.5882 13.3637H20.4706C20.8604 13.3637 21.1765 13.7504 21.1765 14.2274C21.1765 14.7043 20.8604 15.091 20.4706 15.091ZM20.4706 11.6365H18.5882C18.1984 11.6365 17.8824 11.2498 17.8824 10.7729C17.8824 10.2959 18.1984 9.90922 18.5882 9.90922H20.4706C20.8604 9.90922 21.1765 10.2959 21.1765 10.7729C21.1765 11.2498 20.8604 11.6365 20.4706 11.6365Z" fill="url(#paint0_linear_4257_367)"/>
<path d="M12 0.117188H1.95349C0.875137 0.118414 0.00122622 0.992325 0 2.07068V19.9311C0.00122622 21.0095 0.875137 21.8834 1.95349 21.8846H3.34884V17.1404C3.35006 16.3703 3.97408 15.7463 4.74419 15.7451H9.2093C9.97941 15.7463 10.6034 16.3703 10.6047 17.1404V21.8846H13.1163C13.5786 21.8846 13.9535 21.5098 13.9535 21.0474V2.07068C13.9523 0.992325 13.0784 0.118414 12 0.117188ZM5.30233 12.3963H4.18605C3.72368 12.3963 3.34884 12.0214 3.34884 11.559C3.34884 11.0967 3.72368 10.7218 4.18605 10.7218H5.30233C5.76469 10.7218 6.13953 11.0967 6.13953 11.559C6.13953 12.0214 5.76469 12.3963 5.30233 12.3963ZM5.30233 9.04742H4.18605C3.72368 9.04742 3.34884 8.67258 3.34884 8.21021C3.34884 7.74784 3.72368 7.373 4.18605 7.373H5.30233C5.76469 7.373 6.13953 7.74784 6.13953 8.21021C6.13953 8.67258 5.76469 9.04742 5.30233 9.04742ZM5.30233 5.69858H4.18605C3.72368 5.69858 3.34884 5.32374 3.34884 4.86137C3.34884 4.39901 3.72368 4.02416 4.18605 4.02416H5.30233C5.76469 4.02416 6.13953 4.39901 6.13953 4.86137C6.13953 5.32374 5.76469 5.69858 5.30233 5.69858ZM9.76744 12.3963H8.65116C8.1888 12.3963 7.81395 12.0214 7.81395 11.559C7.81395 11.0967 8.1888 10.7218 8.65116 10.7218H9.76744C10.2298 10.7218 10.6047 11.0967 10.6047 11.559C10.6047 12.0214 10.2298 12.3963 9.76744 12.3963ZM9.76744 9.04742H8.65116C8.1888 9.04742 7.81395 8.67258 7.81395 8.21021C7.81395 7.74784 8.1888 7.373 8.65116 7.373H9.76744C10.2298 7.373 10.6047 7.74784 10.6047 8.21021C10.6047 8.67258 10.2298 9.04742 9.76744 9.04742ZM9.76744 5.69858H8.65116C8.1888 5.69858 7.81395 5.32374 7.81395 4.86137C7.81395 4.39901 8.1888 4.02416 8.65116 4.02416H9.76744C10.2298 4.02416 10.6047 4.39901 10.6047 4.86137C10.6047 5.32374 10.2298 5.69858 9.76744 5.69858Z" fill="url(#paint1_linear_4257_367)"/>
<path opacity="0.4" d="M5.02344 17.4199H8.93041V21.885H5.02344V17.4199Z" fill="url(#paint2_linear_4257_367)"/>
<defs>
<linearGradient id="paint0_linear_4257_367" x1="16.1657" y1="12.5" x2="24" y2="12.5" gradientUnits="userSpaceOnUse">
<stop stop-color="#00C188"/>
<stop offset="1" stop-color="#23B9E9"/>
</linearGradient>
<linearGradient id="paint1_linear_4257_367" x1="0.288978" y1="11.0009" x2="13.9535" y2="11.0009" gradientUnits="userSpaceOnUse">
<stop stop-color="#00C188"/>
<stop offset="1" stop-color="#23B9E9"/>
</linearGradient>
<linearGradient id="paint2_linear_4257_367" x1="5.10435" y1="19.6525" x2="8.93041" y2="19.6525" gradientUnits="userSpaceOnUse">
<stop stop-color="#00C188"/>
<stop offset="1" stop-color="#23B9E9"/>
</linearGradient>
</defs>
</svg>
