<svg width="20" height="20" viewBox="0 0 20 20" fill="none" xmlns="http://www.w3.org/2000/svg">
<path d="M3.99902 13H3.39902C2.06902 13 0.999023 11.93 0.999023 10.6V3.4C0.999023 2.07 2.06902 1 3.39902 1H10.599C11.929 1 12.999 2.07 12.999 3.4V4M9.39902 7H16.599C17.2355 7 17.846 7.25286 18.2961 7.70294C18.7462 8.15303 18.999 8.76348 18.999 9.4V16.6C18.999 17.2365 18.7462 17.847 18.2961 18.2971C17.846 18.7471 17.2355 19 16.599 19H9.39902C8.7625 19 8.15205 18.7471 7.70197 18.2971C7.25188 17.847 6.99902 17.2365 6.99902 16.6V9.4C6.99902 9.08483 7.0611 8.77274 7.18171 8.48156C7.30232 8.19038 7.47911 7.9258 7.70197 7.70294C7.92483 7.48008 8.1894 7.3033 8.48058 7.18269C8.77176 7.06208 9.08385 7 9.39902 7Z" stroke="#0A8778" stroke-width="1.5" stroke-miterlimit="10" stroke-linecap="round" stroke-linejoin="round"/>
</svg>
