<svg width="8" height="8" viewBox="0 0 8 8" fill="none" xmlns="http://www.w3.org/2000/svg">
<path d="M7.01631 5.7705L5.23731 3.9925L7.01531 2.2145C7.35731 1.8735 7.35731 1.3185 7.01531 0.977501C6.67331 0.633501 6.12031 0.634501 5.77831 0.976501L3.99931 2.7545L2.22031 0.974501C1.87831 0.632501 1.32431 0.634501 0.982313 0.974501C0.641313 1.3165 0.641313 1.8715 0.982313 2.2125L2.76231 3.9925L0.986313 5.7675C0.644313 6.1095 0.644313 6.6645 0.986313 7.0045C1.15731 7.1765 1.38031 7.2615 1.60431 7.2615C1.82931 7.2615 2.05231 7.1765 2.22331 7.0055L3.99931 5.2295L5.77931 7.0085C5.95031 7.1795 6.17331 7.2645 6.39731 7.2645C6.62131 7.2645 6.84531 7.1785 7.01631 7.0085C7.35831 6.6665 7.35831 6.1125 7.01631 5.7705Z" fill="white"/>
</svg>
