<svg width="25" height="25" viewBox="0 0 25 25" fill="none" xmlns="http://www.w3.org/2000/svg">
<path d="M4.14147 19.3613C4.14147 20.5645 4.92191 21.5488 5.8806 21.5488C6.08629 21.5444 6.28901 21.4985 6.47681 21.414C6.66461 21.3295 6.83369 21.208 6.97408 21.0566C7.12491 20.8965 7.32908 20.7978 7.5476 20.7794C7.76613 20.7611 7.98373 20.8243 8.15886 20.9571C8.25394 21.0327 8.33227 21.1274 8.38883 21.2352C8.4454 21.343 8.47895 21.4615 8.48734 21.5831C8.49573 21.7048 8.47878 21.8268 8.43756 21.9414C8.39634 22.0561 8.33178 22.1608 8.248 22.2488C7.94521 22.5768 7.57906 22.8391 7.17198 23.0197C6.7649 23.2002 6.32546 23.2952 5.8806 23.2988C3.96321 23.2988 2.40234 21.5324 2.40234 19.3613C2.40234 17.1902 3.96321 15.4238 5.8806 15.4238C6.31515 15.427 6.74468 15.5176 7.14395 15.6902C7.54322 15.8628 7.90418 16.114 8.2056 16.429C8.36642 16.585 8.46366 16.7957 8.47833 17.02C8.49301 17.2443 8.42406 17.4661 8.28495 17.642C8.20634 17.7359 8.10895 17.8122 7.99911 17.8658C7.88927 17.9194 7.76944 17.9491 7.64743 17.9531C7.52541 17.957 7.40395 17.935 7.29093 17.8886C7.17791 17.8421 7.07588 17.7723 6.99147 17.6835C6.85061 17.5269 6.6794 17.4008 6.48837 17.3132C6.29734 17.2255 6.09051 17.1781 5.8806 17.1738C4.92191 17.1738 4.14147 18.1582 4.14147 19.3613ZM15.4252 21.1452C15.3913 21.4799 15.2841 21.8029 15.1114 22.0909C14.9387 22.3789 14.7047 22.6248 14.4263 22.811C13.8621 23.1895 13.1632 23.2988 12.5252 23.2988C11.97 23.2955 11.4175 23.222 10.8806 23.0801C10.7693 23.0504 10.665 22.9987 10.5737 22.9281C10.4824 22.8575 10.406 22.7694 10.3488 22.6689C10.2916 22.5683 10.2549 22.4573 10.2407 22.3424C10.2265 22.2274 10.2351 22.1107 10.266 21.9992C10.297 21.8876 10.3496 21.7833 10.4209 21.6923C10.4922 21.6014 10.5808 21.5256 10.6814 21.4694C10.7821 21.4131 10.8929 21.3776 11.0073 21.3647C11.1217 21.3519 11.2375 21.362 11.348 21.3946C11.8241 21.5259 12.973 21.6899 13.473 21.3552C13.5686 21.2907 13.6719 21.189 13.7056 20.9254C13.7436 20.6334 13.6284 20.477 12.3165 20.0952C11.3002 19.7999 9.59908 19.3045 9.81647 17.5676C9.85038 17.2395 9.9556 16.923 10.1247 16.6404C10.2937 16.3578 10.5225 16.1161 10.7947 15.9324C12.0817 15.0574 14.1328 15.5704 14.3632 15.6305C14.5863 15.6896 14.777 15.8354 14.8933 16.0359C15.0096 16.2364 15.042 16.4752 14.9833 16.6997C14.9247 16.9242 14.7798 17.1161 14.5805 17.2331C14.3812 17.3501 14.1439 17.3827 13.9208 17.3237C13.4328 17.1957 12.2654 17.0437 11.7654 17.3849C11.6998 17.4294 11.6459 17.4891 11.6081 17.559C11.5702 17.6288 11.5496 17.7068 11.548 17.7863C11.535 17.8848 11.5328 17.9055 11.6686 17.9941C11.9197 18.1571 12.3697 18.2873 12.8045 18.4141C13.8686 18.7237 15.6686 19.252 15.4252 21.1452ZM22.3393 16.627L20.1773 22.717C20.1168 22.8866 20.0058 23.0333 19.8593 23.1371C19.7128 23.2408 19.538 23.2965 19.3589 23.2965C19.1797 23.2965 19.005 23.2408 18.8585 23.1371C18.712 23.0333 18.6009 22.8866 18.5404 22.717L16.3784 16.627C16.2975 16.4098 16.3032 16.1694 16.3943 15.9564C16.4855 15.7433 16.6551 15.574 16.8676 15.484C16.976 15.4413 17.0918 15.4209 17.2081 15.4241C17.3245 15.4273 17.439 15.454 17.5449 15.5025C17.6509 15.5511 17.746 15.6205 17.8248 15.7068C17.9035 15.793 17.9643 15.8943 18.0034 16.0046L19.3589 19.8218L20.7143 16.0046C20.7534 15.8943 20.8142 15.793 20.8929 15.7068C20.9717 15.6205 21.0669 15.5511 21.1728 15.5025C21.2787 15.454 21.3933 15.4273 21.5096 15.4241C21.626 15.4209 21.7418 15.4413 21.8502 15.484C22.0623 15.5745 22.2315 15.7438 22.3226 15.9567C22.4137 16.1696 22.4197 16.4097 22.3393 16.627Z" fill="white"/>
<path opacity="0.4" d="M22.148 8.67977L16.061 2.55477C15.9802 2.47354 15.8843 2.40912 15.7787 2.36521C15.6732 2.32129 15.56 2.29874 15.4458 2.29883H5.01104C4.54979 2.29883 4.10744 2.4832 3.78129 2.81139C3.45514 3.13958 3.27191 3.5847 3.27191 4.04883V12.3613C3.27191 12.4774 3.31772 12.5886 3.39925 12.6707C3.48079 12.7527 3.59138 12.7988 3.70669 12.7988H21.9676C22.0829 12.7988 22.1935 12.7527 22.275 12.6707C22.3565 12.5886 22.4023 12.4774 22.4023 12.3613V9.29883C22.4024 9.18389 22.38 9.07006 22.3364 8.96384C22.2927 8.85761 22.2287 8.76109 22.148 8.67977ZM15.4458 9.29883V4.48633L20.2284 9.29883H15.4458Z" fill="white"/>
</svg>
