<svg viewBox="0 0 22 24" fill="none" xmlns="http://www.w3.org/2000/svg">
<mask id="mask0_205_20157" style="mask-type:alpha" maskUnits="userSpaceOnUse" x="0" y="0" width="22" height="24">
<path d="M20.2032 24H2.43694C1.49017 24 0.722656 23.2325 0.722656 22.2857V1.71429C0.722656 0.767513 1.49017 0 2.43694 0H13.9694L21.9175 7.94805V22.2857C21.9175 23.2325 21.1499 24 20.2032 24Z" fill="url(#paint0_linear_205_20157)"/>
</mask>
<g mask="url(#mask0_205_20157)">
<path d="M20.2032 24H2.43694C1.49017 24 0.722656 23.2325 0.722656 22.2857V1.71429C0.722656 0.767513 1.49017 0 2.43694 0H13.9694L21.9175 7.94805V22.2857C21.9175 23.2325 21.1499 24 20.2032 24Z" fill="url(#paint1_linear_205_20157)"/>
<g filter="url(#filter0_f_205_20157)">
<rect x="4.38477" y="11.2207" width="13.8701" height="6.54545" fill="#0F7D56" fill-opacity="0.27" style="mix-blend-mode:darken"/>
</g>
<mask id="path-4-outside-1_205_20157" maskUnits="userSpaceOnUse" x="4.02148" y="11.2988" width="14" height="6" fill="black">
<rect fill="white" x="4.02148" y="11.2988" width="14" height="6"/>
<path d="M6.92785 16.3604C6.51746 16.3604 6.14811 16.2722 5.8198 16.0957C5.49559 15.9151 5.23909 15.6586 5.05032 15.3262C4.86564 14.9897 4.7733 14.5978 4.7733 14.1504C4.7733 13.7031 4.86564 13.3132 5.05032 12.9808C5.23909 12.6443 5.49559 12.3878 5.8198 12.2113C6.14811 12.0308 6.51746 11.9405 6.92785 11.9405C7.20691 11.9405 7.4552 11.9733 7.67271 12.039C7.89432 12.1046 8.11387 12.199 8.33138 12.3222C8.42167 12.3714 8.46681 12.4494 8.46681 12.5561C8.46681 12.6176 8.44424 12.673 8.3991 12.7223C8.35395 12.7674 8.29445 12.79 8.22058 12.79C8.17954 12.79 8.1426 12.7818 8.10977 12.7654C7.9292 12.671 7.75273 12.5992 7.58037 12.5499C7.408 12.5007 7.20896 12.476 6.98325 12.476C6.63032 12.476 6.32868 12.5499 6.07834 12.6977C5.83211 12.8413 5.64538 13.0403 5.51816 13.2948C5.39504 13.5451 5.33348 13.8303 5.33348 14.1504C5.33348 14.4705 5.39504 14.7578 5.51816 15.0123C5.64538 15.2626 5.83211 15.4616 6.07834 15.6094C6.32868 15.753 6.63032 15.8248 6.98325 15.8248C7.20896 15.8248 7.408 15.8002 7.58037 15.751C7.75273 15.7017 7.9292 15.6299 8.10977 15.5355C8.1426 15.5191 8.17954 15.5109 8.22058 15.5109C8.29445 15.5109 8.35395 15.5335 8.3991 15.5786C8.44424 15.6237 8.46681 15.6791 8.46681 15.7448C8.46681 15.8515 8.42167 15.9295 8.33138 15.9787C8.11387 16.1018 7.89432 16.1962 7.67271 16.2619C7.4552 16.3276 7.20691 16.3604 6.92785 16.3604ZM11.0973 16.3604C10.5761 16.3604 10.0877 16.2619 9.63219 16.0649C9.58294 16.0444 9.5419 16.0116 9.50907 15.9664C9.47624 15.9172 9.45982 15.8659 9.45982 15.8125C9.45982 15.7428 9.48239 15.6832 9.52754 15.634C9.57678 15.5806 9.63834 15.554 9.71221 15.554C9.75325 15.554 9.79224 15.5622 9.82917 15.5786C10.2067 15.7469 10.611 15.831 11.0419 15.831C11.7601 15.831 12.1191 15.595 12.1191 15.1231C12.1191 14.9999 12.072 14.8973 11.9776 14.8153C11.8873 14.7332 11.7744 14.6696 11.639 14.6244C11.5036 14.5752 11.3107 14.5177 11.0603 14.4521C10.7279 14.3659 10.4591 14.2838 10.2539 14.2058C10.0487 14.1238 9.87227 14.0027 9.72452 13.8426C9.57678 13.6826 9.50291 13.4692 9.50291 13.2024C9.50291 12.9685 9.56447 12.7572 9.68759 12.5684C9.81071 12.3755 9.99128 12.2237 10.2293 12.1129C10.4714 11.9979 10.7608 11.9405 11.0973 11.9405C11.5487 11.9405 11.957 12.0082 12.3223 12.1436C12.4372 12.1847 12.4947 12.2667 12.4947 12.3899C12.4947 12.4555 12.4721 12.515 12.4269 12.5684C12.3818 12.6217 12.3223 12.6484 12.2484 12.6484C12.2238 12.6484 12.191 12.6402 12.1499 12.6238C11.8298 12.513 11.4995 12.4576 11.1588 12.4576C10.8346 12.4576 10.5699 12.5191 10.3647 12.6423C10.1636 12.7654 10.0631 12.9377 10.0631 13.1593C10.0631 13.3071 10.1103 13.4282 10.2047 13.5225C10.3032 13.6128 10.4242 13.6846 10.5679 13.738C10.7156 13.7872 10.9147 13.8406 11.165 13.898C11.4892 13.976 11.7498 14.054 11.9468 14.132C12.1479 14.2099 12.3182 14.331 12.4577 14.4952C12.6014 14.6593 12.6732 14.8809 12.6732 15.16C12.6732 15.3898 12.6075 15.5971 12.4762 15.7817C12.3449 15.9623 12.1602 16.1039 11.9222 16.2065C11.6841 16.3091 11.4092 16.3604 11.0973 16.3604ZM15.4024 16.3296C15.2341 16.3296 15.1069 16.2352 15.0207 16.0464L13.5002 12.3591C13.4879 12.3263 13.4818 12.2914 13.4818 12.2544C13.4818 12.1683 13.5064 12.1005 13.5556 12.0513C13.6049 11.9979 13.6726 11.9713 13.7588 11.9713C13.8162 11.9713 13.8675 11.9897 13.9127 12.0267C13.9619 12.0595 13.9988 12.1046 14.0235 12.1621L15.4701 15.7694L16.9167 12.1621C16.9413 12.1046 16.9762 12.0595 17.0214 12.0267C17.0706 11.9897 17.124 11.9713 17.1814 11.9713C17.2676 11.9713 17.3353 11.9979 17.3846 12.0513C17.4338 12.1005 17.4584 12.1683 17.4584 12.2544C17.4584 12.2914 17.4523 12.3263 17.44 12.3591L15.9195 16.0464C15.8333 16.2352 15.7061 16.3296 15.5378 16.3296H15.4024Z"/>
</mask>
<path d="M6.92785 16.3604C6.51746 16.3604 6.14811 16.2722 5.8198 16.0957C5.49559 15.9151 5.23909 15.6586 5.05032 15.3262C4.86564 14.9897 4.7733 14.5978 4.7733 14.1504C4.7733 13.7031 4.86564 13.3132 5.05032 12.9808C5.23909 12.6443 5.49559 12.3878 5.8198 12.2113C6.14811 12.0308 6.51746 11.9405 6.92785 11.9405C7.20691 11.9405 7.4552 11.9733 7.67271 12.039C7.89432 12.1046 8.11387 12.199 8.33138 12.3222C8.42167 12.3714 8.46681 12.4494 8.46681 12.5561C8.46681 12.6176 8.44424 12.673 8.3991 12.7223C8.35395 12.7674 8.29445 12.79 8.22058 12.79C8.17954 12.79 8.1426 12.7818 8.10977 12.7654C7.9292 12.671 7.75273 12.5992 7.58037 12.5499C7.408 12.5007 7.20896 12.476 6.98325 12.476C6.63032 12.476 6.32868 12.5499 6.07834 12.6977C5.83211 12.8413 5.64538 13.0403 5.51816 13.2948C5.39504 13.5451 5.33348 13.8303 5.33348 14.1504C5.33348 14.4705 5.39504 14.7578 5.51816 15.0123C5.64538 15.2626 5.83211 15.4616 6.07834 15.6094C6.32868 15.753 6.63032 15.8248 6.98325 15.8248C7.20896 15.8248 7.408 15.8002 7.58037 15.751C7.75273 15.7017 7.9292 15.6299 8.10977 15.5355C8.1426 15.5191 8.17954 15.5109 8.22058 15.5109C8.29445 15.5109 8.35395 15.5335 8.3991 15.5786C8.44424 15.6237 8.46681 15.6791 8.46681 15.7448C8.46681 15.8515 8.42167 15.9295 8.33138 15.9787C8.11387 16.1018 7.89432 16.1962 7.67271 16.2619C7.4552 16.3276 7.20691 16.3604 6.92785 16.3604ZM11.0973 16.3604C10.5761 16.3604 10.0877 16.2619 9.63219 16.0649C9.58294 16.0444 9.5419 16.0116 9.50907 15.9664C9.47624 15.9172 9.45982 15.8659 9.45982 15.8125C9.45982 15.7428 9.48239 15.6832 9.52754 15.634C9.57678 15.5806 9.63834 15.554 9.71221 15.554C9.75325 15.554 9.79224 15.5622 9.82917 15.5786C10.2067 15.7469 10.611 15.831 11.0419 15.831C11.7601 15.831 12.1191 15.595 12.1191 15.1231C12.1191 14.9999 12.072 14.8973 11.9776 14.8153C11.8873 14.7332 11.7744 14.6696 11.639 14.6244C11.5036 14.5752 11.3107 14.5177 11.0603 14.4521C10.7279 14.3659 10.4591 14.2838 10.2539 14.2058C10.0487 14.1238 9.87227 14.0027 9.72452 13.8426C9.57678 13.6826 9.50291 13.4692 9.50291 13.2024C9.50291 12.9685 9.56447 12.7572 9.68759 12.5684C9.81071 12.3755 9.99128 12.2237 10.2293 12.1129C10.4714 11.9979 10.7608 11.9405 11.0973 11.9405C11.5487 11.9405 11.957 12.0082 12.3223 12.1436C12.4372 12.1847 12.4947 12.2667 12.4947 12.3899C12.4947 12.4555 12.4721 12.515 12.4269 12.5684C12.3818 12.6217 12.3223 12.6484 12.2484 12.6484C12.2238 12.6484 12.191 12.6402 12.1499 12.6238C11.8298 12.513 11.4995 12.4576 11.1588 12.4576C10.8346 12.4576 10.5699 12.5191 10.3647 12.6423C10.1636 12.7654 10.0631 12.9377 10.0631 13.1593C10.0631 13.3071 10.1103 13.4282 10.2047 13.5225C10.3032 13.6128 10.4242 13.6846 10.5679 13.738C10.7156 13.7872 10.9147 13.8406 11.165 13.898C11.4892 13.976 11.7498 14.054 11.9468 14.132C12.1479 14.2099 12.3182 14.331 12.4577 14.4952C12.6014 14.6593 12.6732 14.8809 12.6732 15.16C12.6732 15.3898 12.6075 15.5971 12.4762 15.7817C12.3449 15.9623 12.1602 16.1039 11.9222 16.2065C11.6841 16.3091 11.4092 16.3604 11.0973 16.3604ZM15.4024 16.3296C15.2341 16.3296 15.1069 16.2352 15.0207 16.0464L13.5002 12.3591C13.4879 12.3263 13.4818 12.2914 13.4818 12.2544C13.4818 12.1683 13.5064 12.1005 13.5556 12.0513C13.6049 11.9979 13.6726 11.9713 13.7588 11.9713C13.8162 11.9713 13.8675 11.9897 13.9127 12.0267C13.9619 12.0595 13.9988 12.1046 14.0235 12.1621L15.4701 15.7694L16.9167 12.1621C16.9413 12.1046 16.9762 12.0595 17.0214 12.0267C17.0706 11.9897 17.124 11.9713 17.1814 11.9713C17.2676 11.9713 17.3353 11.9979 17.3846 12.0513C17.4338 12.1005 17.4584 12.1683 17.4584 12.2544C17.4584 12.2914 17.4523 12.3263 17.44 12.3591L15.9195 16.0464C15.8333 16.2352 15.7061 16.3296 15.5378 16.3296H15.4024Z" fill="white"/>
<path d="M5.8198 16.0957L5.74396 16.2319L5.74601 16.233L5.8198 16.0957ZM5.05032 15.3262L4.91368 15.4012L4.9148 15.4032L5.05032 15.3262ZM5.05032 12.9808L4.9144 12.9046L4.91408 12.9051L5.05032 12.9808ZM5.8198 12.2113L5.8943 12.3482L5.8949 12.3479L5.8198 12.2113ZM7.67271 12.039L7.62767 12.1882L7.62843 12.1884L7.67271 12.039ZM8.33138 12.3222L8.2546 12.4578L8.25675 12.459L8.33138 12.3222ZM8.3991 12.7223L8.5094 12.8326L8.51398 12.8276L8.3991 12.7223ZM8.10977 12.7654L8.03756 12.9035L8.04008 12.9048L8.10977 12.7654ZM7.58037 12.5499L7.62318 12.4001V12.4001L7.58037 12.5499ZM6.07834 12.6977L6.15687 12.8323L6.15755 12.8319L6.07834 12.6977ZM5.51816 13.2948L5.37877 13.2251L5.37831 13.226L5.51816 13.2948ZM5.51816 15.0123L5.37785 15.0801L5.37923 15.0829L5.51816 15.0123ZM6.07834 15.6094L5.99815 15.743L6.00078 15.7445L6.07834 15.6094ZM7.58037 15.751L7.62318 15.9008L7.58037 15.751ZM8.10977 15.5355L8.04006 15.3961L8.03757 15.3974L8.10977 15.5355ZM8.3991 15.5786L8.50929 15.4684L8.50929 15.4684L8.3991 15.5786ZM8.33138 15.9787L8.25674 15.8419L8.25461 15.8431L8.33138 15.9787ZM7.67271 16.2619L7.62843 16.1125L7.62767 16.1127L7.67271 16.2619ZM6.92785 16.2045C6.54055 16.2045 6.19698 16.1215 5.89358 15.9584L5.74601 16.233C6.09924 16.4228 6.49436 16.5162 6.92785 16.5162V16.2045ZM5.89563 15.9595C5.59714 15.7933 5.36096 15.5576 5.18583 15.2492L4.9148 15.4032C5.11723 15.7596 5.39404 16.0369 5.74397 16.2318L5.89563 15.9595ZM5.18694 15.2512C5.01682 14.9412 4.92915 14.5759 4.92915 14.1504H4.61746C4.61746 14.6196 4.71446 15.0381 4.91369 15.4012L5.18694 15.2512ZM4.92915 14.1504C4.92915 13.7249 5.01683 13.362 5.18655 13.0565L4.91408 12.9051C4.71445 13.2645 4.61746 13.6813 4.61746 14.1504H4.92915ZM5.18623 13.0571C5.36134 12.7449 5.59706 12.51 5.8943 12.3482L5.74529 12.0745C5.39411 12.2656 5.11685 12.5437 4.9144 12.9046L5.18623 13.0571ZM5.8949 12.3479C6.19806 12.1812 6.54116 12.0963 6.92785 12.0963V11.7846C6.49376 11.7846 6.09816 11.8804 5.74469 12.0748L5.8949 12.3479ZM6.92785 12.0963C7.19499 12.0963 7.42765 12.1278 7.62767 12.1882L7.71774 11.8898C7.48275 11.8188 7.21883 11.7846 6.92785 11.7846V12.0963ZM7.62843 12.1884C7.83785 12.2505 8.04655 12.34 8.25461 12.4578L8.40815 12.1865C8.1812 12.0581 7.95078 11.9588 7.71698 11.8896L7.62843 12.1884ZM8.25675 12.459C8.28043 12.4719 8.29176 12.4847 8.29808 12.4957C8.30457 12.5069 8.31097 12.5251 8.31097 12.5561H8.62265C8.62265 12.4804 8.60647 12.4062 8.56782 12.3395C8.529 12.2724 8.47261 12.2217 8.40601 12.1853L8.25675 12.459ZM8.31097 12.5561C8.31097 12.5752 8.30545 12.5938 8.28421 12.617L8.51398 12.8276C8.58302 12.7523 8.62265 12.6601 8.62265 12.5561H8.31097ZM8.2889 12.6121C8.2776 12.6234 8.26014 12.6342 8.22058 12.6342V12.9458C8.32875 12.9458 8.4303 12.9115 8.50929 12.8325L8.2889 12.6121ZM8.22058 12.6342C8.20084 12.6342 8.18821 12.6304 8.17946 12.626L8.04008 12.9048C8.09699 12.9332 8.15823 12.9458 8.22058 12.9458V12.6342ZM8.18197 12.6273C7.99327 12.5286 7.80698 12.4526 7.62318 12.4001L7.53755 12.6998C7.69848 12.7457 7.86513 12.8133 8.03757 12.9035L8.18197 12.6273ZM7.62318 12.4001C7.43384 12.346 7.21988 12.3202 6.98325 12.3202V12.6319C7.19805 12.6319 7.38217 12.6554 7.53755 12.6998L7.62318 12.4001ZM6.98325 12.3202C6.60842 12.3202 6.27813 12.3988 5.99913 12.5634L6.15755 12.8319C6.37923 12.701 6.65221 12.6319 6.98325 12.6319V12.3202ZM5.99982 12.563C5.72747 12.7219 5.51957 12.9435 5.37877 13.2251L5.65755 13.3645C5.77119 13.1372 5.93674 12.9607 6.15687 12.8323L5.99982 12.563ZM5.37831 13.226C5.24322 13.5007 5.17764 13.81 5.17764 14.1504H5.48933C5.48933 13.8507 5.54687 13.5895 5.65801 13.3636L5.37831 13.226ZM5.17764 14.1504C5.17764 14.4909 5.24324 14.8019 5.37788 15.0801L5.65844 14.9444C5.54685 14.7137 5.48933 14.4502 5.48933 14.1504H5.17764ZM5.37923 15.0829C5.52003 15.3599 5.72741 15.5806 5.99816 15.743L6.15852 15.4757C5.93681 15.3427 5.77073 15.1653 5.65709 14.9417L5.37923 15.0829ZM6.00078 15.7445C6.27946 15.9044 6.60913 15.9807 6.98325 15.9807V15.669C6.6515 15.669 6.3779 15.6016 6.1559 15.4742L6.00078 15.7445ZM6.98325 15.9807C7.21988 15.9807 7.43384 15.9549 7.62318 15.9008L7.53755 15.6011C7.38217 15.6455 7.19805 15.669 6.98325 15.669V15.9807ZM7.62318 15.9008C7.80698 15.8483 7.99327 15.7723 8.18197 15.6736L8.03757 15.3974C7.86513 15.4875 7.69848 15.5551 7.53755 15.6011L7.62318 15.9008ZM8.17947 15.6749C8.18822 15.6705 8.20084 15.6667 8.22058 15.6667V15.355C8.15823 15.355 8.09699 15.3677 8.04007 15.3961L8.17947 15.6749ZM8.22058 15.6667C8.26014 15.6667 8.2776 15.6775 8.2889 15.6888L8.50929 15.4684C8.4303 15.3894 8.32875 15.355 8.22058 15.355V15.6667ZM8.2889 15.6888C8.30389 15.7038 8.31097 15.7192 8.31097 15.7448H8.62265C8.62265 15.6391 8.58458 15.5437 8.50929 15.4684L8.2889 15.6888ZM8.31097 15.7448C8.31097 15.7758 8.30457 15.794 8.29808 15.8052C8.29176 15.8161 8.28043 15.829 8.25675 15.8419L8.40601 16.1155C8.47261 16.0792 8.529 16.0285 8.56782 15.9614C8.60647 15.8946 8.62265 15.8205 8.62265 15.7448H8.31097ZM8.25461 15.8431C8.04655 15.9609 7.83785 16.0504 7.62843 16.1125L7.71698 16.4113C7.95078 16.342 8.1812 16.2428 8.40815 16.1143L8.25461 15.8431ZM7.62767 16.1127C7.42765 16.1731 7.19499 16.2045 6.92785 16.2045V16.5162C7.21883 16.5162 7.48275 16.482 7.71774 16.4111L7.62767 16.1127ZM9.63219 16.0649L9.69405 15.9219L9.69213 15.9211L9.63219 16.0649ZM9.50907 15.9664L9.37929 16.0529L9.38303 16.0581L9.50907 15.9664ZM9.52754 15.634L9.41302 15.5283L9.41266 15.5287L9.52754 15.634ZM9.82917 15.5786L9.89261 15.4362L9.89247 15.4362L9.82917 15.5786ZM11.9776 14.8153L11.8727 14.9306L11.8753 14.9329L11.9776 14.8153ZM11.639 14.6244L11.5857 14.771L11.5897 14.7723L11.639 14.6244ZM11.0603 14.4521L11.0999 14.3013L11.0995 14.3012L11.0603 14.4521ZM10.2539 14.2058L10.196 14.3506L10.1986 14.3515L10.2539 14.2058ZM9.72452 13.8426L9.61001 13.9484L9.72452 13.8426ZM9.68759 12.5684L9.81813 12.6535L9.81895 12.6522L9.68759 12.5684ZM10.2293 12.1129L10.2951 12.2541L10.2961 12.2536L10.2293 12.1129ZM12.3223 12.1436L12.2681 12.2898L12.2699 12.2904L12.3223 12.1436ZM12.4269 12.5684L12.5459 12.6691V12.6691L12.4269 12.5684ZM12.1499 12.6238L12.2079 12.4789L12.2009 12.4765L12.1499 12.6238ZM10.3647 12.6423L10.2845 12.5086L10.2834 12.5093L10.3647 12.6423ZM10.2047 13.5225L10.0944 13.6328L10.0994 13.6374L10.2047 13.5225ZM10.5679 13.738L10.5136 13.8842L10.5186 13.8858L10.5679 13.738ZM11.165 13.898L11.2014 13.7465L11.1999 13.7462L11.165 13.898ZM11.9468 14.132L11.8894 14.2769L11.8904 14.2773L11.9468 14.132ZM12.4577 14.4952L12.339 14.5961L12.3404 14.5978L12.4577 14.4952ZM12.4762 15.7817L12.6022 15.8734L12.6032 15.8721L12.4762 15.7817ZM11.9222 16.2065L11.9838 16.3496L11.9222 16.2065ZM11.0973 16.2045C10.5963 16.2045 10.1291 16.11 9.69404 15.9219L9.57033 16.2079C10.0464 16.4138 10.5559 16.5162 11.0973 16.5162V16.2045ZM9.69213 15.9211C9.67054 15.9121 9.65193 15.8979 9.63511 15.8747L9.38303 16.0581C9.43187 16.1252 9.49535 16.1767 9.57225 16.2088L9.69213 15.9211ZM9.63874 15.88C9.62104 15.8534 9.61567 15.8318 9.61567 15.8125H9.30398C9.30398 15.9 9.33144 15.9809 9.3794 16.0529L9.63874 15.88ZM9.61567 15.8125C9.61567 15.7798 9.62488 15.7584 9.64242 15.7393L9.41266 15.5287C9.33991 15.608 9.30398 15.7057 9.30398 15.8125H9.61567ZM9.64205 15.7397C9.66122 15.7189 9.68098 15.7098 9.71221 15.7098V15.3981C9.59571 15.3981 9.49235 15.4424 9.41302 15.5283L9.64205 15.7397ZM9.71221 15.7098C9.73179 15.7098 9.74918 15.7136 9.76588 15.721L9.89247 15.4362C9.83529 15.4108 9.77471 15.3981 9.71221 15.3981V15.7098ZM9.76574 15.7209C10.1641 15.8985 10.5901 15.9868 11.0419 15.9868V15.6751C10.6319 15.6751 10.2494 15.5952 9.89261 15.4362L9.76574 15.7209ZM11.0419 15.9868C11.4131 15.9868 11.7186 15.9267 11.9354 15.7842C12.1637 15.6342 12.275 15.4054 12.275 15.1231H11.9633C11.9633 15.3127 11.8951 15.4378 11.7642 15.5238C11.622 15.6172 11.3889 15.6751 11.0419 15.6751V15.9868ZM12.275 15.1231C12.275 14.954 12.2076 14.8088 12.0798 14.6977L11.8753 14.9329C11.9363 14.9859 11.9633 15.0459 11.9633 15.1231H12.275ZM12.0824 14.7C11.9736 14.601 11.8408 14.5274 11.6883 14.4766L11.5897 14.7723C11.708 14.8117 11.801 14.8654 11.8727 14.9306L12.0824 14.7ZM11.6923 14.478C11.5501 14.4263 11.3518 14.3674 11.0999 14.3013L11.0208 14.6028C11.2695 14.6681 11.457 14.7241 11.5857 14.7709L11.6923 14.478ZM11.0995 14.3012C10.7698 14.2158 10.5071 14.1353 10.3093 14.0602L10.1986 14.3515C10.4112 14.4323 10.686 14.516 11.0212 14.6029L11.0995 14.3012ZM10.3118 14.0611C10.1278 13.9876 9.9708 13.8797 9.83904 13.7369L9.61001 13.9484C9.77373 14.1257 9.96963 14.26 10.196 14.3505L10.3118 14.0611ZM9.83904 13.7369C9.72354 13.6118 9.65876 13.4393 9.65876 13.2024H9.34707C9.34707 13.4991 9.43003 13.7534 9.61001 13.9484L9.83904 13.7369ZM9.65876 13.2024C9.65876 12.9975 9.71217 12.816 9.81813 12.6535L9.55705 12.4833C9.41677 12.6984 9.34707 12.9395 9.34707 13.2024H9.65876ZM9.81895 12.6522C9.92387 12.4879 10.0799 12.3543 10.2951 12.2541L10.1635 11.9716C9.90268 12.093 9.69755 12.2631 9.55623 12.4845L9.81895 12.6522ZM10.2961 12.2536C10.5127 12.1508 10.7781 12.0963 11.0973 12.0963V11.7846C10.7434 11.7846 10.4301 11.845 10.1625 11.9721L10.2961 12.2536ZM11.0973 12.0963C11.5331 12.0963 11.9227 12.1617 12.2681 12.2898L12.3765 11.9975C11.9914 11.8547 11.5643 11.7846 11.0973 11.7846V12.0963ZM12.2699 12.2904C12.3036 12.3025 12.3174 12.3161 12.3239 12.3253C12.3304 12.3347 12.3388 12.3529 12.3388 12.3899H12.6505C12.6505 12.3037 12.6301 12.2193 12.5792 12.1466C12.5283 12.0738 12.4558 12.0258 12.3747 11.9969L12.2699 12.2904ZM12.3388 12.3899C12.3388 12.4162 12.331 12.4405 12.308 12.4677L12.5459 12.6691C12.6132 12.5895 12.6505 12.4949 12.6505 12.3899H12.3388ZM12.308 12.4677C12.2943 12.4839 12.2794 12.4926 12.2484 12.4926V12.8043C12.3651 12.8043 12.4693 12.7596 12.5459 12.6691L12.308 12.4677ZM12.2484 12.4926C12.2526 12.4926 12.2514 12.4931 12.2431 12.4911C12.2352 12.4891 12.2236 12.4854 12.2078 12.4791L12.092 12.7685C12.1392 12.7874 12.194 12.8043 12.2484 12.8043V12.4926ZM12.2009 12.4765C11.8643 12.36 11.5167 12.3017 11.1588 12.3017V12.6134C11.4822 12.6134 11.7953 12.666 12.0989 12.7711L12.2009 12.4765ZM11.1588 12.3017C10.8161 12.3017 10.5211 12.3667 10.2846 12.5086L10.4449 12.7759C10.6188 12.6716 10.8532 12.6134 11.1588 12.6134V12.3017ZM10.2834 12.5093C10.0396 12.6586 9.90725 12.8794 9.90725 13.1593H10.2189C10.2189 12.9961 10.2877 12.8722 10.4461 12.7752L10.2834 12.5093ZM9.90725 13.1593C9.90725 13.3436 9.96761 13.5059 10.0945 13.6327L10.3149 13.4123C10.253 13.3504 10.2189 13.2706 10.2189 13.1593H9.90725ZM10.0994 13.6374C10.2147 13.7432 10.3538 13.8247 10.5136 13.8841L10.6221 13.5919C10.4946 13.5445 10.3916 13.4825 10.31 13.4077L10.0994 13.6374ZM10.5186 13.8858C10.6731 13.9374 10.8776 13.992 11.1301 14.0499L11.1999 13.7462C10.9517 13.6892 10.7581 13.6371 10.6172 13.5902L10.5186 13.8858ZM11.1286 14.0496C11.4492 14.1267 11.702 14.2027 11.8894 14.2769L12.0041 13.9871C11.7976 13.9053 11.5292 13.8254 11.2014 13.7465L11.1286 14.0496ZM11.8904 14.2773C12.0674 14.3459 12.2162 14.4517 12.339 14.5961L12.5765 14.3942C12.4201 14.2103 12.2284 14.074 12.0031 13.9867L11.8904 14.2773ZM12.3404 14.5978C12.4529 14.7263 12.5173 14.9078 12.5173 15.16H12.829C12.829 14.854 12.7498 14.5923 12.575 14.3925L12.3404 14.5978ZM12.5173 15.16C12.5173 15.3579 12.4615 15.5335 12.3492 15.6914L12.6032 15.8721C12.7536 15.6606 12.829 15.4217 12.829 15.16H12.5173ZM12.3502 15.6901C12.2378 15.8446 12.077 15.97 11.8605 16.0634L11.9838 16.3496C12.2434 16.2377 12.452 16.08 12.6022 15.8734L12.3502 15.6901ZM11.8605 16.0634C11.6455 16.1561 11.3922 16.2045 11.0973 16.2045V16.5162C11.4262 16.5162 11.7228 16.4621 11.9838 16.3496L11.8605 16.0634ZM15.0207 16.0464L14.8765 16.1059L14.8789 16.1112L15.0207 16.0464ZM13.5002 12.3591L13.3542 12.4138L13.3561 12.4185L13.5002 12.3591ZM13.5556 12.0513L13.6659 12.1616L13.6701 12.157L13.5556 12.0513ZM13.9127 12.0267L13.814 12.1473L13.8199 12.1521L13.8262 12.1563L13.9127 12.0267ZM14.0235 12.1621L14.1682 12.1041L14.1667 12.1007L14.0235 12.1621ZM15.4701 15.7694L15.3254 15.8274L15.4701 16.1881L15.6147 15.8274L15.4701 15.7694ZM16.9167 12.1621L16.7734 12.1007L16.7721 12.1041L16.9167 12.1621ZM17.0214 12.0267L17.113 12.1527L17.1149 12.1513L17.0214 12.0267ZM17.3846 12.0513L17.27 12.1571L17.2744 12.1615L17.3846 12.0513ZM17.44 12.3591L17.5841 12.4185L17.5859 12.4138L17.44 12.3591ZM15.9195 16.0464L16.0613 16.1112L16.0635 16.1058L15.9195 16.0464ZM15.4024 16.1738C15.3495 16.1738 15.3087 16.1596 15.2736 16.1337C15.2367 16.1063 15.1979 16.0593 15.1625 15.9817L14.8789 16.1112C14.9297 16.2223 14.9976 16.317 15.0879 16.384C15.1801 16.4524 15.287 16.4855 15.4024 16.4855V16.1738ZM15.1648 15.987L13.6443 12.2997L13.3561 12.4185L14.8766 16.1058L15.1648 15.987ZM13.6461 12.3044C13.6407 12.29 13.6376 12.2737 13.6376 12.2544H13.3259C13.3259 12.3091 13.3351 12.3626 13.3543 12.4138L13.6461 12.3044ZM13.6376 12.2544C13.6376 12.1992 13.6524 12.1749 13.6658 12.1615L13.4454 11.9411C13.3603 12.0262 13.3259 12.1373 13.3259 12.2544H13.6376ZM13.6701 12.157C13.6844 12.1416 13.7072 12.1271 13.7588 12.1271V11.8154C13.6379 11.8154 13.5254 11.8543 13.4411 11.9456L13.6701 12.157ZM13.7588 12.1271C13.7797 12.1271 13.7962 12.1328 13.814 12.1473L14.0113 11.9061C13.9388 11.8467 13.8528 11.8154 13.7588 11.8154V12.1271ZM13.8262 12.1563C13.8489 12.1714 13.8668 12.1922 13.8802 12.2235L14.1667 12.1007C14.1309 12.0171 14.075 11.9476 13.9991 11.897L13.8262 12.1563ZM13.8788 12.2201L15.3254 15.8274L15.6147 15.7114L14.1681 12.1041L13.8788 12.2201ZM15.6147 15.8274L17.0614 12.2201L16.7721 12.1041L15.3254 15.7114L15.6147 15.8274ZM17.06 12.2235C17.0749 12.1887 17.0932 12.1671 17.113 12.1527L16.9297 11.9006C16.8592 11.9519 16.8078 12.0206 16.7735 12.1007L17.06 12.2235ZM17.1149 12.1513C17.1392 12.1331 17.1602 12.1271 17.1814 12.1271V11.8154C17.0878 11.8154 17.002 11.8464 16.9279 11.902L17.1149 12.1513ZM17.1814 12.1271C17.233 12.1271 17.2558 12.1416 17.27 12.157L17.4991 11.9456C17.4148 11.8543 17.3022 11.8154 17.1814 11.8154V12.1271ZM17.2744 12.1615C17.2878 12.1749 17.3026 12.1992 17.3026 12.2544H17.6143C17.6143 12.1373 17.5798 12.0262 17.4948 11.9411L17.2744 12.1615ZM17.3026 12.2544C17.3026 12.2737 17.2994 12.29 17.294 12.3044L17.5859 12.4138C17.6051 12.3626 17.6143 12.3091 17.6143 12.2544H17.3026ZM17.2959 12.2997L15.7754 15.987L16.0635 16.1058L17.584 12.4185L17.2959 12.2997ZM15.7777 15.9817C15.7423 16.0593 15.7035 16.1063 15.6666 16.1337C15.6315 16.1596 15.5907 16.1738 15.5378 16.1738V16.4855C15.6532 16.4855 15.7601 16.4524 15.8523 16.384C15.9426 16.317 16.0105 16.2223 16.0612 16.1112L15.7777 15.9817ZM15.5378 16.1738H15.4024V16.4855H15.5378V16.1738Z" fill="white" mask="url(#path-4-outside-1_205_20157)"/>
<g filter="url(#filter1_d_205_20157)">
<path d="M21.9173 7.94805H15.6835C14.7367 7.94805 13.9692 7.18054 13.9692 6.23377V0L21.9173 7.94805Z" fill="url(#paint2_linear_205_20157)"/>
</g>
</g>
<defs>
<filter id="filter0_f_205_20157" x="1.3458" y="8.18174" width="19.948" height="12.6238" filterUnits="userSpaceOnUse" color-interpolation-filters="sRGB">
<feFlood flood-opacity="0" result="BackgroundImageFix"/>
<feBlend mode="normal" in="SourceGraphic" in2="BackgroundImageFix" result="shape"/>
<feGaussianBlur stdDeviation="1.51948" result="effect1_foregroundBlur_205_20157"/>
</filter>
<filter id="filter1_d_205_20157" x="12.177" y="-1.87013" width="11.8443" height="11.8443" filterUnits="userSpaceOnUse" color-interpolation-filters="sRGB">
<feFlood flood-opacity="0" result="BackgroundImageFix"/>
<feColorMatrix in="SourceAlpha" type="matrix" values="0 0 0 0 0 0 0 0 0 0 0 0 0 0 0 0 0 0 127 0" result="hardAlpha"/>
<feOffset dx="0.155844" dy="0.0779221"/>
<feGaussianBlur stdDeviation="0.974026"/>
<feColorMatrix type="matrix" values="0 0 0 0 0 0 0 0 0 0 0 0 0 0 0 0 0 0 0.33 0"/>
<feBlend mode="normal" in2="BackgroundImageFix" result="effect1_dropShadow_205_20157"/>
<feBlend mode="normal" in="SourceGraphic" in2="effect1_dropShadow_205_20157" result="shape"/>
</filter>
<linearGradient id="paint0_linear_205_20157" x1="11.3201" y1="0" x2="11.3201" y2="24" gradientUnits="userSpaceOnUse">
<stop stop-color="#FF7979"/>
<stop offset="1" stop-color="#E85555"/>
</linearGradient>
<linearGradient id="paint1_linear_205_20157" x1="11.3201" y1="0" x2="11.3201" y2="24" gradientUnits="userSpaceOnUse">
<stop stop-color="#2EBC89"/>
<stop offset="1" stop-color="#1DA473"/>
</linearGradient>
<linearGradient id="paint2_linear_205_20157" x1="17.9433" y1="0" x2="17.9433" y2="7.94805" gradientUnits="userSpaceOnUse">
<stop stop-color="#23A476"/>
<stop offset="1" stop-color="#11835A"/>
</linearGradient>
</defs>
</svg>
