<svg viewBox="0 0 22 24" fill="none" xmlns="http://www.w3.org/2000/svg">
<mask id="mask0_1986_427453" style="mask-type:alpha" maskUnits="userSpaceOnUse" x="0" y="0" width="22" height="24">
<path d="M20.2852 24H2.51897C1.5722 24 0.804688 23.2325 0.804688 22.2857V1.71429C0.804688 0.767513 1.5722 0 2.51897 0H14.0514L21.9995 7.94805V22.2857C21.9995 23.2325 21.232 24 20.2852 24Z" fill="url(#paint0_linear_1986_427453)"/>
</mask>
<g mask="url(#mask0_1986_427453)">
<path d="M20.2852 24H2.51897C1.5722 24 0.804688 23.2325 0.804688 22.2857V1.71429C0.804688 0.767513 1.5722 0 2.51897 0H14.0514L21.9995 7.94805V22.2857C21.9995 23.2325 21.232 24 20.2852 24Z" fill="url(#paint1_linear_1986_427453)"/>
<g filter="url(#filter0_f_1986_427453)">
<rect x="4.46875" y="11.2207" width="13.8701" height="6.54545" fill="#0F7D56" fill-opacity="0.27" style="mix-blend-mode:darken"/>
</g>
<mask id="path-4-outside-1_1986_427453" maskUnits="userSpaceOnUse" x="4.10156" y="11.2988" width="14" height="6" fill="black">
<rect fill="white" x="4.10156" y="11.2988" width="14" height="6"/>
<path d="M7.00793 16.3604C6.59754 16.3604 6.22819 16.2722 5.89987 16.0957C5.57567 15.9151 5.31917 15.6586 5.13039 15.3262C4.94572 14.9897 4.85338 14.5978 4.85338 14.1504C4.85338 13.7031 4.94572 13.3132 5.13039 12.9808C5.31917 12.6443 5.57567 12.3878 5.89987 12.2113C6.22819 12.0308 6.59754 11.9405 7.00793 11.9405C7.28699 11.9405 7.53528 11.9733 7.75278 12.039C7.97439 12.1046 8.19395 12.199 8.41146 12.3222C8.50174 12.3714 8.54689 12.4494 8.54689 12.5561C8.54689 12.6176 8.52432 12.673 8.47917 12.7223C8.43403 12.7674 8.37452 12.79 8.30065 12.79C8.25961 12.79 8.22268 12.7818 8.18985 12.7654C8.00928 12.671 7.83281 12.5992 7.66045 12.5499C7.48808 12.5007 7.28904 12.476 7.06333 12.476C6.71039 12.476 6.40876 12.5499 6.15842 12.6977C5.91219 12.8413 5.72546 13.0403 5.59824 13.2948C5.47512 13.5451 5.41356 13.8303 5.41356 14.1504C5.41356 14.4705 5.47512 14.7578 5.59824 15.0123C5.72546 15.2626 5.91219 15.4616 6.15842 15.6094C6.40876 15.753 6.71039 15.8248 7.06333 15.8248C7.28904 15.8248 7.48808 15.8002 7.66045 15.751C7.83281 15.7017 8.00928 15.6299 8.18985 15.5355C8.22268 15.5191 8.25961 15.5109 8.30065 15.5109C8.37452 15.5109 8.43403 15.5335 8.47917 15.5786C8.52432 15.6237 8.54689 15.6791 8.54689 15.7448C8.54689 15.8515 8.50174 15.9295 8.41146 15.9787C8.19395 16.1018 7.97439 16.1962 7.75278 16.2619C7.53528 16.3276 7.28699 16.3604 7.00793 16.3604ZM11.1774 16.3604C10.6562 16.3604 10.1678 16.2619 9.71227 16.0649C9.66302 16.0444 9.62198 16.0116 9.58915 15.9664C9.55632 15.9172 9.5399 15.8659 9.5399 15.8125C9.5399 15.7428 9.56247 15.6832 9.60762 15.634C9.65686 15.5806 9.71842 15.554 9.79229 15.554C9.83333 15.554 9.87232 15.5622 9.90925 15.5786C10.2868 15.7469 10.691 15.831 11.122 15.831C11.8401 15.831 12.1992 15.595 12.1992 15.1231C12.1992 14.9999 12.152 14.8973 12.0576 14.8153C11.9674 14.7332 11.8545 14.6696 11.7191 14.6244C11.5836 14.5752 11.3908 14.5177 11.1404 14.4521C10.808 14.3659 10.5392 14.2838 10.334 14.2058C10.1288 14.1238 9.95234 14.0027 9.8046 13.8426C9.65686 13.6826 9.58299 13.4692 9.58299 13.2024C9.58299 12.9685 9.64455 12.7572 9.76767 12.5684C9.89078 12.3755 10.0714 12.2237 10.3094 12.1129C10.5515 11.9979 10.8408 11.9405 11.1774 11.9405C11.6288 11.9405 12.0371 12.0082 12.4024 12.1436C12.5173 12.1847 12.5747 12.2667 12.5747 12.3899C12.5747 12.4555 12.5522 12.515 12.507 12.5684C12.4619 12.6217 12.4024 12.6484 12.3285 12.6484C12.3039 12.6484 12.271 12.6402 12.23 12.6238C11.9099 12.513 11.5795 12.4576 11.2389 12.4576C10.9147 12.4576 10.65 12.5191 10.4448 12.6423C10.2437 12.7654 10.1432 12.9377 10.1432 13.1593C10.1432 13.3071 10.1904 13.4282 10.2848 13.5225C10.3833 13.6128 10.5043 13.6846 10.648 13.738C10.7957 13.7872 10.9947 13.8406 11.2451 13.898C11.5693 13.976 11.8299 14.054 12.0269 14.132C12.228 14.2099 12.3983 14.331 12.5378 14.4952C12.6814 14.6593 12.7533 14.8809 12.7533 15.16C12.7533 15.3898 12.6876 15.5971 12.5563 15.7817C12.4249 15.9623 12.2403 16.1039 12.0022 16.2065C11.7642 16.3091 11.4893 16.3604 11.1774 16.3604ZM15.4825 16.3296C15.3142 16.3296 15.187 16.2352 15.1008 16.0464L13.5803 12.3591C13.568 12.3263 13.5618 12.2914 13.5618 12.2544C13.5618 12.1683 13.5865 12.1005 13.6357 12.0513C13.6849 11.9979 13.7527 11.9713 13.8388 11.9713C13.8963 11.9713 13.9476 11.9897 13.9927 12.0267C14.042 12.0595 14.0789 12.1046 14.1035 12.1621L15.5502 15.7694L16.9968 12.1621C17.0214 12.1046 17.0563 12.0595 17.1014 12.0267C17.1507 11.9897 17.204 11.9713 17.2615 11.9713C17.3477 11.9713 17.4154 11.9979 17.4646 12.0513C17.5139 12.1005 17.5385 12.1683 17.5385 12.2544C17.5385 12.2914 17.5324 12.3263 17.52 12.3591L15.9995 16.0464C15.9134 16.2352 15.7861 16.3296 15.6179 16.3296H15.4825Z"/>
</mask>
<path d="M7.00793 16.3604C6.59754 16.3604 6.22819 16.2722 5.89987 16.0957C5.57567 15.9151 5.31917 15.6586 5.13039 15.3262C4.94572 14.9897 4.85338 14.5978 4.85338 14.1504C4.85338 13.7031 4.94572 13.3132 5.13039 12.9808C5.31917 12.6443 5.57567 12.3878 5.89987 12.2113C6.22819 12.0308 6.59754 11.9405 7.00793 11.9405C7.28699 11.9405 7.53528 11.9733 7.75278 12.039C7.97439 12.1046 8.19395 12.199 8.41146 12.3222C8.50174 12.3714 8.54689 12.4494 8.54689 12.5561C8.54689 12.6176 8.52432 12.673 8.47917 12.7223C8.43403 12.7674 8.37452 12.79 8.30065 12.79C8.25961 12.79 8.22268 12.7818 8.18985 12.7654C8.00928 12.671 7.83281 12.5992 7.66045 12.5499C7.48808 12.5007 7.28904 12.476 7.06333 12.476C6.71039 12.476 6.40876 12.5499 6.15842 12.6977C5.91219 12.8413 5.72546 13.0403 5.59824 13.2948C5.47512 13.5451 5.41356 13.8303 5.41356 14.1504C5.41356 14.4705 5.47512 14.7578 5.59824 15.0123C5.72546 15.2626 5.91219 15.4616 6.15842 15.6094C6.40876 15.753 6.71039 15.8248 7.06333 15.8248C7.28904 15.8248 7.48808 15.8002 7.66045 15.751C7.83281 15.7017 8.00928 15.6299 8.18985 15.5355C8.22268 15.5191 8.25961 15.5109 8.30065 15.5109C8.37452 15.5109 8.43403 15.5335 8.47917 15.5786C8.52432 15.6237 8.54689 15.6791 8.54689 15.7448C8.54689 15.8515 8.50174 15.9295 8.41146 15.9787C8.19395 16.1018 7.97439 16.1962 7.75278 16.2619C7.53528 16.3276 7.28699 16.3604 7.00793 16.3604ZM11.1774 16.3604C10.6562 16.3604 10.1678 16.2619 9.71227 16.0649C9.66302 16.0444 9.62198 16.0116 9.58915 15.9664C9.55632 15.9172 9.5399 15.8659 9.5399 15.8125C9.5399 15.7428 9.56247 15.6832 9.60762 15.634C9.65686 15.5806 9.71842 15.554 9.79229 15.554C9.83333 15.554 9.87232 15.5622 9.90925 15.5786C10.2868 15.7469 10.691 15.831 11.122 15.831C11.8401 15.831 12.1992 15.595 12.1992 15.1231C12.1992 14.9999 12.152 14.8973 12.0576 14.8153C11.9674 14.7332 11.8545 14.6696 11.7191 14.6244C11.5836 14.5752 11.3908 14.5177 11.1404 14.4521C10.808 14.3659 10.5392 14.2838 10.334 14.2058C10.1288 14.1238 9.95234 14.0027 9.8046 13.8426C9.65686 13.6826 9.58299 13.4692 9.58299 13.2024C9.58299 12.9685 9.64455 12.7572 9.76767 12.5684C9.89078 12.3755 10.0714 12.2237 10.3094 12.1129C10.5515 11.9979 10.8408 11.9405 11.1774 11.9405C11.6288 11.9405 12.0371 12.0082 12.4024 12.1436C12.5173 12.1847 12.5747 12.2667 12.5747 12.3899C12.5747 12.4555 12.5522 12.515 12.507 12.5684C12.4619 12.6217 12.4024 12.6484 12.3285 12.6484C12.3039 12.6484 12.271 12.6402 12.23 12.6238C11.9099 12.513 11.5795 12.4576 11.2389 12.4576C10.9147 12.4576 10.65 12.5191 10.4448 12.6423C10.2437 12.7654 10.1432 12.9377 10.1432 13.1593C10.1432 13.3071 10.1904 13.4282 10.2848 13.5225C10.3833 13.6128 10.5043 13.6846 10.648 13.738C10.7957 13.7872 10.9947 13.8406 11.2451 13.898C11.5693 13.976 11.8299 14.054 12.0269 14.132C12.228 14.2099 12.3983 14.331 12.5378 14.4952C12.6814 14.6593 12.7533 14.8809 12.7533 15.16C12.7533 15.3898 12.6876 15.5971 12.5563 15.7817C12.4249 15.9623 12.2403 16.1039 12.0022 16.2065C11.7642 16.3091 11.4893 16.3604 11.1774 16.3604ZM15.4825 16.3296C15.3142 16.3296 15.187 16.2352 15.1008 16.0464L13.5803 12.3591C13.568 12.3263 13.5618 12.2914 13.5618 12.2544C13.5618 12.1683 13.5865 12.1005 13.6357 12.0513C13.6849 11.9979 13.7527 11.9713 13.8388 11.9713C13.8963 11.9713 13.9476 11.9897 13.9927 12.0267C14.042 12.0595 14.0789 12.1046 14.1035 12.1621L15.5502 15.7694L16.9968 12.1621C17.0214 12.1046 17.0563 12.0595 17.1014 12.0267C17.1507 11.9897 17.204 11.9713 17.2615 11.9713C17.3477 11.9713 17.4154 11.9979 17.4646 12.0513C17.5139 12.1005 17.5385 12.1683 17.5385 12.2544C17.5385 12.2914 17.5324 12.3263 17.52 12.3591L15.9995 16.0464C15.9134 16.2352 15.7861 16.3296 15.6179 16.3296H15.4825Z" fill="white"/>
<path d="M5.89987 16.0957L5.82403 16.2319L5.82609 16.233L5.89987 16.0957ZM5.13039 15.3262L4.99376 15.4012L4.99488 15.4032L5.13039 15.3262ZM5.13039 12.9808L4.99447 12.9046L4.99416 12.9051L5.13039 12.9808ZM5.89987 12.2113L5.97438 12.3482L5.97498 12.3479L5.89987 12.2113ZM7.75278 12.039L7.70774 12.1882L7.70851 12.1884L7.75278 12.039ZM8.41146 12.3222L8.33468 12.4578L8.33683 12.459L8.41146 12.3222ZM8.47917 12.7223L8.58948 12.8326L8.59405 12.8276L8.47917 12.7223ZM8.18985 12.7654L8.11764 12.9035L8.12015 12.9048L8.18985 12.7654ZM7.66045 12.5499L7.70326 12.4001V12.4001L7.66045 12.5499ZM6.15842 12.6977L6.23695 12.8323L6.23763 12.8319L6.15842 12.6977ZM5.59824 13.2948L5.45884 13.2251L5.45839 13.226L5.59824 13.2948ZM5.59824 15.0123L5.45793 15.0801L5.45931 15.0829L5.59824 15.0123ZM6.15842 15.6094L6.07822 15.743L6.08086 15.7445L6.15842 15.6094ZM7.66045 15.751L7.70326 15.9008L7.66045 15.751ZM8.18985 15.5355L8.12014 15.3961L8.11765 15.3974L8.18985 15.5355ZM8.47917 15.5786L8.58937 15.4684L8.58937 15.4684L8.47917 15.5786ZM8.41146 15.9787L8.33682 15.8419L8.33469 15.8431L8.41146 15.9787ZM7.75278 16.2619L7.70851 16.1125L7.70774 16.1127L7.75278 16.2619ZM7.00793 16.2045C6.62063 16.2045 6.27706 16.1215 5.97366 15.9584L5.82609 16.233C6.17931 16.4228 6.57444 16.5162 7.00793 16.5162V16.2045ZM5.97571 15.9595C5.67722 15.7933 5.44104 15.5576 5.26591 15.2492L4.99488 15.4032C5.19731 15.7596 5.47412 16.0369 5.82404 16.2318L5.97571 15.9595ZM5.26702 15.2512C5.09689 14.9412 5.00922 14.5759 5.00922 14.1504H4.69754C4.69754 14.6196 4.79454 15.0381 4.99377 15.4012L5.26702 15.2512ZM5.00922 14.1504C5.00922 13.7249 5.09691 13.362 5.26663 13.0565L4.99416 12.9051C4.79452 13.2645 4.69754 13.6813 4.69754 14.1504H5.00922ZM5.26631 13.0571C5.44142 12.7449 5.67714 12.51 5.97438 12.3482L5.82537 12.0745C5.47419 12.2656 5.19693 12.5437 4.99448 12.9046L5.26631 13.0571ZM5.97498 12.3479C6.27814 12.1812 6.62123 12.0963 7.00793 12.0963V11.7846C6.57384 11.7846 6.17824 11.8804 5.82477 12.0748L5.97498 12.3479ZM7.00793 12.0963C7.27507 12.0963 7.50773 12.1278 7.70774 12.1882L7.79782 11.8898C7.56282 11.8188 7.29891 11.7846 7.00793 11.7846V12.0963ZM7.70851 12.1884C7.91793 12.2505 8.12663 12.34 8.33469 12.4578L8.48823 12.1865C8.26127 12.0581 8.03086 11.9588 7.79706 11.8896L7.70851 12.1884ZM8.33683 12.459C8.36051 12.4719 8.37184 12.4847 8.37816 12.4957C8.38465 12.5069 8.39104 12.5251 8.39104 12.5561H8.70273C8.70273 12.4804 8.68655 12.4062 8.6479 12.3395C8.60908 12.2724 8.55269 12.2217 8.48608 12.1853L8.33683 12.459ZM8.39104 12.5561C8.39104 12.5752 8.38553 12.5938 8.36429 12.617L8.59405 12.8276C8.6631 12.7523 8.70273 12.6601 8.70273 12.5561H8.39104ZM8.36898 12.6121C8.35768 12.6234 8.34022 12.6342 8.30065 12.6342V12.9458C8.40883 12.9458 8.51038 12.9115 8.58937 12.8325L8.36898 12.6121ZM8.30065 12.6342C8.28092 12.6342 8.26829 12.6304 8.25954 12.626L8.12015 12.9048C8.17707 12.9332 8.23831 12.9458 8.30065 12.9458V12.6342ZM8.26204 12.6273C8.07335 12.5286 7.88706 12.4526 7.70326 12.4001L7.61763 12.6998C7.77856 12.7457 7.94521 12.8133 8.11765 12.9035L8.26204 12.6273ZM7.70326 12.4001C7.51392 12.346 7.29996 12.3202 7.06333 12.3202V12.6319C7.27813 12.6319 7.46225 12.6554 7.61763 12.6998L7.70326 12.4001ZM7.06333 12.3202C6.68849 12.3202 6.3582 12.3988 6.07921 12.5634L6.23763 12.8319C6.45931 12.701 6.73229 12.6319 7.06333 12.6319V12.3202ZM6.07989 12.563C5.80755 12.7219 5.59965 12.9435 5.45885 13.2251L5.73763 13.3645C5.85127 13.1372 6.01682 12.9607 6.23695 12.8323L6.07989 12.563ZM5.45839 13.226C5.3233 13.5007 5.25772 13.81 5.25772 14.1504H5.56941C5.56941 13.8507 5.62694 13.5895 5.73808 13.3636L5.45839 13.226ZM5.25772 14.1504C5.25772 14.4909 5.32332 14.8019 5.45795 15.0801L5.73852 14.9444C5.62693 14.7137 5.56941 14.4502 5.56941 14.1504H5.25772ZM5.45931 15.0829C5.60011 15.3599 5.80749 15.5806 6.07824 15.743L6.2386 15.4757C6.01689 15.3427 5.85081 15.1653 5.73717 14.9417L5.45931 15.0829ZM6.08086 15.7445C6.35954 15.9044 6.68921 15.9807 7.06333 15.9807V15.669C6.73158 15.669 6.45798 15.6016 6.23598 15.4742L6.08086 15.7445ZM7.06333 15.9807C7.29996 15.9807 7.51392 15.9549 7.70326 15.9008L7.61763 15.6011C7.46225 15.6455 7.27813 15.669 7.06333 15.669V15.9807ZM7.70326 15.9008C7.88706 15.8483 8.07335 15.7723 8.26204 15.6736L8.11765 15.3974C7.94521 15.4875 7.77856 15.5551 7.61763 15.6011L7.70326 15.9008ZM8.25954 15.6749C8.26829 15.6705 8.28092 15.6667 8.30065 15.6667V15.355C8.23831 15.355 8.17707 15.3677 8.12015 15.3961L8.25954 15.6749ZM8.30065 15.6667C8.34022 15.6667 8.35768 15.6775 8.36897 15.6888L8.58937 15.4684C8.51038 15.3894 8.40883 15.355 8.30065 15.355V15.6667ZM8.36897 15.6888C8.38397 15.7038 8.39104 15.7192 8.39104 15.7448H8.70273C8.70273 15.6391 8.66466 15.5437 8.58937 15.4684L8.36897 15.6888ZM8.39104 15.7448C8.39104 15.7758 8.38465 15.794 8.37816 15.8052C8.37184 15.8161 8.36051 15.829 8.33683 15.8419L8.48608 16.1155C8.55269 16.0792 8.60908 16.0285 8.6479 15.9614C8.68655 15.8946 8.70273 15.8205 8.70273 15.7448H8.39104ZM8.33469 15.8431C8.12663 15.9609 7.91793 16.0504 7.70851 16.1125L7.79706 16.4113C8.03086 16.342 8.26127 16.2428 8.48823 16.1143L8.33469 15.8431ZM7.70774 16.1127C7.50773 16.1731 7.27507 16.2045 7.00793 16.2045V16.5162C7.29891 16.5162 7.56282 16.482 7.79782 16.4111L7.70774 16.1127ZM9.71227 16.0649L9.77413 15.9219L9.77221 15.9211L9.71227 16.0649ZM9.58915 15.9664L9.45937 16.0529L9.46311 16.0581L9.58915 15.9664ZM9.60762 15.634L9.4931 15.5283L9.49273 15.5287L9.60762 15.634ZM9.90925 15.5786L9.97269 15.4362L9.97255 15.4362L9.90925 15.5786ZM12.0576 14.8153L11.9528 14.9306L11.9554 14.9329L12.0576 14.8153ZM11.7191 14.6244L11.6658 14.771L11.6698 14.7723L11.7191 14.6244ZM11.1404 14.4521L11.18 14.3013L11.1795 14.3012L11.1404 14.4521ZM10.334 14.2058L10.2761 14.3506L10.2786 14.3515L10.334 14.2058ZM9.8046 13.8426L9.69009 13.9484L9.8046 13.8426ZM9.76767 12.5684L9.89821 12.6535L9.89903 12.6522L9.76767 12.5684ZM10.3094 12.1129L10.3752 12.2541L10.3762 12.2536L10.3094 12.1129ZM12.4024 12.1436L12.3482 12.2898L12.35 12.2904L12.4024 12.1436ZM12.507 12.5684L12.626 12.6691V12.6691L12.507 12.5684ZM12.23 12.6238L12.2879 12.4789L12.281 12.4765L12.23 12.6238ZM10.4448 12.6423L10.3646 12.5086L10.3634 12.5093L10.4448 12.6423ZM10.2848 13.5225L10.1745 13.6328L10.1795 13.6374L10.2848 13.5225ZM10.648 13.738L10.5937 13.8842L10.5987 13.8858L10.648 13.738ZM11.2451 13.898L11.2815 13.7465L11.2799 13.7462L11.2451 13.898ZM12.0269 14.132L11.9695 14.2769L11.9705 14.2773L12.0269 14.132ZM12.5378 14.4952L12.419 14.5961L12.4205 14.5978L12.5378 14.4952ZM12.5563 15.7817L12.6823 15.8734L12.6833 15.8721L12.5563 15.7817ZM12.0022 16.2065L12.0639 16.3496L12.0022 16.2065ZM11.1774 16.2045C10.6764 16.2045 10.2092 16.11 9.77412 15.9219L9.65041 16.2079C10.1264 16.4138 10.636 16.5162 11.1774 16.5162V16.2045ZM9.77221 15.9211C9.75061 15.9121 9.73201 15.8979 9.71519 15.8747L9.46311 16.0581C9.51195 16.1252 9.57542 16.1767 9.65233 16.2088L9.77221 15.9211ZM9.71882 15.88C9.70111 15.8534 9.69575 15.8318 9.69575 15.8125H9.38406C9.38406 15.9 9.41152 15.9809 9.45948 16.0529L9.71882 15.88ZM9.69575 15.8125C9.69575 15.7798 9.70496 15.7584 9.7225 15.7393L9.49273 15.5287C9.41999 15.608 9.38406 15.7057 9.38406 15.8125H9.69575ZM9.72213 15.7397C9.7413 15.7189 9.76106 15.7098 9.79229 15.7098V15.3981C9.67579 15.3981 9.57243 15.4424 9.4931 15.5283L9.72213 15.7397ZM9.79229 15.7098C9.81187 15.7098 9.82926 15.7136 9.84596 15.721L9.97255 15.4362C9.91537 15.4108 9.85479 15.3981 9.79229 15.3981V15.7098ZM9.84581 15.7209C10.2442 15.8985 10.6701 15.9868 11.122 15.9868V15.6751C10.712 15.6751 10.3294 15.5952 9.97269 15.4362L9.84581 15.7209ZM11.122 15.9868C11.4932 15.9868 11.7986 15.9267 12.0155 15.7842C12.2438 15.6342 12.3551 15.4054 12.3551 15.1231H12.0434C12.0434 15.3127 11.9751 15.4378 11.8443 15.5238C11.7021 15.6172 11.4689 15.6751 11.122 15.6751V15.9868ZM12.3551 15.1231C12.3551 14.954 12.2877 14.8088 12.1599 14.6977L11.9554 14.9329C12.0164 14.9859 12.0434 15.0459 12.0434 15.1231H12.3551ZM12.1625 14.7C12.0536 14.601 11.9209 14.5274 11.7684 14.4766L11.6698 14.7723C11.7881 14.8117 11.8811 14.8654 11.9528 14.9306L12.1625 14.7ZM11.7723 14.478C11.6302 14.4263 11.4319 14.3674 11.18 14.3013L11.1009 14.6028C11.3496 14.6681 11.5371 14.7241 11.6658 14.7709L11.7723 14.478ZM11.1795 14.3012C10.8499 14.2158 10.5872 14.1353 10.3894 14.0602L10.2786 14.3515C10.4912 14.4323 10.7661 14.516 11.1013 14.6029L11.1795 14.3012ZM10.3919 14.0611C10.2079 13.9876 10.0509 13.8797 9.91912 13.7369L9.69009 13.9484C9.85381 14.1257 10.0497 14.26 10.2761 14.3505L10.3919 14.0611ZM9.91912 13.7369C9.80362 13.6118 9.73884 13.4393 9.73884 13.2024H9.42715C9.42715 13.4991 9.51011 13.7534 9.69009 13.9484L9.91912 13.7369ZM9.73884 13.2024C9.73884 12.9975 9.79225 12.816 9.8982 12.6535L9.63713 12.4833C9.49685 12.6984 9.42715 12.9395 9.42715 13.2024H9.73884ZM9.89903 12.6522C10.0039 12.4879 10.16 12.3543 10.3752 12.2541L10.2436 11.9716C9.98276 12.093 9.77762 12.2631 9.6363 12.4845L9.89903 12.6522ZM10.3762 12.2536C10.5928 12.1508 10.8582 12.0963 11.1774 12.0963V11.7846C10.8235 11.7846 10.5102 11.845 10.2426 11.9721L10.3762 12.2536ZM11.1774 12.0963C11.6132 12.0963 12.0028 12.1617 12.3482 12.2898L12.4565 11.9975C12.0714 11.8547 11.6444 11.7846 11.1774 11.7846V12.0963ZM12.35 12.2904C12.3837 12.3025 12.3975 12.3161 12.404 12.3253C12.4105 12.3347 12.4189 12.3529 12.4189 12.3899H12.7306C12.7306 12.3037 12.7102 12.2193 12.6593 12.1466C12.6083 12.0738 12.5359 12.0258 12.4548 11.9969L12.35 12.2904ZM12.4189 12.3899C12.4189 12.4162 12.411 12.4405 12.388 12.4677L12.626 12.6691C12.6933 12.5895 12.7306 12.4949 12.7306 12.3899H12.4189ZM12.3881 12.4677C12.3744 12.4839 12.3595 12.4926 12.3285 12.4926V12.8043C12.4452 12.8043 12.5494 12.7596 12.626 12.6691L12.3881 12.4677ZM12.3285 12.4926C12.3327 12.4926 12.3315 12.4931 12.3232 12.4911C12.3153 12.4891 12.3037 12.4854 12.2879 12.4791L12.1721 12.7685C12.2193 12.7874 12.2741 12.8043 12.3285 12.8043V12.4926ZM12.281 12.4765C11.9444 12.36 11.5968 12.3017 11.2389 12.3017V12.6134C11.5623 12.6134 11.8754 12.666 12.179 12.7711L12.281 12.4765ZM11.2389 12.3017C10.8961 12.3017 10.6012 12.3667 10.3646 12.5086L10.525 12.7759C10.6988 12.6716 10.9333 12.6134 11.2389 12.6134V12.3017ZM10.3634 12.5093C10.1197 12.6586 9.98733 12.8794 9.98733 13.1593H10.299C10.299 12.9961 10.3678 12.8722 10.5262 12.7752L10.3634 12.5093ZM9.98733 13.1593C9.98733 13.3436 10.0477 13.5059 10.1746 13.6327L10.395 13.4123C10.333 13.3504 10.299 13.2706 10.299 13.1593H9.98733ZM10.1795 13.6374C10.2948 13.7432 10.4339 13.8247 10.5937 13.8841L10.7022 13.5919C10.5747 13.5445 10.4717 13.4825 10.3901 13.4077L10.1795 13.6374ZM10.5987 13.8858C10.7532 13.9374 10.9577 13.992 11.2102 14.0499L11.2799 13.7462C11.0318 13.6892 10.8382 13.6371 10.6972 13.5902L10.5987 13.8858ZM11.2086 14.0496C11.5293 14.1267 11.782 14.2027 11.9695 14.2769L12.0842 13.9871C11.8777 13.9053 11.6093 13.8254 11.2815 13.7465L11.2086 14.0496ZM11.9705 14.2773C12.1475 14.3459 12.2963 14.4517 12.4191 14.5961L12.6565 14.3942C12.5002 14.2103 12.3084 14.074 12.0832 13.9867L11.9705 14.2773ZM12.4205 14.5978C12.533 14.7263 12.5974 14.9078 12.5974 15.16H12.9091C12.9091 14.854 12.8299 14.5923 12.6551 14.3925L12.4205 14.5978ZM12.5974 15.16C12.5974 15.3579 12.5415 15.5335 12.4293 15.6914L12.6833 15.8721C12.8336 15.6606 12.9091 15.4217 12.9091 15.16H12.5974ZM12.4302 15.6901C12.3178 15.8446 12.1571 15.97 11.9406 16.0634L12.0639 16.3496C12.3234 16.2377 12.532 16.08 12.6823 15.8734L12.4302 15.6901ZM11.9406 16.0634C11.7255 16.1561 11.4723 16.2045 11.1774 16.2045V16.5162C11.5062 16.5162 11.8029 16.4621 12.0639 16.3496L11.9406 16.0634ZM15.1008 16.0464L14.9566 16.1059L14.959 16.1112L15.1008 16.0464ZM13.5803 12.3591L13.4343 12.4138L13.4362 12.4185L13.5803 12.3591ZM13.6357 12.0513L13.746 12.1616L13.7502 12.157L13.6357 12.0513ZM13.9927 12.0267L13.8941 12.1473L13.9 12.1521L13.9063 12.1563L13.9927 12.0267ZM14.1035 12.1621L14.2482 12.1041L14.2468 12.1007L14.1035 12.1621ZM15.5502 15.7694L15.4055 15.8274L15.5502 16.1881L15.6948 15.8274L15.5502 15.7694ZM16.9968 12.1621L16.8535 12.1007L16.8521 12.1041L16.9968 12.1621ZM17.1014 12.0267L17.1931 12.1527L17.1949 12.1513L17.1014 12.0267ZM17.4646 12.0513L17.35 12.1571L17.3544 12.1615L17.4646 12.0513ZM17.52 12.3591L17.6642 12.4185L17.666 12.4138L17.52 12.3591ZM15.9995 16.0464L16.1414 16.1112L16.1436 16.1058L15.9995 16.0464ZM15.4825 16.1738C15.4296 16.1738 15.3887 16.1596 15.3537 16.1337C15.3168 16.1063 15.278 16.0593 15.2426 15.9817L14.959 16.1112C15.0098 16.2223 15.0777 16.317 15.168 16.384C15.2602 16.4524 15.3671 16.4855 15.4825 16.4855V16.1738ZM15.2449 15.987L13.7244 12.2997L13.4362 12.4185L14.9567 16.1058L15.2449 15.987ZM13.7262 12.3044C13.7208 12.29 13.7177 12.2737 13.7177 12.2544H13.406C13.406 12.3091 13.4152 12.3626 13.4344 12.4138L13.7262 12.3044ZM13.7177 12.2544C13.7177 12.1992 13.7325 12.1749 13.7459 12.1615L13.5255 11.9411C13.4404 12.0262 13.406 12.1373 13.406 12.2544H13.7177ZM13.7502 12.157C13.7645 12.1416 13.7873 12.1271 13.8388 12.1271V11.8154C13.718 11.8154 13.6054 11.8543 13.5212 11.9456L13.7502 12.157ZM13.8388 12.1271C13.8597 12.1271 13.8763 12.1328 13.8941 12.1473L14.0914 11.9061C14.0189 11.8467 13.9329 11.8154 13.8388 11.8154V12.1271ZM13.9063 12.1563C13.9289 12.1714 13.9469 12.1922 13.9603 12.2235L14.2468 12.1007C14.211 12.0171 14.155 11.9476 14.0792 11.897L13.9063 12.1563ZM13.9589 12.2201L15.4055 15.8274L15.6948 15.7114L14.2482 12.1041L13.9589 12.2201ZM15.6948 15.8274L17.1414 12.2201L16.8521 12.1041L15.4055 15.7114L15.6948 15.8274ZM17.14 12.2235C17.155 12.1887 17.1733 12.1671 17.1931 12.1527L17.0098 11.9006C16.9393 11.9519 16.8879 12.0206 16.8535 12.1007L17.14 12.2235ZM17.1949 12.1513C17.2193 12.1331 17.2402 12.1271 17.2615 12.1271V11.8154C17.1678 11.8154 17.0821 11.8464 17.0079 11.902L17.1949 12.1513ZM17.2615 12.1271C17.313 12.1271 17.3359 12.1416 17.3501 12.157L17.5792 11.9456C17.4949 11.8543 17.3823 11.8154 17.2615 11.8154V12.1271ZM17.3544 12.1615C17.3678 12.1749 17.3827 12.1992 17.3827 12.2544H17.6944C17.6944 12.1373 17.6599 12.0262 17.5748 11.9411L17.3544 12.1615ZM17.3827 12.2544C17.3827 12.2737 17.3795 12.29 17.3741 12.3044L17.666 12.4138C17.6852 12.3626 17.6944 12.3091 17.6944 12.2544H17.3827ZM17.376 12.2997L15.8555 15.987L16.1436 16.1058L17.6641 12.4185L17.376 12.2997ZM15.8578 15.9817C15.8223 16.0593 15.7835 16.1063 15.7466 16.1337C15.7116 16.1596 15.6708 16.1738 15.6179 16.1738V16.4855C15.7332 16.4855 15.8402 16.4524 15.9324 16.384C16.0227 16.317 16.0906 16.2223 16.1413 16.1112L15.8578 15.9817ZM15.6179 16.1738H15.4825V16.4855H15.6179V16.1738Z" fill="white" mask="url(#path-4-outside-1_1986_427453)"/>
<g filter="url(#filter1_d_1986_427453)">
<path d="M21.9988 7.94805H15.7651C14.8183 7.94805 14.0508 7.18054 14.0508 6.23377V0L21.9988 7.94805Z" fill="url(#paint2_linear_1986_427453)"/>
</g>
</g>
<defs>
<filter id="filter0_f_1986_427453" x="1.42979" y="8.18174" width="19.949" height="12.6238" filterUnits="userSpaceOnUse" color-interpolation-filters="sRGB">
<feFlood flood-opacity="0" result="BackgroundImageFix"/>
<feBlend mode="normal" in="SourceGraphic" in2="BackgroundImageFix" result="shape"/>
<feGaussianBlur stdDeviation="1.51948" result="effect1_foregroundBlur_1986_427453"/>
</filter>
<filter id="filter1_d_1986_427453" x="12.2586" y="-1.87013" width="11.8453" height="11.8443" filterUnits="userSpaceOnUse" color-interpolation-filters="sRGB">
<feFlood flood-opacity="0" result="BackgroundImageFix"/>
<feColorMatrix in="SourceAlpha" type="matrix" values="0 0 0 0 0 0 0 0 0 0 0 0 0 0 0 0 0 0 127 0" result="hardAlpha"/>
<feOffset dx="0.155844" dy="0.0779221"/>
<feGaussianBlur stdDeviation="0.974026"/>
<feColorMatrix type="matrix" values="0 0 0 0 0 0 0 0 0 0 0 0 0 0 0 0 0 0 0.33 0"/>
<feBlend mode="normal" in2="BackgroundImageFix" result="effect1_dropShadow_1986_427453"/>
<feBlend mode="normal" in="SourceGraphic" in2="effect1_dropShadow_1986_427453" result="shape"/>
</filter>
<linearGradient id="paint0_linear_1986_427453" x1="11.4021" y1="0" x2="11.4021" y2="24" gradientUnits="userSpaceOnUse">
<stop stop-color="#FF7979"/>
<stop offset="1" stop-color="#E85555"/>
</linearGradient>
<linearGradient id="paint1_linear_1986_427453" x1="11.4021" y1="0" x2="11.4021" y2="24" gradientUnits="userSpaceOnUse">
<stop stop-color="#2EBC89"/>
<stop offset="1" stop-color="#1DA473"/>
</linearGradient>
<linearGradient id="paint2_linear_1986_427453" x1="18.0248" y1="0" x2="18.0248" y2="7.94805" gradientUnits="userSpaceOnUse">
<stop stop-color="#23A476"/>
<stop offset="1" stop-color="#11835A"/>
</linearGradient>
</defs>
</svg>
