<svg viewBox="0 0 24 24" fill="none" xmlns="http://www.w3.org/2000/svg">
<path d="M3.73913 19.0625C3.73913 20.2656 4.51957 21.25 5.47826 21.25C5.68395 21.2455 5.88666 21.1997 6.07446 21.1152C6.26226 21.0306 6.43134 20.9091 6.57174 20.7578C6.72257 20.5976 6.92673 20.499 7.14526 20.4806C7.36379 20.4622 7.58138 20.5255 7.75652 20.6583C7.85159 20.7338 7.92992 20.8286 7.98649 20.9364C8.04305 21.0442 8.07661 21.1627 8.085 21.2843C8.09339 21.4059 8.07643 21.528 8.03522 21.6426C7.994 21.7572 7.92943 21.8619 7.84565 21.95C7.54287 22.278 7.17672 22.5403 6.76964 22.7208C6.36255 22.9014 5.92312 22.9964 5.47826 23C3.56087 23 2 21.2336 2 19.0625C2 16.8914 3.56087 15.125 5.47826 15.125C5.91281 15.1282 6.34234 15.2188 6.74161 15.3914C7.14088 15.564 7.50183 15.8152 7.80326 16.1302C7.96408 16.2862 8.06132 16.4969 8.07599 16.7212C8.09066 16.9455 8.02171 17.1672 7.88261 17.3431C7.804 17.4371 7.7066 17.5134 7.59676 17.567C7.48692 17.6206 7.3671 17.6503 7.24508 17.6542C7.12307 17.6581 7.0016 17.6362 6.88859 17.5897C6.77557 17.5433 6.67354 17.4734 6.58913 17.3847C6.44827 17.228 6.27706 17.102 6.08603 17.0144C5.895 16.9267 5.68817 16.8793 5.47826 16.875C4.51957 16.875 3.73913 17.8594 3.73913 19.0625ZM15.0228 20.8464C14.9889 21.1811 14.8818 21.504 14.7091 21.792C14.5363 22.0801 14.3024 22.326 14.0239 22.5122C13.4598 22.8906 12.7609 23 12.1228 23C11.5677 22.9966 11.0152 22.9232 10.4783 22.7812C10.367 22.7515 10.2627 22.6999 10.1714 22.6293C10.0801 22.5587 10.0036 22.4706 9.94648 22.37C9.8893 22.2695 9.85254 22.1585 9.83833 22.0435C9.82411 21.9286 9.83273 21.8119 9.86367 21.7003C9.89462 21.5887 9.94727 21.4845 10.0186 21.3935C10.0899 21.3026 10.1785 21.2268 10.2791 21.1705C10.3798 21.1143 10.4905 21.0787 10.6049 21.0659C10.7193 21.0531 10.8352 21.0632 10.9457 21.0958C11.4217 21.227 12.5707 21.3911 13.0707 21.0564C13.1663 20.9919 13.2696 20.8902 13.3033 20.6266C13.3413 20.3345 13.2261 20.1781 11.9141 19.7964C10.8978 19.5011 9.19674 19.0056 9.41413 17.2688C9.44804 16.9407 9.55325 16.6241 9.72231 16.3416C9.89137 16.059 10.1201 15.8173 10.3924 15.6336C11.6793 14.7586 13.7304 15.2716 13.9609 15.3317C14.184 15.3907 14.3747 15.5366 14.491 15.7371C14.6073 15.9376 14.6396 16.1763 14.581 16.4009C14.5223 16.6254 14.3774 16.8173 14.1782 16.9343C13.9789 17.0513 13.7416 17.0839 13.5185 17.0248C13.0304 16.8969 11.863 16.7448 11.363 17.0861C11.2975 17.1306 11.2435 17.1903 11.2057 17.2601C11.1679 17.33 11.1473 17.408 11.1457 17.4875C11.1326 17.5859 11.1304 17.6067 11.2663 17.6953C11.5174 17.8583 11.9674 17.9884 12.4022 18.1153C13.4663 18.4248 15.2663 18.9531 15.0228 20.8464ZM21.937 16.3281L19.775 22.4181C19.7145 22.5878 19.6034 22.7345 19.4569 22.8382C19.3104 22.942 19.1357 22.9976 18.9565 22.9976C18.7774 22.9976 18.6026 22.942 18.4561 22.8382C18.3096 22.7345 18.1985 22.5878 18.138 22.4181L15.9761 16.3281C15.8951 16.1109 15.9008 15.8706 15.992 15.6576C16.0832 15.4445 16.2528 15.2752 16.4652 15.1852C16.5736 15.1425 16.6894 15.1221 16.8058 15.1253C16.9221 15.1285 17.0367 15.1551 17.1426 15.2037C17.2485 15.2522 17.3437 15.3217 17.4224 15.4079C17.5012 15.4942 17.562 15.5955 17.6011 15.7058L18.9565 19.523L20.312 15.7058C20.3511 15.5955 20.4118 15.4942 20.4906 15.4079C20.5694 15.3217 20.6645 15.2522 20.7704 15.2037C20.8764 15.1551 20.9909 15.1285 21.1073 15.1253C21.2236 15.1221 21.3394 15.1425 21.4478 15.1852C21.6599 15.2756 21.8292 15.445 21.9203 15.6579C22.0114 15.8708 22.0174 16.1109 21.937 16.3281Z" fill="url(#paint0_linear_1792_142168)"/>
<path opacity="0.4" d="M21.7457 8.38094L15.6587 2.25594C15.5779 2.17471 15.482 2.1103 15.3764 2.06638C15.2708 2.02247 15.1577 1.99991 15.0435 2H4.6087C4.14745 2 3.70509 2.18437 3.37894 2.51256C3.05279 2.84075 2.86957 3.28587 2.86957 3.75V12.0625C2.86957 12.1785 2.91537 12.2898 2.99691 12.3719C3.07845 12.4539 3.18904 12.5 3.30435 12.5H21.5652C21.6805 12.5 21.7911 12.4539 21.8727 12.3719C21.9542 12.2898 22 12.1785 22 12.0625V9C22.0001 8.88506 21.9777 8.77123 21.934 8.66501C21.8904 8.55879 21.8264 8.46226 21.7457 8.38094ZM15.0435 9V4.1875L19.8261 9H15.0435Z" fill="url(#paint1_linear_1792_142168)"/>
<defs>
<linearGradient id="paint0_linear_1792_142168" x1="2.4142" y1="12.5" x2="22" y2="12.5" gradientUnits="userSpaceOnUse">
<stop stop-color="#00C188"/>
<stop offset="1" stop-color="#23B9E9"/>
</linearGradient>
<linearGradient id="paint1_linear_1792_142168" x1="2.4142" y1="12.5" x2="22" y2="12.5" gradientUnits="userSpaceOnUse">
<stop stop-color="#00C188"/>
<stop offset="1" stop-color="#23B9E9"/>
</linearGradient>
</defs>
</svg>
