<svg viewBox="0 0 24 24" fill="none" xmlns="http://www.w3.org/2000/svg">
<path d="M23.2753 12.9594L21.9783 7.66855C21.8961 7.33306 21.5953 7.09714 21.2499 7.09714H17.7657L18.5912 3.41197C18.641 3.18978 18.5871 2.957 18.4447 2.77925C18.3024 2.6015 18.087 2.49805 17.8593 2.49805H5.60986H1.45312C1.03889 2.49805 0.703125 2.83381 0.703125 3.24805C0.703125 3.66228 1.03889 3.99805 1.45312 3.99805H4.67325L4.19944 6.11323H1.81622C1.40198 6.11323 1.06622 6.449 1.06622 6.86323C1.06622 7.27747 1.40198 7.61323 1.81622 7.61323H3.86344L3.38962 9.72837H1.81622C1.40198 9.72837 1.06622 10.0641 1.06622 10.4784C1.06622 10.8926 1.40198 11.2284 1.81622 11.2284H3.05362L2.47702 13.8024L1.4468 18.4014C1.39702 18.6236 1.45092 18.8564 1.59323 19.0341C1.73559 19.2119 1.95098 19.3153 2.17866 19.3153H3.68123C4.01362 20.5729 5.1607 21.5028 6.52125 21.5028C7.8818 21.5028 9.02888 20.5729 9.36127 19.3153H14.1183C14.4507 20.5729 15.5978 21.5028 16.9583 21.5028C18.3188 21.5028 19.4659 20.5729 19.7983 19.3153H21.331C21.6821 19.3153 21.9862 19.0719 22.0629 18.7293L23.2787 13.3019C23.304 13.189 23.3029 13.0718 23.2753 12.9594ZM7.74183 9.72837H4.9268L5.40061 7.61319H8.82816C9.24239 7.61319 9.57816 7.27742 9.57816 6.86319C9.57816 6.44895 9.24239 6.11319 8.82816 6.11319H5.73661L6.21042 3.998H16.9227L14.8578 13.2163H4.14548L4.5908 11.2284H7.74183C8.15606 11.2284 8.49183 10.8926 8.49183 10.4784C8.49183 10.0641 8.15606 9.72837 7.74183 9.72837ZM6.5213 20.0028C5.72869 20.0028 5.08388 19.358 5.08388 18.5654C5.08388 17.7728 5.72869 17.128 6.5213 17.128C7.31391 17.128 7.95872 17.7728 7.95872 18.5654C7.95872 19.358 7.31391 20.0028 6.5213 20.0028ZM16.9583 20.0028C16.1658 20.0028 15.521 19.358 15.521 18.5654C15.521 17.7728 16.1658 17.128 16.9583 17.128C17.751 17.128 18.3958 17.7728 18.3958 18.5654C18.3958 19.358 17.751 20.0028 16.9583 20.0028ZM20.7305 17.8154H19.7984C19.466 16.5579 18.3189 15.628 16.9583 15.628C15.5978 15.628 14.4508 16.5579 14.1184 17.8154H9.36131C9.02892 16.5579 7.88184 15.628 6.5213 15.628C5.16075 15.628 4.01367 16.5579 3.68128 17.8154H3.11531L3.80953 14.7163H15.4584C15.8095 14.7163 16.1136 14.4729 16.1903 14.1303L17.4297 8.59714H20.6615L21.7765 13.1457L20.7305 17.8154Z" fill="#00C188"/>
</svg>
