<svg viewBox="0 0 24 24" fill="none" xmlns="http://www.w3.org/2000/svg">
<path fill-rule="evenodd" clip-rule="evenodd" d="M23.2763 12.9638L21.9792 7.67292C21.897 7.33734 21.5962 7.10156 21.2508 7.10156H19.3129L17.7897 13.9014C17.7127 14.2503 17.4034 14.4906 17.0603 14.4903H2.32475L1.448 18.406C1.34314 18.8723 1.70215 19.3196 2.17967 19.3196H2.78951C2.73884 17.2005 4.44134 15.4587 6.55737 15.4587C8.6734 15.4587 10.3759 17.2005 10.3252 19.3196H13.009C12.9583 17.2005 14.6608 15.4587 16.7768 15.4587C18.8929 15.4587 20.5954 17.2005 20.5447 19.3196H21.3319C21.6829 19.3196 21.9871 19.0763 22.064 18.7336L23.2797 13.3065C23.3047 13.1935 23.3038 13.0763 23.2763 12.9638ZM18.3813 17.6232C19.2672 18.5092 19.2672 19.9461 18.3813 20.8321C17.4952 21.7181 16.0583 21.7181 15.1723 20.8321C14.2864 19.9461 14.2864 18.5092 15.1723 17.6232C16.0583 16.7371 17.4952 16.7371 18.3813 17.6232ZM8.16181 17.6232C9.04779 18.5092 9.04779 19.9461 8.16181 20.8321C7.27583 21.7181 5.83887 21.7181 4.95289 20.8321C4.0669 19.9461 4.0669 18.5092 4.95289 17.6232C5.83887 16.7371 7.27583 16.7371 8.16181 17.6232Z" fill="currentColor"/>
<path opacity="0.4" fill-rule="evenodd" clip-rule="evenodd" d="M3.05339 11.2324L2.65978 12.99H16.4618C17.1801 9.78319 17.8747 6.61448 18.5911 3.41597C18.6951 2.9498 18.3374 2.50195 17.8592 2.50195H1.45308C1.03889 2.50195 0.703125 2.83795 0.703125 3.25191C0.703125 3.66628 1.03889 4.00186 1.45308 4.00186H4.67353L4.19948 6.11742H1.81641C1.40203 6.11742 1.06645 6.453 1.06645 6.86737C1.06645 7.28133 1.40203 7.61733 1.81641 7.61733H3.86348L3.38962 9.73247H1.81641C1.40203 9.73247 1.06645 10.068 1.06645 10.4824C1.06645 10.8968 1.40203 11.2324 1.81641 11.2324L3.05339 11.2324Z" fill="currentColor"/>
</svg>
