<svg viewBox="0 0 24 20" fill="none" xmlns="http://www.w3.org/2000/svg">
<path fill-rule="evenodd" clip-rule="evenodd" d="M23.2763 10.9648L21.9792 5.6739C21.897 5.33832 21.5962 5.10254 21.2508 5.10254H19.3129L17.7897 11.9024C17.7127 12.2513 17.4034 12.4916 17.0603 12.4913H2.32475L1.448 16.407C1.34314 16.8733 1.70215 17.3206 2.17967 17.3206H2.78951C2.73884 15.2014 4.44134 13.4596 6.55737 13.4596C8.6734 13.4596 10.3759 15.2014 10.3252 17.3206H13.009C12.9583 15.2014 14.6608 13.4596 16.7768 13.4596C18.8929 13.4596 20.5954 15.2014 20.5447 17.3206H21.3319C21.6829 17.3206 21.9871 17.0772 22.064 16.7346L23.2797 11.3074C23.3047 11.1945 23.3038 11.0773 23.2763 10.9648ZM18.3813 15.6241C19.2672 16.5101 19.2672 17.9471 18.3813 18.8331C17.4952 19.7191 16.0583 19.7191 15.1723 18.8331C14.2864 17.9471 14.2864 16.5101 15.1723 15.6241C16.0583 14.7381 17.4952 14.7381 18.3813 15.6241ZM8.16181 15.6241C9.04779 16.5101 9.04779 17.9471 8.16181 18.8331C7.27583 19.7191 5.83887 19.7191 4.95289 18.8331C4.0669 17.9471 4.0669 16.5101 4.95289 15.6241C5.83887 14.7381 7.27583 14.7381 8.16181 15.6241Z" fill="url(#paint0_linear_7974_45625)"/>
<path opacity="0.4" fill-rule="evenodd" clip-rule="evenodd" d="M3.05339 9.2334L2.65978 10.991H16.4618C17.1801 7.78416 17.8747 4.61546 18.5911 1.41695C18.6951 0.950773 18.3374 0.50293 17.8592 0.50293H1.45308C1.03889 0.50293 0.703125 0.83893 0.703125 1.25288C0.703125 1.66726 1.03889 2.00284 1.45308 2.00284H4.67353L4.19948 4.1184H1.81641C1.40203 4.1184 1.06645 4.45398 1.06645 4.86835C1.06645 5.2823 1.40203 5.61831 1.81641 5.61831H3.86348L3.38962 7.73345H1.81641C1.40203 7.73345 1.06645 8.06902 1.06645 8.4834C1.06645 8.89777 1.40203 9.23335 1.81641 9.23335L3.05339 9.2334Z" fill="url(#paint1_linear_7974_45625)"/>
<defs>
<linearGradient id="paint0_linear_7974_45625" x1="1.88258" y1="12.3" x2="23.2977" y2="12.3" gradientUnits="userSpaceOnUse">
<stop stop-color="#00C188"/>
<stop offset="1" stop-color="#23B9E9"/>
</linearGradient>
<linearGradient id="paint1_linear_7974_45625" x1="1.07396" y1="5.74695" x2="18.6092" y2="5.74695" gradientUnits="userSpaceOnUse">
<stop stop-color="#00C188"/>
<stop offset="1" stop-color="#23B9E9"/>
</linearGradient>
</defs>
</svg>
