<svg viewBox="0 0 60 60" fill="none" xmlns="http://www.w3.org/2000/svg">
<path opacity="0.4" d="M55 30C55 43.8071 43.8071 55 30 55C16.1929 55 5 43.8071 5 30C5 16.1929 16.1929 5 30 5C43.8071 5 55 16.1929 55 30Z" fill="#14AB63"/>
<path fill-rule="evenodd" clip-rule="evenodd" d="M41.1512 21.0201C41.9686 21.6558 42.1158 22.8338 41.4801 23.6512L31.4625 36.5309C29.9033 38.5357 26.9702 38.7958 25.0824 37.0968L18.7457 31.3938C17.976 30.701 17.9136 29.5155 18.6063 28.7458C19.2991 27.9761 20.4846 27.9137 21.2543 28.6064L27.591 34.3094C27.8607 34.5522 28.2797 34.515 28.5025 34.2286L38.52 21.3489C39.1557 20.5315 40.3338 20.3843 41.1512 21.0201Z" fill="#14AB63"/>
</svg>
