<svg viewBox="0 0 60 61" fill="none" xmlns="http://www.w3.org/2000/svg">
<path opacity="0.4" d="M55 30.5C55 44.3071 43.8071 55.5 30 55.5C16.1929 55.5 5 44.3071 5 30.5C5 16.6929 16.1929 5.5 30 5.5C43.8071 5.5 55 16.6929 55 30.5Z" fill="#157EFB"/>
<path fill-rule="evenodd" clip-rule="evenodd" d="M30 18.625C31.0355 18.625 31.875 19.4645 31.875 20.5V23C31.875 24.0355 31.0355 24.875 30 24.875C28.9645 24.875 28.125 24.0355 28.125 23V20.5C28.125 19.4645 28.9645 18.625 30 18.625ZM30 27.375C31.0355 27.375 31.875 28.2145 31.875 29.25V40.5C31.875 41.5355 31.0355 42.375 30 42.375C28.9645 42.375 28.125 41.5355 28.125 40.5V29.25C28.125 28.2145 28.9645 27.375 30 27.375Z" fill="#157EFB"/>
</svg>
