<svg viewBox="0 0 60 61" fill="none" xmlns="http://www.w3.org/2000/svg">
<path opacity="0.4" d="M24.92 10.9148C27.1341 7.0284 32.8659 7.0284 35.08 10.9148L54.2603 44.581C56.4122 48.3582 53.6114 53 49.1803 53H10.8197C6.38865 53 3.58776 48.3582 5.73968 44.581L24.92 10.9148Z" fill="#FFB300"/>
<path d="M32.5 43C32.5 44.3807 31.3807 45.5 30 45.5C28.6193 45.5 27.5 44.3807 27.5 43C27.5 41.6193 28.6193 40.5 30 40.5C31.3807 40.5 32.5 41.6193 32.5 43Z" fill="#FFB300"/>
<path fill-rule="evenodd" clip-rule="evenodd" d="M30 21.125C31.0355 21.125 31.875 21.9645 31.875 23V35.5C31.875 36.5355 31.0355 37.375 30 37.375C28.9645 37.375 28.125 36.5355 28.125 35.5V23C28.125 21.9645 28.9645 21.125 30 21.125Z" fill="#FFB300"/>
</svg>
