<svg viewBox="0 0 60 61" fill="none" xmlns="http://www.w3.org/2000/svg">
<path opacity="0.4" fill-rule="evenodd" clip-rule="evenodd" d="M51.71 22.4462C50.4905 19.3559 48.6492 16.5491 46.3004 14.1996C43.9515 11.8502 41.1451 10.0083 38.0551 8.78808C37.3254 9.61635 36.7428 10.5633 36.3325 11.5881C39.2214 12.6383 41.845 14.3091 44.0186 16.4827C46.1922 18.6563 47.8629 21.2799 48.9132 24.1688C49.9379 23.7585 50.8849 23.1759 51.7132 22.4462M29.9324 10.3494L29.1937 10.3397C25.0153 10.3397 20.9322 11.5881 17.4682 13.9247C14.0043 16.2613 11.3174 19.5795 9.7523 23.4537C8.18722 27.3279 7.81533 31.5814 8.68433 35.6684C9.55334 39.7554 11.6236 43.4896 14.6295 46.3919C17.6355 49.2942 21.44 51.2322 25.555 51.9573C29.67 52.6824 33.9077 52.1615 37.7247 50.4615C41.5416 48.7615 44.7635 45.9599 46.9772 42.4161C49.1909 38.8723 50.2952 34.7479 50.1487 30.5721C51.2584 30.2237 52.3078 29.7667 53.2971 29.2011C53.3551 29.8957 53.3853 30.5979 53.3874 31.3076C53.3871 36.1824 51.9142 40.9435 49.1616 44.9668C46.409 48.9902 42.5053 52.0882 37.9618 53.8549C33.4184 55.6217 28.4472 55.9746 23.6997 54.8677C18.9523 53.7607 14.6499 51.2453 11.3565 47.6513C8.06301 44.0572 5.93211 39.552 5.24298 34.7261C4.55385 29.9003 5.33864 24.9788 7.4945 20.6065C9.65037 16.2343 13.0767 12.6153 17.3247 10.2238C21.5726 7.83226 26.4438 6.77976 31.3002 7.2042C30.7324 8.20189 30.2729 9.25734 29.9292 10.3526" fill="#A9A9A9"/>
<path d="M45.322 24.855C50.6667 24.855 54.9995 20.5222 54.9995 15.1775C54.9995 9.83275 50.6667 5.5 45.322 5.5C39.9773 5.5 35.6445 9.83275 35.6445 15.1775C35.6445 20.5222 39.9773 24.855 45.322 24.855Z" fill="#A9A9A9"/>
</svg>
