<svg viewBox="0 0 25 24" fill="none" xmlns="http://www.w3.org/2000/svg">
<path opacity="0.4" d="M16.691 2H8.31C5.27 2 3.5 3.78 3.5 6.83V17.16C3.5 20.26 5.27 22 8.31 22H16.691C19.78 22 21.5 20.26 21.5 17.16V6.83C21.5 3.78 19.78 2 16.691 2Z" fill="currentColor"/>
<path fill-rule="evenodd" clip-rule="evenodd" d="M8.57996 6.65039V6.66039C8.14896 6.66039 7.79996 7.01039 7.79996 7.44039C7.79996 7.87039 8.14896 8.22039 8.57996 8.22039H11.569C12 8.22039 12.35 7.87039 12.35 7.42939C12.35 7.00039 12 6.65039 11.569 6.65039H8.57996ZM16.42 12.7404H8.57996C8.14896 12.7404 7.79996 12.3904 7.79996 11.9604C7.79996 11.5304 8.14896 11.1794 8.57996 11.1794H16.42C16.85 11.1794 17.2 11.5304 17.2 11.9604C17.2 12.3904 16.85 12.7404 16.42 12.7404ZM16.42 17.3104H8.57996C8.27996 17.3504 7.98996 17.2004 7.82996 16.9504C7.66996 16.6904 7.66996 16.3604 7.82996 16.1104C7.98996 15.8504 8.27996 15.7104 8.57996 15.7404H16.42C16.819 15.7804 17.12 16.1204 17.12 16.5304C17.12 16.9294 16.819 17.2704 16.42 17.3104Z" fill="currentColor"/>
</svg>
