<svg viewBox="0 0 24 24" fill="none" xmlns="http://www.w3.org/2000/svg">
<path d="M11.2646 11.9281H6.54136L8.90156 5.10191L11.2632 11.9281H11.2646ZM12.0216 14.1137L12.4965 15.4891L14.1919 13.7742L10.0572 1.82942C9.67438 0.723528 8.13017 0.723528 7.74736 1.82942L2.48585 17.0321C2.39119 17.3057 2.40776 17.6061 2.53191 17.8674C2.65606 18.1286 2.87762 18.3292 3.14785 18.425C3.41809 18.5209 3.71485 18.5041 3.97287 18.3784C4.23089 18.2527 4.42902 18.0284 4.52368 17.7548L5.78293 14.1137H12.0216ZM19.4188 10.541L12.4692 17.5785C12.0641 17.9884 11.7766 18.5021 11.6374 19.0647L11.0991 21.2473C11.0824 21.3143 11.0709 21.3825 11.0646 21.4513C10.5285 21.4743 9.99156 21.4312 9.4657 21.3231C9.36064 21.2983 9.32179 21.1628 9.37072 21.0637C9.62976 20.5567 9.70604 19.5003 8.7893 19.1258C7.55164 18.6232 5.94267 19.308 4.67047 19.8515C4.14374 20.0758 3.67458 20.274 3.31192 20.3556C2.75497 20.4809 2.09152 20.2609 1.56192 19.9928C1.25682 19.8383 0.868248 20.1123 1.04382 20.4095C1.359 20.9428 1.92746 21.4833 2.95213 21.6115C4.13223 21.7602 4.95398 21.3901 5.79444 21.0142C6.3701 20.7548 6.95295 20.4925 7.66533 20.3906C7.7891 20.3731 7.87401 20.5217 7.82651 20.6383C7.60776 21.1584 7.63511 21.9408 8.28128 22.4508C9.02676 23.0409 11.4345 23.1953 13.0492 22.7174L14.8064 22.273C15.3633 22.1317 15.8713 21.8418 16.2757 21.4309L23.2268 14.3934C23.725 13.881 24.0029 13.19 24 12.4711C23.9971 11.7521 23.7136 11.0634 23.2114 10.5552C22.7092 10.0469 22.0288 9.76015 21.3187 9.7575C20.6086 9.75485 19.9262 10.0365 19.4203 10.541H19.4188Z" fill="url(#paint0_linear_797_61148)"/>
<defs>
<linearGradient id="paint0_linear_797_61148" x1="1" y1="12" x2="24" y2="12" gradientUnits="userSpaceOnUse">
<stop stop-color="#245D9E"/>
<stop offset="1" stop-color="#1A4271"/>
</linearGradient>
</defs>
</svg>
