<svg viewBox="0 0 20 20" fill="none" xmlns="http://www.w3.org/2000/svg">
<path fill-rule="evenodd" clip-rule="evenodd" d="M15.9505 3.31542C15.4187 2.78418 14.5566 2.78418 14.0248 3.31542L13.5127 3.82748L16.4521 6.76693L16.9644 6.25463L16.9647 6.2544C17.496 5.72366 17.4963 4.86124 16.9644 4.32935L15.9505 3.31542ZM15.5683 7.65081L12.6288 4.71136L7.79749 9.54268C7.58266 9.75751 7.45887 10.0465 7.45119 10.3496L7.45118 10.3498L7.38878 12.8591H9.86971C10.1838 12.8591 10.4848 12.7342 10.7069 12.5121L15.5683 7.65081ZM13.1413 2.43106C14.1612 1.4123 15.8141 1.4123 16.8339 2.43106L16.8342 2.4313L17.8483 3.44547C18.868 4.46517 18.8684 6.11924 17.8483 7.13852L17.8481 7.13875L11.5908 13.396C11.1346 13.8523 10.5157 14.1091 9.86971 14.1091H6.74805C6.57959 14.1091 6.41827 14.0411 6.30065 13.9205C6.18302 13.7999 6.11905 13.6369 6.12324 13.4685L6.20157 10.3185L6.20158 10.3183C6.21728 9.69488 6.47181 9.10059 6.91361 8.6588L13.1411 2.4313L13.1413 2.43106ZM2.95942 3.12614C3.81172 2.21174 5.02608 1.69916 6.46214 1.69916H9.57797C9.92315 1.69916 10.203 1.97898 10.203 2.32416C10.203 2.66934 9.92315 2.94916 9.57797 2.94916H6.46214C5.33569 2.94916 4.46547 3.34365 3.87381 3.97843C3.2776 4.61807 2.91797 5.55223 2.91797 6.70666V13.635C2.91797 14.7902 3.27618 15.7242 3.87127 16.3635C4.46166 16.9977 5.33154 17.3925 6.46214 17.3925H13.8155C14.9465 17.3925 15.8166 16.9977 16.4071 16.3635C17.0023 15.7242 17.3605 14.7902 17.3605 13.635V10.2783C17.3605 9.93315 17.6403 9.65332 17.9855 9.65332C18.3306 9.65332 18.6105 9.93315 18.6105 10.2783V13.635C18.6105 15.0481 18.1691 16.3053 17.322 17.2152C16.4701 18.1302 15.2552 18.6425 13.8155 18.6425H6.46214C5.02273 18.6425 3.80803 18.1302 2.95633 17.2152C2.10934 16.3053 1.66797 15.0481 1.66797 13.635V6.70666C1.66797 5.29275 2.11167 4.03566 2.95942 3.12614Z" fill="currentColor" fill-opacity="0.6"/>
</svg>
