<svg width="24" height="24" viewBox="0 0 24 24" fill="none" xmlns="http://www.w3.org/2000/svg">
<path d="M22.6048 10.2589H17.3712C17.2966 10.2589 17.2251 10.2293 17.1724 10.1766C17.1196 10.1238 17.09 10.0523 17.09 9.97769V5.60978C17.09 5.50021 17.0598 5.39277 17.0027 5.29924C16.9456 5.20572 16.8639 5.12973 16.7664 5.07964C16.669 5.02954 16.5596 5.00727 16.4503 5.01526C16.3411 5.02326 16.2361 5.06122 16.147 5.12496L9.28143 10.0366C9.27946 10.0457 9.27708 10.0547 9.2742 10.0636C9.256 10.1204 9.22026 10.1698 9.17213 10.2049C9.124 10.24 9.06598 10.2589 9.00641 10.2589H8.94342C8.86882 10.2589 8.79729 10.2293 8.74454 10.1766C8.6918 10.1238 8.66217 10.0523 8.66217 9.97769V5.69994C8.6633 5.59014 8.63357 5.48222 8.57637 5.38849C8.51917 5.29476 8.43679 5.21898 8.33862 5.16978C8.25391 5.12568 8.15988 5.10249 8.06437 5.10215C7.9403 5.10263 7.81953 5.14215 7.71917 5.21512L1.6609 9.51045C1.394 9.70001 1.17631 9.95065 1.02601 10.2415C0.875699 10.5323 0.797136 10.8548 0.796875 11.1822V21.3849C0.797173 21.6508 0.902912 21.9057 1.09089 22.0937C1.27888 22.2817 1.53375 22.3874 1.79961 22.3877H2.32135V16.7698C2.32135 16.6167 2.3515 16.4652 2.41007 16.3238C2.46865 16.1824 2.5545 16.0539 2.66273 15.9457C2.77096 15.8374 2.89944 15.7516 3.04085 15.693C3.18226 15.6344 3.33382 15.6043 3.48688 15.6043H7.0732C7.22626 15.6043 7.37782 15.6344 7.51923 15.693C7.66064 15.7516 7.78912 15.8374 7.89735 15.9457C8.00558 16.0539 8.09143 16.1824 8.15001 16.3238C8.20858 16.4652 8.23873 16.6167 8.23873 16.7698V22.3877H22.2003C22.4662 22.3874 22.7211 22.2817 22.9091 22.0937C23.0971 21.9057 23.2028 21.6508 23.2031 21.3849V10.8572C23.2029 10.6986 23.1398 10.5465 23.0277 10.4344C22.9155 10.3222 22.7634 10.2591 22.6048 10.2589ZM14.9612 20.1916C14.9612 20.4094 14.8747 20.6183 14.7207 20.7723C14.5667 20.9263 14.3578 21.0129 14.14 21.0129H12.8212C12.6034 21.0129 12.3945 20.9263 12.2405 20.7723C12.0865 20.6183 12 20.4094 12 20.1916V18.8728C12 18.655 12.0865 18.4461 12.2405 18.2921C12.3945 18.1381 12.6034 18.0516 12.8212 18.0516H14.14C14.3578 18.0516 14.5667 18.1381 14.7207 18.2921C14.8748 18.4461 14.9613 18.655 14.9613 18.8728L14.9612 20.1916ZM14.9612 15.0681C14.9612 15.2859 14.8747 15.4948 14.7207 15.6488C14.5667 15.8028 14.3578 15.8893 14.14 15.8893H12.8212C12.6034 15.8893 12.3945 15.8028 12.2405 15.6488C12.0865 15.4948 12 15.2859 12 15.0681V13.7493C12 13.5315 12.0865 13.3226 12.2405 13.1686C12.3945 13.0145 12.6034 12.928 12.8212 12.928H14.14C14.3578 12.928 14.5667 13.0145 14.7207 13.1686C14.8748 13.3226 14.9613 13.5315 14.9613 13.7493L14.9612 15.0681ZM19.8348 20.1916C19.8348 20.4094 19.7483 20.6183 19.5943 20.7723C19.4403 20.9263 19.2314 21.0129 19.0136 21.0129H17.6948C17.477 21.0129 17.2681 20.9263 17.1141 20.7723C16.9601 20.6183 16.8736 20.4094 16.8736 20.1916V18.8728C16.8736 18.655 16.9601 18.4461 17.1141 18.2921C17.2681 18.1381 17.477 18.0516 17.6948 18.0516H19.0136C19.2314 18.0516 19.4403 18.1381 19.5943 18.2921C19.7483 18.4461 19.8349 18.655 19.8349 18.8728L19.8348 20.1916ZM19.8348 15.0681C19.8348 15.2859 19.7483 15.4948 19.5943 15.6488C19.4403 15.8028 19.2314 15.8893 19.0136 15.8893H17.6948C17.477 15.8893 17.2681 15.8028 17.1141 15.6488C16.9601 15.4948 16.8736 15.2859 16.8736 15.0681V13.7493C16.8736 13.5315 16.9601 13.3226 17.1141 13.1686C17.2681 13.0145 17.477 12.928 17.6948 12.928H19.0136C19.2314 12.928 19.4403 13.0145 19.5943 13.1686C19.7483 13.3226 19.8349 13.5315 19.8349 13.7493L19.8348 15.0681Z" fill="white"/>
<path opacity="0.4" d="M22.3785 1.61133H18.7364C18.6709 1.61133 18.606 1.62424 18.5454 1.64932C18.4849 1.67441 18.4298 1.71117 18.3835 1.75752C18.3372 1.80387 18.3004 1.8589 18.2753 1.91946C18.2502 1.98002 18.2373 2.04492 18.2373 2.11047C18.2373 2.17602 18.2502 2.24093 18.2753 2.30149C18.3004 2.36204 18.3372 2.41707 18.3835 2.46342C18.4298 2.50977 18.4849 2.54654 18.5454 2.57162C18.606 2.5967 18.6709 2.60962 18.7364 2.60962H22.3785C22.5109 2.60962 22.6378 2.55703 22.7315 2.46342C22.8251 2.36981 22.8776 2.24285 22.8776 2.11047C22.8776 1.97809 22.8251 1.85113 22.7315 1.75752C22.6378 1.66392 22.5109 1.61133 22.3785 1.61133Z" fill="white"/>
<path opacity="0.4" d="M18.7334 3.17188H22.2494V9.65192H18.7334V3.17188Z" fill="white"/>
</svg>
