<svg viewBox="0 0 24 25" fill="none" xmlns="http://www.w3.org/2000/svg">
<path d="M22.6048 10.7589H17.3712C17.2966 10.7589 17.2251 10.7293 17.1724 10.6766C17.1196 10.6238 17.09 10.5523 17.09 10.4777V6.10978C17.09 6.00021 17.0598 5.89277 17.0027 5.79924C16.9456 5.70572 16.8639 5.62973 16.7664 5.57964C16.669 5.52954 16.5596 5.50727 16.4503 5.51526C16.3411 5.52326 16.2361 5.56122 16.147 5.62496L9.28143 10.5366C9.27946 10.5457 9.27708 10.5547 9.2742 10.5636C9.256 10.6204 9.22026 10.6698 9.17213 10.7049C9.124 10.74 9.06598 10.7589 9.00641 10.7589H8.94342C8.86882 10.7589 8.79729 10.7293 8.74454 10.6766C8.6918 10.6238 8.66217 10.5523 8.66217 10.4777V6.19994C8.6633 6.09014 8.63357 5.98222 8.57637 5.88849C8.51917 5.79476 8.43679 5.71898 8.33862 5.66978C8.25391 5.62568 8.15988 5.60249 8.06437 5.60215C7.9403 5.60263 7.81953 5.64215 7.71917 5.71512L1.6609 10.0105C1.394 10.2 1.17631 10.4507 1.02601 10.7415C0.875699 11.0323 0.797136 11.3548 0.796875 11.6822V21.8849C0.797173 22.1508 0.902912 22.4057 1.09089 22.5937C1.27888 22.7817 1.53375 22.8874 1.79961 22.8877H2.32135V17.2698C2.32135 17.1167 2.3515 16.9652 2.41007 16.8238C2.46865 16.6824 2.5545 16.5539 2.66273 16.4457C2.77096 16.3374 2.89944 16.2516 3.04085 16.193C3.18226 16.1344 3.33382 16.1043 3.48688 16.1043H7.0732C7.22626 16.1043 7.37782 16.1344 7.51923 16.193C7.66064 16.2516 7.78912 16.3374 7.89735 16.4457C8.00558 16.5539 8.09143 16.6824 8.15001 16.8238C8.20858 16.9652 8.23873 17.1167 8.23873 17.2698V22.8877H22.2003C22.4662 22.8874 22.7211 22.7817 22.9091 22.5937C23.0971 22.4057 23.2028 22.1508 23.2031 21.8849V11.3572C23.2029 11.1986 23.1398 11.0465 23.0277 10.9344C22.9155 10.8222 22.7634 10.7591 22.6048 10.7589ZM14.9612 20.6916C14.9612 20.9094 14.8747 21.1183 14.7207 21.2723C14.5667 21.4263 14.3578 21.5129 14.14 21.5129H12.8212C12.6034 21.5129 12.3945 21.4263 12.2405 21.2723C12.0865 21.1183 12 20.9094 12 20.6916V19.3728C12 19.155 12.0865 18.9461 12.2405 18.7921C12.3945 18.6381 12.6034 18.5516 12.8212 18.5516H14.14C14.3578 18.5516 14.5667 18.6381 14.7207 18.7921C14.8748 18.9461 14.9613 19.155 14.9613 19.3728L14.9612 20.6916ZM14.9612 15.5681C14.9612 15.7859 14.8747 15.9948 14.7207 16.1488C14.5667 16.3028 14.3578 16.3893 14.14 16.3893H12.8212C12.6034 16.3893 12.3945 16.3028 12.2405 16.1488C12.0865 15.9948 12 15.7859 12 15.5681V14.2493C12 14.0315 12.0865 13.8226 12.2405 13.6686C12.3945 13.5145 12.6034 13.428 12.8212 13.428H14.14C14.3578 13.428 14.5667 13.5145 14.7207 13.6686C14.8748 13.8226 14.9613 14.0315 14.9613 14.2493L14.9612 15.5681ZM19.8348 20.6916C19.8348 20.9094 19.7483 21.1183 19.5943 21.2723C19.4403 21.4263 19.2314 21.5129 19.0136 21.5129H17.6948C17.477 21.5129 17.2681 21.4263 17.1141 21.2723C16.9601 21.1183 16.8736 20.9094 16.8736 20.6916V19.3728C16.8736 19.155 16.9601 18.9461 17.1141 18.7921C17.2681 18.6381 17.477 18.5516 17.6948 18.5516H19.0136C19.2314 18.5516 19.4403 18.6381 19.5943 18.7921C19.7483 18.9461 19.8349 19.155 19.8349 19.3728L19.8348 20.6916ZM19.8348 15.5681C19.8348 15.7859 19.7483 15.9948 19.5943 16.1488C19.4403 16.3028 19.2314 16.3893 19.0136 16.3893H17.6948C17.477 16.3893 17.2681 16.3028 17.1141 16.1488C16.9601 15.9948 16.8736 15.7859 16.8736 15.5681V14.2493C16.8736 14.0315 16.9601 13.8226 17.1141 13.6686C17.2681 13.5145 17.477 13.428 17.6948 13.428H19.0136C19.2314 13.428 19.4403 13.5145 19.5943 13.6686C19.7483 13.8226 19.8349 14.0315 19.8349 14.2493L19.8348 15.5681Z" fill="url(#paint0_linear_4257_5126)"/>
<path opacity="0.4" d="M22.3785 2.11133H18.7364C18.6709 2.11133 18.606 2.12424 18.5454 2.14932C18.4849 2.17441 18.4298 2.21117 18.3835 2.25752C18.3372 2.30387 18.3004 2.3589 18.2753 2.41946C18.2502 2.48002 18.2373 2.54492 18.2373 2.61047C18.2373 2.67602 18.2502 2.74093 18.2753 2.80149C18.3004 2.86204 18.3372 2.91707 18.3835 2.96342C18.4298 3.00977 18.4849 3.04654 18.5454 3.07162C18.606 3.0967 18.6709 3.10962 18.7364 3.10962H22.3785C22.5109 3.10962 22.6378 3.05703 22.7315 2.96342C22.8251 2.86981 22.8776 2.74285 22.8776 2.61047C22.8776 2.47809 22.8251 2.35113 22.7315 2.25752C22.6378 2.16392 22.5109 2.11133 22.3785 2.11133Z" fill="url(#paint1_linear_4257_5126)"/>
<path opacity="0.4" d="M18.7334 3.67188H22.2494V10.1519H18.7334V3.67188Z" fill="url(#paint2_linear_4257_5126)"/>
<defs>
<linearGradient id="paint0_linear_4257_5126" x1="1.26091" y1="14.2007" x2="23.2031" y2="14.2007" gradientUnits="userSpaceOnUse">
<stop stop-color="#00C188"/>
<stop offset="1" stop-color="#23B9E9"/>
</linearGradient>
<linearGradient id="paint1_linear_4257_5126" x1="18.3334" y1="2.61047" x2="22.8776" y2="2.61047" gradientUnits="userSpaceOnUse">
<stop stop-color="#00C188"/>
<stop offset="1" stop-color="#23B9E9"/>
</linearGradient>
<linearGradient id="paint2_linear_4257_5126" x1="18.8062" y1="6.9119" x2="22.2494" y2="6.9119" gradientUnits="userSpaceOnUse">
<stop stop-color="#00C188"/>
<stop offset="1" stop-color="#23B9E9"/>
</linearGradient>
</defs>
</svg>
