<svg viewBox="0 0 26 26" fill="none" xmlns="http://www.w3.org/2000/svg">
<g clip-path="url(#clip0_18_58640)">
<path d="M20.6506 4.75C18.6256 2.875 15.9631 1.75 13.0006 1.75C10.0381 1.75 7.37559 2.875 5.35059 4.75H20.6506ZM5.35059 21.25C7.37559 23.125 10.0381 24.25 13.0006 24.25C15.9631 24.25 18.6256 23.125 20.6506 21.25H5.35059Z" fill="#ED4C5C"/>
<path d="M1.75 13C1.75 14.6125 2.0875 16.1125 2.6875 17.5H23.3125C23.9125 16.1125 24.25 14.6125 24.25 13C24.25 11.3875 23.9125 9.8875 23.3125 8.5H2.6875C2.0875 9.8875 1.75 11.3875 1.75 13Z" fill="#2A5F9E"/>
<path d="M5.34941 21.25H20.6119C21.7369 20.2 22.6744 18.925 23.2744 17.5H2.64941C3.32441 18.925 4.22441 20.2 5.34941 21.25ZM20.6494 4.75H5.34941C4.22441 5.8 3.28691 7.075 2.68691 8.5H23.3119C22.6744 7.075 21.7744 5.8 20.6494 4.75Z" fill="#F9F9F9"/>
</g>
<rect x="0.5" y="0.5" width="25" height="25" rx="12.5" stroke="#E6E6E6"/>
<defs>
<clipPath id="clip0_18_58640">
<rect x="1" y="1" width="24" height="24" rx="12" fill="white"/>
</clipPath>
</defs>
</svg>
