<svg viewBox="0 0 24 24" fill="none" xmlns="http://www.w3.org/2000/svg">
<path fill-rule="evenodd" clip-rule="evenodd" d="M7.63702 3.39537C5.06002 3.39537 3.39502 5.16237 3.39502 7.88837V16.1024C3.39502 16.8674 3.53702 17.5504 3.78002 18.1414C3.79052 18.1288 4.01937 17.85 4.31791 17.4861C4.90139 16.7751 5.75107 15.7397 5.75702 15.7344C6.44902 14.9444 7.74802 13.7664 9.45302 14.4794C9.82664 14.6343 10.1587 14.8465 10.4644 15.0418C10.4942 15.0609 10.5237 15.0797 10.553 15.0984C11.126 15.4814 11.463 15.6614 11.813 15.6314C11.958 15.6114 12.094 15.5684 12.223 15.4884C12.7097 15.1884 13.9713 13.4008 14.3491 12.8654C14.4045 12.7869 14.4409 12.7354 14.453 12.7194C15.543 11.2994 17.223 10.9194 18.623 11.7594C18.811 11.8714 20.158 12.8124 20.604 13.1904V7.88837C20.604 5.16237 18.939 3.39537 16.353 3.39537H7.63702ZM16.353 2.00037C19.73 2.00037 21.999 4.36237 21.999 7.88837V16.1024C21.999 16.191 21.9897 16.2742 21.9804 16.3573C21.9739 16.4157 21.9673 16.4741 21.964 16.5344C21.9619 16.5708 21.9608 16.6072 21.9598 16.6436C21.9584 16.6922 21.957 16.7408 21.953 16.7894C21.951 16.8084 21.9473 16.8266 21.9435 16.8449C21.9398 16.8631 21.936 16.8814 21.934 16.9004C21.901 17.2144 21.85 17.5144 21.779 17.8054C21.7622 17.8781 21.7429 17.9482 21.7233 18.0189L21.719 18.0344C21.639 18.3164 21.545 18.5854 21.432 18.8424C21.4122 18.8856 21.3913 18.9277 21.3705 18.9698C21.3565 18.9979 21.3426 19.026 21.329 19.0544C21.207 19.2994 21.075 19.5344 20.922 19.7524C20.8937 19.7927 20.8636 19.8305 20.8334 19.8684C20.8135 19.8934 20.7935 19.9185 20.774 19.9444C20.615 20.1504 20.449 20.3474 20.261 20.5264C20.2235 20.5621 20.1829 20.5947 20.1424 20.6274C20.117 20.6478 20.0916 20.6682 20.067 20.6894C19.874 20.8554 19.677 21.0144 19.46 21.1504C19.4127 21.1801 19.3624 21.2051 19.3122 21.2299C19.2798 21.246 19.2474 21.2621 19.216 21.2794C18.995 21.4014 18.772 21.5204 18.529 21.6124C18.4706 21.6346 18.4083 21.6506 18.346 21.6667C18.3016 21.6782 18.2572 21.6897 18.214 21.7034C18.1924 21.7101 18.1708 21.7168 18.1492 21.7235C17.9321 21.791 17.7158 21.8584 17.482 21.8984C17.3466 21.9221 17.2029 21.9312 17.0591 21.9403C16.9969 21.9443 16.9346 21.9482 16.873 21.9534C16.8068 21.9583 16.7419 21.9663 16.6769 21.9743C16.5711 21.9873 16.4651 22.0004 16.353 22.0004H7.63702C7.26102 22.0004 6.90202 21.9624 6.55502 21.9054C6.54202 21.9034 6.53002 21.9014 6.51802 21.8994C5.16502 21.6664 4.04202 21.0134 3.25502 20.0284C3.24956 20.0284 3.24741 20.0247 3.24455 20.0198C3.2427 20.0166 3.24056 20.0129 3.23702 20.0094C2.44602 19.0134 1.99902 17.6744 1.99902 16.1024V7.88837C1.99902 4.36237 4.27002 2.00037 7.63702 2.00037H16.353ZM10.9996 8.51493C10.9996 9.86988 9.8659 11 8.50447 11C7.30776 11 6.28741 10.1256 6.05873 8.9936C6.02094 8.82375 5.99962 8.64907 5.99962 8.4686C5.99962 7.104 7.10815 5.99997 8.47831 5.99997C9.17598 5.99997 9.80776 6.29335 10.2603 6.7614C10.7147 7.21305 10.9996 7.83552 10.9996 8.51493Z" fill="url(#paint0_linear_797_62987)"/>
<defs>
<linearGradient id="paint0_linear_797_62987" x1="1.99902" y1="12.0004" x2="21.999" y2="12.0004" gradientUnits="userSpaceOnUse">
<stop stop-color="#245D9E"/>
<stop offset="1" stop-color="#1A4271"/>
</linearGradient>
</defs>
</svg>
