<svg viewBox="0 0 40 40" fill="none" xmlns="http://www.w3.org/2000/svg">
<g clip-path="url(#clip0_1681_42143)">
<path d="M5.7393 34.0207C2.19031 30.4113 0 25.4618 0 20C0 8.9543 8.9543 0 20 0C31.0457 0 40 8.9543 40 20C40 25.2479 37.9779 30.0229 34.6713 33.5905C34.5366 33.7359 9.36766 30.3306 5.7393 34.0207Z" fill="#153860"/>
<path d="M37.6816 17.2625C37.6816 25.9334 30.6525 32.9625 21.9816 32.9625C13.3108 32.9625 6.28162 25.9334 6.28162 17.2625C6.28162 8.59164 13.3108 1.5625 21.9817 1.5625C30.6526 1.5625 37.6816 8.59156 37.6816 17.2625Z" fill="#126D8A"/>
<path d="M34.6713 12.1246V33.5905C31.0184 37.532 25.7978 40 20.0001 40C15.6134 40 11.5575 38.5868 8.26069 36.1918C8.18444 36.1364 8.10858 34.9972 8.03319 34.9408C7.88241 34.828 7.73319 34.713 7.58569 34.5961V2.73438C7.58569 2.51867 7.76062 2.34375 7.97632 2.34375H24.8905L25.8029 4.3168L32.6646 11.1785L34.6713 12.1246Z" fill="#FFF5F5"/>
<path d="M8.26104 36.1914C7.2005 35.421 6.21792 34.5498 5.32886 33.5905V2.73438C5.32886 2.51867 5.50378 2.34375 5.71948 2.34375H8.65167C8.43597 2.34375 8.26104 2.51867 8.26104 2.73438V36.1914Z" fill="#C0DCE6"/>
<path d="M28.3938 14.4023H11.6063C11.2827 14.4023 11.0204 14.6647 11.0204 14.9883V28.8933C11.0204 29.2169 11.2827 29.4792 11.6063 29.4792H28.3938C28.7175 29.4792 28.9798 29.2169 28.9798 28.8933V14.9883C28.9798 14.6647 28.7175 14.4023 28.3938 14.4023ZM17.7881 25.5264V23.9173H22.2121V25.5264H17.7881ZM22.212 26.6983V28.3074H17.788V26.6983H22.212ZM22.212 18.3552V19.9644H17.788V18.3552H22.212ZM17.7881 17.1834V15.5742H22.2121V17.1834H17.7881ZM17.7881 21.1363H22.2121V22.7454H17.7881V21.1363ZM16.6162 22.7454H12.1923V21.1363H16.6162V22.7454ZM23.3839 21.1363H27.8079V22.7454H23.3839V21.1363ZM23.3839 19.9644V18.3552H27.8079V19.9644H23.3839ZM16.6162 19.9644H12.1923V18.3552H16.6162V19.9644ZM12.1923 23.9173H16.6162V25.5264H12.1923V23.9173ZM23.3839 23.9173H27.3204C27.5896 23.9173 27.8079 24.1355 27.8079 24.4048V25.5264H23.3839V23.9173ZM27.8079 17.1834H23.3839V15.5742H27.8079V17.1834ZM16.6162 15.5742V17.1834H12.1923V15.5742H16.6162ZM12.1923 26.6983H16.6162V28.3074H12.1923V26.6983ZM23.3839 28.3074V26.6983H27.8079V28.3074H23.3839Z" fill="#C0DCE6"/>
<path d="M34.6714 12.1246H25.2811C25.0654 12.1246 24.8905 11.9497 24.8905 11.734V2.34375L34.6714 12.1246Z" fill="#80BFD3"/>
<path d="M4.97839 35.0361V24.8799C4.97839 24.2327 5.50308 23.708 6.15027 23.708H26.9532C27.6003 23.708 28.125 24.2327 28.125 24.8799V35.0361C28.125 35.6833 27.6003 36.208 26.9532 36.208H6.15027C5.50308 36.208 4.97839 35.6834 4.97839 35.0361Z" fill="#6DA37F"/>
<path d="M7.412 36.208H5.07825C4.43106 36.208 3.90637 35.6833 3.90637 35.0361V24.8799C3.90637 24.2327 4.43106 23.708 5.07825 23.708H7.412C6.76481 23.708 6.24012 24.2327 6.24012 24.8799V35.0361C6.24012 35.6834 6.76481 36.208 7.412 36.208Z" fill="#31513C"/>
<path d="M12.4362 32.1194C12.3553 32.2158 12.2674 32.3065 12.175 32.3887C11.7035 32.8086 11.0967 33.0308 10.4205 33.0308C8.72613 33.0308 7.34753 31.6522 7.34753 29.9579C7.34753 28.2635 8.72613 26.885 10.4205 26.885C11.0363 26.885 11.6305 27.0666 12.139 27.4101C12.4071 27.5913 12.4776 27.9555 12.2964 28.2237C12.1153 28.4918 11.7511 28.5623 11.4829 28.3811C11.1689 28.169 10.8016 28.0569 10.4205 28.0569C9.37222 28.0569 8.51941 28.9097 8.51941 29.9579C8.51941 31.0061 9.37222 31.8589 10.4205 31.8589C10.8103 31.8589 11.1383 31.7427 11.3957 31.5135C11.4459 31.4688 11.4938 31.4193 11.5383 31.3662C11.7463 31.1183 12.1158 31.086 12.3637 31.2938C12.6118 31.5019 12.6442 31.8715 12.4362 32.1194ZM16.884 29.4474C16.2671 29.2198 15.6931 28.9719 15.5234 28.8975C15.3698 28.7772 15.3748 28.608 15.3849 28.5378C15.3985 28.4432 15.4667 28.2122 15.8057 28.1101C16.5266 27.8933 17.1904 28.4193 17.2075 28.4331C17.4551 28.6387 17.8228 28.6059 18.0302 28.3593C18.2384 28.1115 18.2064 27.7419 17.9587 27.5337C17.9123 27.4947 16.8078 26.5842 15.4676 26.988C14.7944 27.1908 14.3182 27.7208 14.2249 28.3714C14.1375 28.9808 14.4016 29.567 14.9143 29.9012C14.9401 29.9181 14.9673 29.9329 14.9955 29.9454C15.0242 29.9583 15.7081 30.2627 16.4784 30.5469C16.705 30.6304 17.2243 30.8676 17.1535 31.2639C17.1013 31.5564 16.7487 31.859 16.2493 31.859C15.745 31.859 15.2593 31.6553 14.9502 31.3141C14.7328 31.0743 14.3623 31.0562 14.1225 31.2734C13.8828 31.4907 13.8645 31.8612 14.0818 32.1011C14.6095 32.6833 15.4197 33.0308 16.2493 33.0308C17.2802 33.0308 18.1456 32.3744 18.3071 31.4699C18.4284 30.7906 18.1182 29.9026 16.884 29.4474ZM24.2825 26.924C23.9757 26.8219 23.6438 26.9881 23.5418 27.2953L22.3577 30.8598L21.1146 27.2787C21.0086 26.9729 20.6746 26.8112 20.369 26.9173C20.0633 27.0234 19.9015 27.3573 20.0076 27.663L21.7096 32.5664C21.8085 32.8447 22.0725 33.0308 22.3675 33.0308H22.3724C22.6693 33.0288 22.9331 32.8386 23.0299 32.5535L24.6539 27.6647C24.756 27.3576 24.5896 27.026 24.2825 26.924Z" fill="white"/>
</g>
<defs>
<clipPath id="clip0_1681_42143">
<rect width="40" height="40" fill="white"/>
</clipPath>
</defs>
</svg>
