<svg viewBox="0 0 20 20" fill="none" xmlns="http://www.w3.org/2000/svg">
<path fill-rule="evenodd" clip-rule="evenodd" d="M1.66672 10.0013C1.66672 5.40214 5.40005 1.66797 10.0001 1.66797C14.6084 1.66797 18.3334 5.40214 18.3334 10.0013C18.3334 14.6021 14.6084 18.3346 10.0001 18.3346C5.40005 18.3346 1.66672 14.6021 1.66672 10.0013ZM9.26671 6.84303C9.26671 6.44387 9.60005 6.1097 10 6.1097C10.4 6.1097 10.725 6.44387 10.725 6.84303V10.5264C10.725 10.9272 10.4 11.2514 10 11.2514C9.60005 11.2514 9.26671 10.9272 9.26671 10.5264V6.84303ZM10.0084 13.9027C9.60005 13.9027 9.27505 13.5693 9.27505 13.1693C9.27505 12.7693 9.60005 12.4443 10.0001 12.4443C10.4084 12.4443 10.7334 12.7693 10.7334 13.1693C10.7334 13.5693 10.4084 13.9027 10.0084 13.9027Z" fill="#0A8778"/>
</svg>
