<svg viewBox="0 0 22 24" fill="none" xmlns="http://www.w3.org/2000/svg">
<mask id="mask0_1516_67388" style="mask-type:alpha" maskUnits="userSpaceOnUse" x="0" y="0" width="22" height="24">
<path d="M20.0909 24H2.32464C1.37786 24 0.610352 23.2325 0.610352 22.2857V1.71429C0.610352 0.767513 1.37786 0 2.32464 0H13.8571L21.8052 7.94805V22.2857C21.8052 23.2325 21.0376 24 20.0909 24Z" fill="url(#paint0_linear_1516_67388)"/>
</mask>
<g mask="url(#mask0_1516_67388)">
<path d="M20.0909 24H2.32464C1.37786 24 0.610352 23.2325 0.610352 22.2857V1.71429C0.610352 0.767513 1.37786 0 2.32464 0H13.8571L21.8052 7.94805V22.2857C21.8052 23.2325 21.0376 24 20.0909 24Z" fill="url(#paint1_linear_1516_67388)"/>
<g opacity="0.51" filter="url(#filter0_f_1516_67388)">
<rect x="4.35059" y="11.6104" width="13.8701" height="6.54545" fill="#E33CC8" style="mix-blend-mode:darken"/>
</g>
<mask id="path-4-outside-1_1516_67388" maskUnits="userSpaceOnUse" x="3.58398" y="11.2988" width="14" height="6" fill="black">
<rect fill="white" x="3.58398" y="11.2988" width="14" height="6"/>
<path d="M5.61817 16.3604C5.31858 16.3604 5.04567 16.2906 4.79944 16.1511C4.70915 16.0977 4.66401 16.0218 4.66401 15.9233C4.66401 15.8577 4.68453 15.8002 4.72557 15.751C4.77071 15.6976 4.82817 15.6709 4.89793 15.6709C4.93897 15.6709 4.97591 15.6791 5.00874 15.6956C5.19752 15.7858 5.38835 15.831 5.58123 15.831C5.80284 15.831 5.98136 15.7674 6.11679 15.6402C6.25632 15.5129 6.32609 15.2729 6.32609 14.9199V12.2544C6.32609 12.1765 6.35276 12.1108 6.40611 12.0575C6.45946 12 6.52513 11.9713 6.6031 11.9713C6.68108 11.9713 6.74674 12 6.80009 12.0575C6.85754 12.1108 6.88627 12.1765 6.88627 12.2544V14.883C6.88627 15.4206 6.76521 15.8023 6.52308 16.028C6.28505 16.2496 5.98341 16.3604 5.61817 16.3604ZM8.75654 16.3296C8.67857 16.3296 8.6129 16.3029 8.55955 16.2496C8.5062 16.1962 8.47953 16.1306 8.47953 16.0526V12.2852C8.47953 12.2072 8.5062 12.1416 8.55955 12.0882C8.6129 12.0308 8.67857 12.002 8.75654 12.002H10.1601C10.5499 12.002 10.868 12.0677 11.1142 12.199C11.3605 12.3304 11.5369 12.4986 11.6436 12.7038C11.7503 12.909 11.8037 13.1306 11.8037 13.3686C11.8037 13.6067 11.7503 13.8283 11.6436 14.0335C11.5369 14.2387 11.3605 14.4069 11.1142 14.5383C10.868 14.6696 10.5499 14.7352 10.1601 14.7352H9.03971V16.0526C9.03971 16.1306 9.01098 16.1962 8.95353 16.2496C8.90018 16.3029 8.83451 16.3296 8.75654 16.3296ZM10.1047 14.2058C10.5233 14.2058 10.8167 14.1258 10.985 13.9658C11.1573 13.8057 11.2435 13.6067 11.2435 13.3686C11.2435 13.1306 11.1573 12.9316 10.985 12.7715C10.8167 12.6115 10.5233 12.5315 10.1047 12.5315H9.03971V14.2058H10.1047ZM14.9486 16.3604C14.5258 16.3604 14.1503 16.268 13.822 16.0834C13.4937 15.8946 13.2393 15.634 13.0587 15.3016C12.8781 14.9651 12.7878 14.5834 12.7878 14.1566C12.7878 13.7216 12.8822 13.3358 13.071 12.9993C13.2598 12.6628 13.5163 12.4022 13.8405 12.2175C14.1688 12.0328 14.532 11.9405 14.9301 11.9405C15.2502 11.9405 15.5293 11.9795 15.7673 12.0575C16.0094 12.1354 16.2413 12.2442 16.4629 12.3837C16.4957 12.4001 16.5244 12.4289 16.5491 12.4699C16.5737 12.5109 16.586 12.5561 16.586 12.6053C16.586 12.6751 16.5614 12.7346 16.5121 12.7838C16.467 12.8331 16.4054 12.8577 16.3275 12.8577C16.2823 12.8577 16.2392 12.8475 16.1982 12.8269C16.0053 12.712 15.8124 12.6258 15.6195 12.5684C15.4267 12.5109 15.2174 12.4822 14.9916 12.4822C14.6797 12.4822 14.3986 12.5479 14.1483 12.6792C13.898 12.8105 13.701 13.0034 13.5573 13.2578C13.4178 13.5082 13.348 13.8078 13.348 14.1566C13.348 14.4767 13.4137 14.764 13.545 15.0184C13.6804 15.2688 13.8733 15.4678 14.1237 15.6155C14.3781 15.7592 14.6777 15.831 15.0224 15.831C15.4082 15.831 15.7673 15.7407 16.0997 15.5601V14.4459H15.084C15.0142 14.4459 14.9547 14.4213 14.9055 14.372C14.8562 14.3228 14.8316 14.2633 14.8316 14.1935C14.8316 14.1238 14.8562 14.0643 14.9055 14.015C14.9547 13.9658 15.0142 13.9411 15.084 13.9411H16.2967C16.3788 13.9411 16.4485 13.9699 16.506 14.0273C16.5634 14.0848 16.5922 14.1545 16.5922 14.2366V15.634C16.5922 15.7202 16.5696 15.7982 16.5244 15.8679C16.4834 15.9336 16.428 15.9828 16.3582 16.0157C15.8986 16.2455 15.4287 16.3604 14.9486 16.3604Z"/>
</mask>
<path d="M5.61817 16.3604C5.31858 16.3604 5.04567 16.2906 4.79944 16.1511C4.70915 16.0977 4.66401 16.0218 4.66401 15.9233C4.66401 15.8577 4.68453 15.8002 4.72557 15.751C4.77071 15.6976 4.82817 15.6709 4.89793 15.6709C4.93897 15.6709 4.97591 15.6791 5.00874 15.6956C5.19752 15.7858 5.38835 15.831 5.58123 15.831C5.80284 15.831 5.98136 15.7674 6.11679 15.6402C6.25632 15.5129 6.32609 15.2729 6.32609 14.9199V12.2544C6.32609 12.1765 6.35276 12.1108 6.40611 12.0575C6.45946 12 6.52513 11.9713 6.6031 11.9713C6.68108 11.9713 6.74674 12 6.80009 12.0575C6.85754 12.1108 6.88627 12.1765 6.88627 12.2544V14.883C6.88627 15.4206 6.76521 15.8023 6.52308 16.028C6.28505 16.2496 5.98341 16.3604 5.61817 16.3604ZM8.75654 16.3296C8.67857 16.3296 8.6129 16.3029 8.55955 16.2496C8.5062 16.1962 8.47953 16.1306 8.47953 16.0526V12.2852C8.47953 12.2072 8.5062 12.1416 8.55955 12.0882C8.6129 12.0308 8.67857 12.002 8.75654 12.002H10.1601C10.5499 12.002 10.868 12.0677 11.1142 12.199C11.3605 12.3304 11.5369 12.4986 11.6436 12.7038C11.7503 12.909 11.8037 13.1306 11.8037 13.3686C11.8037 13.6067 11.7503 13.8283 11.6436 14.0335C11.5369 14.2387 11.3605 14.4069 11.1142 14.5383C10.868 14.6696 10.5499 14.7352 10.1601 14.7352H9.03971V16.0526C9.03971 16.1306 9.01098 16.1962 8.95353 16.2496C8.90018 16.3029 8.83451 16.3296 8.75654 16.3296ZM10.1047 14.2058C10.5233 14.2058 10.8167 14.1258 10.985 13.9658C11.1573 13.8057 11.2435 13.6067 11.2435 13.3686C11.2435 13.1306 11.1573 12.9316 10.985 12.7715C10.8167 12.6115 10.5233 12.5315 10.1047 12.5315H9.03971V14.2058H10.1047ZM14.9486 16.3604C14.5258 16.3604 14.1503 16.268 13.822 16.0834C13.4937 15.8946 13.2393 15.634 13.0587 15.3016C12.8781 14.9651 12.7878 14.5834 12.7878 14.1566C12.7878 13.7216 12.8822 13.3358 13.071 12.9993C13.2598 12.6628 13.5163 12.4022 13.8405 12.2175C14.1688 12.0328 14.532 11.9405 14.9301 11.9405C15.2502 11.9405 15.5293 11.9795 15.7673 12.0575C16.0094 12.1354 16.2413 12.2442 16.4629 12.3837C16.4957 12.4001 16.5244 12.4289 16.5491 12.4699C16.5737 12.5109 16.586 12.5561 16.586 12.6053C16.586 12.6751 16.5614 12.7346 16.5121 12.7838C16.467 12.8331 16.4054 12.8577 16.3275 12.8577C16.2823 12.8577 16.2392 12.8475 16.1982 12.8269C16.0053 12.712 15.8124 12.6258 15.6195 12.5684C15.4267 12.5109 15.2174 12.4822 14.9916 12.4822C14.6797 12.4822 14.3986 12.5479 14.1483 12.6792C13.898 12.8105 13.701 13.0034 13.5573 13.2578C13.4178 13.5082 13.348 13.8078 13.348 14.1566C13.348 14.4767 13.4137 14.764 13.545 15.0184C13.6804 15.2688 13.8733 15.4678 14.1237 15.6155C14.3781 15.7592 14.6777 15.831 15.0224 15.831C15.4082 15.831 15.7673 15.7407 16.0997 15.5601V14.4459H15.084C15.0142 14.4459 14.9547 14.4213 14.9055 14.372C14.8562 14.3228 14.8316 14.2633 14.8316 14.1935C14.8316 14.1238 14.8562 14.0643 14.9055 14.015C14.9547 13.9658 15.0142 13.9411 15.084 13.9411H16.2967C16.3788 13.9411 16.4485 13.9699 16.506 14.0273C16.5634 14.0848 16.5922 14.1545 16.5922 14.2366V15.634C16.5922 15.7202 16.5696 15.7982 16.5244 15.8679C16.4834 15.9336 16.428 15.9828 16.3582 16.0157C15.8986 16.2455 15.4287 16.3604 14.9486 16.3604Z" fill="white"/>
<path d="M4.79944 16.1511L4.72014 16.2853L4.72261 16.2867L4.79944 16.1511ZM4.72557 15.751L4.6066 15.6503L4.60585 15.6512L4.72557 15.751ZM5.00874 15.6956L4.93903 15.835L4.9415 15.8361L5.00874 15.6956ZM6.11679 15.6402L6.01178 15.525L6.01009 15.5266L6.11679 15.6402ZM6.40611 12.0575L6.51639 12.1677L6.52032 12.1635L6.40611 12.0575ZM6.80009 12.0575L6.68557 12.1638L6.69404 12.1717L6.80009 12.0575ZM6.52308 16.028L6.62927 16.142L6.62934 16.142L6.52308 16.028ZM5.61817 16.2045C5.34388 16.2045 5.09769 16.141 4.87627 16.0155L4.72261 16.2867C4.99365 16.4403 5.29328 16.5162 5.61817 16.5162V16.2045ZM4.87872 16.0169C4.83214 15.9894 4.81985 15.9625 4.81985 15.9233H4.50817C4.50817 16.0811 4.58616 16.2061 4.72016 16.2853L4.87872 16.0169ZM4.81985 15.9233C4.81985 15.8932 4.8282 15.8712 4.84529 15.8507L4.60585 15.6512C4.54086 15.7292 4.50817 15.8222 4.50817 15.9233H4.81985ZM4.84454 15.8516C4.86013 15.8332 4.8741 15.8268 4.89793 15.8268V15.5151C4.78223 15.5151 4.68129 15.562 4.6066 15.6503L4.84454 15.8516ZM4.89793 15.8268C4.91766 15.8268 4.93029 15.8306 4.93904 15.8349L5.07843 15.5562C5.02152 15.5277 4.96028 15.5151 4.89793 15.5151V15.8268ZM4.9415 15.8361C5.14946 15.9356 5.36315 15.9868 5.58123 15.9868V15.6751C5.41355 15.6751 5.24557 15.6361 5.07598 15.555L4.9415 15.8361ZM5.58123 15.9868C5.83438 15.9868 6.05375 15.9132 6.22349 15.7537L6.01009 15.5266C5.90897 15.6216 5.77131 15.6751 5.58123 15.6751V15.9868ZM6.22179 15.7553C6.41261 15.5813 6.48193 15.282 6.48193 14.9199H6.17024C6.17024 15.2637 6.10004 15.4445 6.01179 15.525L6.22179 15.7553ZM6.48193 14.9199V12.2544H6.17024V14.9199H6.48193ZM6.48193 12.2544C6.48193 12.2163 6.49326 12.1907 6.51631 12.1676L6.29592 11.9473C6.21226 12.0309 6.17024 12.1367 6.17024 12.2544H6.48193ZM6.52032 12.1635C6.54436 12.1376 6.56873 12.1271 6.6031 12.1271V11.8154C6.48152 11.8154 6.37457 11.8624 6.29191 11.9514L6.52032 12.1635ZM6.6031 12.1271C6.63747 12.1271 6.66184 12.1376 6.68589 12.1635L6.91429 11.9514C6.83164 11.8624 6.72468 11.8154 6.6031 11.8154V12.1271ZM6.69404 12.1717C6.71994 12.1957 6.73043 12.2201 6.73043 12.2544H7.04211C7.04211 12.1329 6.99514 12.0259 6.90613 11.9432L6.69404 12.1717ZM6.73043 12.2544V14.883H7.04211V12.2544H6.73043ZM6.73043 14.883C6.73043 15.4034 6.61229 15.7318 6.41681 15.914L6.62934 16.142C6.91812 15.8728 7.04211 15.4377 7.04211 14.883H6.73043ZM6.41688 15.9139C6.21132 16.1053 5.94924 16.2045 5.61817 16.2045V16.5162C6.01758 16.5162 6.35878 16.3939 6.62927 16.142L6.41688 15.9139ZM8.55955 16.2496L8.66975 16.1394L8.55955 16.2496ZM8.55955 12.0882L8.66983 12.1985L8.67376 12.1943L8.55955 12.0882ZM11.6436 12.7038L11.5054 12.7757L11.6436 12.7038ZM11.6436 14.0335L11.5054 13.9616L11.6436 14.0335ZM9.03971 14.7352V14.5794H8.88387V14.7352H9.03971ZM8.95353 16.2496L8.84741 16.1353L8.84333 16.1394L8.95353 16.2496ZM10.985 13.9658L10.8789 13.8516L10.8775 13.8528L10.985 13.9658ZM10.985 12.7715L10.8775 12.8845L10.8789 12.8857L10.985 12.7715ZM9.03971 12.5315V12.3756H8.88387V12.5315H9.03971ZM9.03971 14.2058H8.88387V14.3617H9.03971V14.2058ZM8.75654 16.1738C8.71835 16.1738 8.6928 16.1624 8.66975 16.1394L8.44936 16.3598C8.53301 16.4434 8.63878 16.4855 8.75654 16.4855V16.1738ZM8.66975 16.1394C8.6467 16.1163 8.63537 16.0908 8.63537 16.0526H8.32368C8.32368 16.1704 8.3657 16.2761 8.44936 16.3598L8.66975 16.1394ZM8.63537 16.0526V12.2852H8.32368V16.0526H8.63537ZM8.63537 12.2852C8.63537 12.247 8.6467 12.2215 8.66975 12.1984L8.44936 11.978C8.3657 12.0617 8.32368 12.1675 8.32368 12.2852H8.63537ZM8.67376 12.1943C8.6978 12.1684 8.72217 12.1579 8.75654 12.1579V11.8462C8.63496 11.8462 8.528 11.8932 8.44535 11.9822L8.67376 12.1943ZM8.75654 12.1579H10.1601V11.8462H8.75654V12.1579ZM10.1601 12.1579C10.534 12.1579 10.8244 12.2211 11.0409 12.3365L11.1876 12.0615C10.9116 11.9143 10.5659 11.8462 10.1601 11.8462V12.1579ZM11.0409 12.3365C11.2652 12.4562 11.416 12.6038 11.5054 12.7757L11.7819 12.6319C11.6579 12.3935 11.4557 12.2046 11.1876 12.0615L11.0409 12.3365ZM11.5054 12.7757C11.6002 12.958 11.6478 13.1549 11.6478 13.3686H11.9595C11.9595 13.1063 11.9005 12.86 11.7819 12.6319L11.5054 12.7757ZM11.6478 13.3686C11.6478 13.5824 11.6002 13.7793 11.5054 13.9616L11.7819 14.1054C11.9005 13.8773 11.9595 13.6309 11.9595 13.3686H11.6478ZM11.5054 13.9616C11.416 14.1335 11.2652 14.2811 11.0409 14.4007L11.1876 14.6758C11.4557 14.5327 11.6579 14.3438 11.7819 14.1054L11.5054 13.9616ZM11.0409 14.4007C10.8244 14.5162 10.534 14.5794 10.1601 14.5794V14.8911C10.5659 14.8911 10.9116 14.823 11.1876 14.6758L11.0409 14.4007ZM10.1601 14.5794H9.03971V14.8911H10.1601V14.5794ZM8.88387 14.7352V16.0526H9.19555V14.7352H8.88387ZM8.88387 16.0526C8.88387 16.087 8.87338 16.1113 8.84748 16.1354L9.05957 16.3638C9.14858 16.2811 9.19555 16.1742 9.19555 16.0526H8.88387ZM8.84333 16.1394C8.82028 16.1624 8.79473 16.1738 8.75654 16.1738V16.4855C8.8743 16.4855 8.98007 16.4434 9.06373 16.3598L8.84333 16.1394ZM10.1047 14.3617C10.5342 14.3617 10.8793 14.2813 11.0924 14.0787L10.8775 13.8528C10.7541 13.9703 10.5124 14.05 10.1047 14.05V14.3617ZM11.091 14.08C11.2955 13.89 11.3993 13.6494 11.3993 13.3686H11.0877C11.0877 13.5639 11.0191 13.7214 10.8789 13.8516L11.091 14.08ZM11.3993 13.3686C11.3993 13.0879 11.2955 12.8473 11.091 12.6573L10.8789 12.8857C11.0191 13.0159 11.0877 13.1734 11.0877 13.3686H11.3993ZM11.0924 12.6586C10.8793 12.456 10.5342 12.3756 10.1047 12.3756V12.6873C10.5124 12.6873 10.7541 12.767 10.8775 12.8844L11.0924 12.6586ZM10.1047 12.3756H9.03971V12.6873H10.1047V12.3756ZM8.88387 12.5315V14.2058H9.19555V12.5315H8.88387ZM9.03971 14.3617H10.1047V14.05H9.03971V14.3617ZM13.822 16.0834L13.7443 16.2185L13.7456 16.2192L13.822 16.0834ZM13.0587 15.3016L12.9214 15.3753L12.9218 15.376L13.0587 15.3016ZM13.071 12.9993L13.2069 13.0755L13.071 12.9993ZM13.8405 12.2175L13.7641 12.0817L13.7634 12.0821L13.8405 12.2175ZM15.7673 12.0575L15.7188 12.2056L15.7195 12.2058L15.7673 12.0575ZM16.4629 12.3837L16.3799 12.5156L16.3863 12.5197L16.3932 12.5231L16.4629 12.3837ZM16.5491 12.4699L16.4154 12.5501V12.5501L16.5491 12.4699ZM16.5121 12.7838L16.4018 12.6735L16.3973 12.6785L16.5121 12.7838ZM16.1982 12.8269L16.1182 12.9612L16.1285 12.9663L16.1982 12.8269ZM15.6195 12.5684L15.664 12.419L15.6195 12.5684ZM14.1483 12.6792L14.2207 12.8172L14.1483 12.6792ZM13.5573 13.2578L13.4216 13.1812L13.4212 13.182L13.5573 13.2578ZM13.545 15.0184L13.4065 15.0899L13.4079 15.0926L13.545 15.0184ZM14.1237 15.6155L14.0444 15.7498L14.0471 15.7512L14.1237 15.6155ZM16.0997 15.5601L16.1741 15.6971L16.2555 15.6528V15.5601H16.0997ZM16.0997 14.4459H16.2555V14.2901H16.0997V14.4459ZM16.506 14.0273L16.6162 13.9171L16.506 14.0273ZM16.5244 15.8679L16.3936 15.7832L16.3923 15.7853L16.5244 15.8679ZM16.3582 16.0157L16.2919 15.8746L16.2885 15.8763L16.3582 16.0157ZM14.9486 16.2045C14.5493 16.2045 14.2007 16.1176 13.8984 15.9475L13.7456 16.2192C14.1 16.4185 14.5024 16.5162 14.9486 16.5162V16.2045ZM13.8997 15.9483C13.5964 15.7738 13.3624 15.5342 13.1957 15.2272L12.9218 15.376C13.1161 15.7337 13.3911 16.0153 13.7443 16.2185L13.8997 15.9483ZM13.196 15.2279C13.029 14.9166 12.9437 14.5608 12.9437 14.1566H12.632C12.632 14.606 12.7273 15.0135 12.9214 15.3753L13.196 15.2279ZM12.9437 14.1566C12.9437 13.7448 13.0328 13.3859 13.2069 13.0755L12.9351 12.923C12.7317 13.2857 12.632 13.6983 12.632 14.1566H12.9437ZM13.2069 13.0755C13.3824 12.7628 13.6189 12.5231 13.9176 12.3529L13.7634 12.0821C13.4137 12.2813 13.1372 12.5627 12.9351 12.923L13.2069 13.0755ZM13.9169 12.3533C14.2206 12.1825 14.5572 12.0963 14.9301 12.0963V11.7846C14.5068 11.7846 14.1171 11.8831 13.7641 12.0817L13.9169 12.3533ZM14.9301 12.0963C15.2381 12.0963 15.5001 12.1339 15.7188 12.2056L15.8158 11.9094C15.5584 11.825 15.2623 11.7846 14.9301 11.7846V12.0963ZM15.7195 12.2058C15.9489 12.2797 16.1689 12.3828 16.3799 12.5156L16.5459 12.2518C16.3136 12.1056 16.0699 11.9912 15.815 11.9091L15.7195 12.2058ZM16.3932 12.5231C16.3932 12.5231 16.3937 12.5234 16.3946 12.524C16.3955 12.5247 16.3969 12.5258 16.3989 12.5278C16.4028 12.5317 16.4086 12.5386 16.4154 12.5501L16.6827 12.3897C16.6474 12.3308 16.5989 12.2775 16.5326 12.2443L16.3932 12.5231ZM16.4154 12.5501C16.4251 12.5662 16.4302 12.5835 16.4302 12.6053H16.7418C16.7418 12.5287 16.7223 12.4557 16.6827 12.3897L16.4154 12.5501ZM16.4302 12.6053C16.4302 12.6338 16.4219 12.6537 16.4019 12.6736L16.6223 12.894C16.7009 12.8155 16.7418 12.7163 16.7418 12.6053H16.4302ZM16.3973 12.6785C16.3866 12.6901 16.3697 12.7019 16.3275 12.7019V13.0136C16.4411 13.0136 16.5474 12.9761 16.627 12.8891L16.3973 12.6785ZM16.3275 12.7019C16.3069 12.7019 16.2876 12.6974 16.2679 12.6875L16.1285 12.9663C16.1908 12.9975 16.2577 13.0136 16.3275 13.0136V12.7019ZM16.2779 12.693C16.0753 12.5723 15.8706 12.4806 15.664 12.419L15.575 12.7177C15.7543 12.7711 15.9354 12.8518 16.1184 12.9608L16.2779 12.693ZM15.664 12.419C15.4551 12.3568 15.2306 12.3264 14.9916 12.3264V12.638C15.2041 12.638 15.3982 12.6651 15.575 12.7177L15.664 12.419ZM14.9916 12.3264C14.6572 12.3264 14.3508 12.397 14.0759 12.5412L14.2207 12.8172C14.4465 12.6988 14.7023 12.638 14.9916 12.638V12.3264ZM14.0759 12.5412C13.7981 12.6869 13.5795 12.9016 13.4216 13.1812L13.693 13.3345C13.8224 13.1052 13.9979 12.9341 14.2207 12.8172L14.0759 12.5412ZM13.4212 13.182C13.2662 13.46 13.1922 13.7869 13.1922 14.1566H13.5039C13.5039 13.8286 13.5694 13.5563 13.6935 13.3337L13.4212 13.182ZM13.1922 14.1566C13.1922 14.4986 13.2625 14.8109 13.4065 15.0899L13.6835 14.9469C13.5649 14.7171 13.5039 14.4548 13.5039 14.1566H13.1922ZM13.4079 15.0926C13.5571 15.3684 13.7703 15.5879 14.0445 15.7497L14.2029 15.4813C13.9764 15.3476 13.8037 15.1691 13.6821 14.9443L13.4079 15.0926ZM14.0471 15.7512C14.3288 15.9103 14.6557 15.9868 15.0224 15.9868V15.6751C14.6997 15.6751 14.4275 15.6081 14.2003 15.4798L14.0471 15.7512ZM15.0224 15.9868C15.4336 15.9868 15.8184 15.8903 16.1741 15.6971L16.0253 15.4232C15.7162 15.5911 15.3827 15.6751 15.0224 15.6751V15.9868ZM16.2555 15.5601V14.4459H15.9438V15.5601H16.2555ZM16.0997 14.2901H15.084V14.6018H16.0997V14.2901ZM15.084 14.2901C15.0555 14.2901 15.0356 14.2818 15.0157 14.2619L14.7953 14.4822C14.8738 14.5608 14.973 14.6018 15.084 14.6018V14.2901ZM15.0157 14.2619C14.9957 14.2419 14.9874 14.222 14.9874 14.1935H14.6757C14.6757 14.3045 14.7167 14.4037 14.7953 14.4822L15.0157 14.2619ZM14.9874 14.1935C14.9874 14.165 14.9957 14.1452 15.0157 14.1252L14.7953 13.9048C14.7167 13.9833 14.6757 14.0825 14.6757 14.1935H14.9874ZM15.0157 14.1252C15.0356 14.1052 15.0555 14.097 15.084 14.097V13.7853C14.973 13.7853 14.8738 13.8263 14.7953 13.9048L15.0157 14.1252ZM15.084 14.097H16.2967V13.7853H15.084V14.097ZM16.2967 14.097C16.3379 14.097 16.3679 14.1096 16.3958 14.1375L16.6162 13.9171C16.5292 13.8301 16.4196 13.7853 16.2967 13.7853V14.097ZM16.3958 14.1375C16.4237 14.1654 16.4363 14.1954 16.4363 14.2366H16.748C16.748 14.1137 16.7032 14.0041 16.6162 13.9171L16.3958 14.1375ZM16.4363 14.2366V15.634H16.748V14.2366H16.4363ZM16.4363 15.634C16.4363 15.6913 16.4218 15.7397 16.3936 15.7833L16.6553 15.9526C16.7174 15.8566 16.748 15.749 16.748 15.634H16.4363ZM16.3923 15.7853C16.367 15.8257 16.3344 15.8546 16.2919 15.8746L16.4246 16.1567C16.5216 16.111 16.5998 16.0415 16.6566 15.9505L16.3923 15.7853ZM16.2885 15.8763C15.849 16.096 15.4028 16.2045 14.9486 16.2045V16.5162C15.4546 16.5162 15.9482 16.3949 16.4279 16.1551L16.2885 15.8763Z" fill="white" mask="url(#path-4-outside-1_1516_67388)"/>
<g filter="url(#filter1_d_1516_67388)">
<path d="M21.8055 7.94805H15.5717C14.6249 7.94805 13.8574 7.18054 13.8574 6.23377V0L21.8055 7.94805Z" fill="url(#paint2_linear_1516_67388)"/>
</g>
</g>
<defs>
<filter id="filter0_f_1516_67388" x="1.31163" y="8.57139" width="19.948" height="12.6238" filterUnits="userSpaceOnUse" color-interpolation-filters="sRGB">
<feFlood flood-opacity="0" result="BackgroundImageFix"/>
<feBlend mode="normal" in="SourceGraphic" in2="BackgroundImageFix" result="shape"/>
<feGaussianBlur stdDeviation="1.51948" result="effect1_foregroundBlur_1516_67388"/>
</filter>
<filter id="filter1_d_1516_67388" x="12.0652" y="-1.87013" width="11.8443" height="11.8443" filterUnits="userSpaceOnUse" color-interpolation-filters="sRGB">
<feFlood flood-opacity="0" result="BackgroundImageFix"/>
<feColorMatrix in="SourceAlpha" type="matrix" values="0 0 0 0 0 0 0 0 0 0 0 0 0 0 0 0 0 0 127 0" result="hardAlpha"/>
<feOffset dx="0.155844" dy="0.0779221"/>
<feGaussianBlur stdDeviation="0.974026"/>
<feColorMatrix type="matrix" values="0 0 0 0 0 0 0 0 0 0 0 0 0 0 0 0 0 0 0.33 0"/>
<feBlend mode="normal" in2="BackgroundImageFix" result="effect1_dropShadow_1516_67388"/>
<feBlend mode="normal" in="SourceGraphic" in2="effect1_dropShadow_1516_67388" result="shape"/>
</filter>
<linearGradient id="paint0_linear_1516_67388" x1="11.2078" y1="0" x2="11.2078" y2="24" gradientUnits="userSpaceOnUse">
<stop stop-color="#FF7979"/>
<stop offset="1" stop-color="#E85555"/>
</linearGradient>
<linearGradient id="paint1_linear_1516_67388" x1="11.2078" y1="0" x2="11.2078" y2="24" gradientUnits="userSpaceOnUse">
<stop stop-color="#ED81FF"/>
<stop offset="1" stop-color="#DC5DD7"/>
</linearGradient>
<linearGradient id="paint2_linear_1516_67388" x1="15.6107" y1="-2.49351" x2="17.8314" y2="7.94805" gradientUnits="userSpaceOnUse">
<stop stop-color="#F171BE"/>
<stop offset="1" stop-color="#D823D1"/>
</linearGradient>
</defs>
</svg>
