<svg viewBox="0 0 24 24" fill="none" xmlns="http://www.w3.org/2000/svg">
<path d="M3 9C3 8.2935 3 7.9395 3.219 7.719C3.438 7.5 3.792 7.5 4.5 7.5C5.208 7.5 5.5605 7.5 5.781 7.719C6 7.938 6 8.292 6 9C6 9.7065 6 10.0605 5.781 10.281C5.562 10.5 5.208 10.5 4.5 10.5C3.792 10.5 3.4395 10.5 3.219 10.281C3 10.062 3 9.708 3 9ZM7.5 9C7.5 8.2935 7.5 7.9395 7.719 7.719C7.938 7.5 8.292 7.5 9 7.5C9.708 7.5 10.0605 7.5 10.281 7.719C10.5 7.938 10.5 8.292 10.5 9C10.5 9.7065 10.5 10.0605 10.281 10.281C10.062 10.5 9.708 10.5 9 10.5C8.292 10.5 7.9395 10.5 7.719 10.281C7.5 10.062 7.5 9.708 7.5 9ZM3.225 12.225C3.006 12.444 3.006 12.798 3.006 13.506C3.006 14.2125 3.006 14.5665 3.225 14.787C3.444 15.006 3.798 15.006 4.506 15.006H6.006C6.7125 15.006 7.0665 15.006 7.287 14.787C7.506 14.568 7.506 14.214 7.506 13.506C7.506 12.7995 7.506 12.4455 7.287 12.225C7.068 12.006 6.714 12.006 6.006 12.006H4.506C3.7995 12.006 3.4455 12.006 3.225 12.225ZM9 13.5C9 12.7935 9 12.4395 9.219 12.219C9.438 12 9.792 12 10.5 12H15C15.7065 12 16.0605 12 16.281 12.219C16.5 12.438 16.5 12.792 16.5 13.5C16.5 14.2065 16.5 14.5605 16.281 14.781C16.062 15 15.708 15 15 15H10.5C9.7935 15 9.4395 15 9.219 14.781C9 14.562 9 14.208 9 13.5ZM12.225 7.725C12.006 7.944 12.006 8.298 12.006 9.006C12.006 9.7125 12.006 10.0665 12.225 10.287C12.444 10.506 12.798 10.506 13.506 10.506C14.214 10.506 14.5665 10.506 14.787 10.287C15.006 10.068 15.006 9.714 15.006 9.006C15.006 8.2995 15.006 7.9455 14.787 7.725C14.568 7.506 14.214 7.506 13.506 7.506C12.798 7.506 12.4455 7.506 12.225 7.725ZM16.65 7.725C16.431 7.944 16.431 8.298 16.431 9.006C16.431 9.7125 16.431 10.0665 16.65 10.287C16.773 10.41 16.9365 10.464 17.181 10.488C17.5515 10.524 17.736 10.542 17.8335 10.65C17.931 10.758 17.931 10.9245 17.931 11.2575V13.5075C17.931 14.214 17.931 14.568 18.15 14.7885C18.369 15.0075 18.723 15.0075 19.431 15.0075C20.139 15.0075 20.4915 15.0075 20.712 14.7885C20.931 14.5695 20.931 14.2155 20.931 13.5075V9.0075C20.931 8.301 20.931 7.947 20.712 7.7265C20.493 7.5075 20.139 7.5075 19.431 7.5075H17.931C17.2245 7.5075 16.8705 7.506 16.65 7.725Z" fill="#0A8778"/>
<path fill-rule="evenodd" clip-rule="evenodd" d="M11.9994 3H7.19941C4.67941 3 3.41941 3 2.45941 3.4905C1.61472 3.92346 0.927364 4.61081 0.494406 5.4555C0.00390629 6.4185 0.00390625 7.6755 0.00390625 10.1955V12.2955C0.00390625 14.8155 0.00390629 16.0755 0.494406 17.0355C0.927364 17.8802 1.61472 18.5675 2.45941 19.0005C3.42241 19.491 4.67941 19.491 7.19941 19.491H16.7994C19.3194 19.491 20.5794 19.491 21.5394 19.0005C22.3853 18.5692 23.0731 17.8814 23.5044 17.0355C23.9949 16.0725 23.9949 14.8155 23.9949 12.2955V10.1955C23.9949 7.6755 23.9949 6.4155 23.5044 5.4555C23.0731 4.60959 22.3853 3.92179 21.5394 3.4905C20.5764 3 19.3194 3 16.7994 3H11.9994ZM19.6344 4.56C18.9594 4.5045 18.0894 4.503 16.7994 4.503H7.19941C5.91391 4.503 5.03941 4.5045 4.36441 4.56C3.70741 4.614 3.36991 4.7115 3.13591 4.83C2.57145 5.11762 2.11252 5.57654 1.82491 6.141C1.70491 6.375 1.60741 6.7125 1.55491 7.3695C1.49941 8.0445 1.49791 8.9145 1.49791 10.2045V12.3045C1.49791 13.59 1.49941 14.4645 1.55491 15.1395C1.60891 15.7965 1.70641 16.134 1.82491 16.368C2.11291 16.932 2.57191 17.391 3.13591 17.679C3.36991 17.799 3.70741 17.8965 4.36441 17.949C5.03941 18.0045 5.90941 18.006 7.19941 18.006H16.7994C18.0849 18.006 18.9594 18.0045 19.6344 17.949C20.2914 17.895 20.6289 17.7975 20.8629 17.679C21.4269 17.391 21.8859 16.932 22.1739 16.368C22.2939 16.134 22.3914 15.7965 22.4439 15.1395C22.4994 14.4645 22.5009 13.5945 22.5009 12.3045V10.2045C22.5009 8.919 22.4994 8.0445 22.4439 7.3695C22.3899 6.7125 22.2924 6.375 22.1739 6.141C21.8863 5.57654 21.4274 5.11762 20.8629 4.83C20.6289 4.71 20.2914 4.6125 19.6344 4.56Z" fill="#0A8778"/>
</svg>
