<svg viewBox="0 0 25 24" fill="none" xmlns="http://www.w3.org/2000/svg">
<path opacity="0.4" d="M21.4622 15.957H14.8867C14.0545 15.957 13.3789 16.6207 13.3789 17.4384C13.3789 18.2549 14.0545 18.9197 14.8867 18.9197H21.4622C22.2944 18.9197 22.97 18.2549 22.97 17.4384C22.97 16.6207 22.2944 15.957 21.4622 15.957Z" fill="#64748B"/>
<path opacity="0.4" d="M22.5001 6.37867C22.5001 5.56214 21.8246 4.89844 20.9934 4.89844H14.4179C13.5857 4.89844 12.9102 5.56214 12.9102 6.37867C12.9102 7.1963 13.5857 7.86 14.4179 7.86H20.9934C21.8246 7.86 22.5001 7.1963 22.5001 6.37867Z" fill="#64748B"/>
<path d="M9.37774 6.37856C9.37774 8.24523 7.83886 9.75821 5.93887 9.75821C4.03999 9.75821 2.5 8.24523 2.5 6.37856C2.5 4.51298 4.03999 3 5.93887 3C7.83886 3 9.37774 4.51298 9.37774 6.37856Z" fill="#64748B"/>
<path d="M9.37774 17.3992C9.37774 19.2648 7.83886 20.7777 5.93887 20.7777C4.03999 20.7777 2.5 19.2648 2.5 17.3992C2.5 15.5325 4.03999 14.0195 5.93887 14.0195C7.83886 14.0195 9.37774 15.5325 9.37774 17.3992Z" fill="#64748B"/>
</svg>
