<svg viewBox="0 0 21 18" fill="none" xmlns="http://www.w3.org/2000/svg">
<path opacity="0.4" d="M18.9612 12.957H12.3857C11.5535 12.957 10.8779 13.6207 10.8779 14.4384C10.8779 15.2549 11.5535 15.9197 12.3857 15.9197H18.9612C19.7934 15.9197 20.469 15.2549 20.469 14.4384C20.469 13.6207 19.7934 12.957 18.9612 12.957Z" fill="url(#paint0_linear_4257_36810)"/>
<path opacity="0.4" d="M20.0001 3.37867C20.0001 2.56214 19.3246 1.89844 18.4934 1.89844H11.9179C11.0857 1.89844 10.4102 2.56214 10.4102 3.37867C10.4102 4.1963 11.0857 4.86 11.9179 4.86H18.4934C19.3246 4.86 20.0001 4.1963 20.0001 3.37867Z" fill="url(#paint1_linear_4257_36810)"/>
<path d="M6.87774 3.37856C6.87774 5.24523 5.33886 6.75821 3.43887 6.75821C1.53999 6.75821 0 5.24523 0 3.37856C0 1.51298 1.53999 0 3.43887 0C5.33886 0 6.87774 1.51298 6.87774 3.37856Z" fill="url(#paint2_linear_4257_36810)"/>
<path d="M6.87774 14.3992C6.87774 16.2648 5.33886 17.7777 3.43887 17.7777C1.53999 17.7777 0 16.2648 0 14.3992C0 12.5325 1.53999 11.0195 3.43887 11.0195C5.33886 11.0195 6.87774 12.5325 6.87774 14.3992Z" fill="url(#paint3_linear_4257_36810)"/>
<defs>
<linearGradient id="paint0_linear_4257_36810" x1="11.0766" y1="14.4384" x2="20.469" y2="14.4384" gradientUnits="userSpaceOnUse">
<stop stop-color="#00C188"/>
<stop offset="1" stop-color="#23B9E9"/>
</linearGradient>
<linearGradient id="paint1_linear_4257_36810" x1="10.6088" y1="3.37922" x2="20.0001" y2="3.37922" gradientUnits="userSpaceOnUse">
<stop stop-color="#00C188"/>
<stop offset="1" stop-color="#23B9E9"/>
</linearGradient>
<linearGradient id="paint2_linear_4257_36810" x1="0.142438" y1="3.3791" x2="6.87774" y2="3.3791" gradientUnits="userSpaceOnUse">
<stop stop-color="#00C188"/>
<stop offset="1" stop-color="#23B9E9"/>
</linearGradient>
<linearGradient id="paint3_linear_4257_36810" x1="0.142438" y1="14.3986" x2="6.87774" y2="14.3986" gradientUnits="userSpaceOnUse">
<stop stop-color="#00C188"/>
<stop offset="1" stop-color="#23B9E9"/>
</linearGradient>
</defs>
</svg>
