<svg viewBox="0 0 99 98" fill="none" xmlns="http://www.w3.org/2000/svg">
<circle cx="49.5" cy="49" r="42" fill="url(#paint0_linear_18_58588)" stroke="white" stroke-width="14"/>
<path opacity="0.4" d="M41.1606 39.744C41.1606 35.659 44.5936 32.334 48.813 32.334H57.2002C61.4093 32.334 64.8337 35.6507 64.8337 39.7273V58.254C64.8337 62.3407 61.4024 65.6673 57.183 65.6673H48.7958C44.5868 65.6673 41.1606 62.349 41.1606 58.2707V56.704V39.744Z" fill="white"/>
<path d="M55.7288 48.0901L50.7823 43.2418C50.2711 42.7418 49.4484 42.7418 48.9388 43.2451C48.4309 43.7484 48.4326 44.5601 48.9422 45.0601L51.6508 47.7151H34.47C33.7505 47.7151 33.1665 48.2901 33.1665 49.0001C33.1665 49.7084 33.7505 50.2818 34.47 50.2818H51.6508L48.9422 52.9384C48.4326 53.4384 48.4309 54.2501 48.9388 54.7534C49.1944 55.0051 49.5279 55.1318 49.8631 55.1318C50.1949 55.1318 50.5284 55.0051 50.7823 54.7568L55.7288 49.9084C55.9743 49.6668 56.1131 49.3401 56.1131 49.0001C56.1131 48.6584 55.9743 48.3318 55.7288 48.0901Z" fill="white"/>
<defs>
<linearGradient id="paint0_linear_18_58588" x1="14.5" y1="49.0006" x2="120" y2="49.0002" gradientUnits="userSpaceOnUse">
<stop stop-color="#153860"/>
<stop offset="0.723541" stop-color="#00C188"/>
</linearGradient>
</defs>
</svg>
