<svg viewBox="0 0 100 100" fill="none" xmlns="http://www.w3.org/2000/svg">
<path d="M34.8018 73.0425H49.0665V87.3072H34.8018V73.0425Z" fill="#3A3A3A"/>
<path d="M49.0658 81.5498V73.0415H34.8042V76.543L49.0658 81.5498Z" fill="#2D2D2D"/>
<path d="M81.9443 22.4113V70.5044C81.9443 72.6745 80.1814 74.4373 78.0114 74.4373H11.6022C9.43219 74.4373 7.63623 72.6745 7.63623 70.5044V22.4113C7.63623 20.2082 9.43219 18.4453 11.6022 18.4453H78.0114C80.1814 18.4453 81.9443 20.2082 81.9443 22.4113Z" fill="#3A3A3A"/>
<path d="M77.3162 22.4096V70.4981C77.3162 72.6746 75.5516 74.4389 73.3751 74.4389H6.96312C4.8014 74.4389 3.00732 72.6746 3.00732 70.4981V22.4096C3.00732 20.2037 4.8014 18.4395 6.96312 18.4395H73.3751C75.5516 18.4395 77.3162 20.2037 77.3162 22.4096Z" fill="#51504F"/>
<path d="M73.93 22.4157V70.5111C73.93 70.8067 73.6811 71.0407 73.3852 71.0407H6.97532C6.66419 71.0407 6.39941 70.7915 6.39941 70.5111V22.4157C6.39941 22.1042 6.66419 21.8398 6.97532 21.8398H73.3852C73.6811 21.8398 73.93 22.089 73.93 22.4157Z" fill="white"/>
<path d="M57.8901 90.6307H23.5812C22.9195 90.6307 22.6987 89.7776 23.243 89.4394C27.2724 86.9391 33.596 85.3364 40.7285 85.3364C47.8606 85.3364 54.1989 86.9391 58.2283 89.4394C58.7726 89.7776 58.5518 90.6307 57.8901 90.6307Z" fill="#2D2D2D"/>
<path d="M29.3352 21.8398C29.3192 22.5244 29.0393 23.2089 28.7126 23.8312C27.9969 25.2785 27.0012 26.7722 25.4452 27.1924C23.36 27.7523 21.306 26.134 19.1589 26.134C18.3649 26.134 17.4939 26.4144 17.0893 27.0837C16.5601 27.924 16.9024 29.0128 16.8401 29.9929C16.7315 31.6271 15.4554 32.9962 13.9617 33.6648C12.468 34.3501 10.803 34.4747 9.16914 34.5834C8.60919 34.6297 7.33316 34.8941 6.39941 34.8941V22.4157C6.39941 22.1042 6.66419 21.8398 6.97532 21.8398H29.3352Z" fill="#88BBCC"/>
<path d="M17.3972 35.9222C18.5882 34.7654 20.0749 33.8697 21.7099 33.5803C24.2737 33.1265 26.8284 34.1751 29.3257 34.9116C32.5181 35.8532 36.1484 36.2519 39.0248 34.5772C41.5664 33.0974 43.0873 30.2411 45.6577 28.812C47.9648 27.5292 50.7904 27.5884 53.3785 28.1076C56.4369 28.7212 59.3744 29.931 61.9778 31.6492C62.3062 31.8659 62.6375 32.0988 62.8546 32.4269C63.5932 33.5434 62.6925 34.9823 62.5507 36.3134C62.3815 37.9024 63.3363 39.3694 64.2485 40.6814C65.7085 42.7812 67.1685 44.881 68.6285 46.9809C68.9356 47.4226 69.2566 47.9119 69.2163 48.4483C69.1597 49.2018 68.4366 49.7022 67.7875 50.0889C63.3637 52.7243 58.3947 55.462 53.35 54.4298C51.3404 54.0185 49.4196 53.0134 47.37 53.0953C44.0623 53.2275 41.5532 56.1034 39.9103 58.9773C39.3672 59.9274 38.8451 60.9338 37.981 61.6055C36.9135 62.4354 35.4889 62.6255 34.1373 62.6663C28.9746 62.8219 23.7178 61.0347 19.7875 57.6683C15.7235 54.1873 14.1357 49.526 14.0427 44.2674C13.989 41.2306 15.2157 38.0409 17.3972 35.9222Z" fill="#88BBCC"/>
<path d="M73.9305 60.0703V70.511C73.9305 70.8065 73.6816 71.0405 73.3857 71.0405H55.4762C55.1806 70.6979 54.9006 70.34 54.6514 69.9358C54.0759 68.9709 53.7336 67.8039 54.0759 66.7456C54.6359 65.065 56.612 64.3956 58.3549 64.116C60.0044 63.8357 61.778 63.7118 63.2406 64.505C63.6607 64.7383 64.0653 65.0498 64.5322 65.0961C65.388 65.1896 66.0726 64.4579 66.6173 63.8045C67.9397 62.2174 69.4801 60.6462 71.4874 60.1485C72.2966 59.9457 73.1213 59.9305 73.9305 60.0703Z" fill="#88BBCC"/>
<path d="M22.6132 71.0409H6.97532C6.66419 71.0409 6.39941 70.7917 6.39941 70.5113V63.5253C6.53959 63.447 6.69496 63.3695 6.85071 63.3232C7.34874 63.1674 7.87792 63.229 8.40671 63.2913C12.1102 63.7737 15.7202 64.8944 19.0655 66.559C21.4306 67.742 22.7062 68.9553 22.6132 71.0409Z" fill="#88BBCC"/>
<path d="M73.9304 22.4157V35.1122C73.9304 35.1281 73.9149 35.1281 73.9149 35.1281C73.6345 35.2368 73.339 35.2679 73.0434 35.2831C72.2343 35.315 71.4095 35.3614 70.6315 35.1433C69.8536 34.9101 69.1223 34.3653 68.9046 33.5873C68.6554 32.7159 69.06 31.6423 68.5 30.9266C68.0487 30.3507 67.1929 30.3044 66.6014 29.8842C65.9016 29.4177 65.6369 28.484 65.7615 27.6748C65.9016 26.8497 66.3681 26.1188 66.9129 25.4958C67.224 25.1387 67.5819 24.7649 67.5974 24.2984C67.6597 23.2241 66.3681 22.5396 65.3413 21.8398H73.3857C73.6816 21.8398 73.9304 22.089 73.9304 22.4157Z" fill="#88BBCC"/>
<path d="M52.1468 22.9909C52.1 23.3024 51.7733 23.4581 51.4778 23.5668C48.381 24.6715 45.0513 25.3408 41.784 24.8895C39.9632 24.6403 36.431 23.5979 34.7349 21.8398H51.3843C51.6332 22.0267 51.8508 22.244 52.0222 22.5244C52.1156 22.6642 52.1779 22.8351 52.1468 22.9909Z" fill="#88BBCC"/>
<path d="M48.3493 69.9973C48.3182 70.3551 48.2407 70.6978 48.1161 71.0405H26.5342C26.7367 69.9973 27.4056 69.0484 28.3238 68.5196C30.5332 67.2128 33.3185 68.3798 35.9013 68.3327C37.6909 68.2855 39.4183 67.6322 41.1608 67.2128C43.5727 66.6209 48.6764 66.1696 48.3493 69.9973Z" fill="#88BBCC"/>
<path d="M52.2078 58.76C51.4349 58.9474 50.6753 59.2381 49.8803 59.2548C48.7457 59.2788 47.5126 58.7613 46.5347 59.3372C46.0646 59.6141 45.7448 60.131 45.707 60.6752C45.6691 61.2195 45.9142 61.7757 46.3414 62.115C46.7273 62.4214 47.2254 62.544 47.7112 62.6269C49.3683 62.91 51.0875 62.8234 52.7078 62.3754C53.3216 62.2057 53.9319 61.9791 54.4361 61.5901C54.9404 61.2012 55.3308 60.6294 55.3846 59.9947C55.5277 58.3038 53.2719 58.5019 52.2078 58.76Z" fill="#88BBCC"/>
<path d="M30.6408 38.2281C30.6408 40.9169 26.9293 46.558 25.1652 49.0874C24.7223 49.7224 23.7867 49.7224 23.3438 49.0874C21.5796 46.558 17.8682 40.9169 17.8682 38.2281C17.8682 34.701 20.7274 31.8418 24.2545 31.8418C27.7815 31.8418 30.6408 34.701 30.6408 38.2281Z" fill="#B53016"/>
<path d="M24.2542 42.5558C26.6445 42.5558 28.5822 40.6181 28.5822 38.2278C28.5822 35.8376 26.6445 33.8999 24.2542 33.8999C21.864 33.8999 19.9263 35.8376 19.9263 38.2278C19.9263 40.6181 21.864 42.5558 24.2542 42.5558Z" fill="#912010"/>
<path d="M24.2535 41.385C25.9973 41.385 27.4109 39.9714 27.4109 38.2277C27.4109 36.4839 25.9973 35.0703 24.2535 35.0703C22.5098 35.0703 21.0962 36.4839 21.0962 38.2277C21.0962 39.9714 22.5098 41.385 24.2535 41.385Z" fill="white"/>
<path d="M60.4691 31.5871C60.4691 33.9365 57.2261 38.8656 55.6846 41.0758C55.2976 41.6307 54.4801 41.6307 54.0931 41.0758C52.5516 38.8656 49.3086 33.9365 49.3086 31.5871C49.3086 28.5052 51.807 26.0068 54.8889 26.0068C57.9708 26.0068 60.4691 28.5052 60.4691 31.5871Z" fill="#B53016"/>
<path d="M54.8888 35.3689C56.9777 35.3689 58.6712 33.6755 58.6712 31.5866C58.6712 29.4976 56.9777 27.8042 54.8888 27.8042C52.7999 27.8042 51.1064 29.4976 51.1064 31.5866C51.1064 33.6755 52.7999 35.3689 54.8888 35.3689Z" fill="#912010"/>
<path d="M54.8887 34.3458C56.4124 34.3458 57.6475 33.1106 57.6475 31.5869C57.6475 30.0633 56.4124 28.8281 54.8887 28.8281C53.365 28.8281 52.1299 30.0633 52.1299 31.5869C52.1299 33.1106 53.365 34.3458 54.8887 34.3458Z" fill="white"/>
<path d="M70.8744 58.2336C70.8744 60.583 67.6314 65.5121 66.0899 67.7223C65.7029 68.2772 64.8854 68.2772 64.4984 67.7223C62.9569 65.5121 59.7139 60.583 59.7139 58.2336C59.7139 55.1517 62.2122 52.6533 65.2941 52.6533C68.376 52.6533 70.8744 55.1517 70.8744 58.2336Z" fill="#B53016"/>
<path d="M65.2941 62.0164C67.383 62.0164 69.0764 60.3229 69.0764 58.234C69.0764 56.1451 67.383 54.4517 65.2941 54.4517C63.2051 54.4517 61.5117 56.1451 61.5117 58.234C61.5117 60.3229 63.2051 62.0164 65.2941 62.0164Z" fill="#912010"/>
<path d="M65.294 60.9927C66.8176 60.9927 68.0528 59.7576 68.0528 58.2339C68.0528 56.7103 66.8176 55.4751 65.294 55.4751C63.7703 55.4751 62.5352 56.7103 62.5352 58.2339C62.5352 59.7576 63.7703 60.9927 65.294 60.9927Z" fill="white"/>
<path d="M19.0994 60.7167C19.0994 62.5463 16.5739 66.3848 15.3735 68.106C15.0721 68.5381 14.4355 68.5381 14.1341 68.106C12.9337 66.3848 10.4082 62.5463 10.4082 60.7167C10.4082 58.3167 12.3538 56.3711 14.7538 56.3711C17.1538 56.3711 19.0994 58.3167 19.0994 60.7167Z" fill="#FBAD3E"/>
<path d="M14.7547 63.6617C16.3815 63.6617 17.7003 62.3429 17.7003 60.7161C17.7003 59.0893 16.3815 57.7705 14.7547 57.7705C13.1279 57.7705 11.8091 59.0893 11.8091 60.7161C11.8091 62.3429 13.1279 63.6617 14.7547 63.6617Z" fill="#FA990E"/>
<path d="M14.755 62.8649C15.9416 62.8649 16.9035 61.903 16.9035 60.7164C16.9035 59.5298 15.9416 58.5679 14.755 58.5679C13.5684 58.5679 12.6064 59.5298 12.6064 60.7164C12.6064 61.903 13.5684 62.8649 14.755 62.8649Z" fill="white"/>
<path d="M45.681 43.7304C45.681 45.56 43.1555 49.3985 41.955 51.1197C41.6537 51.5518 41.017 51.5518 40.7157 51.1197C39.5152 49.3985 36.9897 45.56 36.9897 43.7304C36.9897 41.3304 38.9353 39.3848 41.3354 39.3848C43.7354 39.3848 45.681 41.3304 45.681 43.7304Z" fill="#FBAD3E"/>
<path d="M41.3357 46.6763C42.9625 46.6763 44.2813 45.3575 44.2813 43.7307C44.2813 42.1039 42.9625 40.7852 41.3357 40.7852C39.7089 40.7852 38.3901 42.1039 38.3901 43.7307C38.3901 45.3575 39.7089 46.6763 41.3357 46.6763Z" fill="#FA990E"/>
<path d="M41.336 45.8791C42.5226 45.8791 43.4846 44.9172 43.4846 43.7306C43.4846 42.544 42.5226 41.582 41.336 41.582C40.1494 41.582 39.1875 42.544 39.1875 43.7306C39.1875 44.9172 40.1494 45.8791 41.336 45.8791Z" fill="white"/>
<path d="M96.993 16.2672V42.0025C96.993 44.0755 95.3164 45.7522 93.243 45.7522H72.4781C70.4047 45.7522 68.728 44.0755 68.728 42.0025V12.8693C68.728 10.7963 70.4047 9.11963 72.4781 9.11963H89.8458L96.993 16.2672Z" fill="#DCE5E9"/>
<path d="M96.993 16.2672C96.993 16.2672 91.1092 17.5307 89.8457 16.2672C88.5822 15.0037 89.8457 9.11963 89.8457 9.11963L96.993 16.2672Z" fill="#88BBCC"/>
<path d="M76.7362 24.7863H72.9813C72.5054 24.7863 72.1196 24.4005 72.1196 23.9246V20.1698C72.1196 19.6939 72.5054 19.3081 72.9813 19.3081H76.7362C77.212 19.3081 77.5978 19.6939 77.5978 20.1698V23.9246C77.5978 24.4005 77.212 24.7863 76.7362 24.7863Z" fill="#126D8A"/>
<path d="M79.9951 20.3969C82.2624 19.746 84.5304 19.6001 86.7977 19.5728C89.0649 19.5961 91.333 19.7427 93.6002 20.3969C91.333 21.0511 89.0649 21.1977 86.7977 21.221C84.5304 21.1937 82.2624 21.0478 79.9951 20.3969Z" fill="#88BBCC"/>
<path d="M72.4009 12.5536C74.6681 11.9027 76.9362 11.7569 79.2034 11.7295C81.4707 11.7529 83.7387 11.8995 86.006 12.5536C83.7387 13.2078 81.4707 13.3544 79.2034 13.3778C76.9362 13.3504 74.6681 13.2046 72.4009 12.5536Z" fill="#88BBCC"/>
<path d="M72.4009 15.9892C74.6681 15.3382 76.9362 15.1924 79.2034 15.165C81.4707 15.1884 83.7387 15.335 86.006 15.9892C83.7387 16.6433 81.4707 16.79 79.2034 16.8133C76.9362 16.7859 74.6681 16.6401 72.4009 15.9892Z" fill="#88BBCC"/>
<path d="M79.9951 23.6967C81.5917 23.0458 83.1891 22.8999 84.7856 22.8726C86.3822 22.8959 87.9796 23.0425 89.5762 23.6967C87.9796 24.3509 86.3822 24.4975 84.7856 24.5209C83.1891 24.4935 81.5917 24.3476 79.9951 23.6967Z" fill="#88BBCC"/>
<path d="M76.7362 33.3639H72.9813C72.5054 33.3639 72.1196 32.9782 72.1196 32.5023V28.7474C72.1196 28.2715 72.5054 27.8857 72.9813 27.8857H76.7362C77.212 27.8857 77.5978 28.2715 77.5978 28.7474V32.5023C77.5978 32.9782 77.212 33.3639 76.7362 33.3639Z" fill="#126D8A"/>
<path d="M79.9956 28.975C82.2629 28.3241 84.5309 28.1783 86.7982 28.1509C89.0654 28.1742 91.3334 28.3209 93.6007 28.975C91.3334 29.6292 89.0654 29.7758 86.7982 29.7992C84.5309 29.7718 82.2629 29.626 79.9956 28.975Z" fill="#88BBCC"/>
<path d="M79.9956 32.2748C81.5922 31.6239 83.1895 31.4781 84.7861 31.4507C86.3827 31.474 87.9801 31.6207 89.5767 32.2748C87.9801 32.929 86.3827 33.0756 84.7861 33.099C83.1895 33.0716 81.5922 32.9258 79.9956 32.2748Z" fill="#88BBCC"/>
<path d="M76.7362 41.9426H72.9813C72.5054 41.9426 72.1196 41.5568 72.1196 41.0809V37.326C72.1196 36.8501 72.5054 36.4644 72.9813 36.4644H76.7362C77.212 36.4644 77.5978 36.8501 77.5978 37.326V41.0809C77.5978 41.5568 77.212 41.9426 76.7362 41.9426Z" fill="#126D8A"/>
<path d="M79.9956 37.5536C82.2629 36.9027 84.5309 36.7569 86.7982 36.7295C89.0654 36.7529 91.3334 36.8995 93.6007 37.5536C91.3334 38.2078 89.0654 38.3544 86.7982 38.3778C84.5309 38.3504 82.2629 38.2046 79.9956 37.5536Z" fill="#88BBCC"/>
<path d="M79.9956 40.8534C81.5922 40.2025 83.1895 40.0567 84.7861 40.0293C86.3827 40.0527 87.9801 40.1993 89.5767 40.8534C87.9801 41.5076 86.3827 41.6542 84.7861 41.6776C83.1895 41.6502 81.5922 41.5044 79.9956 40.8534Z" fill="#88BBCC"/>
<path d="M76.0173 21.0864C75.9517 21.6471 75.7535 22.1096 75.4897 22.4721C75.2254 22.8354 74.8955 23.1649 74.4995 23.4131L74.2853 23.5452C74.0871 23.6765 73.8232 23.6104 73.6911 23.4131C73.4768 23.0666 73.3117 22.6703 73.2456 22.1587C73.4933 22.1917 73.7241 22.2417 73.9223 22.3239C74.1036 22.0596 74.3513 21.8292 74.6317 21.6141C75.0111 21.3507 75.4566 21.1525 76.0173 21.0864Z" fill="white"/>
<path d="M76.0173 29.3618C75.9517 29.9225 75.7535 30.385 75.4897 30.7475C75.2254 31.1108 74.8955 31.4403 74.4995 31.6884L74.2853 31.8206C74.0871 31.9519 73.8232 31.8858 73.6911 31.6884C73.4768 31.342 73.3117 30.9457 73.2456 30.4341C73.4933 30.4671 73.7241 30.5171 73.9223 30.5992C74.1036 30.335 74.3513 30.1046 74.6317 29.8895C75.0111 29.6261 75.4566 29.4279 76.0173 29.3618Z" fill="white"/>
<path d="M76.0173 38.3779C75.9517 38.9386 75.7535 39.4011 75.4897 39.7636C75.2254 40.1269 74.8955 40.4564 74.4995 40.7046L74.2853 40.8367C74.0871 40.968 73.8232 40.9019 73.6911 40.7046C73.4768 40.3581 73.3117 39.9618 73.2456 39.4502C73.4933 39.4832 73.7241 39.5332 73.9223 39.6154C74.1036 39.3511 74.3513 39.1207 74.6317 38.9056C75.0111 38.6422 75.4566 38.444 76.0173 38.3779Z" fill="white"/>
<path d="M72.9044 73.0859V90.8802H58.2427C57.0514 90.8802 56.0957 89.9094 56.0957 88.7188V75.2329C56.0957 74.0417 57.0514 73.0859 58.2427 73.0859H72.9044Z" fill="#98D6AD"/>
<path d="M77.2866 74.8064V89.1446C77.2866 90.1004 76.5219 90.8802 75.5514 90.8802H72.9043V73.0859H75.5514C75.6099 73.0859 75.6839 73.0859 75.7424 73.101C76.6102 73.1886 77.2866 73.9096 77.2866 74.8064Z" fill="#31513C"/>
<path d="M67.4171 73.0811V77.178C67.4171 77.6506 66.9004 77.9238 66.5091 77.6654L65.1507 76.7498C64.9516 76.6172 64.6931 76.6172 64.4938 76.7574L63.2167 77.643C62.8328 77.9091 62.3013 77.6358 62.3013 77.1633V73.0811H67.4171Z" fill="#31513C"/>
<path d="M65.5718 86.6127C65.0329 86.8416 64.494 86.9671 63.9551 87.0482C63.4162 87.1369 62.8773 87.1664 62.3456 87.1664C61.8067 87.1664 61.2679 87.1293 60.729 87.0482C60.1901 86.9671 59.6512 86.8416 59.1123 86.6127C59.6512 86.3839 60.1901 86.2656 60.729 86.1845C61.2679 86.0958 61.8067 86.0663 62.3456 86.0591C62.8773 86.0591 63.4162 86.0958 63.9551 86.1845C64.494 86.2656 65.0329 86.3839 65.5718 86.6127Z" fill="#31513C"/>
<path d="M61.9617 88.3033C62.2793 88.3844 62.5967 88.5098 62.9141 88.7387C62.5967 88.9676 62.2793 89.0858 61.9617 89.167C61.6444 89.2556 61.327 89.2924 61.0096 89.2924C60.6922 89.2852 60.382 89.2556 60.0646 89.167C59.7471 89.0858 59.4297 88.9676 59.1123 88.7387C59.4297 88.5098 59.7471 88.3844 60.0646 88.3033C60.382 88.2222 60.6922 88.1851 61.0096 88.1851C61.327 88.1851 61.6444 88.2146 61.9617 88.3033Z" fill="#31513C"/>
<path d="M92.1987 55.3066V73.1009H77.5366C76.3454 73.1009 75.3896 72.1301 75.3896 70.9539V57.4687C75.3896 56.2767 76.3454 55.3066 77.5366 55.3066H92.1987Z" fill="#98D6AD"/>
<path d="M96.581 57.0566V71.3503C96.581 72.3211 95.8015 73.1009 94.8307 73.1009H94.0513C93.9924 73.0858 93.9191 73.0858 93.8603 73.0858H92.1836V55.3066H94.8307C95.8015 55.3066 96.581 56.0857 96.581 57.0566Z" fill="#31513C"/>
<path d="M94.0532 73.1012H92.1777V73.0845H93.8573C93.9226 73.0845 93.9879 73.0845 94.0532 73.1012Z" fill="#FA990E"/>
<path d="M86.7104 55.3105V59.4078C86.7104 59.8804 86.1936 60.1536 85.8023 59.8951L84.4438 58.9795C84.2447 58.8469 83.9862 58.8469 83.7869 58.9871L82.5097 59.8728C82.1258 60.1388 81.5942 59.8656 81.5942 59.393V55.3105H86.7104Z" fill="#31513C"/>
<path d="M84.8651 68.8423C84.3262 69.0712 83.7872 69.1966 83.2483 69.2777C82.7094 69.3664 82.1705 69.396 81.6388 69.396C81.0999 69.396 80.5609 69.3588 80.022 69.2777C79.4831 69.1966 78.9442 69.0712 78.4053 68.8423C78.9442 68.6134 79.4831 68.4951 80.022 68.414C80.5609 68.3253 81.0999 68.2958 81.6388 68.2886C82.1705 68.2886 82.7094 68.3253 83.2483 68.414C83.7872 68.4951 84.3262 68.6134 84.8651 68.8423Z" fill="#31513C"/>
<path d="M81.2549 70.5333C81.5725 70.6144 81.8899 70.7398 82.2073 70.9687C81.8899 71.1976 81.5725 71.3159 81.2549 71.397C80.9375 71.4857 80.6201 71.5224 80.3027 71.5224C79.9853 71.5152 79.6751 71.4857 79.3577 71.397C79.0401 71.3159 78.7227 71.1976 78.4053 70.9687C78.7227 70.7398 79.0401 70.6144 79.3577 70.5333C79.6751 70.4522 79.9853 70.415 80.3027 70.415C80.6201 70.415 80.9375 70.4446 81.2549 70.5333Z" fill="#31513C"/>
<path d="M92.1987 73.0859V90.8802H77.5514C76.3454 90.8802 75.3896 89.9094 75.3896 88.7188V75.2329C75.3896 74.0417 76.3454 73.0859 77.5514 73.0859H92.1987Z" fill="#FBAD3E"/>
<path d="M96.5806 74.8064V89.1446C96.5806 90.1004 95.8158 90.8802 94.8597 90.8802H92.1982V73.0859H94.8597C94.9186 73.0859 94.9775 73.0859 95.0364 73.101C95.9042 73.1886 96.5806 73.9096 96.5806 74.8064Z" fill="#FA990E"/>
<path d="M86.7184 73.0811V77.178C86.7184 77.6506 86.2017 77.9238 85.8104 77.6654L84.452 76.7498C84.2528 76.6172 83.9944 76.6172 83.795 76.7574L82.5179 77.643C82.134 77.9091 81.6025 77.6358 81.6025 77.1633V73.0811H86.7184Z" fill="#FA990E"/>
<path d="M84.873 86.6127C84.3341 86.8416 83.7953 86.9671 83.2564 87.0482C82.7175 87.1369 82.1786 87.1664 81.6469 87.1664C81.108 87.1664 80.5691 87.1293 80.0302 87.0482C79.4914 86.9671 78.9525 86.8416 78.4136 86.6127C78.9525 86.3839 79.4914 86.2656 80.0302 86.1845C80.5691 86.0958 81.108 86.0663 81.6469 86.0591C82.1786 86.0591 82.7175 86.0958 83.2564 86.1845C83.7953 86.2656 84.3341 86.3839 84.873 86.6127Z" fill="#FA990E"/>
<path d="M81.263 88.3033C81.5806 88.3844 81.898 88.5098 82.2154 88.7387C81.898 88.9676 81.5806 89.0858 81.263 89.167C80.9456 89.2556 80.6282 89.2924 80.3109 89.2924C79.9935 89.2852 79.6833 89.2556 79.3659 89.167C79.0483 89.0858 78.731 88.9676 78.4136 88.7387C78.731 88.5098 79.0483 88.3844 79.3659 88.3033C79.6833 88.2222 79.9935 88.1851 80.3109 88.1851C80.6282 88.1851 80.9456 88.2146 81.263 88.3033Z" fill="#FA990E"/>
</svg>
