<svg viewBox="0 0 300 286" fill="none" xmlns="http://www.w3.org/2000/svg">
<g clip-path="url(#clip0_205_20537)">
<path d="M118.293 203.781C183.625 203.781 236.587 165.855 236.587 119.071C236.587 72.2869 183.625 34.3608 118.293 34.3608C52.9617 34.3608 0 72.2869 0 119.071C0 165.855 52.9617 203.781 118.293 203.781Z" fill="#F5FDFF"/>
<path d="M245.999 238.382C275.823 238.382 300 235.013 300 230.857C300 226.7 275.823 223.331 245.999 223.331C216.175 223.331 191.999 226.7 191.999 230.857C191.999 235.013 216.175 238.382 245.999 238.382Z" fill="#DFE4EB"/>
<path d="M132.809 242.835C186.688 242.835 230.366 239.098 230.366 234.487C230.366 229.877 186.688 226.139 132.809 226.139C78.9299 226.139 35.2521 229.877 35.2521 234.487C35.2521 239.098 78.9299 242.835 132.809 242.835Z" fill="#DFE4EB"/>
<path d="M151.461 86.5623C151.461 86.5623 149.657 97.0905 136.504 110.636C136.504 110.636 135.05 108.829 137.566 101.338C140.082 93.8483 150.714 84.0094 151.466 86.5572L151.461 86.5623Z" fill="#7E9E6E"/>
<path d="M151.461 86.5625C151.461 86.5625 139.624 95.0687 136.503 110.636C136.503 110.636 135.899 115.977 137.718 120.603" stroke="black" stroke-width="0.508242" stroke-miterlimit="10" stroke-linecap="round"/>
<path d="M119.645 95.0628C119.645 95.0628 122.964 92.5354 117.252 86.2196C111.824 80.2203 106.08 74.8439 94.8483 72.873C94.8483 72.873 98.2382 88.1547 105.557 91.7951C112.876 95.4355 119.645 95.0577 119.645 95.0577V95.0628Z" fill="#7E9E6E"/>
<path d="M92.3885 106.301C92.3885 106.301 104.103 108.869 123.976 102.206C123.976 102.206 122.746 100.144 113.867 99.4492C104.988 98.7548 90.076 104.586 92.3885 106.301Z" fill="#7E9E6E"/>
<path d="M92.3888 106.301C92.3888 106.301 106.447 98.8265 123.976 102.207C123.976 102.207 125.78 102.661 127.615 105.122" stroke="black" stroke-width="0.508242" stroke-miterlimit="10" stroke-linecap="round"/>
<path d="M102.1 116.963C102.1 116.963 114.639 125.254 134.511 118.591C134.511 118.591 130.648 111.566 121.769 110.876C112.89 110.182 99.793 115.247 102.106 116.963H102.1Z" fill="#7E9E6E"/>
<path d="M102.101 116.962C102.101 116.962 115.615 110.626 134.511 118.591C134.511 118.591 136.732 119.586 138.567 122.047" stroke="black" stroke-width="0.508242" stroke-miterlimit="10" stroke-linecap="round"/>
<path d="M144.539 76.5905C144.539 76.5905 148.239 76.1463 139.208 84.5351C130.68 92.4593 131.767 92.5206 131.767 92.5206C131.767 92.5206 135.005 80.6649 144.539 76.5905Z" fill="black"/>
<path d="M125.567 96.5389C125.567 96.5389 128.331 97.6111 133.317 93.0159C138.303 88.4207 140.158 78.1785 144.544 76.5957C144.544 76.5957 133.546 80.1646 125.572 96.544L125.567 96.5389Z" fill="#7E9E6E"/>
<path d="M143.69 131.727C138.069 120.352 130.263 107.424 119.645 95.0628C119.645 95.0628 117.038 91.6317 107.976 82.7374C98.9142 73.8431 94.8483 72.873 94.8483 72.873" stroke="black" stroke-width="0.508242" stroke-miterlimit="10" stroke-linecap="round"/>
<path d="M143.243 77.1372C143.243 77.1372 132.778 81.7222 125.566 96.5392C123.818 100.129 125.912 102.967 127.619 105.122" stroke="black" stroke-width="0.508242" stroke-miterlimit="10" stroke-linecap="round"/>
<path d="M238.665 199.936C238.665 199.936 229.919 206.421 209.767 201.662C209.767 201.662 209.823 198.415 217.055 195.29C224.287 192.165 239.814 196.929 238.67 199.936H238.665Z" fill="#7E9E6E"/>
<path d="M238.04 199.344C238.04 199.344 224.236 194.708 209.858 201.31C209.858 201.31 205.198 203.954 202.54 208.151" stroke="black" stroke-width="0.508242" stroke-miterlimit="10" stroke-linecap="round"/>
<path d="M209.502 185.67C209.502 185.67 213.487 186.885 215.225 178.532C216.872 170.598 217.832 162.766 212.831 152.478C212.831 152.478 202.504 164.206 203.866 172.293C205.228 180.381 209.507 185.665 209.507 185.665L209.502 185.67Z" fill="#7E9E6E"/>
<path d="M239.148 188.8C239.148 188.8 242.223 190.914 229.928 191.251C218.315 191.572 219.093 192.333 219.093 192.333C219.093 192.333 229.303 185.553 239.148 188.8Z" fill="black"/>
<path d="M211.794 191.251C211.794 191.251 213.172 193.886 219.936 193.727C226.701 193.569 234.813 187.09 239.148 188.8C239.148 188.8 228.536 184.21 211.794 191.251Z" fill="#7E9E6E"/>
<path d="M194.067 226.747C199.937 215.493 205.772 201.56 209.503 185.671C209.503 185.671 210.738 181.535 212.588 168.949C214.438 156.358 212.832 152.483 212.832 152.483" stroke="black" stroke-width="0.508242" stroke-miterlimit="10" stroke-linecap="round"/>
<path d="M237.812 188.351C237.812 188.351 226.93 184.879 211.79 191.251C208.12 192.793 207.083 195.233 205.533 199.752" stroke="black" stroke-width="0.508242" stroke-miterlimit="10" stroke-linecap="round"/>
<path d="M99.2853 124.973C96.4544 124.973 93.715 123.977 91.5397 122.155L85.5068 117.1C83.3367 115.282 80.7599 114.307 78.117 114.307H48.1866C45.4726 114.307 43.2668 116.518 43.2668 119.25V228.1C43.2668 232.807 47.0685 236.626 51.7545 236.626H200.949C204.593 236.626 207.551 233.66 207.551 229.994V131.611C207.551 127.95 204.598 124.978 200.949 124.978H99.2802L99.2853 124.973Z" fill="#14273D"/>
<path d="M207.551 230.54C207.551 230.54 197.396 211.408 196.38 209.208L168.63 152.416C167.934 150.905 166.424 149.94 164.772 149.94H61.6551C57.9043 149.94 52.4864 147.964 49.6047 145.554L45.4422 142.067C43.272 140.249 40.6952 139.274 38.0523 139.274H9.57555C6.54134 139.274 4.48296 142.368 5.64175 145.181L40.0853 228.865C42.0166 233.557 46.5705 236.616 51.6224 236.616H205.691C206.697 236.616 207.622 235.753 207.622 234.742L207.551 230.54Z" fill="#126D8A"/>
<path d="M165.611 155.347L206.326 234.865" stroke="white" stroke-width="0.508242" stroke-linejoin="round"/>
<path d="M148.829 169.046H113.755C112.8 169.046 111.91 168.561 111.397 167.764C110.213 165.921 111.549 163.511 113.755 163.511H148.829C149.784 163.511 150.674 163.996 151.187 164.793C152.371 166.636 151.035 169.046 148.829 169.046Z" stroke="white" stroke-width="0.508242" stroke-linejoin="round"/>
<path d="M89.7076 187.252L117.015 203.596" stroke="white" stroke-width="0.508242" stroke-linecap="round" stroke-linejoin="round"/>
<path d="M112.035 186.466L94.8768 203.698" stroke="white" stroke-width="0.508242" stroke-linecap="round" stroke-linejoin="round"/>
<path d="M111.893 182.085C121.925 187.068 126.093 197.02 121.193 204.316C116.294 211.612 104.188 213.486 94.1549 208.508C84.1222 203.524 79.9546 193.573 84.854 186.277C89.7535 178.981 101.86 177.107 111.893 182.085Z" stroke="white" stroke-width="0.508242" stroke-linecap="round" stroke-linejoin="round"/>
<path d="M237.913 125.024C238.569 122.18 235.555 118.636 232.704 119.193C230.381 119.647 229.227 120.209 228.851 120.332C228.124 120.572 222.681 120.219 222.056 121.128C221.604 121.787 224.445 122.548 226.259 122.731C226.635 122.767 226.742 123.257 226.422 123.456C224.638 124.569 221.085 126.826 220.78 127.383C220.374 128.133 218.529 131.038 219.052 131.36C219.571 131.682 221.146 130.232 222.168 129.2C223.189 128.169 226.178 127.291 226.178 127.291C226.178 127.291 220.984 132.524 220.303 133.979C219.281 136.139 222.239 135.195 222.239 135.195C221.776 136.415 224.201 136.149 224.775 135.69C225.908 134.781 229.405 130.538 229.42 130.967C229.436 131.396 225.802 136.022 226.173 137.104C226.539 138.181 228.007 136.828 228.856 135.69C229.705 134.551 232.195 131.365 232.195 131.365C232.195 131.365 235.026 129.287 237.39 125.703C237.41 125.672 237.908 125.054 237.913 125.024Z" fill="#DB9C7F"/>
<path d="M222.371 135.082L227.326 129.149" stroke="black" stroke-width="0.508242" stroke-miterlimit="10" stroke-linecap="round"/>
<path d="M200.674 108.2L218.493 97.0334C218.605 96.9619 218.706 96.8802 218.808 96.7934L224.683 90.7175C225.964 89.5891 227.936 89.8546 228.881 91.2741L231.763 95.614C232.373 96.533 232.393 97.7227 231.819 98.6672L227.682 105.407C227.377 105.902 226.93 106.29 226.396 106.52C223.067 107.95 210.356 113.346 202.773 115.496C200.888 116.032 199.058 114.49 199.226 112.529L199.414 110.324C199.485 109.456 199.952 108.675 200.679 108.195L200.674 108.2Z" fill="#6DA37F"/>
<path d="M241.715 219.802L240.774 226.236C240.774 226.236 223.118 233.052 224.755 233.149C226.391 233.246 251.768 231.765 251.768 231.765L250.274 220.088L241.715 219.802Z" fill="#13263C"/>
<path d="M246.635 115.726C246.635 115.726 248.042 129.333 249.1 130.038C250.157 130.742 251.56 131.1 251.56 131.1L249.272 115.553L246.635 115.731V115.726Z" stroke="#424242" stroke-width="0.508242" stroke-miterlimit="10"/>
<path d="M274.517 106.377C274.517 106.377 281.673 121.021 279.594 129.175L239.921 123.691L240.749 108.481L274.517 106.377Z" fill="#003546"/>
<path d="M275.605 109.344C275.605 109.344 269.999 119.775 259.265 120.612" stroke="white" stroke-width="0.508242" stroke-miterlimit="10" stroke-linecap="round"/>
<path d="M266.629 118.381C266.629 118.381 268.804 125.141 275.112 125.284" stroke="white" stroke-width="0.508242" stroke-miterlimit="10" stroke-linecap="round"/>
<path d="M239.92 123.691C239.92 123.691 229.293 161.709 229.014 173.948L236.779 221.095C236.779 221.095 244.19 224.796 251.905 221.804C252.22 221.682 247.991 197.353 247.697 172.298L269.876 125.672L239.915 123.691H239.92Z" fill="#003546"/>
<path d="M279.772 127.582L278.211 173.457L295.685 221.416C295.685 221.416 288.376 227.619 279.136 221.972L260.169 176.306L262.115 143.078L253.846 138.048L252.616 123.655L279.777 127.577L279.772 127.582Z" fill="#003546"/>
<path d="M249.069 119.193L257.491 125.57L269.566 112.029L240.236 116.236L247.412 125.8L249.069 119.193Z" fill="white"/>
<path d="M283.335 219.026L281.81 224.576C281.81 224.576 270.669 236.713 272.311 236.713C273.952 236.713 292.244 229.197 292.244 229.197L289.901 217.638L283.335 219.026Z" fill="#13263C"/>
<path d="M273.089 112.867C273.089 112.867 277.907 124.764 274.435 174.673C274.435 174.673 286.603 201.575 292.915 222.856" stroke="white" stroke-width="0.508242" stroke-miterlimit="10" stroke-linecap="round"/>
<path d="M255.381 139.238L243.24 173.222L248.449 222.861" stroke="white" stroke-width="0.508242" stroke-miterlimit="10" stroke-linecap="round"/>
<path d="M202.418 114.915C202.418 114.915 202.651 116.104 200.029 117.013C197.406 117.922 195.861 117.631 195.861 117.631C195.861 117.631 189.976 110.656 189.717 110.411C189.457 110.166 189.9 107.486 191.643 106.408C192.7 105.755 196.802 106.817 199.856 107.756C201.986 108.41 203.302 110.554 202.946 112.765C202.804 113.633 202.631 114.44 202.418 114.915Z" fill="#DB9C7F"/>
<path d="M197.59 113.061C197.59 113.061 192.777 112.362 190.744 110.677C190.744 110.677 187.705 110.064 187.059 110.447C186.414 110.83 185.885 111.382 184.487 111.616C183.09 111.851 183.512 110.917 184.98 109.594C185.402 109.217 186.52 107.853 187.496 107.67C188.807 107.419 191.638 106.414 191.638 106.414L197.326 113.245" fill="#DB9C7F"/>
<path d="M195.867 117.631C195.867 117.631 193.915 118.861 193.229 118.826C192.543 118.79 191.897 118.381 191.73 117.248C191.73 117.248 188.096 117.917 189.249 115.155C189.249 115.155 187.054 114.797 186.998 113.357C186.998 113.357 185.051 112.382 185.473 110.82C185.9 109.257 192.014 109.395 192.014 109.395L198.504 112.704L195.872 117.626L195.867 117.631Z" fill="#DB9C7F"/>
<path d="M194.484 117.892C194.484 117.892 196.339 116.243 196.233 115.579C196.131 114.915 195.78 114.553 195.358 114.68C194.794 114.849 192.644 116.498 191.719 117.248" stroke="#1A1C30" stroke-width="0.396429" stroke-linecap="round" stroke-linejoin="round"/>
<path d="M189.244 115.16C189.244 115.16 194.179 114.383 194.225 113.653C194.27 112.918 193.925 111.948 192.893 112.157C191.668 112.402 188.156 113.25 186.987 113.224" stroke="#1A1C30" stroke-width="0.396429" stroke-linecap="round" stroke-linejoin="round"/>
<path d="M195.364 114.68C195.364 114.68 196.268 114.113 195.912 113.48C195.552 112.847 195.064 112.627 194.012 112.898" stroke="#1A1C30" stroke-width="0.396429" stroke-linecap="round" stroke-linejoin="round"/>
<path d="M186.891 111.151C186.891 111.151 187.16 110.799 187.542 110.437" stroke="#1A1C30" stroke-width="0.396429" stroke-linecap="round" stroke-linejoin="round"/>
<path d="M182.805 96.9526L185.3 95.5441L198.128 118.47C198.501 119.138 198.264 119.986 197.6 120.362L197.516 120.409C196.851 120.784 196.007 120.547 195.633 119.879L182.805 96.9526Z" fill="#334F69"/>
<path d="M189.142 100.624L190.219 102.548C190.509 103.069 190.377 103.702 189.924 103.958L187.597 105.27C187.139 105.525 186.534 105.311 186.245 104.79L185.121 102.783" fill="#334F69"/>
<path d="M184.161 81.7982C179.709 73.5013 174.129 67.793 170.586 67.5275L170.703 66.7412L168.848 67.9564C165.661 70.1366 167.354 79.8682 172.629 89.6917C177.9 99.5204 184.756 105.719 187.943 103.539L189.686 102.375L189.183 101.701C190.408 97.8967 188.497 89.8857 184.161 81.8033V81.7982Z" fill="#334F69"/>
<path d="M186.016 80.5884C191.287 90.417 192.979 100.149 189.797 102.324C186.611 104.504 179.76 98.3004 174.484 88.4768C169.214 78.6482 167.521 68.9166 170.703 66.7415C173.889 64.5613 180.74 70.7648 186.016 80.5884Z" fill="#3699FF"/>
<path d="M184.258 81.7883C188.548 89.784 190.235 97.4937 188.019 99.0102C185.808 100.527 180.533 95.2676 176.243 87.272C171.953 79.2763 170.266 71.5666 172.482 70.0501C174.693 68.5388 179.968 73.7927 184.258 81.7883Z" fill="#D3DDF7"/>
<path d="M197.589 113.061C197.589 113.061 192.776 112.362 190.743 110.677C190.743 110.677 187.704 110.064 187.059 110.447C186.413 110.83 185.885 111.382 184.487 111.616C183.089 111.851 183.511 110.917 184.98 109.594C185.402 109.217 186.52 107.853 187.496 107.67C188.807 107.419 191.638 106.414 191.638 106.414L197.325 113.245" fill="#DB9C7F"/>
<path d="M197.589 113.061C197.589 113.061 192.776 112.362 190.743 110.677C190.743 110.677 187.704 110.064 187.058 110.447C186.413 110.83 185.884 111.382 184.487 111.616" stroke="#1A1C30" stroke-width="0.396429" stroke-linecap="round" stroke-linejoin="round"/>
<path d="M184.258 81.7878C179.968 73.7921 174.693 68.5332 172.482 70.0496C172.309 70.167 172.162 70.3304 172.035 70.5244C174.591 70.6827 179.069 75.5587 182.799 82.5179C186.753 89.8856 188.492 97.003 187.013 99.2649C187.394 99.2904 187.734 99.2087 188.024 99.0096C190.235 97.4983 188.553 89.7834 184.263 81.7878H184.258Z" fill="#334F69"/>
<path d="M181.27 78.6535C183.552 82.9066 184.446 87.0065 183.272 87.8132C182.093 88.62 179.293 85.822 177.005 81.5689C174.718 77.3157 173.829 73.2158 175.003 72.4091C176.177 71.6024 178.983 74.4003 181.27 78.6535Z" fill="white"/>
<path d="M266.618 92.3466L263.081 79.6587C261.78 75.0023 259.503 70.693 256.494 66.9147C251.163 60.2261 237.161 60.8337 237.161 60.8337L226.386 68.62C226.355 68.6404 226.32 68.6558 226.289 68.6762C219.947 72.1941 218.783 77.6164 218.945 85.9797L219.337 97.2686L226.63 90.2737L228.47 92.8112C228.46 92.7398 228.455 92.6683 228.449 92.6019L229.324 93.9805L228.475 92.8112C228.734 95.1395 229.944 101.072 235.565 103.845L238.767 108.91L237.918 115.905C267.975 126.882 275.457 105.326 275.457 105.326L266.623 92.3568L266.618 92.3466Z" fill="#6DA37F"/>
<path d="M225.09 89.1045L229.024 93.9397C229.024 93.9397 228.485 101.389 235.961 103.779" stroke="black" stroke-width="0.508242" stroke-miterlimit="10" stroke-linecap="round"/>
<path d="M254.955 98.9434L232.079 118.963C232.079 118.963 236.607 125.335 238.645 125.56L266.049 108.042" fill="#6DA37F"/>
<path d="M238.874 112.827C238.874 112.827 251.331 98.7193 255.636 96.6719" stroke="black" stroke-width="0.508242" stroke-miterlimit="10" stroke-linecap="round"/>
<path d="M249.039 83.728C249.039 83.728 249.633 86.8834 253.623 97.9783" stroke="black" stroke-width="0.508242" stroke-miterlimit="10" stroke-linecap="round"/>
<path d="M241.821 123.748C241.821 123.748 267.416 107.368 267.64 102.589C267.864 97.8101 261.185 75.6255 261.185 75.6255" stroke="black" stroke-width="0.508242" stroke-miterlimit="10" stroke-linecap="round"/>
<path d="M244.622 100.536C244.622 100.536 250.782 101.118 252.693 95.502" stroke="black" stroke-width="0.508242" stroke-miterlimit="10" stroke-linecap="round"/>
<path d="M219.677 96.3548C219.677 96.3548 221.375 94.6495 223.072 96.5846" stroke="black" stroke-width="0.508242" stroke-miterlimit="10" stroke-linecap="round"/>
<path d="M199.526 107.618L203.149 105.913C203.149 105.913 207.566 110.748 205.98 114.899L201.564 116.206C201.564 116.206 203.602 111.657 199.526 107.618Z" fill="white"/>
<path d="M233.527 116.41C233.527 116.41 238.284 118.458 241.679 124.345L238.025 127.158C238.025 127.158 233.522 120.674 230.381 119.647L233.522 116.405L233.527 116.41Z" fill="white"/>
<path d="M229.532 60.0933L244.536 61.2012C244.536 61.2012 245.105 69.493 236.043 76.8045L231.972 72.8322L229.756 77.6674C229.756 77.6674 226.315 75.7221 225.848 70.1363L226.58 63.3559L229.527 60.0933H229.532Z" fill="white"/>
<path d="M237.161 60.8337C237.71 61.3034 237.969 62.0233 237.842 62.7382C237.359 65.434 235.905 71.9694 232.983 72.7863C229.288 73.8228 226.986 66.496 226.986 66.496L228.826 53.6958L237.161 60.8337Z" fill="#DB9C7F"/>
<path d="M225.461 63.8666L225.415 65.7302C225.38 65.7506 224.749 71.2495 226.589 71.464C234.279 70.065 234.767 62.7433 235.422 55.4727C235.422 55.4727 224.714 62.4165 225.461 63.8717V63.8666Z" fill="black"/>
<path d="M212.653 50.1426C212.653 50.1426 210.778 68.0894 221.878 71.1784C232.978 74.2674 235.636 56.0857 235.25 49.7954C234.869 43.505 232.078 41.1666 224.297 40.8858C212.791 40.4671 212.653 50.1426 212.653 50.1426Z" fill="#DB9C7F"/>
<path d="M222.625 58.8172C222.655 59.4656 222.35 60.0017 221.944 60.0222C221.537 60.0426 221.176 59.5371 221.146 58.8887C221.115 58.2402 221.42 57.7041 221.827 57.6837C222.234 57.6633 222.594 58.1688 222.625 58.8172Z" fill="black"/>
<path d="M223.845 55.5085C223.845 55.5085 220.18 57.1118 219.819 54.3291" stroke="black" stroke-width="0.508242" stroke-miterlimit="10" stroke-linecap="round"/>
<path d="M215.367 55.5186C215.367 55.5186 214.157 57.6324 212.765 56.6929" stroke="black" stroke-width="0.508242" stroke-miterlimit="10" stroke-linecap="round"/>
<path d="M213.421 59.2664C213.421 59.2664 214.112 59.0418 215.128 59.583" stroke="black" stroke-width="0.508242" stroke-miterlimit="10" stroke-linecap="round"/>
<path d="M224.287 65.9651C224.287 65.9651 225.288 65.0052 226.112 64.7856" stroke="black" stroke-width="0.508242" stroke-miterlimit="10" stroke-linecap="round"/>
<path d="M216.785 61.334C216.785 61.334 216.15 62.7891 217.771 63.4886" stroke="black" stroke-width="0.508242" stroke-miterlimit="10" stroke-linecap="round"/>
<path d="M212.527 54.0024C212.527 54.0024 212.715 48.7485 215.032 45.777C215.032 45.777 218.219 53.0527 231.952 54.5385L235.951 53.6961C235.951 53.6961 237.588 45.2715 231.85 41.9527C226.112 38.634 217.335 40.467 214.509 43.4538C209.721 48.5137 212.527 54.0075 212.527 54.0075V54.0024Z" fill="black"/>
<path d="M229.283 53.5786L231.662 58.2964L233.339 52.9966L229.283 53.5786Z" fill="black"/>
<path d="M237.587 57.8062C236.901 60.3131 234.94 61.9725 233.201 61.5079C231.463 61.0432 230.609 58.6384 231.29 56.1264C231.976 53.6194 233.938 51.96 235.676 52.4247C237.415 52.8893 238.268 55.2941 237.587 57.8062Z" fill="#DB9C7F"/>
<path d="M235.844 55.6206C235.844 55.6206 233.887 53.9305 232.82 57.0195C232.82 57.0195 233.963 58.2347 233.242 59.1946C233.242 59.1946 234.37 59.4499 234.924 58.4543" stroke="black" stroke-width="0.508242" stroke-linecap="round" stroke-linejoin="round"/>
<path d="M234.996 56.8001C234.996 56.8001 234.889 56.1108 234.127 55.3296" stroke="black" stroke-width="0.508242" stroke-linecap="round" stroke-linejoin="round"/>
<path d="M235.946 61.4209C235.946 62.3604 235.189 63.1212 234.254 63.1212C233.318 63.1212 232.561 62.3604 232.561 61.4209C232.561 60.4815 233.318 59.7207 234.254 59.7207C235.189 59.7207 235.946 60.4815 235.946 61.4209Z" fill="white"/>
<path d="M231.194 44.1482C231.194 44.1482 233.278 33.2065 238.146 35.2999C243.015 37.3932 245.216 47.8703 240.581 48.6872C235.946 49.5042 232.353 47.2883 232.353 47.2883L231.194 44.1431V44.1482Z" fill="black"/>
<path d="M231.255 47.293C231.255 47.293 239.311 54.0428 241.918 47.8189" stroke="black" stroke-width="0.508242" stroke-miterlimit="10" stroke-linecap="round"/>
<path d="M261.689 142.817L252.367 137.533" stroke="white" stroke-width="0.508242" stroke-miterlimit="10" stroke-linecap="round"/>
<path d="M50.0718 73.4043C60.1451 73.68 68.4803 81.788 69.0597 91.8923C69.4002 97.8355 67.108 103.243 63.2505 107.062C62.6812 107.623 62.417 108.43 62.5491 109.221L63.9976 117.835L55.083 112.617C54.5748 112.321 53.9751 112.208 53.4007 112.326C51.2204 112.765 48.913 112.846 46.5344 112.484C37.7266 111.141 30.8551 103.819 30.0419 94.9048C28.9594 83.0287 38.4025 73.0775 50.0718 73.3992V73.4043Z" fill="#DDEDFF"/>
<path d="M48.6336 99.8627L48.5777 95.1603C49.2587 94.9918 49.8839 94.7774 50.448 94.5068C51.0122 94.2362 51.5052 93.9298 51.927 93.5775C52.3488 93.2252 52.7046 92.8321 52.9943 92.3981C53.2789 91.9641 53.4975 91.4944 53.6449 90.994C53.7923 90.4936 53.8685 89.9626 53.8685 89.4112C53.8685 88.6147 53.6754 87.8642 53.2891 87.1596C52.9028 86.455 52.3488 85.8831 51.6271 85.4491C50.9054 85.0151 50.0516 84.7956 49.0504 84.7956C47.978 84.7956 46.9869 85.0917 46.0721 85.684C45.1572 86.2763 44.4609 87.2872 43.9832 88.7168L43.4851 88.3849C43.9069 87.0319 44.6185 85.9954 45.6146 85.2704C46.6108 84.5454 47.7442 84.188 49.0199 84.188C50.1075 84.188 51.063 84.4177 51.8863 84.8824C52.7097 85.347 53.3501 85.9699 53.8126 86.7613C54.2751 87.5476 54.5038 88.436 54.5038 89.4163C54.5038 90.1567 54.3767 90.851 54.1277 91.5046C53.8787 92.153 53.528 92.7453 53.0756 93.2865C52.6233 93.8226 52.0744 94.2923 51.4289 94.6906C50.7835 95.0888 50.0516 95.3901 49.2435 95.5943L49.1876 99.8781H48.6336V99.8627ZM48.2982 103.365C48.2982 103.125 48.3642 102.926 48.4913 102.768C48.6184 102.61 48.7962 102.533 49.0199 102.533C49.2791 102.533 49.462 102.61 49.5738 102.758C49.6857 102.906 49.7416 103.11 49.7416 103.37C49.7416 103.595 49.6806 103.789 49.5637 103.952C49.4417 104.121 49.2638 104.203 49.0249 104.203C48.7861 104.203 48.6031 104.126 48.4862 103.978C48.3642 103.83 48.3083 103.626 48.3083 103.365H48.2982Z" fill="#003546"/>
</g>
<path opacity="0.6" d="M75.98 269.436V266.214C75.98 265.758 76.022 265.392 76.106 265.116C76.19 264.828 76.304 264.594 76.448 264.414C76.592 264.234 76.748 264.084 76.916 263.964L76.898 263.892H73.766L74.18 262.632H79.256V263.892C78.812 263.892 78.422 264.036 78.086 264.324C77.75 264.612 77.582 265.14 77.582 265.908V269.436H75.98ZM77.942 277.68C77.618 277.68 77.306 277.626 77.006 277.518C76.706 277.41 76.46 277.218 76.268 276.942C76.076 276.666 75.98 276.282 75.98 275.79V267.636H77.582V275.592C77.582 275.868 77.642 276.066 77.762 276.186C77.882 276.306 78.074 276.366 78.338 276.366C78.446 276.366 78.56 276.354 78.68 276.33C78.8 276.306 78.914 276.276 79.022 276.24L79.238 277.41C79.01 277.518 78.788 277.59 78.572 277.626C78.356 277.662 78.146 277.68 77.942 277.68ZM85.6768 277.68C84.9088 277.68 84.2428 277.53 83.6788 277.23C83.1268 276.918 82.7488 276.486 82.5448 275.934H82.4728L82.3828 277.5H81.0688V267.636H82.6708V273.342C82.6708 273.942 82.7728 274.47 82.9768 274.926C83.1928 275.37 83.4988 275.718 83.8948 275.97C84.3028 276.21 84.7888 276.33 85.3528 276.33C86.0608 276.33 86.5888 276.144 86.9368 275.772C87.2848 275.4 87.4588 274.854 87.4588 274.134V267.636H89.0608V274.242C89.0608 275.034 88.9228 275.682 88.6468 276.186C88.3828 276.69 87.9988 277.068 87.4948 277.32C86.9908 277.56 86.3848 277.68 85.6768 277.68ZM87.4601 266.07V262.272H89.0441V266.07H87.4601ZM93.0434 277.5L91.2614 267.636H92.8994L93.6014 271.92C93.6614 272.268 93.7214 272.718 93.7814 273.27C93.8414 273.822 93.9134 274.476 93.9974 275.232H94.0514C94.1594 274.716 94.2614 274.254 94.3574 273.846C94.4654 273.438 94.5614 273.072 94.6454 272.748C94.7414 272.412 94.8254 272.118 94.8974 271.866L96.1034 267.636H97.4174L98.6414 271.866C98.7134 272.118 98.7914 272.412 98.8754 272.748C98.9714 273.072 99.0674 273.438 99.1634 273.846C99.2714 274.254 99.3794 274.716 99.4874 275.232H99.5594C99.6314 274.476 99.6974 273.822 99.7574 273.27C99.8174 272.718 99.8774 272.268 99.9374 271.92L100.657 267.636H102.295L100.513 277.5H98.9474L97.2914 272.136C97.2074 271.836 97.1234 271.524 97.0394 271.2C96.9674 270.876 96.8954 270.45 96.8234 269.922H96.7514C96.7034 270.27 96.6494 270.576 96.5894 270.84C96.5294 271.104 96.4694 271.338 96.4094 271.542C96.3494 271.746 96.2894 271.944 96.2294 272.136L94.6094 277.5H93.0434ZM108.457 277.68C107.041 277.68 106.027 277.356 105.415 276.708C104.803 276.06 104.497 275.136 104.497 273.936V267.636H106.099V273.954C106.099 274.758 106.291 275.358 106.675 275.754C107.059 276.15 107.653 276.348 108.457 276.348C109.273 276.348 109.873 276.15 110.257 275.754C110.653 275.358 110.851 274.758 110.851 273.954V267.636H112.453V273.936C112.453 275.136 112.141 276.06 111.517 276.708C110.905 277.356 109.885 277.68 108.457 277.68ZM117.592 277.68C117.268 277.68 116.956 277.626 116.656 277.518C116.356 277.41 116.11 277.218 115.918 276.942C115.726 276.666 115.63 276.282 115.63 275.79V267.636H117.232V275.592C117.232 275.868 117.292 276.066 117.412 276.186C117.532 276.306 117.724 276.366 117.988 276.366C118.096 276.366 118.21 276.354 118.33 276.33C118.45 276.306 118.564 276.276 118.672 276.24L118.888 277.41C118.66 277.518 118.438 277.59 118.222 277.626C118.006 277.662 117.796 277.68 117.592 277.68ZM126.271 277.5V270.93C126.271 270.15 126.091 269.598 125.731 269.274C125.383 268.938 124.795 268.77 123.967 268.77C123.367 268.77 122.791 268.854 122.239 269.022C121.699 269.178 121.183 269.4 120.691 269.688V268.194C121.039 268.014 121.507 267.846 122.095 267.69C122.695 267.534 123.367 267.456 124.111 267.456C124.747 267.456 125.287 267.528 125.731 267.672C126.187 267.816 126.523 268.08 126.739 268.464C127.159 268.656 127.447 268.956 127.603 269.364C127.771 269.772 127.855 270.264 127.855 270.84V277.5H126.271ZM123.175 277.68C122.119 277.68 121.309 277.44 120.745 276.96C120.193 276.468 119.917 275.766 119.917 274.854C119.917 273.858 120.277 273.09 120.997 272.55C121.729 272.01 122.911 271.692 124.543 271.596L126.595 271.47V272.802L124.759 272.928C123.535 273.012 122.689 273.204 122.221 273.504C121.765 273.804 121.537 274.242 121.537 274.818C121.537 275.358 121.705 275.754 122.041 276.006C122.389 276.258 122.869 276.384 123.481 276.384C123.685 276.384 123.871 276.372 124.039 276.348C124.207 276.312 124.369 276.27 124.525 276.222L124.777 277.428C124.549 277.512 124.297 277.572 124.021 277.608C123.757 277.656 123.475 277.68 123.175 277.68ZM126.685 269.022L125.785 268.176C126.097 268.128 126.391 268.008 126.667 267.816C126.943 267.624 127.081 267.348 127.081 266.988H128.647C128.647 267.36 128.557 267.69 128.377 267.978C128.209 268.254 127.975 268.482 127.675 268.662C127.375 268.83 127.045 268.95 126.685 269.022ZM122.835 266.07V265.278C123.075 265.23 123.321 265.164 123.573 265.08C123.825 264.984 124.035 264.864 124.203 264.72C124.371 264.564 124.455 264.378 124.455 264.162C124.455 264.018 124.413 263.898 124.329 263.802C124.233 263.694 124.089 263.64 123.897 263.64C123.777 263.64 123.657 263.664 123.537 263.712C123.405 263.76 123.291 263.802 123.195 263.838L122.835 262.848C123.075 262.656 123.345 262.53 123.645 262.47C123.933 262.41 124.167 262.38 124.347 262.38C124.827 262.38 125.205 262.512 125.481 262.776C125.745 263.04 125.877 263.376 125.877 263.784C125.877 264.12 125.793 264.414 125.625 264.666C125.445 264.906 125.241 265.098 125.013 265.242L124.833 264.81H128.415V266.07H122.835ZM134.196 277.68C133.488 277.68 132.876 277.56 132.36 277.32C131.856 277.068 131.466 276.69 131.19 276.186C130.926 275.682 130.794 275.028 130.794 274.224V267.636H132.396V274.134C132.396 274.854 132.576 275.4 132.936 275.772C133.308 276.144 133.842 276.33 134.538 276.33C135.378 276.33 136.026 276.06 136.482 275.52C136.95 274.98 137.184 274.254 137.184 273.342V267.636H138.786V277.5H137.454L137.382 276.042H137.292C137.076 276.522 136.698 276.918 136.158 277.23C135.63 277.53 134.976 277.68 134.196 277.68ZM141.887 277.5V267.636H143.003L143.291 269.202H143.363C143.567 268.662 143.939 268.236 144.479 267.924C145.019 267.612 145.673 267.456 146.441 267.456C147.161 267.456 147.773 267.582 148.277 267.834C148.793 268.074 149.189 268.446 149.465 268.95C149.741 269.454 149.879 270.108 149.879 270.912V277.5H148.277V271.002C148.277 270.282 148.097 269.736 147.737 269.364C147.377 268.992 146.843 268.806 146.135 268.806C145.571 268.806 145.091 268.938 144.695 269.202C144.299 269.466 143.999 269.826 143.795 270.282C143.591 270.726 143.489 271.23 143.489 271.794V277.5H141.887ZM155.592 277.5V270.498C155.592 269.91 155.454 269.478 155.178 269.202C154.914 268.926 154.464 268.788 153.828 268.788C153.396 268.788 152.988 268.848 152.604 268.968C152.232 269.076 151.872 269.232 151.524 269.436V267.996C151.764 267.876 152.106 267.756 152.55 267.636C152.994 267.516 153.522 267.456 154.134 267.456C154.758 267.456 155.298 267.546 155.754 267.726C156.21 267.906 156.564 268.206 156.816 268.626C157.068 269.034 157.194 269.58 157.194 270.264V277.5H155.592ZM161.734 277.5L158.656 267.636H160.276L162.94 276.114H163.156C163.444 276.114 163.726 276.048 164.002 275.916C164.278 275.772 164.512 275.592 164.704 275.376C165.064 274.98 165.328 274.482 165.496 273.882C165.664 273.27 165.748 272.67 165.748 272.082C165.748 271.086 165.52 270.306 165.064 269.742C164.62 269.166 164.002 268.878 163.21 268.878C163.054 268.878 162.898 268.89 162.742 268.914C162.598 268.938 162.478 268.968 162.382 269.004L161.986 267.726C162.238 267.654 162.472 267.606 162.688 267.582C162.916 267.558 163.12 267.546 163.3 267.546C163.9 267.546 164.434 267.636 164.902 267.816C165.382 267.984 165.79 268.236 166.126 268.572C166.546 268.98 166.852 269.49 167.044 270.102C167.248 270.714 167.35 271.392 167.35 272.136C167.35 273.072 167.206 273.906 166.918 274.638C166.63 275.358 166.27 275.934 165.838 276.366C165.49 276.714 165.064 276.99 164.56 277.194C164.056 277.398 163.414 277.5 162.634 277.5H161.734ZM173.256 277.68C172.128 277.68 171.252 277.41 170.628 276.87C170.016 276.318 169.71 275.496 169.71 274.404V273.306C169.71 272.706 169.794 272.232 169.962 271.884C170.13 271.536 170.31 271.236 170.502 270.984C170.706 270.708 170.88 270.468 171.024 270.264C171.18 270.06 171.258 269.814 171.258 269.526C171.258 269.274 171.192 269.094 171.06 268.986C170.94 268.878 170.784 268.824 170.592 268.824C170.448 268.824 170.292 268.848 170.124 268.896C169.968 268.944 169.812 269.004 169.656 269.076L169.296 267.924C169.512 267.78 169.776 267.678 170.088 267.618C170.412 267.558 170.694 267.528 170.934 267.528C171.378 267.528 171.732 267.606 171.996 267.762C172.272 267.918 172.47 268.134 172.59 268.41C172.71 268.674 172.77 268.986 172.77 269.346C172.77 269.79 172.692 270.156 172.536 270.444C172.392 270.732 172.218 271.014 172.014 271.29C171.81 271.59 171.642 271.878 171.51 272.154C171.378 272.43 171.312 272.79 171.312 273.234V274.296C171.312 274.848 171.402 275.274 171.582 275.574C171.762 275.874 172.002 276.084 172.302 276.204C172.602 276.312 172.92 276.366 173.256 276.366C173.856 276.366 174.312 276.228 174.624 275.952C174.948 275.664 175.11 275.226 175.11 274.638V267.636H176.712V274.728C176.712 275.652 176.418 276.378 175.83 276.906C175.254 277.422 174.396 277.68 173.256 277.68ZM183.118 277.68C181.822 277.68 180.85 277.344 180.202 276.672C179.566 275.988 179.248 274.92 179.248 273.468C179.248 273.228 179.254 272.97 179.266 272.694C179.29 272.406 179.314 272.124 179.338 271.848H183.118V273.108H180.85V273.468C180.85 274.224 180.934 274.818 181.102 275.25C181.27 275.67 181.516 275.964 181.84 276.132C182.176 276.3 182.59 276.384 183.082 276.384C183.622 276.384 184.09 276.282 184.486 276.078C184.882 275.874 185.188 275.502 185.404 274.962C185.62 274.422 185.728 273.648 185.728 272.64C185.728 271.752 185.632 271.026 185.44 270.462C185.248 269.898 184.93 269.478 184.486 269.202C184.054 268.926 183.466 268.788 182.722 268.788C182.338 268.788 181.966 268.824 181.606 268.896C181.246 268.956 180.898 269.052 180.562 269.184C180.226 269.304 179.896 269.46 179.572 269.652V268.158C179.812 268.026 180.106 267.912 180.454 267.816C180.802 267.708 181.186 267.624 181.606 267.564C182.026 267.492 182.464 267.456 182.92 267.456C183.976 267.456 184.828 267.672 185.476 268.104C186.136 268.524 186.616 269.124 186.916 269.904C187.216 270.672 187.366 271.584 187.366 272.64C187.366 273.696 187.228 274.602 186.952 275.358C186.676 276.114 186.226 276.69 185.602 277.086C184.99 277.482 184.162 277.68 183.118 277.68ZM191.582 277.5L188.504 267.636H190.124L192.788 276.114H193.004C193.292 276.114 193.574 276.048 193.85 275.916C194.126 275.772 194.36 275.592 194.552 275.376C194.912 274.98 195.176 274.482 195.344 273.882C195.512 273.27 195.596 272.67 195.596 272.082C195.596 271.086 195.368 270.306 194.912 269.742C194.468 269.166 193.85 268.878 193.058 268.878C192.902 268.878 192.746 268.89 192.59 268.914C192.446 268.938 192.326 268.968 192.23 269.004L191.834 267.726C192.086 267.654 192.32 267.606 192.536 267.582C192.764 267.558 192.968 267.546 193.148 267.546C193.748 267.546 194.282 267.636 194.75 267.816C195.23 267.984 195.638 268.236 195.974 268.572C196.394 268.98 196.7 269.49 196.892 270.102C197.096 270.714 197.198 271.392 197.198 272.136C197.198 273.072 197.054 273.906 196.766 274.638C196.478 275.358 196.118 275.934 195.686 276.366C195.338 276.714 194.912 276.99 194.408 277.194C193.904 277.398 193.262 277.5 192.482 277.5H191.582ZM199.63 277.5V271.2C199.63 269.988 199.954 269.064 200.602 268.428C201.25 267.78 202.282 267.456 203.698 267.456C205.126 267.456 206.158 267.78 206.794 268.428C207.442 269.064 207.766 269.988 207.766 271.2V277.5H206.164V271.2C206.164 270.396 205.954 269.796 205.534 269.4C205.114 268.992 204.496 268.788 203.68 268.788C202.876 268.788 202.264 268.992 201.844 269.4C201.436 269.796 201.232 270.396 201.232 271.2V273.198L201.286 273.216C201.55 272.748 201.874 272.442 202.258 272.298C202.642 272.142 203.182 272.064 203.878 272.064H204.472V273.378H203.878C203.146 273.378 202.588 273.48 202.204 273.684C201.832 273.888 201.574 274.158 201.43 274.494C201.298 274.818 201.232 275.184 201.232 275.592V277.5H199.63ZM206.327 282.198V280.29C206.327 279.99 206.195 279.84 205.931 279.84C205.871 279.84 205.811 279.846 205.751 279.858C205.679 279.87 205.613 279.888 205.553 279.912L205.427 278.832C205.607 278.772 205.805 278.724 206.021 278.688C206.225 278.664 206.393 278.652 206.525 278.652C206.945 278.652 207.257 278.748 207.461 278.94C207.653 279.144 207.749 279.42 207.749 279.768V282.198H206.327ZM212.721 277.68C212.385 277.68 212.061 277.626 211.749 277.518C211.449 277.41 211.203 277.218 211.011 276.942C210.831 276.666 210.741 276.282 210.741 275.79V274.044C210.741 273.3 210.897 272.76 211.209 272.424C211.533 272.088 211.953 271.854 212.469 271.722L212.487 271.668L210.417 270.912V270.318C210.417 269.79 210.573 269.31 210.885 268.878C211.209 268.446 211.659 268.104 212.235 267.852C212.823 267.588 213.507 267.456 214.287 267.456C214.947 267.456 215.571 267.564 216.159 267.78C216.759 267.996 217.245 268.356 217.617 268.86C217.989 269.352 218.175 270.012 218.175 270.84V274.278C218.175 274.998 218.337 275.52 218.661 275.844C218.997 276.168 219.441 276.33 219.993 276.33C220.473 276.33 220.893 276.21 221.253 275.97C221.613 275.718 221.895 275.376 222.099 274.944C222.303 274.5 222.405 273.984 222.405 273.396V267.636H224.007V277.5H222.693L222.603 275.934H222.513C222.309 276.486 221.943 276.918 221.415 277.23C220.899 277.53 220.317 277.68 219.669 277.68C218.757 277.68 218.013 277.428 217.437 276.924C216.861 276.42 216.573 275.58 216.573 274.404V271.002C216.573 270.426 216.465 269.976 216.249 269.652C216.033 269.328 215.745 269.106 215.385 268.986C215.037 268.854 214.665 268.788 214.269 268.788C213.633 268.788 213.105 268.926 212.685 269.202C212.277 269.478 212.067 269.88 212.055 270.408L214.107 271.38L213.963 272.244C213.519 272.244 213.135 272.382 212.811 272.658C212.499 272.934 212.343 273.39 212.343 274.026V275.61C212.343 275.874 212.403 276.066 212.523 276.186C212.643 276.306 212.835 276.366 213.099 276.366C213.219 276.366 213.333 276.36 213.441 276.348C213.561 276.324 213.669 276.294 213.765 276.258L213.999 277.41C213.771 277.518 213.549 277.59 213.333 277.626C213.129 277.662 212.925 277.68 212.721 277.68Z" fill="#292929"/>
<defs>
<clipPath id="clip0_205_20537">
<rect width="300" height="208.474" fill="white" transform="translate(0 34.3608)"/>
</clipPath>
</defs>
</svg>
