<svg viewBox="0 0 100 100" fill="none" xmlns="http://www.w3.org/2000/svg">
<path d="M93.3403 86.15H66.8844L70.0166 89.2233H64.7812V41.9146H87.7226C90.8257 41.9146 93.3403 44.4292 93.3403 47.5319V86.15Z" fill="#126D8A"/>
<path d="M25.1932 57.6055V89.2231H5.22246C3.79639 89.2231 2.64893 88.0613 2.64893 86.6345V73.1644C2.64893 72.679 2.78141 72.208 3.03165 71.8116L11.0754 58.8262C11.5461 58.0614 12.3844 57.6055 13.2813 57.6055H25.1932Z" fill="#DCE5E9"/>
<path d="M22.2515 62.0318V71.4442C22.2515 72.2671 21.5898 72.9291 20.7662 72.9291H8.47226C7.29572 72.9291 6.58987 71.6495 7.2074 70.6644L13.0309 61.2527C13.3102 60.8111 13.7809 60.5469 14.2957 60.5469H20.7662C21.5898 60.5469 22.2515 61.2089 22.2515 62.0318Z" fill="#88BBCC"/>
<path d="M64.781 41.9146V89.2233H25.1929V47.5319C25.1929 44.4292 27.7075 41.9146 30.8106 41.9146H64.781Z" fill="#88BBCC"/>
<path d="M25.1927 84.5762V89.2235H5.22197C3.7959 89.2235 2.64844 88.0616 2.64844 86.6349V84.5762H25.1927Z" fill="#88BBCC"/>
<path d="M25.1968 84.5708H64.7806V89.2208H25.1968V84.5708Z" fill="#126D8A"/>
<path d="M90.9138 46.6494V84.0905H67.1934V43.9731H88.2376C89.7229 43.9731 90.9138 45.1788 90.9138 46.6494Z" fill="#51504F"/>
<path d="M95.3696 92.3849H71.6786C71.0463 92.3849 70.4432 92.0761 70.0755 91.5613L64.7812 84.1646H93.3403L96.9726 89.2527C97.914 90.5618 96.9726 92.3849 95.3696 92.3849Z" fill="#88BBCC"/>
<path d="M14.6203 77.0619C15.8142 77.0619 16.782 76.7327 16.782 76.3266C16.782 75.9205 15.8142 75.5913 14.6203 75.5913C13.4264 75.5913 12.4585 75.9205 12.4585 76.3266C12.4585 76.7327 13.4264 77.0619 14.6203 77.0619Z" fill="#88BBCC"/>
<path d="M5.07561 78.6054V82.8261C5.07561 83.6792 4.38448 84.3707 3.53142 84.3707H2.64893V77.0615H3.53142C4.38448 77.0615 5.07561 77.753 5.07561 78.6054Z" fill="#B53016"/>
<path d="M20.015 88.2746C20.015 91.6396 17.2871 94.3675 13.922 94.3675C10.557 94.3675 7.8291 91.6396 7.8291 88.2746C7.8291 84.9095 10.557 82.1816 13.922 82.1816C17.2871 82.1816 20.015 84.9095 20.015 88.2746ZM53.7505 82.1816C50.3854 82.1816 47.6575 84.9095 47.6575 88.2746C47.6575 91.6396 50.3854 94.3675 53.7505 94.3675C57.1155 94.3675 59.8434 91.6396 59.8434 88.2746C59.8434 84.9095 57.1155 82.1816 53.7505 82.1816Z" fill="#51504F"/>
<path d="M53.7503 91.4261C52.0126 91.4261 50.5987 90.0122 50.5987 88.2741C50.5987 86.5364 52.0126 85.1226 53.7503 85.1226C55.488 85.1226 56.9018 86.5364 56.9018 88.2741C56.9018 90.0122 55.488 91.4261 53.7503 91.4261ZM13.9216 91.4261C12.1839 91.4261 10.77 90.0122 10.77 88.2741C10.77 86.5364 12.1839 85.1226 13.9216 85.1226C15.6593 85.1226 17.0732 86.5364 17.0732 88.2741C17.0732 90.0122 15.6593 91.4261 13.9216 91.4261Z" fill="white"/>
<path d="M76.8536 75.6499V84.0763H69.3976C68.8533 84.0763 68.4268 83.6355 68.4268 83.1055V76.62C68.4268 76.0764 68.8533 75.6499 69.3976 75.6499H76.8536Z" fill="#FBAD3E"/>
<path d="M79.0589 76.5611V83.1644C79.0589 83.6642 78.6471 84.0763 78.147 84.0763H76.853V75.6499H78.147C78.6471 75.6499 79.0589 76.0614 79.0589 76.5611Z" fill="#FA990E"/>
<path d="M74.1067 75.6504V77.7047C74.1067 77.9417 73.8476 78.0787 73.6514 77.9491L72.9703 77.49C72.8704 77.4235 72.7408 77.4235 72.6409 77.4938L72.0005 77.9379C71.808 78.0713 71.5415 77.9343 71.5415 77.6973V75.6504H74.1067Z" fill="#FA990E"/>
<path d="M73.1813 81.9358C72.9111 82.0506 72.6409 82.1135 72.3707 82.1542C72.1005 82.1986 71.8302 82.2134 71.5637 82.2134C71.2934 82.2134 71.0232 82.1948 70.753 82.1542C70.4828 82.1135 70.2126 82.0506 69.9424 81.9358C70.2126 81.8211 70.4828 81.7618 70.753 81.7211C71.0232 81.6766 71.2934 81.6618 71.5637 81.6582C71.8302 81.6582 72.1005 81.6766 72.3707 81.7211C72.6409 81.7618 72.9111 81.8211 73.1813 81.9358Z" fill="#FA990E"/>
<path d="M71.3712 82.7834C71.5304 82.8241 71.6895 82.887 71.8487 83.0017C71.6895 83.1165 71.5304 83.1758 71.3712 83.2165C71.212 83.2609 71.0529 83.2794 70.8937 83.2794C70.7346 83.2758 70.5791 83.2609 70.4199 83.2165C70.2607 83.1758 70.1015 83.1165 69.9424 83.0017C70.1015 82.887 70.2607 82.8241 70.4199 82.7834C70.5791 82.7427 70.7346 82.7241 70.8937 82.7241C71.0529 82.7241 71.212 82.7389 71.3712 82.7834Z" fill="#FA990E"/>
<path d="M87.487 75.6499V84.0763H80.0163C79.4867 84.0763 79.0605 83.6355 79.0605 83.1055V76.62C79.0605 76.0764 79.4867 75.6499 80.0163 75.6499H87.487Z" fill="#FBAD3E"/>
<path d="M89.678 76.5611V83.1644C89.678 83.6642 89.2809 84.0763 88.766 84.0763H87.4868V75.6499H88.766C89.2809 75.6499 89.678 76.0614 89.678 76.5611Z" fill="#FA990E"/>
<path d="M84.7346 75.6504V77.7047C84.7346 77.9417 84.4755 78.0787 84.2793 77.9491L83.5982 77.49C83.4984 77.4235 83.3688 77.4235 83.2688 77.4938L82.6284 77.9379C82.4359 78.0713 82.1694 77.9343 82.1694 77.6973V75.6504H84.7346Z" fill="#FA990E"/>
<path d="M83.8092 81.9358C83.539 82.0506 83.2688 82.1135 82.9986 82.1542C82.7284 82.1986 82.4582 82.2134 82.1916 82.2134C81.9214 82.2134 81.6512 82.1948 81.3809 82.1542C81.1107 82.1135 80.8405 82.0506 80.5703 81.9358C80.8405 81.8211 81.1107 81.7618 81.3809 81.7211C81.6512 81.6766 81.9214 81.6618 82.1916 81.6582C82.4582 81.6582 82.7284 81.6766 82.9986 81.7211C83.2688 81.7618 83.539 81.8211 83.8092 81.9358Z" fill="#FA990E"/>
<path d="M81.9991 82.7834C82.1583 82.8241 82.3175 82.887 82.4766 83.0017C82.3175 83.1165 82.1583 83.1758 81.9991 83.2165C81.8399 83.2609 81.6808 83.2794 81.5217 83.2794C81.3625 83.2758 81.207 83.2609 81.0478 83.2165C80.8886 83.1758 80.7295 83.1165 80.5703 83.0017C80.7295 82.887 80.8886 82.8241 81.0478 82.7834C81.207 82.7427 81.3625 82.7241 81.5217 82.7241C81.6808 82.7241 81.8399 82.7389 81.9991 82.7834Z" fill="#FA990E"/>
<path d="M82.1642 67.2383V75.6504H74.7083C74.179 75.6504 73.7378 75.2238 73.7378 74.6946V68.1947C73.7378 67.6648 74.179 67.2383 74.7083 67.2383H82.1642Z" fill="#FBAD3E"/>
<path d="M84.3699 68.1359V74.7384C84.3699 75.2382 83.9581 75.6504 83.4584 75.6504H82.1641V67.2383H83.4584C83.9581 67.2383 84.3699 67.6354 84.3699 68.1359Z" fill="#FA990E"/>
<path d="M79.4221 67.231V69.2853C79.4221 69.5222 79.163 69.6592 78.9668 69.5296L78.2857 69.0706C78.1858 69.004 78.0563 69.004 77.9563 69.0744L77.3159 69.5184C77.1234 69.6518 76.8569 69.5148 76.8569 69.2779V67.231H79.4221Z" fill="#FA990E"/>
<path d="M78.4967 73.5164C78.2265 73.6312 77.9563 73.6941 77.6861 73.7347C77.4159 73.7792 77.1457 73.794 76.8791 73.794C76.6089 73.794 76.3387 73.7754 76.0684 73.7347C75.7982 73.6941 75.528 73.6312 75.2578 73.5164C75.528 73.4016 75.7982 73.3423 76.0684 73.3017C76.3387 73.2572 76.6089 73.2424 76.8791 73.2388C77.1457 73.2388 77.4159 73.2572 77.6861 73.3017C77.9563 73.3423 78.2265 73.4016 78.4967 73.5164Z" fill="#FA990E"/>
<path d="M76.6866 74.364C76.8458 74.4046 77.005 74.4675 77.1641 74.5823C77.005 74.6971 76.8458 74.7564 76.6866 74.797C76.5274 74.8415 76.3683 74.8599 76.2092 74.8599C76.05 74.8563 75.8945 74.8415 75.7353 74.797C75.5761 74.7564 75.417 74.6971 75.2578 74.5823C75.417 74.4675 75.5761 74.4046 75.7353 74.364C75.8945 74.3233 76.05 74.3047 76.2092 74.3047C76.3683 74.3047 76.5274 74.3195 76.6866 74.364Z" fill="#FA990E"/>
<path d="M40.9136 82.4287V94.5467H30.1639C29.3991 94.5467 28.7812 93.9292 28.7812 93.1637V83.811C28.7812 83.0462 29.3991 82.4287 30.1639 82.4287H40.9136Z" fill="#FBAD3E"/>
<path d="M44.0751 83.7372V93.2372C44.0751 93.9725 43.4866 94.5462 42.7664 94.5462H40.9131V82.4282H42.7664C43.4866 82.4282 44.0751 83.0163 44.0751 83.7372Z" fill="#FA990E"/>
<path d="M36.9516 82.4258V85.3839C36.9516 85.7251 36.5785 85.9224 36.296 85.7358L35.3152 85.0747C35.1714 84.979 34.9848 84.979 34.8409 85.0802L33.9187 85.7197C33.6416 85.9117 33.2578 85.7144 33.2578 85.3732V82.4258H36.9516Z" fill="#FA990E"/>
<path d="M35.619 91.4764C35.2299 91.6417 34.8408 91.7323 34.4517 91.7908C34.0626 91.8548 33.6735 91.8762 33.2896 91.8762C32.9005 91.8762 32.5114 91.8494 32.1224 91.7908C31.7333 91.7323 31.3442 91.6417 30.9551 91.4764C31.3442 91.3112 31.7333 91.2258 32.1224 91.1672C32.5114 91.1032 32.9005 91.0819 33.2896 91.0767C33.6735 91.0767 34.0626 91.1032 34.4517 91.1672C34.8408 91.2258 35.2299 91.3112 35.619 91.4764Z" fill="#FA990E"/>
<path d="M33.0124 92.6972C33.2417 92.7557 33.4709 92.8463 33.7001 93.0116C33.4709 93.1768 33.2417 93.2622 33.0124 93.3208C32.7833 93.3848 32.5541 93.4113 32.325 93.4113C32.0958 93.4061 31.8719 93.3848 31.6427 93.3208C31.4134 93.2622 31.1842 93.1768 30.9551 93.0116C31.1842 92.8463 31.4134 92.7557 31.6427 92.6972C31.8719 92.6386 32.0958 92.6118 32.325 92.6118C32.5541 92.6118 32.7833 92.6332 33.0124 92.6972Z" fill="#FA990E"/>
<path d="M87.9427 19.5293C87.3582 19.5293 86.8713 19.0708 86.8419 18.4813C86.801 17.653 86.5697 16.8613 86.1734 16.1917C85.8632 15.6676 86.0369 14.9911 86.5611 14.6809C87.0853 14.3715 87.7617 14.5441 88.0719 15.0687C88.6492 16.0453 88.986 17.1873 89.0449 18.3714C89.075 18.98 88.6069 19.4977 87.998 19.5278C87.9793 19.5289 87.9606 19.5293 87.9427 19.5293Z" fill="#51504F"/>
<path d="M24.5754 38.788C24.1309 38.788 23.7115 38.5166 23.5442 38.0761C23.3281 37.5063 23.6146 36.8693 24.184 36.6536C25.2432 36.2518 26.3325 35.6784 27.5151 34.9004C27.7944 34.7159 28.0723 34.5252 28.3502 34.3346C28.6216 34.1483 28.8923 33.9623 29.1666 33.781C29.6736 33.4453 30.3586 33.5824 30.6954 34.0915C31.0314 34.5992 30.8921 35.2835 30.3845 35.6199C30.1209 35.7948 29.8596 35.9739 29.5982 36.1531C29.3095 36.3516 29.0202 36.5502 28.7279 36.7426C27.4088 37.6107 26.1788 38.2563 24.9667 38.7158C24.8375 38.7647 24.7053 38.788 24.5754 38.788ZM40.894 36.4119C40.8933 36.4119 40.8926 36.4119 40.8919 36.4119C39.389 36.4087 38.0024 36.021 36.8822 35.2907C36.6926 35.1668 36.511 35.0333 36.3293 34.899C36.1211 34.7457 35.9157 34.5902 35.6902 34.4646C35.5121 34.3655 35.3168 34.2872 35.1107 34.2319C34.5227 34.0736 34.1737 33.4686 34.3324 32.8805C34.4903 32.2924 35.0964 31.9431 35.6838 32.1014C36.0629 32.2034 36.4262 32.3499 36.7623 32.5369C37.0711 32.7085 37.3561 32.9153 37.6398 33.1247C37.787 33.2338 37.9342 33.3433 38.0878 33.4435C38.849 33.94 39.8205 34.2039 40.8962 34.2061C41.5051 34.2075 41.9984 34.7022 41.997 35.3112C41.9955 35.9197 41.5022 36.4119 40.894 36.4119ZM46.5602 34.6261C46.1782 34.6261 45.807 34.4272 45.6031 34.0721C45.3 33.544 45.4817 32.8698 46.0102 32.5664C46.7519 32.1406 47.4729 31.6738 48.1895 31.2107L51.0309 29.3696C51.5421 29.0389 52.225 29.1847 52.556 29.6963C52.8871 30.2075 52.7413 30.8904 52.23 31.2214L49.3879 33.0622C48.639 33.5472 47.8836 34.0341 47.1088 34.4793C46.9358 34.5787 46.7469 34.6261 46.5602 34.6261ZM56.6777 28.1306C56.3165 28.1306 55.9625 27.9535 55.7514 27.6276C55.4204 27.1167 55.5661 26.4334 56.0767 26.102L57.0963 25.4425C58.1713 24.746 59.2835 24.0254 60.5861 23.5827C60.981 23.4484 61.3846 23.3436 61.7924 23.2621C62.3906 23.1425 62.9708 23.5296 63.09 24.1274C63.2092 24.7248 62.8221 25.3057 62.2247 25.4249C61.9102 25.4877 61.6 25.5682 61.2955 25.6716C60.2529 26.0259 59.2577 26.6707 58.2948 27.294L57.2773 27.9532C57.0913 28.0731 56.8838 28.1306 56.6777 28.1306ZM79.935 26.5892C79.3368 26.5892 78.8457 26.1103 78.8327 25.5089C78.8205 24.9 79.3038 24.3963 79.9127 24.3837C81.901 24.3424 83.6696 23.7931 84.8932 22.837C85.3728 22.4622 86.0658 22.5466 86.4413 23.0266C86.8169 23.5066 86.7314 24.1999 86.2517 24.5747C84.6548 25.8231 82.4202 26.5383 79.9587 26.5889C79.9508 26.5892 79.9429 26.5892 79.935 26.5892ZM73.9736 25.9135C73.9112 25.9135 73.8487 25.9085 73.7855 25.8977C73.3719 25.8267 72.9576 25.757 72.5447 25.6935C71.0281 25.4604 69.4822 25.3046 67.9505 25.231C67.3423 25.2019 66.8727 24.6849 66.9022 24.0767C66.9316 23.4682 67.4486 22.9918 68.0568 23.028C69.6645 23.1052 71.2874 23.2686 72.88 23.5134C73.3065 23.5791 73.7324 23.6502 74.1589 23.7235C74.7592 23.8269 75.162 24.397 75.0593 24.9973C74.9667 25.5344 74.5007 25.9135 73.9736 25.9135Z" fill="#51504F"/>
<path d="M18.6371 39.2979C18.5502 39.2979 18.4612 39.2874 18.3729 39.2655C17.2218 38.9823 16.1936 38.4958 15.3175 37.8197C14.835 37.4478 14.746 36.7552 15.1179 36.273C15.4891 35.7901 16.1835 35.7007 16.6646 36.0734C17.2965 36.5606 18.049 36.9143 18.8999 37.1236C19.4916 37.269 19.8528 37.8668 19.7078 38.4581C19.5835 38.9611 19.1333 39.2979 18.6371 39.2979Z" fill="#51504F"/>
<path d="M93.1709 12.2217C93.1709 15.0718 89.2367 21.0514 87.3667 23.7326C86.8972 24.4057 85.9055 24.4057 85.436 23.7326C83.566 21.0514 79.6318 15.0718 79.6318 12.2217C79.6318 8.48297 82.6627 5.45215 86.4014 5.45215C90.1401 5.45215 93.1709 8.48297 93.1709 12.2217Z" fill="#B53016"/>
<path d="M86.4021 17.2832C89.1976 17.2832 91.4639 15.017 91.4639 12.2214C91.4639 9.4259 89.1976 7.15967 86.4021 7.15967C83.6066 7.15967 81.3403 9.4259 81.3403 12.2214C81.3403 15.017 83.6066 17.2832 86.4021 17.2832Z" fill="#912010"/>
<path d="M86.402 15.8698C88.417 15.8698 90.0505 14.2363 90.0505 12.2213C90.0505 10.2063 88.417 8.57275 86.402 8.57275C84.3869 8.57275 82.7534 10.2063 82.7534 12.2213C82.7534 14.2363 84.3869 15.8698 86.402 15.8698Z" fill="white"/>
<path d="M25.1692 20.9169C25.1692 24.7778 19.8397 32.8779 17.3066 36.51C16.6706 37.4219 15.3272 37.4219 14.6912 36.51C12.158 32.8779 6.82861 24.7778 6.82861 20.9169C6.82861 15.8523 10.9343 11.7466 15.9989 11.7466C21.0635 11.7466 25.1692 15.8523 25.1692 20.9169Z" fill="#B53016"/>
<path d="M15.999 27.7743C19.7862 27.7743 22.8563 24.7041 22.8563 20.9169C22.8563 17.1297 19.7862 14.0596 15.999 14.0596C12.2117 14.0596 9.1416 17.1297 9.1416 20.9169C9.1416 24.7041 12.2117 27.7743 15.999 27.7743Z" fill="#912010"/>
<path d="M15.9993 25.8584C18.7282 25.8584 20.9405 23.6462 20.9405 20.9173C20.9405 18.1883 18.7282 15.9761 15.9993 15.9761C13.2703 15.9761 11.0581 18.1883 11.0581 20.9173C11.0581 23.6462 13.2703 25.8584 15.9993 25.8584Z" fill="white"/>
</svg>
