<svg width="62" height="54" viewBox="0 0 62 54" fill="none" xmlns="http://www.w3.org/2000/svg">
<circle cx="30.5" cy="27" r="27" fill="white"/>
<g filter="url(#filter0_d_1514_121224)">
<path d="M14.4498 33.3038C15.4565 33.3038 16.2726 32.4877 16.2726 31.481C16.2726 30.4743 15.4565 29.6582 14.4498 29.6582C13.443 29.6582 12.627 30.4743 12.627 31.481C12.627 32.4877 13.443 33.3038 14.4498 33.3038Z" fill="url(#paint0_linear_1514_121224)"/>
<path d="M21.1453 35.0016C22.3603 35.0016 23.3453 34.0166 23.3453 32.8016C23.3453 31.5865 22.3603 30.6016 21.1453 30.6016C19.9303 30.6016 18.9453 31.5865 18.9453 32.8016C18.9453 34.0166 19.9303 35.0016 21.1453 35.0016Z" fill="url(#paint1_linear_1514_121224)"/>
<path d="M14.4497 32.2979C14.9009 32.2979 15.2667 31.9322 15.2667 31.481C15.2667 31.0298 14.9009 30.6641 14.4497 30.6641C13.9986 30.6641 13.6328 31.0298 13.6328 31.481C13.6328 31.9322 13.9986 32.2979 14.4497 32.2979Z" fill="white"/>
<path d="M21.1433 33.9937C21.8028 33.9937 22.3375 33.4591 22.3375 32.7996C22.3375 32.1401 21.8028 31.6055 21.1433 31.6055C20.4838 31.6055 19.9492 32.1401 19.9492 32.7996C19.9492 33.4591 20.4838 33.9937 21.1433 33.9937Z" fill="white"/>
<path d="M47.1333 33.3038C48.1401 33.3038 48.9561 32.4877 48.9561 31.481C48.9561 30.4743 48.1401 29.6582 47.1333 29.6582C46.1266 29.6582 45.3105 30.4743 45.3105 31.481C45.3105 32.4877 46.1266 33.3038 47.1333 33.3038Z" fill="url(#paint2_linear_1514_121224)"/>
<path d="M40.4383 35.0016C41.6533 35.0016 42.6383 34.0166 42.6383 32.8016C42.6383 31.5865 41.6533 30.6016 40.4383 30.6016C39.2233 30.6016 38.2383 31.5865 38.2383 32.8016C38.2383 34.0166 39.2233 35.0016 40.4383 35.0016Z" fill="url(#paint3_linear_1514_121224)"/>
<path d="M47.1333 32.2979C47.5845 32.2979 47.9503 31.9322 47.9503 31.481C47.9503 31.0298 47.5845 30.6641 47.1333 30.6641C46.6822 30.6641 46.3164 31.0298 46.3164 31.481C46.3164 31.9322 46.6822 32.2979 47.1333 32.2979Z" fill="white"/>
<path d="M40.4383 33.9937C41.0978 33.9937 41.6324 33.4591 41.6324 32.7996C41.6324 32.1401 41.0978 31.6055 40.4383 31.6055C39.7788 31.6055 39.2441 32.1401 39.2441 32.7996C39.2441 33.4591 39.7788 33.9937 40.4383 33.9937Z" fill="white"/>
<path d="M28.3635 32.2379L9.27562 29.3384C8.8296 29.2707 8.5 28.8872 8.5 28.4361C8.5 27.9321 8.90862 27.5234 9.41268 27.5234H28.3635V32.2379Z" fill="#31513C"/>
<path d="M33.2207 32.2379L52.3086 29.3384C52.7546 29.2707 53.0842 28.8872 53.0842 28.4361C53.0842 27.9321 52.6756 27.5234 52.1715 27.5234H33.2207V32.2379Z" fill="#31513C"/>
<path d="M32.5761 21.5464H29.0014C28.832 21.5464 28.7011 21.393 28.7308 21.2262C29.0912 19.2032 29.7088 17.1836 30.5305 15.1674C30.6226 14.9414 30.9501 14.9453 31.0389 15.1726C31.8619 17.2796 32.4915 19.3085 32.8468 21.2262C32.8778 21.3935 32.7462 21.5464 32.5761 21.5464Z" fill="#31513C"/>
<path d="M27.3491 22.1412V23.9902C23.7053 24.0381 20.1707 23.4023 16.7363 22.1412C20.4666 21.8072 24.0281 21.7659 27.3491 22.1412Z" fill="#31513C"/>
<path d="M34.2344 22.1412V23.9902C37.8782 24.0381 41.4128 23.4023 44.8471 22.1412C41.1169 21.8072 37.5554 21.7659 34.2344 22.1412Z" fill="#31513C"/>
<path d="M37.9887 25.489C37.9887 28.8839 34.7667 34.9956 30.7922 34.9956C26.8177 34.9956 23.5957 28.8839 23.5957 25.489C23.5957 22.094 26.8177 19.3418 30.7922 19.3418C34.7667 19.3418 37.9887 22.094 37.9887 25.489Z" fill="url(#paint4_linear_1514_121224)"/>
<path d="M30.7901 30.8047C31.5752 30.8115 32.3531 30.8742 33.1382 31.152C32.3531 31.4298 31.5752 31.4926 30.7901 31.4994C30.0122 31.4854 29.2272 31.423 28.4492 31.152C29.2272 30.881 30.0122 30.8186 30.7901 30.8047Z" fill="#F2F9FC"/>
<path d="M30.791 33.2786C31.5353 33.2786 32.1387 33.1231 32.1387 32.9313C32.1387 32.7395 31.5353 32.584 30.791 32.584C30.0467 32.584 29.4434 32.7395 29.4434 32.9313C29.4434 33.1231 30.0467 33.2786 30.791 33.2786Z" fill="#F2F9FC"/>
<path d="M30.7904 29.722C29.7624 29.7081 28.7273 29.6457 27.6992 29.3747C28.7273 29.0969 29.7624 29.0345 30.7904 29.0273C31.8255 29.0345 32.8536 29.0969 33.8886 29.3747C32.8536 29.6457 31.8255 29.7081 30.7904 29.722Z" fill="#F2F9FC"/>
<path d="M35.9033 25.4896V25.6772C35.8686 26.2606 35.3891 26.7192 34.7988 26.7192H26.7823C26.1987 26.7192 25.7125 26.2606 25.6847 25.6772C25.6847 25.6148 25.6777 25.552 25.6777 25.4896C25.6777 23.2459 27.9702 21.4258 30.7905 21.4258C33.6109 21.4258 35.9033 23.2459 35.9033 25.4896Z" fill="white"/>
<path d="M30.2832 20.9922H31.296V27.447H30.2832V20.9922Z" fill="url(#paint5_linear_1514_121224)"/>
</g>
<defs>
<filter id="filter0_d_1514_121224" x="0.318184" y="8.45455" width="60.9476" height="36.3656" filterUnits="userSpaceOnUse" color-interpolation-filters="sRGB">
<feFlood flood-opacity="0" result="BackgroundImageFix"/>
<feColorMatrix in="SourceAlpha" type="matrix" values="0 0 0 0 0 0 0 0 0 0 0 0 0 0 0 0 0 0 127 0" result="hardAlpha"/>
<feOffset dy="1.63636"/>
<feGaussianBlur stdDeviation="4.09091"/>
<feComposite in2="hardAlpha" operator="out"/>
<feColorMatrix type="matrix" values="0 0 0 0 0.772549 0 0 0 0 0.854902 0 0 0 0 0.8 0 0 0 1 0"/>
<feBlend mode="normal" in2="BackgroundImageFix" result="effect1_dropShadow_1514_121224"/>
<feBlend mode="normal" in="SourceGraphic" in2="effect1_dropShadow_1514_121224" result="shape"/>
</filter>
<linearGradient id="paint0_linear_1514_121224" x1="14.4498" y1="29.6582" x2="14.4498" y2="33.3038" gradientUnits="userSpaceOnUse">
<stop stop-color="#6DA37F"/>
<stop offset="1" stop-color="#C5DACC"/>
</linearGradient>
<linearGradient id="paint1_linear_1514_121224" x1="21.1453" y1="30.6016" x2="21.1453" y2="35.0016" gradientUnits="userSpaceOnUse">
<stop stop-color="#6DA37F"/>
<stop offset="1" stop-color="#C5DACC"/>
</linearGradient>
<linearGradient id="paint2_linear_1514_121224" x1="47.1333" y1="29.6582" x2="47.1333" y2="33.3038" gradientUnits="userSpaceOnUse">
<stop stop-color="#6DA37F"/>
<stop offset="1" stop-color="#C5DACC"/>
</linearGradient>
<linearGradient id="paint3_linear_1514_121224" x1="40.4383" y1="30.6016" x2="40.4383" y2="35.0016" gradientUnits="userSpaceOnUse">
<stop stop-color="#6DA37F"/>
<stop offset="1" stop-color="#C5DACC"/>
</linearGradient>
<linearGradient id="paint4_linear_1514_121224" x1="30.7922" y1="19.3418" x2="30.7922" y2="34.9956" gradientUnits="userSpaceOnUse">
<stop stop-color="#6DA37F"/>
<stop offset="1" stop-color="#C5DACC"/>
</linearGradient>
<linearGradient id="paint5_linear_1514_121224" x1="30.7896" y1="20.9922" x2="30.7896" y2="27.447" gradientUnits="userSpaceOnUse">
<stop stop-color="#77A987"/>
<stop offset="1" stop-color="#98BEA4"/>
</linearGradient>
</defs>
</svg>
