<svg width="55" height="54" viewBox="0 0 55 54" fill="none" xmlns="http://www.w3.org/2000/svg">
<circle cx="27.5" cy="27" r="27" fill="white"/>
<g filter="url(#filter0_d_1514_121214)">
<path d="M35.2346 33.0683L31.6934 20.0732L22.7821 16.5845C22.6882 16.5476 22.5896 16.527 22.4902 16.5234L20.347 22.3733L19.9473 23.4736L22.4902 34.745L31.4015 38.2337C31.4954 38.2706 31.594 38.2912 31.6934 38.2948L34.1758 37.1572L35.3262 33.4032L35.2346 33.0683Z" fill="#CED1CF"/>
<path d="M22.4902 16.5225V34.744L13.6691 37.3596C13.0868 37.5346 12.5 37.098 12.5 36.4902V20.1425C12.5 19.7412 12.7628 19.3876 13.1473 19.2724L22.1899 16.5594C22.2814 16.5322 22.3765 16.5194 22.4708 16.5218C22.4775 16.5218 22.4836 16.5218 22.4902 16.5225Z" fill="white"/>
<path d="M41.6836 18.3263V34.674C41.6836 35.0754 41.4208 35.4289 41.0363 35.5441L31.9937 38.2571C31.9332 38.2754 31.8715 38.2869 31.8097 38.2917C31.7709 38.2952 31.7321 38.2959 31.6934 38.294V20.0725L40.5145 17.4569C41.0968 17.2819 41.6836 17.7185 41.6836 18.3263Z" fill="white"/>
<path d="M35.8926 27.4074L32.6751 35.7865L31.7009 36.4234L31.6536 36.4047L22.4893 32.8469L21.0458 31.7261L17.4941 24.1184L20.1958 20.0086L22.4893 18.3949H22.49C22.5165 18.3544 31.6924 21.9678 31.6924 21.9678V21.9686H31.6931C31.7451 22.0102 32.8125 22.618 33.3139 22.9032L35.8926 27.4074Z" fill="url(#paint0_linear_1514_121214)"/>
<path d="M14.3164 20.8169V35.2684L22.4902 32.8461V18.3945L14.3164 20.8169Z" fill="url(#paint1_linear_1514_121214)"/>
<path d="M31.6934 21.9692V36.4208L39.8672 33.9984V19.5469L31.6934 21.9692Z" fill="url(#paint2_linear_1514_121214)"/>
<path d="M31.6941 29.152L22.836 25.6644C22.727 25.61 22.6182 25.5918 22.491 25.5918L21.8477 27.1433L22.491 27.4808L31.349 30.9682C31.4581 31.0228 31.5851 31.041 31.6941 31.041L32.4509 30.3599L31.6941 29.152Z" fill="#31513C"/>
<path d="M22.1996 25.6462C22.2904 25.61 22.3994 25.5918 22.4902 25.5918V27.4808L22.4538 27.4626L18.5667 28.7705C18.2035 28.8795 17.9492 29.2428 17.9492 29.6241V31.9492C17.9492 32.4577 17.5498 32.8574 17.041 32.8574C16.5323 32.8574 16.1328 32.4577 16.1328 31.9492V29.6241C16.1328 28.4436 16.8776 27.4082 18.0039 27.0449L22.1996 25.6462Z" fill="#567E64"/>
<path d="M38.0508 27.4082V28.3164C38.0508 29.8239 36.8339 31.041 35.3262 31.041H31.6934V29.152L31.875 29.2246H35.3262C35.8349 29.2246 36.2344 28.8249 36.2344 28.3164V27.4082C36.2344 26.8995 36.6338 26.5 37.1426 26.5C37.6513 26.5 38.0508 26.8995 38.0508 27.4082Z" fill="#567E64"/>
<path d="M17.041 31.041C14.5345 31.041 12.5 33.0755 12.5 35.582C12.5 36.5084 12.7725 37.4166 13.3718 38.252L16.3689 41.6911C16.5323 41.891 16.7868 42 17.041 42C17.2953 42 17.5498 41.891 17.7132 41.6911L20.7646 38.1794C21.3096 37.4166 21.582 36.5084 21.582 35.582C21.582 33.0755 19.5476 31.041 17.041 31.041ZM17.041 36.4902C16.5323 36.4902 16.1328 36.0905 16.1328 35.582C16.1328 35.0733 16.5323 34.6738 17.041 34.6738C17.5498 34.6738 17.9492 35.0733 17.9492 35.582C17.9492 36.0905 17.5498 36.4902 17.041 36.4902Z" fill="#6DA37F"/>
<path d="M37.1419 11C36.5606 11 35.9612 11.0726 35.3619 11.236C33.4909 11.7627 31.9108 13.2402 31.2204 15.0384C30.4576 17.0547 30.7119 19.198 31.8017 20.8874L36.3792 27.8985C36.5606 28.171 36.8512 28.3164 37.1419 28.3164C37.4326 28.3164 37.7233 28.171 37.9047 27.8985L42.4821 20.8874C43.1361 19.8519 43.4993 18.653 43.4993 17.418C43.4993 13.9124 40.6475 11 37.1419 11ZM37.1419 20.1426C35.6342 20.1426 34.4173 18.9255 34.4173 17.418C34.4173 15.9102 35.6342 14.6328 37.1419 14.6328C38.6497 14.6328 39.8665 15.9102 39.8665 17.418C39.8665 18.9255 38.6497 20.1426 37.1419 20.1426Z" fill="#6DA37F"/>
<circle cx="37" cy="17.5" r="3.5" fill="white"/>
<circle cx="17" cy="35.5" r="2.5" fill="white"/>
</g>
<defs>
<filter id="filter0_d_1514_121214" x="4.31818" y="4.45455" width="47.3636" height="47.3636" filterUnits="userSpaceOnUse" color-interpolation-filters="sRGB">
<feFlood flood-opacity="0" result="BackgroundImageFix"/>
<feColorMatrix in="SourceAlpha" type="matrix" values="0 0 0 0 0 0 0 0 0 0 0 0 0 0 0 0 0 0 127 0" result="hardAlpha"/>
<feOffset dy="1.63636"/>
<feGaussianBlur stdDeviation="4.09091"/>
<feComposite in2="hardAlpha" operator="out"/>
<feColorMatrix type="matrix" values="0 0 0 0 0.772549 0 0 0 0 0.854902 0 0 0 0 0.8 0 0 0 1 0"/>
<feBlend mode="normal" in2="BackgroundImageFix" result="effect1_dropShadow_1514_121214"/>
<feBlend mode="normal" in="SourceGraphic" in2="effect1_dropShadow_1514_121214" result="shape"/>
</filter>
<linearGradient id="paint0_linear_1514_121214" x1="26.6934" y1="18.3945" x2="26.6934" y2="36.4234" gradientUnits="userSpaceOnUse">
<stop stop-color="#6DA37F"/>
<stop offset="1" stop-color="#C5DACC"/>
</linearGradient>
<linearGradient id="paint1_linear_1514_121214" x1="18.4033" y1="18.3945" x2="18.4033" y2="35.2684" gradientUnits="userSpaceOnUse">
<stop stop-color="#6DA37F"/>
<stop offset="1" stop-color="#C5DACC"/>
</linearGradient>
<linearGradient id="paint2_linear_1514_121214" x1="35.7803" y1="19.5469" x2="35.7803" y2="36.4208" gradientUnits="userSpaceOnUse">
<stop stop-color="#6DA37F"/>
<stop offset="1" stop-color="#C5DACC"/>
</linearGradient>
</defs>
</svg>
