<svg width="54" height="54" viewBox="0 0 54 54" fill="none" xmlns="http://www.w3.org/2000/svg">
<circle cx="27" cy="27" r="27" fill="white"/>
<g filter="url(#filter0_d_1514_121219)">
<path d="M40.2976 32.9754H40.2472C40.1073 33.0762 40.0071 33.1485 39.8673 33.2493C38.201 38.3565 33.8173 42.3624 28.3221 43.4007C28.1998 43.5487 28.1196 43.6457 27.9973 43.7937C27.1766 43.9285 26.3332 43.9983 25.474 43.9983C19.2215 43.9983 13.8416 40.299 11.4006 34.9676C11.5103 34.799 11.6052 34.6547 11.6138 34.6415C9.04626 28.7733 10.4225 22.1619 14.7659 17.8184C16.9657 15.6186 19.7093 14.1903 22.6917 13.6404C22.8145 13.4923 22.8942 13.396 23.0171 13.2486C23.8237 13.12 24.6462 13.0547 25.474 13.0547C26.8565 13.0547 28.2244 13.2373 29.5458 13.5966C28.6335 14.8722 28.0962 16.4333 28.0962 18.1172C28.0962 24.1253 35.2418 28.3897 35.5459 28.5677C35.7538 28.6898 36.0101 28.6898 36.2179 28.5677C36.3839 28.4707 38.5805 27.1606 40.5453 25.0171C41.1476 27.6062 41.0751 30.3789 40.2976 32.9754Z" fill="url(#paint0_linear_1514_121219)"/>
<path d="M21.0248 21.0257L27.001 27.0019V30.9861L21.0248 36.9623L19.0327 34.9703H11.3977C8.84613 29.4019 9.72906 22.3939 14.5332 17.5887C16.8679 15.2547 19.8175 13.7573 23.0168 13.25V19.0337L21.0248 21.0257Z" fill="#31513C"/>
<path d="M40.2984 32.9766C38.6519 38.4927 33.9287 42.8279 27.9961 43.7963V36.9607L31.9803 32.9766H40.2984V32.9766Z" fill="#486853"/>
<path d="M19.7751 24.3164C17.8378 24.3164 16.2617 25.8925 16.2617 27.8298C16.2617 30.5117 19.4224 32.3977 19.5569 32.4767C19.6917 32.5557 19.8586 32.5557 19.9934 32.4767C20.1279 32.3977 23.2885 30.5117 23.2885 27.8298C23.2885 25.8925 21.7124 24.3164 19.7751 24.3164Z" fill="#6DA37F"/>
<path d="M17.0915 13.5781C15.1542 13.5781 13.5781 15.1542 13.5781 17.0915C13.5781 19.7734 16.7388 21.6594 16.8733 21.7384C17.0081 21.8175 17.175 21.8175 17.3098 21.7384C17.4443 21.6594 20.605 19.7734 20.605 17.0915C20.605 15.1543 19.0288 13.5781 17.0915 13.5781Z" fill="#6DA37F"/>
<path d="M31.4079 30.5781C29.4706 30.5781 27.8945 32.1542 27.8945 34.0915C27.8945 36.7734 31.0552 38.6594 31.1898 38.7384C31.3245 38.8175 31.4914 38.8175 31.6262 38.7384C31.7607 38.6594 34.9214 36.7734 34.9214 34.0915C34.9214 32.1543 33.3453 30.5781 31.4079 30.5781Z" fill="#6DA37F"/>
<path d="M35.8818 10C31.4055 10 27.7637 13.6418 27.7637 18.1182C27.7637 24.3149 35.0668 28.6727 35.3777 28.8553C35.689 29.0379 36.0747 29.0379 36.3861 28.8553C36.6969 28.6728 44 24.3149 44 18.1182C44 13.6419 40.3582 10 35.8818 10Z" fill="#5B946E"/>
<circle cx="35.9463" cy="18.0518" r="4.47368" fill="white"/>
<circle cx="19.8422" cy="27.8949" r="1.78947" fill="white"/>
<circle cx="17.1567" cy="17.1567" r="1.78947" fill="white"/>
<circle cx="31.4731" cy="34.1567" r="1.78947" fill="white"/>
</g>
<defs>
<filter id="filter0_d_1514_121219" x="1.81818" y="3.45455" width="50.3636" height="50.3636" filterUnits="userSpaceOnUse" color-interpolation-filters="sRGB">
<feFlood flood-opacity="0" result="BackgroundImageFix"/>
<feColorMatrix in="SourceAlpha" type="matrix" values="0 0 0 0 0 0 0 0 0 0 0 0 0 0 0 0 0 0 127 0" result="hardAlpha"/>
<feOffset dy="1.63636"/>
<feGaussianBlur stdDeviation="4.09091"/>
<feComposite in2="hardAlpha" operator="out"/>
<feColorMatrix type="matrix" values="0 0 0 0 0.772549 0 0 0 0 0.854902 0 0 0 0 0.8 0 0 0 1 0"/>
<feBlend mode="normal" in2="BackgroundImageFix" result="effect1_dropShadow_1514_121219"/>
<feBlend mode="normal" in="SourceGraphic" in2="effect1_dropShadow_1514_121219" result="shape"/>
</filter>
<linearGradient id="paint0_linear_1514_121219" x1="25.635" y1="13.0547" x2="25.635" y2="43.9983" gradientUnits="userSpaceOnUse">
<stop stop-color="#6DA37F"/>
<stop offset="1" stop-color="#C5DACC"/>
</linearGradient>
</defs>
</svg>
