<svg viewBox="0 0 25 24" fill="none" xmlns="http://www.w3.org/2000/svg">
<path opacity="0.4" d="M19.3088 9.021C18.8573 9.021 18.2592 9.011 17.5146 9.011C15.6987 9.011 14.2055 7.508 14.2055 5.675V2.459C14.2055 2.206 14.0036 2 13.753 2H8.46363C5.99517 2 4 4.026 4 6.509V17.284C4 19.889 6.09022 22 8.66958 22H16.5463C19.0058 22 21 19.987 21 17.502V9.471C21 9.217 20.799 9.012 20.5475 9.013C20.1247 9.016 19.6177 9.021 19.3088 9.021Z" fill="currentColor"/>
<path opacity="0.4" d="M16.5842 2.56737C16.2852 2.25637 15.7632 2.47037 15.7632 2.90137V5.53837C15.7632 6.64437 16.6742 7.55437 17.7802 7.55437C18.4772 7.56237 19.4452 7.56437 20.2672 7.56237C20.6882 7.56137 20.9022 7.05837 20.6102 6.75437C19.5552 5.65737 17.6662 3.69137 16.5842 2.56737Z" fill="currentColor"/>
<path fill-rule="evenodd" clip-rule="evenodd" d="M9.47398 11.3874H12.859C13.27 11.3874 13.604 11.0544 13.604 10.6434C13.604 10.2324 13.27 9.89844 12.859 9.89844H9.47398C9.06298 9.89844 8.72998 10.2324 8.72998 10.6434C8.72998 11.0544 9.06298 11.3874 9.47398 11.3874ZM9.47408 16.3816H14.9181C15.3291 16.3816 15.6631 16.0486 15.6631 15.6376C15.6631 15.2266 15.3291 14.8926 14.9181 14.8926H9.47408C9.06308 14.8926 8.73008 15.2266 8.73008 15.6376C8.73008 16.0486 9.06308 16.3816 9.47408 16.3816Z" fill="currentColor"/>
</svg>
