<svg viewBox="0 0 60 60" fill="none" xmlns="http://www.w3.org/2000/svg">
<path opacity="0.4" d="M47.0223 22.5525C45.8936 22.5525 44.3985 22.5275 42.5371 22.5275C37.9975 22.5275 34.2649 18.77 34.2649 14.1875V6.1475C34.2649 5.515 33.7574 5 33.1312 5H19.9084C13.7401 5 8.75 10.065 8.75 16.2725V43.21C8.75 49.7225 13.9777 55 20.4257 55H40.1139C46.2649 55 51.25 49.9675 51.25 43.755V23.6775C51.25 23.0425 50.7451 22.53 50.1163 22.5325C49.0594 22.54 47.7921 22.5525 47.0223 22.5525Z" fill="#E19E00"/>
<path opacity="0.4" d="M40.2107 6.41818C39.4657 5.64068 38.1582 6.17568 38.1582 7.25318V13.8457C38.1582 16.6107 40.4357 18.8857 43.2007 18.8857C44.9432 18.9057 47.3632 18.9107 49.4182 18.9057C50.4707 18.9032 51.0057 17.6457 50.2757 16.8857C47.6382 14.1432 42.9157 9.22818 40.2107 6.41818Z" fill="#E19E00"/>
<path d="M32.3373 32.4633L35.3898 29.4083C36.1173 28.6833 36.1173 27.5058 35.3898 26.7783C34.6623 26.0508 33.4848 26.0508 32.7573 26.7783L29.7048 29.8283L26.6523 26.7783C25.9248 26.0508 24.7448 26.0508 24.0173 26.7783C23.2898 27.5058 23.2898 28.6833 24.0173 29.4083L27.0723 32.4633L24.0173 35.5158C23.2898 36.2433 23.2898 37.4208 24.0173 38.1458C24.3823 38.5108 24.8573 38.6933 25.3348 38.6933C25.8123 38.6933 26.2873 38.5108 26.6523 38.1458L29.7048 35.0958L32.7573 38.1458C33.1198 38.5108 33.5973 38.6933 34.0748 38.6933C34.5498 38.6933 35.0273 38.5108 35.3898 38.1458C36.1173 37.4208 36.1173 36.2433 35.3898 35.5158L32.3373 32.4633Z" fill="#E19E00"/>
</svg>
