<svg viewBox="0 0 17 20" fill="none" xmlns="http://www.w3.org/2000/svg">
<path opacity="0.4" d="M15.3088 7.021C14.8573 7.021 14.2592 7.011 13.5146 7.011C11.6987 7.011 10.2055 5.508 10.2055 3.675V0.459C10.2055 0.206 10.0036 0 9.75304 0H4.46363C1.99517 0 0 2.026 0 4.509V15.284C0 17.889 2.09022 20 4.66958 20H12.5463C15.0058 20 17 17.987 17 15.502V7.471C17 7.217 16.799 7.012 16.5475 7.013C16.1247 7.016 15.6177 7.021 15.3088 7.021Z" fill="#6DA37F"/>
<path opacity="0.4" d="M12.5842 0.56737C12.2852 0.25637 11.7632 0.47037 11.7632 0.90137V3.53837C11.7632 4.64437 12.6742 5.55437 13.7802 5.55437C14.4772 5.56237 15.4452 5.56437 16.2672 5.56237C16.6882 5.56137 16.9022 5.05837 16.6102 4.75437C15.5552 3.65737 13.6662 1.69137 12.5842 0.56737Z" fill="#6DA37F"/>
<path fill-rule="evenodd" clip-rule="evenodd" d="M5.47398 9.38744H8.85898C9.26998 9.38744 9.60398 9.05444 9.60398 8.64344C9.60398 8.23244 9.26998 7.89844 8.85898 7.89844H5.47398C5.06298 7.89844 4.72998 8.23244 4.72998 8.64344C4.72998 9.05444 5.06298 9.38744 5.47398 9.38744ZM5.47408 14.3816H10.9181C11.3291 14.3816 11.6631 14.0486 11.6631 13.6376C11.6631 13.2266 11.3291 12.8926 10.9181 12.8926H5.47408C5.06308 12.8926 4.73008 13.2266 4.73008 13.6376C4.73008 14.0486 5.06308 14.3816 5.47408 14.3816Z" fill="#6DA37F"/>
</svg>
