<svg viewBox="0 0 36 36" fill="none" xmlns="http://www.w3.org/2000/svg">
<path opacity="0.4" d="M28.2132 13.5315C27.536 13.5315 26.6389 13.5165 25.522 13.5165C22.7981 13.5165 20.5583 11.262 20.5583 8.5125V3.6885C20.5583 3.309 20.2538 3 19.8796 3H11.9454C8.24275 3 5.25 6.039 5.25 9.7635V25.926C5.25 29.8335 8.38533 33 12.2544 33H24.0679C27.7587 33 30.75 29.9805 30.75 26.253V14.2065C30.75 13.8255 30.447 13.518 30.0698 13.5195C29.4371 13.524 28.6751 13.5315 28.2132 13.5315Z" fill="#0A8778"/>
<path opacity="0.4" d="M24.1263 3.85105C23.6778 3.38455 22.8948 3.70555 22.8948 4.35205V8.30755C22.8948 9.96655 24.2613 11.3316 25.9188 11.3316C26.9658 11.3436 28.4178 11.3466 29.6508 11.3436C30.2823 11.3421 30.6033 10.5876 30.1653 10.1316C28.5828 8.48605 25.7493 5.53705 24.1263 3.85105Z" fill="#0A8778"/>
<path d="M21.5508 18.3545H18.9588V15.764C18.9588 15.1475 18.4593 14.6465 17.8428 14.6465C17.2263 14.6465 16.7253 15.1475 16.7253 15.764V18.3545H14.1348C13.5183 18.3545 13.0188 18.8555 13.0188 19.472C13.0188 20.0885 13.5183 20.5895 14.1348 20.5895H16.7253V23.1785C16.7253 23.795 17.2263 24.296 17.8428 24.296C18.4593 24.296 18.9588 23.795 18.9588 23.1785V20.5895H21.5508C22.1673 20.5895 22.6683 20.0885 22.6683 19.472C22.6683 18.8555 22.1673 18.3545 21.5508 18.3545Z" fill="#0A8778"/>
</svg>
