<svg viewBox="0 0 25 24" fill="none" xmlns="http://www.w3.org/2000/svg">
<path opacity="0.4" d="M19.3088 9.021C18.8573 9.021 18.2592 9.011 17.5146 9.011C15.6987 9.011 14.2055 7.508 14.2055 5.675V2.459C14.2055 2.206 14.0026 2 13.753 2H8.46363C5.99517 2 4 4.026 4 6.509V17.284C4 19.889 6.09022 22 8.66958 22H16.5453C19.0058 22 21 19.987 21 17.502V9.471C21 9.217 20.798 9.012 20.5465 9.013C20.1247 9.016 19.6168 9.021 19.3088 9.021Z" fill="#64748B"/>
<path opacity="0.4" d="M16.5837 2.56737C16.2847 2.25637 15.7627 2.47037 15.7627 2.90137V5.53837C15.7627 6.64437 16.6737 7.55437 17.7787 7.55437C18.4767 7.56237 19.4447 7.56437 20.2667 7.56237C20.6877 7.56137 20.9017 7.05837 20.6097 6.75437C19.5547 5.65737 17.6657 3.69137 16.5837 2.56737Z" fill="#64748B"/>
<path d="M11.313 16.2485C11.089 16.2485 10.865 16.1635 10.694 15.9925L8.32095 13.6195C7.97895 13.2775 7.97895 12.7235 8.32095 12.3825C8.66295 12.0405 9.21595 12.0395 9.55795 12.3815L11.313 14.1365L15.441 10.0085C15.783 9.66645 16.336 9.66645 16.678 10.0085C17.02 10.3505 17.02 10.9045 16.678 11.2465L11.932 15.9925C11.761 16.1635 11.537 16.2485 11.313 16.2485Z" fill="#64748B"/>
</svg>
