<svg  viewBox="0 0 234 150" fill="none" xmlns="http://www.w3.org/2000/svg">
<g clip-path="url(#clip0_2033_583159)">
<path d="M149.273 1.14917H226.618C229.16 1.14917 231.241 3.22986 231.241 5.77211V18.0291C231.241 20.8788 231.241 20.967 231.241 22.0879V28.3226C231.241 29.4362 231.241 30.3521 231.241 32.3815V34.2497C231.241 36.6305 231.241 37.1876 231.241 38.3085V45.0558C231.241 46.1695 231.241 45.0558 231.241 48.602V145.391C231.241 147.933 229.16 150.014 226.618 150.014H149.273C146.731 150.014 144.65 147.933 144.65 145.391V5.77211C144.65 3.22986 146.731 1.14917 149.273 1.14917Z" fill="#31513C"/>
<path d="M231.504 5.1272H158.222C153.386 5.1272 149.465 9.30787 149.465 14.465V136.456C149.465 141.613 153.386 145.793 158.222 145.793H231.504V136.456V14.465V5.1272Z" fill="url(#paint0_linear_2033_583159)"/>
<path d="M128.846 21.7361H146.408C146.884 21.7361 147.28 21.3478 147.28 20.8643C147.28 20.3881 146.891 19.9924 146.408 19.9924H128.846C128.37 19.9924 127.975 20.3807 127.975 20.8643C127.975 21.3405 128.363 21.7361 128.846 21.7361Z" fill="#31513C"/>
<path d="M133.419 24.8718H146.159C146.641 24.8718 147.031 24.4815 147.031 24C147.031 23.5185 146.641 23.1282 146.159 23.1282H133.419C132.937 23.1282 132.547 23.5185 132.547 24C132.547 24.4815 132.937 24.8718 133.419 24.8718Z" fill="#31513C"/>
<path d="M137.77 17.9048H145.917C146.393 17.9048 146.789 17.5165 146.789 17.033C146.789 16.5568 146.401 16.1611 145.917 16.1611H137.77C137.294 16.1611 136.898 16.5494 136.898 17.033C136.898 17.5092 137.287 17.9048 137.77 17.9048Z" fill="#31513C"/>
<path opacity="0.1" d="M211.075 44.6767C214.17 32.271 206.623 19.7048 194.217 16.6094C181.811 13.514 169.245 21.0615 166.15 33.4673C163.054 45.8731 170.602 58.4393 183.008 61.5347C195.413 64.6301 207.98 57.0825 211.075 44.6767Z" fill="white"/>
<path opacity="0.1" d="M188.623 65.7163C203.335 65.7163 215.262 53.7898 215.262 39.0776C215.262 24.3655 203.335 12.439 188.623 12.439C173.911 12.439 161.984 24.3655 161.984 39.0776C161.984 53.7898 173.911 65.7163 188.623 65.7163Z" fill="white"/>
<path opacity="0.1" d="M217.348 46.2187C221.291 30.3586 211.63 14.3054 195.77 10.3628C179.91 6.42017 163.857 16.0812 159.914 31.9412C155.972 47.8013 165.633 63.8546 181.493 67.7972C197.353 71.7398 213.406 62.0787 217.348 46.2187Z" fill="white"/>
<g style="mix-blend-mode:multiply" opacity="0.46">
<path d="M190.029 58.5372C200.666 58.5372 209.29 49.9137 209.29 39.2762C209.29 28.6386 200.666 20.0151 190.029 20.0151C179.391 20.0151 170.768 28.6386 170.768 39.2762C170.768 49.9137 179.391 58.5372 190.029 58.5372Z" fill="#82ACFE"/>
</g>
<path d="M188.616 58.3389C199.254 58.3389 207.878 49.7155 207.878 39.0779C207.878 28.4403 199.254 19.8169 188.616 19.8169C177.979 19.8169 169.355 28.4403 169.355 39.0779C169.355 49.7155 177.979 58.3389 188.616 58.3389Z" fill="white"/>
<path d="M188.615 55.3281C179.655 55.3281 172.365 48.0384 172.365 39.0782C172.365 30.1181 179.655 22.8284 188.615 22.8284C197.575 22.8284 204.865 30.1181 204.865 39.0782C204.865 48.0384 197.575 55.3281 188.615 55.3281ZM188.615 23.3412C179.941 23.3412 172.878 30.3965 172.878 39.0782C172.878 47.76 179.933 54.8153 188.615 54.8153C197.297 54.8153 204.352 47.76 204.352 39.0782C204.352 30.3965 197.297 23.3412 188.615 23.3412Z" fill="#388923"/>
<path d="M186.587 49.7161C186.192 49.7161 185.811 49.5549 185.54 49.2545L180.345 43.6279C179.81 43.0491 179.847 42.1479 180.426 41.6058C181.005 41.0636 181.906 41.1076 182.448 41.6864L186.287 45.8404L194.427 30.7261C194.8 30.0301 195.665 29.7737 196.361 30.1473C197.057 30.521 197.313 31.3855 196.939 32.0815L187.847 48.9615C187.628 49.3717 187.225 49.6428 186.77 49.7014C186.712 49.7087 186.653 49.7161 186.595 49.7161H186.587Z" fill="#388923"/>
<path d="M187.343 103.871C186.735 102.663 186.149 101.564 185.607 100.589C179.628 89.966 154.404 86.2589 154.404 86.2589C142.703 80.6469 136.022 78.6908 132.227 78.3684C132.175 78.3757 132.117 78.3904 132.066 78.3977C131.699 78.4783 131.304 78.6322 130.93 78.6688C130.842 78.6981 130.761 78.7274 130.674 78.7567C130.124 78.9618 129.611 79.2989 129.062 79.4967C129.025 79.5186 128.996 79.548 128.959 79.5699C128.754 79.7238 128.564 79.8996 128.366 80.0681C128.278 80.1414 128.219 80.1927 128.168 80.2293C128.014 80.4418 127.853 80.7422 127.78 80.8594C127.706 80.9766 127.596 81.211 127.545 81.3136C127.516 81.3722 127.516 81.3869 127.545 81.3136C127.575 81.2477 127.633 81.1085 127.736 80.874C127.618 81.1378 127.494 81.3942 127.384 81.6653C127.23 82.0462 127.098 82.4345 126.981 82.8302C126.944 82.9547 126.835 83.3796 126.813 83.4529C126.732 83.8339 126.666 84.2222 126.607 84.6105C127.084 92.8673 144.425 98.091 144.425 98.091C156.118 103.19 138.513 111.278 138.513 111.278C131.135 122.898 141.37 130.532 141.37 130.532C141.37 130.532 174.068 125.99 176.94 126.539C178.295 126.796 182.874 129.397 187.35 132.063V103.864L187.343 103.871Z" fill="#FFB78A"/>
<path d="M142.101 130.291C142.101 130.291 118.253 135.031 115.103 135.126C111.953 135.229 91.4463 114.715 89.5341 110.517C89.5341 110.517 88.7062 106.399 92.2815 106.605C95.8641 106.81 114.678 123.06 114.678 123.06L138.518 121.016C138.518 121.016 146.094 128.173 142.093 130.283L142.101 130.291Z" fill="#FFB78A"/>
<path d="M144.431 120.173C144.431 120.173 120.584 124.913 117.433 125.008C114.283 125.111 93.7764 104.597 91.8642 100.399C91.8642 100.399 91.0363 96.2813 94.6116 96.4864C98.1942 96.6916 117.008 112.941 117.008 112.941L140.848 110.897C140.848 110.897 148.424 118.055 144.424 120.165L144.431 120.173Z" fill="#FFB78A"/>
<path opacity="0.49" d="M132.335 79.1375C132.335 79.1375 137.676 82.0533 135.06 85.3795C132.445 88.713 127.69 85.1451 127.69 85.1451C127.69 85.1451 127.236 80.0313 132.342 79.1375H132.335Z" fill="white"/>
<path d="M115.711 123.645L115.63 123.587L103.74 114.546C103.623 114.458 103.601 114.297 103.688 114.18C103.776 114.07 103.938 114.048 104.055 114.128L115.872 123.111L141.705 121.455C141.844 121.44 141.969 121.557 141.983 121.697C141.991 121.843 141.881 121.96 141.742 121.975L115.718 123.645H115.711Z" fill="#126D8A"/>
<path d="M139.58 90.8082C139.536 90.8082 139.484 90.7936 139.448 90.7716C139.323 90.6983 139.286 90.5371 139.36 90.4126L141.499 86.8446C141.572 86.7201 141.733 86.6835 141.858 86.7567C141.983 86.83 142.019 86.9912 141.946 87.1157L139.807 90.6837C139.755 90.7642 139.675 90.8082 139.587 90.8082H139.58Z" fill="#126D8A"/>
<path d="M141.245 91.2846C141.194 91.2846 141.143 91.2699 141.099 91.2406C140.982 91.16 140.945 90.9989 141.026 90.8816L143.407 87.3137C143.487 87.1965 143.648 87.1599 143.766 87.2404C143.883 87.321 143.92 87.4822 143.839 87.5994L141.458 91.1674C141.407 91.2406 141.326 91.2846 141.245 91.2846Z" fill="#126D8A"/>
<path d="M113.41 134.342C113.41 134.342 113.344 134.342 113.314 134.32C113.182 134.269 113.117 134.115 113.168 133.983L114.596 130.415C114.648 130.283 114.802 130.217 114.933 130.268C115.065 130.32 115.131 130.474 115.08 130.605L113.651 134.173C113.607 134.276 113.512 134.335 113.41 134.335V134.342Z" fill="#126D8A"/>
<path d="M115.103 135.389C115.103 135.389 115.037 135.389 115.008 135.375C114.876 135.323 114.81 135.177 114.861 135.038L116.26 131.374C116.312 131.243 116.466 131.177 116.598 131.228C116.729 131.279 116.795 131.426 116.744 131.565L115.345 135.228C115.308 135.331 115.205 135.397 115.103 135.397V135.389Z" fill="#126D8A"/>
<path d="M98.1871 120.305C98.1285 120.305 98.0699 120.283 98.0259 120.246C97.916 120.158 97.8941 119.99 97.982 119.88L99.8868 117.499C99.9748 117.389 100.143 117.367 100.253 117.455C100.363 117.543 100.385 117.711 100.297 117.821L98.3923 120.202C98.341 120.268 98.2677 120.298 98.1871 120.298V120.305Z" fill="#126D8A"/>
<path d="M99.3823 121.975C99.3383 121.975 99.287 121.96 99.2504 121.938C99.1259 121.865 99.0892 121.704 99.1625 121.579L100.591 119.198C100.664 119.074 100.826 119.037 100.95 119.11C101.075 119.184 101.111 119.345 101.038 119.469L99.6094 121.85C99.5581 121.931 99.4775 121.975 99.3896 121.975H99.3823Z" fill="#126D8A"/>
<path d="M100.092 109.125C100.026 109.125 99.9602 109.103 99.909 109.052C99.8064 108.949 99.8064 108.788 99.909 108.685L101.096 107.498C101.198 107.396 101.36 107.396 101.462 107.498C101.565 107.601 101.565 107.762 101.462 107.865L100.275 109.052C100.224 109.103 100.158 109.125 100.092 109.125Z" fill="#126D8A"/>
<path d="M101.044 110.319C100.971 110.319 100.905 110.289 100.853 110.231C100.758 110.121 100.766 109.96 100.875 109.865L103.256 107.725C103.366 107.63 103.528 107.637 103.623 107.747C103.718 107.857 103.711 108.018 103.601 108.114L101.22 110.253C101.168 110.297 101.11 110.319 101.044 110.319Z" fill="#126D8A"/>
<path d="M115.791 123.638C115.791 123.638 115.733 123.638 115.704 123.624C115.572 123.572 115.498 123.426 115.55 123.294L117.213 118.774C117.264 118.642 117.411 118.568 117.542 118.62C117.674 118.671 117.748 118.818 117.696 118.949L116.033 123.47C115.997 123.572 115.894 123.638 115.791 123.638Z" fill="#126D8A"/>
<path d="M117.454 122.92C117.454 122.92 117.388 122.92 117.351 122.898C117.219 122.839 117.161 122.686 117.212 122.554L118.64 119.227C118.699 119.096 118.853 119.037 118.985 119.088C119.117 119.147 119.175 119.301 119.124 119.433L117.695 122.759C117.651 122.854 117.556 122.913 117.454 122.913V122.92Z" fill="#126D8A"/>
<path d="M116.027 115.55C116.027 115.55 115.961 115.55 115.924 115.528C115.793 115.469 115.727 115.323 115.785 115.191L116.767 112.854C116.818 112.722 116.972 112.656 117.104 112.714C117.236 112.773 117.302 112.92 117.243 113.051L116.261 115.389C116.217 115.491 116.122 115.55 116.02 115.55H116.027Z" fill="#126D8A"/>
<path opacity="0.49" d="M94.8598 104.348C94.8598 104.348 99.3801 101.733 92.9549 97.9229L91.8633 100.406C91.8633 100.406 92.9549 102.685 94.8524 104.348H94.8598Z" fill="white"/>
<path opacity="0.49" d="M92.4789 114.341C92.4789 114.341 96.9993 111.725 90.5741 107.916L89.4824 110.399C89.4824 110.399 90.5741 112.678 92.4716 114.341H92.4789Z" fill="white"/>
<path d="M188.052 132.284C186.476 132.284 185.18 130.994 185.18 129.412V76.6251C185.18 75.0499 186.469 73.7532 188.052 73.7532C189.627 73.7532 190.924 75.0426 190.924 76.6251V129.412C190.924 130.987 189.634 132.284 188.052 132.284Z" fill="#0A8778"/>
<path d="M196.981 124.283H192.52V128.745H196.981V124.283Z" fill="#0A8778"/>
<path d="M197.897 118.561H195.047V121.411H197.897V118.561Z" fill="#0A8778"/>
<path d="M202.36 121.309H199.51V124.159H202.36V121.309Z" fill="#0A8778"/>
<path d="M5.67763 -0.316895H83.0221C85.5643 -0.316895 87.645 1.76379 87.645 4.30604V16.563C87.645 19.4128 87.645 19.5009 87.645 20.6219V26.8566C87.645 27.9702 87.645 28.886 87.645 30.9154V32.7836C87.645 35.1645 87.645 35.7215 87.645 36.8424V43.5898C87.645 44.7034 87.645 43.5898 87.645 47.136V143.925C87.645 146.467 85.5643 148.548 83.0221 148.548H5.67763C3.13538 148.548 1.05469 146.467 1.05469 143.925V4.30604C1.05469 1.76379 3.13538 -0.316895 5.67763 -0.316895Z" fill="#31513C"/>
<path d="M72.6912 4H1C1.00064 7.5 1.00064 8.16088 1.00064 13.2936V134.706C1.00064 139.839 -4.14147 144 1 144H72.6912C77.8327 144 82.0006 139.839 82.0006 134.706V13.2936C82.0006 8.16088 77.8327 4 72.6912 4Z" fill="url(#paint1_linear_2033_583159)"/>
<path d="M113.788 90.3397H85.7791C85.2589 90.3397 84.834 89.9147 84.834 89.3946C84.834 88.8744 85.2589 88.4495 85.7791 88.4495H113.788C114.308 88.4495 114.733 88.8744 114.733 89.3946C114.733 89.9147 114.308 90.3397 113.788 90.3397Z" fill="#31513C"/>
<path d="M106.71 93.7459H86.1599C85.6398 93.7459 85.2148 93.321 85.2148 92.8008C85.2148 92.2806 85.6398 91.8557 86.1599 91.8557H106.71C107.231 91.8557 107.655 92.2806 107.655 92.8008C107.655 93.321 107.231 93.7459 106.71 93.7459Z" fill="#31513C"/>
<path d="M99.9607 86.1778H86.5389C86.0187 86.1778 85.5938 85.7529 85.5938 85.2327C85.5938 84.7125 86.0187 84.2876 86.5389 84.2876H99.9607C100.481 84.2876 100.906 84.7125 100.906 85.2327C100.906 85.7529 100.481 86.1778 99.9607 86.1778Z" fill="#31513C"/>
<path opacity="0.1" d="M61.2246 118.686C70.2658 109.645 70.2658 94.9864 61.2246 85.9452C52.1835 76.9041 37.5249 76.9041 28.4837 85.9452C19.4426 94.9864 19.4426 109.645 28.4837 118.686C37.5249 127.727 52.1835 127.727 61.2246 118.686Z" fill="white"/>
<path opacity="0.1" d="M44.8574 128.95C59.5695 128.95 71.4961 117.024 71.4961 102.312C71.4961 87.5996 59.5695 75.6731 44.8574 75.6731C30.1453 75.6731 18.2188 87.5996 18.2188 102.312C18.2188 117.024 30.1453 128.95 44.8574 128.95Z" fill="white"/>
<path opacity="0.1" d="M65.7802 123.24C77.3363 111.683 77.3363 92.9474 65.7802 81.3913C54.2241 69.8352 35.488 69.8352 23.9319 81.3913C12.3759 92.9474 12.3759 111.683 23.9319 123.24C35.488 134.796 54.2241 134.796 65.7802 123.24Z" fill="white"/>
<g style="mix-blend-mode:multiply" opacity="0.46">
<path d="M46.2708 121.771C56.9083 121.771 65.5318 113.147 65.5318 102.51C65.5318 91.872 56.9083 83.2485 46.2708 83.2485C35.6332 83.2485 27.0098 91.872 27.0098 102.51C27.0098 113.147 35.6332 121.771 46.2708 121.771Z" fill="#82ACFE"/>
</g>
<path d="M44.8567 121.572C55.4943 121.572 64.1177 112.949 64.1177 102.311C64.1177 91.6737 55.4943 83.0503 44.8567 83.0503C34.2192 83.0503 25.5957 91.6737 25.5957 102.311C25.5957 112.949 34.2192 121.572 44.8567 121.572Z" fill="white"/>
<path d="M44.8553 118.569C35.8952 118.569 28.6055 111.279 28.6055 102.312C28.6055 93.3442 35.8952 86.0618 44.8553 86.0618C53.8155 86.0618 61.1052 93.3515 61.1052 102.312C61.1052 111.272 53.8155 118.569 44.8553 118.569ZM44.8553 86.5819C36.1809 86.5819 29.1183 93.6372 29.1183 102.319C29.1183 111.001 36.1736 118.056 44.8553 118.056C53.5371 118.056 60.5924 111.001 60.5924 102.319C60.5924 93.6372 53.5371 86.5819 44.8553 86.5819Z" fill="#126D8A"/>
<path d="M56.0131 100.641L46.2983 94.4575C45.617 94.0252 44.7158 94.223 44.2836 94.9044C43.8513 95.5857 44.0491 96.4869 44.7305 96.9191L50.2179 100.414H34.4736C33.6677 100.414 33.0156 101.066 33.0156 101.872C33.0156 102.678 33.6677 103.33 34.4736 103.33H51.229L45.8954 107.821C45.28 108.341 45.1994 109.257 45.7195 109.872C46.0053 110.216 46.4229 110.392 46.8331 110.392C47.1628 110.392 47.4998 110.282 47.7709 110.048L56.1596 102.985C56.5113 102.685 56.7091 102.238 56.6725 101.777C56.6431 101.315 56.3941 100.89 55.9984 100.641H56.0131Z" fill="#126D8A"/>
<path d="M82.2516 56.7773C72.0459 49.5902 90.5084 45.2969 90.5084 45.2969C99.8641 35.6115 91.5487 26.2777 91.5487 26.2777C91.5487 26.2777 59.32 24.2117 56.6825 23.12C55.1513 22.49 49.6199 17.5007 45.2461 13.4272V50.0737C51.9863 59.4808 70.3682 66.1478 70.3682 66.1478C80.4786 73.8185 86.4935 77.0128 90.0761 78.0604C90.1274 78.0604 90.186 78.0604 90.2373 78.0604C90.6036 78.0604 91.0139 77.9872 91.3802 78.0238C91.4681 78.0092 91.556 78.0018 91.644 77.9872C92.2154 77.8993 92.7722 77.6795 93.329 77.5916C93.3657 77.5769 93.4023 77.5622 93.4389 77.5403C93.666 77.4304 93.8785 77.3058 94.0983 77.1813C94.1935 77.13 94.2668 77.0934 94.3254 77.0641C94.5159 76.8955 94.7284 76.6318 94.8236 76.5366C94.9188 76.4413 95.0727 76.2362 95.1313 76.1483C95.0874 76.2069 95.0068 76.3241 94.8602 76.5366C95.0214 76.3021 95.1973 76.0823 95.3511 75.8479C95.5709 75.5109 95.776 75.1665 95.9665 74.8149C96.0251 74.705 96.2156 74.3167 96.2522 74.2507C96.4061 73.8991 96.5453 73.5401 96.6772 73.1811C97.8421 65.1734 82.2442 56.7627 82.2442 56.7627L82.2516 56.7773Z" fill="#FFB78A"/>
<path d="M87.3732 45.9123C87.3732 45.9123 104.385 50.3961 110.283 50.4986L109.426 68.1332C109.426 68.1332 112.129 72.6462 115.858 69.7597C119.587 66.8731 124.606 44.2273 122.298 42.1979C119.99 40.1685 91.9814 31.8091 91.9814 31.8091C91.9814 31.8091 83.4243 43.1576 87.3658 45.9123H87.3732Z" fill="#FFB78A"/>
<path d="M89.2793 40.9449C89.2793 40.9449 106.855 40.1977 112.518 38.5492L116.922 55.649C116.922 55.649 120.834 59.1583 123.552 55.2973C126.263 51.4363 124.358 28.3216 121.552 27.0615C118.746 25.8013 89.521 26.1091 89.521 26.1091C89.521 26.1091 84.7076 39.487 89.2866 40.9449H89.2793Z" fill="#FFB78A"/>
<path d="M44.1434 70.2571C42.5683 70.2571 41.2715 68.9677 41.2715 67.3852V14.5987C41.2715 13.0236 42.5609 11.7268 44.1434 11.7268C45.7186 11.7268 47.0154 13.0162 47.0154 14.5987V67.3852C47.0154 68.9604 45.7259 70.2571 44.1434 70.2571Z" fill="#0A8778"/>
<path d="M122.211 43.0694C123.002 45.238 120.856 55.6487 120.226 58.5646C120.38 58.6965 120.526 58.8357 120.665 58.9749C121.207 56.4913 123.567 45.2966 122.695 42.8862C121.728 40.2194 95.089 32.4315 92.0485 31.5523C91.9093 31.5084 91.7701 31.5889 91.7262 31.7281C91.6895 31.8673 91.7628 32.0065 91.902 32.0505C103.719 35.4792 121.537 41.2378 122.204 43.0694H122.211Z" fill="#126D8A"/>
<path d="M116.748 39.911C116.748 39.911 116.682 39.911 116.653 39.8891C116.521 39.8378 116.455 39.6839 116.514 39.552L118.177 35.5079C118.228 35.376 118.382 35.3101 118.514 35.3687C118.646 35.42 118.712 35.5738 118.653 35.7057L116.99 39.7499C116.946 39.8524 116.851 39.911 116.748 39.911Z" fill="#126D8A"/>
<path d="M120.791 30.3945C120.791 30.3945 120.747 30.3945 120.732 30.3872C120.593 30.3505 120.505 30.2113 120.542 30.0721L121.296 27.0024C121.333 26.8632 121.472 26.7826 121.611 26.8119C121.75 26.8485 121.838 26.9877 121.802 27.1269L121.047 30.1967C121.018 30.3139 120.915 30.3945 120.798 30.3945H120.791Z" fill="#126D8A"/>
<path d="M119.364 29.4416C119.364 29.4416 119.313 29.4416 119.291 29.427C119.151 29.383 119.078 29.2438 119.115 29.1046L119.825 26.7235C119.869 26.5843 120.016 26.5111 120.148 26.5477C120.287 26.5917 120.36 26.7309 120.324 26.8701L119.613 29.2511C119.576 29.361 119.474 29.4343 119.364 29.4343V29.4416Z" fill="#126D8A"/>
<path d="M118.456 47.1128C118.397 47.1128 118.331 47.0908 118.288 47.0468C118.178 46.9516 118.17 46.7904 118.266 46.6805L121.68 42.7975C121.775 42.6876 121.936 42.6803 122.046 42.7756C122.156 42.8708 122.163 43.032 122.068 43.1419L118.654 47.0249C118.603 47.0835 118.529 47.1128 118.456 47.1128Z" fill="#126D8A"/>
<path d="M120.315 47.047C120.257 47.047 120.198 47.025 120.154 46.9884C120.044 46.9005 120.03 46.732 120.118 46.6221L122.257 44.0066C122.345 43.8967 122.513 43.882 122.623 43.97C122.733 44.0579 122.748 44.2264 122.66 44.3363L120.521 46.9518C120.469 47.0177 120.396 47.047 120.323 47.047H120.315Z" fill="#126D8A"/>
<path d="M110.279 50.754C110.235 50.754 110.184 50.7394 110.147 50.7174C110.022 50.6442 109.986 50.483 110.059 50.3584L111.29 48.3144C111.363 48.1898 111.524 48.1532 111.649 48.2265C111.773 48.2997 111.81 48.4609 111.737 48.5854L110.506 50.6295C110.455 50.7101 110.374 50.754 110.286 50.754H110.279Z" fill="#126D8A"/>
<path d="M81.3029 69.6417C81.2516 69.6417 81.2003 69.627 81.1563 69.5977C81.0391 69.5171 81.0098 69.3559 81.0904 69.2387L84.1821 64.7183C84.2627 64.6011 84.4239 64.5718 84.5411 64.6524C84.6583 64.733 84.6876 64.8942 84.6071 65.0114L81.5153 69.5318C81.464 69.605 81.3834 69.6417 81.3029 69.6417Z" fill="#126D8A"/>
<path d="M82.9661 69.8761C82.9148 69.8761 82.8635 69.8615 82.8196 69.8322C82.7023 69.7516 82.6657 69.5904 82.7463 69.4732L85.1274 65.9053C85.208 65.788 85.3691 65.7514 85.4864 65.832C85.6036 65.9126 85.6402 66.0738 85.5596 66.191L83.1786 69.7589C83.1273 69.8322 83.0467 69.8761 82.9661 69.8761Z" fill="#126D8A"/>
<path opacity="0.49" d="M91.6418 78.0009C91.6418 78.0009 86.3009 75.085 88.9164 71.7588C91.5319 68.4253 96.2867 71.9933 96.2867 71.9933C96.2867 71.9933 96.741 77.1071 91.6345 78.0009H91.6418Z" fill="white"/>
<path d="M39.6922 14.7234H35.2305V19.1851H39.6922V14.7234Z" fill="#0A8778"/>
<path d="M32.3597 20.6875H29.5098V23.5375H32.3597V20.6875Z" fill="#0A8778"/>
<path d="M38.1976 21.3687H35.3477V24.2186H38.1976V21.3687Z" fill="#0A8778"/>
<path d="M116.015 81.4209C123.079 78.5338 126.465 70.4668 123.578 63.4028C120.691 56.3388 112.624 52.9528 105.56 55.8399C98.496 58.7269 95.11 66.7939 97.9971 73.8579C100.884 80.9219 108.951 84.308 116.015 81.4209Z" fill="#FDDA53"/>
<path opacity="0.47" d="M117.874 56.7846C117.009 56.2644 116.086 55.8321 115.112 55.5098C109.294 61.3269 103.477 67.144 97.6602 72.9612C97.9825 73.9356 98.4148 74.8587 98.9349 75.7232L117.874 56.7846Z" fill="white"/>
<path opacity="0.47" d="M122.695 61.6492C122.497 61.3122 122.292 60.9825 122.065 60.6675C115.647 67.0854 109.236 73.4959 102.818 79.9138C103.075 80.097 103.346 80.2655 103.617 80.434C109.954 74.148 116.321 67.8986 122.695 61.6565V61.6492Z" fill="white"/>
<path d="M110.79 79.4453C116.763 79.4453 121.604 74.6038 121.604 68.6316C121.604 62.6593 116.763 57.8179 110.79 57.8179C104.818 57.8179 99.9766 62.6593 99.9766 68.6316C99.9766 74.6038 104.818 79.4453 110.79 79.4453Z" stroke="#126D8A" stroke-width="0.732637" stroke-miterlimit="10"/>
</g>
<defs>
<linearGradient id="paint0_linear_2033_583159" x1="190.484" y1="5.1272" x2="190.484" y2="145.793" gradientUnits="userSpaceOnUse">
<stop stop-color="#6DA37F"/>
<stop offset="1" stop-color="#C5DACC"/>
</linearGradient>
<linearGradient id="paint1_linear_2033_583159" x1="40.3577" y1="4" x2="40.3577" y2="144" gradientUnits="userSpaceOnUse">
<stop stop-color="#6DA37F"/>
<stop offset="1" stop-color="#C5DACC"/>
</linearGradient>
<clipPath id="clip0_2033_583159">
<rect width="232.532" height="150" fill="white" transform="translate(0.734375)"/>
</clipPath>
</defs>
</svg>
