<svg viewBox="0 0 22 24" fill="none" xmlns="http://www.w3.org/2000/svg">
<path d="M20.2842 24H2.518C1.57122 24 0.803711 23.2325 0.803711 22.2857V1.71429C0.803711 0.767513 1.57122 0 2.518 0H14.0505L21.9985 7.94805V22.2857C21.9985 23.2325 21.231 24 20.2842 24Z" fill="url(#paint0_linear_1516_55765)"/>
<mask id="path-2-outside-1_1516_55765" maskUnits="userSpaceOnUse" x="4.77783" y="11.2988" width="14" height="6" fill="black">
<rect fill="white" x="4.77783" y="11.2988" width="14" height="6"/>
<path d="M5.65196 16.3296C5.57399 16.3296 5.50833 16.3029 5.45497 16.2496C5.40162 16.1962 5.37495 16.1306 5.37495 16.0526V12.2852C5.37495 12.2072 5.40162 12.1416 5.45497 12.0882C5.50833 12.0308 5.57399 12.002 5.65196 12.002H7.05549C7.44536 12.002 7.76342 12.0677 8.00965 12.199C8.25588 12.3304 8.43235 12.4986 8.53905 12.7038C8.64575 12.909 8.6991 13.1306 8.6991 13.3686C8.6991 13.6067 8.64575 13.8283 8.53905 14.0335C8.43235 14.2387 8.25588 14.4069 8.00965 14.5383C7.76342 14.6696 7.44536 14.7352 7.05549 14.7352H5.93513V16.0526C5.93513 16.1306 5.9064 16.1962 5.84895 16.2496C5.7956 16.3029 5.72994 16.3296 5.65196 16.3296ZM7.00009 14.2058C7.41869 14.2058 7.71212 14.1258 7.88038 13.9658C8.05274 13.8057 8.13892 13.6067 8.13892 13.3686C8.13892 13.1306 8.05274 12.9316 7.88038 12.7715C7.71212 12.6115 7.41869 12.5315 7.00009 12.5315H5.93513V14.2058H7.00009ZM10.2188 16.2988C10.1409 16.2988 10.0752 16.2722 10.0218 16.2188C9.96849 16.1655 9.94182 16.0998 9.94182 16.0218V12.2852C9.94182 12.2072 9.96849 12.1416 10.0218 12.0882C10.0752 12.0308 10.1409 12.002 10.2188 12.002H11.4562C11.924 12.002 12.32 12.1067 12.6442 12.316C12.9725 12.5212 13.2188 12.7879 13.3829 13.1163C13.5471 13.4446 13.6292 13.7893 13.6292 14.1504C13.6292 14.5116 13.5471 14.8563 13.3829 15.1846C13.2188 15.5129 12.9725 15.7817 12.6442 15.991C12.32 16.1962 11.924 16.2988 11.4562 16.2988H10.2188ZM11.3884 15.7756C11.725 15.7756 12.0204 15.7079 12.2749 15.5724C12.5293 15.4329 12.7263 15.2421 12.8658 14.9999C13.0054 14.7537 13.0751 14.4705 13.0751 14.1504C13.0751 13.8303 13.0054 13.5492 12.8658 13.3071C12.7263 13.0609 12.5293 12.87 12.2749 12.7346C12.0204 12.5951 11.725 12.5253 11.3884 12.5253H10.502V15.7756H11.3884ZM15.2726 16.3296C15.1947 16.3296 15.129 16.3029 15.0756 16.2496C15.0223 16.1962 14.9956 16.1306 14.9956 16.0526V12.2852C14.9956 12.2072 15.0223 12.1416 15.0756 12.0882C15.129 12.0308 15.1947 12.002 15.2726 12.002H17.6673C17.7411 12.002 17.8027 12.0287 17.8519 12.0821C17.9053 12.1313 17.932 12.1929 17.932 12.2667C17.932 12.3406 17.9053 12.4022 17.8519 12.4514C17.8027 12.5007 17.7411 12.5253 17.6673 12.5253H15.5558V13.8857H17.4518C17.5257 13.8857 17.5872 13.9124 17.6365 13.9658C17.6898 14.015 17.7165 14.0766 17.7165 14.1504C17.7165 14.2243 17.6898 14.2859 17.6365 14.3351C17.5872 14.3844 17.5257 14.409 17.4518 14.409H15.5558V16.0526C15.5558 16.1306 15.5271 16.1962 15.4696 16.2496C15.4163 16.3029 15.3506 16.3296 15.2726 16.3296Z"/>
</mask>
<path d="M5.65196 16.3296C5.57399 16.3296 5.50833 16.3029 5.45497 16.2496C5.40162 16.1962 5.37495 16.1306 5.37495 16.0526V12.2852C5.37495 12.2072 5.40162 12.1416 5.45497 12.0882C5.50833 12.0308 5.57399 12.002 5.65196 12.002H7.05549C7.44536 12.002 7.76342 12.0677 8.00965 12.199C8.25588 12.3304 8.43235 12.4986 8.53905 12.7038C8.64575 12.909 8.6991 13.1306 8.6991 13.3686C8.6991 13.6067 8.64575 13.8283 8.53905 14.0335C8.43235 14.2387 8.25588 14.4069 8.00965 14.5383C7.76342 14.6696 7.44536 14.7352 7.05549 14.7352H5.93513V16.0526C5.93513 16.1306 5.9064 16.1962 5.84895 16.2496C5.7956 16.3029 5.72994 16.3296 5.65196 16.3296ZM7.00009 14.2058C7.41869 14.2058 7.71212 14.1258 7.88038 13.9658C8.05274 13.8057 8.13892 13.6067 8.13892 13.3686C8.13892 13.1306 8.05274 12.9316 7.88038 12.7715C7.71212 12.6115 7.41869 12.5315 7.00009 12.5315H5.93513V14.2058H7.00009ZM10.2188 16.2988C10.1409 16.2988 10.0752 16.2722 10.0218 16.2188C9.96849 16.1655 9.94182 16.0998 9.94182 16.0218V12.2852C9.94182 12.2072 9.96849 12.1416 10.0218 12.0882C10.0752 12.0308 10.1409 12.002 10.2188 12.002H11.4562C11.924 12.002 12.32 12.1067 12.6442 12.316C12.9725 12.5212 13.2188 12.7879 13.3829 13.1163C13.5471 13.4446 13.6292 13.7893 13.6292 14.1504C13.6292 14.5116 13.5471 14.8563 13.3829 15.1846C13.2188 15.5129 12.9725 15.7817 12.6442 15.991C12.32 16.1962 11.924 16.2988 11.4562 16.2988H10.2188ZM11.3884 15.7756C11.725 15.7756 12.0204 15.7079 12.2749 15.5724C12.5293 15.4329 12.7263 15.2421 12.8658 14.9999C13.0054 14.7537 13.0751 14.4705 13.0751 14.1504C13.0751 13.8303 13.0054 13.5492 12.8658 13.3071C12.7263 13.0609 12.5293 12.87 12.2749 12.7346C12.0204 12.5951 11.725 12.5253 11.3884 12.5253H10.502V15.7756H11.3884ZM15.2726 16.3296C15.1947 16.3296 15.129 16.3029 15.0756 16.2496C15.0223 16.1962 14.9956 16.1306 14.9956 16.0526V12.2852C14.9956 12.2072 15.0223 12.1416 15.0756 12.0882C15.129 12.0308 15.1947 12.002 15.2726 12.002H17.6673C17.7411 12.002 17.8027 12.0287 17.8519 12.0821C17.9053 12.1313 17.932 12.1929 17.932 12.2667C17.932 12.3406 17.9053 12.4022 17.8519 12.4514C17.8027 12.5007 17.7411 12.5253 17.6673 12.5253H15.5558V13.8857H17.4518C17.5257 13.8857 17.5872 13.9124 17.6365 13.9658C17.6898 14.015 17.7165 14.0766 17.7165 14.1504C17.7165 14.2243 17.6898 14.2859 17.6365 14.3351C17.5872 14.3844 17.5257 14.409 17.4518 14.409H15.5558V16.0526C15.5558 16.1306 15.5271 16.1962 15.4696 16.2496C15.4163 16.3029 15.3506 16.3296 15.2726 16.3296Z" fill="white"/>
<path d="M5.45497 16.2496L5.56517 16.1394L5.45497 16.2496ZM5.45497 12.0882L5.56525 12.1985L5.56918 12.1943L5.45497 12.0882ZM8.53905 12.7038L8.40079 12.7757L8.53905 12.7038ZM8.53905 14.0335L8.40079 13.9616H8.40079L8.53905 14.0335ZM5.93513 14.7352V14.5794H5.77929V14.7352H5.93513ZM5.84895 16.2496L5.74283 16.1353L5.73875 16.1394L5.84895 16.2496ZM7.88038 13.9658L7.77433 13.8516L7.77297 13.8528L7.88038 13.9658ZM7.88038 12.7715L7.77296 12.8845L7.77433 12.8857L7.88038 12.7715ZM5.93513 12.5315V12.3756H5.77929V12.5315H5.93513ZM5.93513 14.2058H5.77929V14.3617H5.93513V14.2058ZM5.65196 16.1738C5.61377 16.1738 5.58822 16.1624 5.56517 16.1394L5.34478 16.3598C5.42843 16.4434 5.5342 16.4855 5.65196 16.4855V16.1738ZM5.56517 16.1394C5.54212 16.1163 5.53079 16.0908 5.53079 16.0526H5.2191C5.2191 16.1704 5.26112 16.2761 5.34478 16.3598L5.56517 16.1394ZM5.53079 16.0526V12.2852H5.2191V16.0526H5.53079ZM5.53079 12.2852C5.53079 12.247 5.54212 12.2215 5.56517 12.1984L5.34478 11.978C5.26112 12.0617 5.2191 12.1675 5.2191 12.2852H5.53079ZM5.56918 12.1943C5.59323 12.1684 5.6176 12.1579 5.65196 12.1579V11.8462C5.53038 11.8462 5.42343 11.8932 5.34077 11.9822L5.56918 12.1943ZM5.65196 12.1579H7.05549V11.8462H5.65196V12.1579ZM7.05549 12.1579C7.42938 12.1579 7.71982 12.2211 7.93631 12.3365L8.08299 12.0615C7.80701 11.9143 7.46135 11.8462 7.05549 11.8462V12.1579ZM7.93631 12.3365C8.16061 12.4562 8.31138 12.6038 8.40079 12.7757L8.67732 12.6319C8.55332 12.3935 8.35116 12.2046 8.08299 12.0615L7.93631 12.3365ZM8.40079 12.7757C8.49559 12.958 8.54326 13.1549 8.54326 13.3686H8.85495C8.85495 13.1063 8.79591 12.86 8.67732 12.6319L8.40079 12.7757ZM8.54326 13.3686C8.54326 13.5824 8.49559 13.7793 8.40079 13.9616L8.67732 14.1054C8.79591 13.8773 8.85495 13.6309 8.85495 13.3686H8.54326ZM8.40079 13.9616C8.31138 14.1335 8.16061 14.2811 7.93631 14.4007L8.08299 14.6758C8.35116 14.5327 8.55332 14.3438 8.67732 14.1054L8.40079 13.9616ZM7.93631 14.4007C7.71982 14.5162 7.42938 14.5794 7.05549 14.5794V14.8911C7.46135 14.8911 7.80701 14.823 8.08299 14.6758L7.93631 14.4007ZM7.05549 14.5794H5.93513V14.8911H7.05549V14.5794ZM5.77929 14.7352V16.0526H6.09097V14.7352H5.77929ZM5.77929 16.0526C5.77929 16.087 5.7688 16.1113 5.7429 16.1354L5.95499 16.3638C6.044 16.2811 6.09097 16.1742 6.09097 16.0526H5.77929ZM5.73875 16.1394C5.7157 16.1624 5.69015 16.1738 5.65196 16.1738V16.4855C5.76972 16.4855 5.8755 16.4434 5.95915 16.3598L5.73875 16.1394ZM7.00009 14.3617C7.4296 14.3617 7.77475 14.2813 7.98779 14.0787L7.77297 13.8528C7.64948 13.9703 7.40778 14.05 7.00009 14.05V14.3617ZM7.98642 14.08C8.19097 13.89 8.29477 13.6494 8.29477 13.3686H7.98308C7.98308 13.5639 7.91451 13.7214 7.77433 13.8516L7.98642 14.08ZM8.29477 13.3686C8.29477 13.0879 8.19097 12.8473 7.98642 12.6573L7.77433 12.8857C7.91451 13.0159 7.98308 13.1734 7.98308 13.3686H8.29477ZM7.98779 12.6586C7.77475 12.456 7.4296 12.3756 7.00009 12.3756V12.6873C7.40778 12.6873 7.64948 12.767 7.77297 12.8844L7.98779 12.6586ZM7.00009 12.3756H5.93513V12.6873H7.00009V12.3756ZM5.77929 12.5315V14.2058H6.09097V12.5315H5.77929ZM5.93513 14.3617H7.00009V14.05H5.93513V14.3617ZM10.0218 16.2188L10.132 16.1086H10.132L10.0218 16.2188ZM10.0218 12.0882L10.1321 12.1985L10.136 12.1943L10.0218 12.0882ZM12.6442 12.316L12.5597 12.4469L12.5616 12.4482L12.6442 12.316ZM13.3829 13.1163L13.2435 13.186L13.3829 13.1163ZM13.3829 15.1846L13.2435 15.1149L13.3829 15.1846ZM12.6442 15.991L12.7276 16.1227L12.728 16.1224L12.6442 15.991ZM12.2749 15.5724L12.3481 15.71L12.3498 15.7091L12.2749 15.5724ZM12.8658 14.9999L13.0009 15.0778L13.0014 15.0768L12.8658 14.9999ZM12.8658 13.3071L12.7303 13.3839L12.7308 13.3849L12.8658 13.3071ZM12.2749 12.7346L12.1999 12.8713L12.2017 12.8722L12.2749 12.7346ZM10.502 12.5253V12.3695H10.3462V12.5253H10.502ZM10.502 15.7756H10.3462V15.9314H10.502V15.7756ZM10.2188 16.143C10.1806 16.143 10.1551 16.1317 10.132 16.1086L9.91164 16.329C9.9953 16.4127 10.1011 16.4547 10.2188 16.4547V16.143ZM10.132 16.1086C10.109 16.0856 10.0977 16.06 10.0977 16.0218H9.78597C9.78597 16.1396 9.82799 16.2453 9.91164 16.329L10.132 16.1086ZM10.0977 16.0218V12.2852H9.78597V16.0218H10.0977ZM10.0977 12.2852C10.0977 12.247 10.109 12.2215 10.132 12.1984L9.91164 11.978C9.82799 12.0617 9.78597 12.1675 9.78597 12.2852H10.0977ZM10.136 12.1943C10.1601 12.1684 10.1845 12.1579 10.2188 12.1579V11.8462C10.0972 11.8462 9.99029 11.8932 9.90764 11.9822L10.136 12.1943ZM10.2188 12.1579H11.4562V11.8462H10.2188V12.1579ZM11.4562 12.1579C11.9004 12.1579 12.2656 12.2571 12.5597 12.4469L12.7288 12.1851C12.3745 11.9563 11.9476 11.8462 11.4562 11.8462V12.1579ZM12.5616 12.4482C12.867 12.639 13.0929 12.8847 13.2435 13.186L13.5223 13.0466C13.3446 12.6912 13.0781 12.4034 12.7268 12.1838L12.5616 12.4482ZM13.2435 13.186C13.3971 13.493 13.4733 13.8139 13.4733 14.1504H13.785C13.785 13.7647 13.6971 13.3961 13.5223 13.0466L13.2435 13.186ZM13.4733 14.1504C13.4733 14.487 13.3971 14.8079 13.2435 15.1149L13.5223 15.2543C13.6971 14.9047 13.785 14.5362 13.785 14.1504H13.4733ZM13.2435 15.1149C13.0928 15.4165 12.8665 15.6645 12.5605 15.8596L12.728 16.1224C13.0786 15.8989 13.3448 15.6094 13.5223 15.2543L13.2435 15.1149ZM12.5609 15.8594C12.2666 16.0456 11.901 16.143 11.4562 16.143V16.4547C11.947 16.4547 12.3735 16.3468 12.7276 16.1227L12.5609 15.8594ZM11.4562 16.143H10.2188V16.4547H11.4562V16.143ZM11.3884 15.9314C11.7462 15.9314 12.0676 15.8593 12.3481 15.71L12.2017 15.4349C11.9733 15.5564 11.7037 15.6197 11.3884 15.6197V15.9314ZM12.3498 15.7091C12.6283 15.5564 12.8465 15.3456 13.0009 15.0778L12.7308 14.9221C12.6061 15.1385 12.4304 15.3094 12.1999 15.4358L12.3498 15.7091ZM13.0014 15.0768C13.1559 14.8042 13.231 14.4939 13.231 14.1504H12.9193C12.9193 14.4472 12.8548 14.7032 12.7303 14.9231L13.0014 15.0768ZM13.231 14.1504C13.231 13.8071 13.1559 13.4983 13.0009 13.2293L12.7308 13.3849C12.8548 13.6001 12.9193 13.8536 12.9193 14.1504H13.231ZM13.0014 13.2303C12.847 12.9578 12.6282 12.7461 12.3481 12.597L12.2017 12.8722C12.4305 12.994 12.6056 13.1639 12.7303 13.3839L13.0014 13.2303ZM12.3498 12.5979C12.069 12.4439 11.7469 12.3695 11.3884 12.3695V12.6811C11.703 12.6811 11.9719 12.7462 12.1999 12.8712L12.3498 12.5979ZM11.3884 12.3695H10.502V12.6811H11.3884V12.3695ZM10.3462 12.5253V15.7756H10.6578V12.5253H10.3462ZM10.502 15.9314H11.3884V15.6197H10.502V15.9314ZM15.0756 16.2496L15.1858 16.1394L15.0756 16.2496ZM15.0756 12.0882L15.1859 12.1985L15.1898 12.1943L15.0756 12.0882ZM17.8519 12.0821L17.7371 12.1881L17.7462 12.1966L17.8519 12.0821ZM17.8519 12.4514L17.7461 12.3368L17.7417 12.3412L17.8519 12.4514ZM15.5558 12.5253V12.3695H15.4V12.5253H15.5558ZM15.5558 13.8857H15.4V14.0416H15.5558V13.8857ZM17.6365 13.9658L17.5216 14.0718L17.5308 14.0803L17.6365 13.9658ZM17.6365 14.3351L17.5307 14.2205L17.5263 14.2249L17.6365 14.3351ZM15.5558 14.409V14.2531H15.4V14.409H15.5558ZM15.4696 16.2496L15.3635 16.1353L15.3594 16.1394L15.4696 16.2496ZM15.2726 16.1738C15.2344 16.1738 15.2089 16.1624 15.1858 16.1394L14.9654 16.3598C15.0491 16.4434 15.1549 16.4855 15.2726 16.4855V16.1738ZM15.1858 16.1394C15.1628 16.1163 15.1515 16.0908 15.1515 16.0526H14.8398C14.8398 16.1704 14.8818 16.2761 14.9654 16.3598L15.1858 16.1394ZM15.1515 16.0526V12.2852H14.8398V16.0526H15.1515ZM15.1515 12.2852C15.1515 12.247 15.1628 12.2215 15.1858 12.1984L14.9654 11.978C14.8818 12.0617 14.8398 12.1675 14.8398 12.2852H15.1515ZM15.1898 12.1943C15.2139 12.1684 15.2383 12.1579 15.2726 12.1579V11.8462C15.1511 11.8462 15.0441 11.8932 14.9614 11.9822L15.1898 12.1943ZM15.2726 12.1579H17.6673V11.8462H15.2726V12.1579ZM17.6673 12.1579C17.6985 12.1579 17.7183 12.167 17.7374 12.1878L17.9664 11.9764C17.8871 11.8904 17.7838 11.8462 17.6673 11.8462V12.1579ZM17.7462 12.1966C17.767 12.2158 17.7761 12.2355 17.7761 12.2667H18.0878C18.0878 12.1502 18.0436 12.0469 17.9576 11.9676L17.7462 12.1966ZM17.7761 12.2667C17.7761 12.298 17.767 12.3177 17.7462 12.3369L17.9576 12.5659C18.0436 12.4866 18.0878 12.3833 18.0878 12.2667H17.7761ZM17.7417 12.3412C17.7236 12.3593 17.7026 12.3695 17.6673 12.3695V12.6811C17.7797 12.6811 17.8817 12.642 17.9621 12.5616L17.7417 12.3412ZM17.6673 12.3695H15.5558V12.6811H17.6673V12.3695ZM15.4 12.5253V13.8857H15.7116V12.5253H15.4ZM15.5558 14.0416H17.4518V13.7299H15.5558V14.0416ZM17.4518 14.0416C17.483 14.0416 17.5028 14.0507 17.522 14.0715L17.751 13.8601C17.6717 13.7741 17.5683 13.7299 17.4518 13.7299V14.0416ZM17.5308 14.0803C17.5515 14.0994 17.5607 14.1192 17.5607 14.1504H17.8723C17.8723 14.0339 17.8281 13.9306 17.7422 13.8512L17.5308 14.0803ZM17.5607 14.1504C17.5607 14.1817 17.5515 14.2014 17.5308 14.2206L17.7422 14.4496C17.8281 14.3703 17.8723 14.2669 17.8723 14.1504H17.5607ZM17.5263 14.2249C17.5082 14.243 17.4871 14.2531 17.4518 14.2531V14.5648C17.5642 14.5648 17.6663 14.5257 17.7467 14.4453L17.5263 14.2249ZM17.4518 14.2531H15.5558V14.5648H17.4518V14.2531ZM15.4 14.409V16.0526H15.7116V14.409H15.4ZM15.4 16.0526C15.4 16.087 15.3895 16.1113 15.3636 16.1354L15.5757 16.3638C15.6647 16.2811 15.7116 16.1742 15.7116 16.0526H15.4ZM15.3594 16.1394C15.3364 16.1624 15.3108 16.1738 15.2726 16.1738V16.4855C15.3904 16.4855 15.4962 16.4434 15.5798 16.3598L15.3594 16.1394Z" fill="white" mask="url(#path-2-outside-1_1516_55765)"/>
<g filter="url(#filter0_d_1516_55765)">
<path d="M21.9983 7.94805H15.7646C14.8178 7.94805 14.0503 7.18054 14.0503 6.23377V0L21.9983 7.94805Z" fill="url(#paint1_linear_1516_55765)"/>
</g>
<defs>
<filter id="filter0_d_1516_55765" x="12.2581" y="-1.87013" width="11.8443" height="11.8443" filterUnits="userSpaceOnUse" color-interpolation-filters="sRGB">
<feFlood flood-opacity="0" result="BackgroundImageFix"/>
<feColorMatrix in="SourceAlpha" type="matrix" values="0 0 0 0 0 0 0 0 0 0 0 0 0 0 0 0 0 0 127 0" result="hardAlpha"/>
<feOffset dx="0.155844" dy="0.0779221"/>
<feGaussianBlur stdDeviation="0.974026"/>
<feColorMatrix type="matrix" values="0 0 0 0 0 0 0 0 0 0 0 0 0 0 0 0 0 0 0.33 0"/>
<feBlend mode="normal" in2="BackgroundImageFix" result="effect1_dropShadow_1516_55765"/>
<feBlend mode="normal" in="SourceGraphic" in2="effect1_dropShadow_1516_55765" result="shape"/>
</filter>
<linearGradient id="paint0_linear_1516_55765" x1="11.4011" y1="0" x2="11.4011" y2="24" gradientUnits="userSpaceOnUse">
<stop stop-color="#FF7981"/>
<stop offset="1" stop-color="#E85567"/>
</linearGradient>
<linearGradient id="paint1_linear_1516_55765" x1="18.0243" y1="0" x2="18.0243" y2="7.94805" gradientUnits="userSpaceOnUse">
<stop stop-color="#D03954"/>
<stop offset="1" stop-color="#C02A3C"/>
</linearGradient>
</defs>
</svg>
