<svg viewBox="0 0 24 24" fill="none" xmlns="http://www.w3.org/2000/svg">
<path opacity="0.4" d="M19.9908 18.9531H14.2965C13.7409 18.9531 13.2891 19.4121 13.2891 19.9765C13.2891 20.5419 13.7409 20.9999 14.2965 20.9999H19.9908C20.5463 20.9999 20.9982 20.5419 20.9982 19.9765C20.9982 19.4121 20.5463 18.9531 19.9908 18.9531Z" fill="currentColor"/>
<path d="M10.309 6.90458L15.7049 11.2647C15.835 11.3689 15.8573 11.5603 15.7557 11.6936L9.35874 20.0289C8.95662 20.5438 8.36402 20.8352 7.72908 20.8459L4.23696 20.8889C4.05071 20.8911 3.88775 20.7621 3.84542 20.5772L3.05175 17.1265C2.91419 16.4923 3.05175 15.8365 3.45388 15.3313L9.88256 6.95618C9.98627 6.82181 10.1778 6.79816 10.309 6.90458Z" fill="currentColor"/>
<path opacity="0.4" d="M18.1213 8.66544L17.081 9.96401C16.9763 10.0962 16.7879 10.1177 16.6578 10.0124C15.3932 8.98901 12.155 6.36285 11.2566 5.63509C11.1254 5.52759 11.1074 5.33625 11.2132 5.20295L12.2164 3.95706C13.1265 2.78534 14.7138 2.67784 15.9942 3.69906L17.4652 4.87078C18.0684 5.34377 18.4705 5.96726 18.6081 6.62299C18.7668 7.3443 18.5975 8.0527 18.1213 8.66544Z" fill="currentColor"/>
</svg>
