<svg viewBox="0 0 22 24" fill="none" xmlns="http://www.w3.org/2000/svg">
<path fill-rule="evenodd" clip-rule="evenodd" d="M0.599609 10.3936C0.600882 7.63633 1.69721 4.99244 3.64749 3.04336C5.59778 1.09427 8.24234 -0.000424431 10.9996 1.23445e-07C16.742 1.23445e-07 21.3996 4.6544 21.3996 10.3936C21.3996 14.672 19.2588 18.0624 16.9644 20.3536C15.9502 21.3723 14.8135 22.2612 13.5804 23C13.0652 23.304 12.5836 23.544 12.1644 23.7072C11.7692 23.864 11.3548 23.9856 10.9996 23.9856C10.6444 23.9856 10.23 23.864 9.83481 23.7072C9.34541 23.508 8.87202 23.2716 8.41881 23C7.18576 22.2611 6.04909 21.3722 5.03481 20.3536C2.74041 18.0624 0.599609 14.672 0.599609 10.3936ZM10.9996 6.3952C9.93874 6.3952 8.92133 6.81663 8.17118 7.56677C7.42104 8.31692 6.99961 9.33433 6.99961 10.3952C6.99961 11.4561 7.42104 12.4735 8.17118 13.2236C8.92133 13.9738 9.93874 14.3952 10.9996 14.3952C12.0605 14.3952 13.0779 13.9738 13.828 13.2236C14.5782 12.4735 14.9996 11.4561 14.9996 10.3952C14.9996 9.33433 14.5782 8.31692 13.828 7.56677C13.0779 6.81663 12.0605 6.3952 10.9996 6.3952Z" fill="url(#paint0_linear_4257_36857)"/>
<defs>
<linearGradient id="paint0_linear_4257_36857" x1="1.03038" y1="11.9928" x2="21.3996" y2="11.9928" gradientUnits="userSpaceOnUse">
<stop stop-color="#00C188"/>
<stop offset="1" stop-color="#23B9E9"/>
</linearGradient>
</defs>
</svg>
