<svg viewBox="0 0 24 24" fill="none" xmlns="http://www.w3.org/2000/svg">
<path fill-rule="evenodd" clip-rule="evenodd" d="M12.0008 13.5918C12.8492 13.5918 13.6629 13.2548 14.263 12.6551C14.863 12.0553 15.2004 11.2418 15.2008 10.3934C15.2008 9.54467 14.8636 8.73073 14.2635 8.13062C13.6634 7.5305 12.8495 7.19336 12.0008 7.19336C11.1521 7.19336 10.3382 7.5305 9.73804 8.13062C9.13792 8.73073 8.80078 9.54467 8.80078 10.3934C8.80121 11.2418 9.13853 12.0553 9.7386 12.6551C10.3387 13.2548 11.1524 13.5918 12.0008 13.5918Z" stroke="currentColor" stroke-width="1.5" stroke-linecap="square"/>
<path fill-rule="evenodd" clip-rule="evenodd" d="M21.6004 10.3934C21.6004 18.3886 13.6004 23.1854 12.0004 23.1854C10.4004 23.1854 2.40039 18.3886 2.40039 10.3934C2.40166 7.84831 3.4137 5.40791 5.21396 3.60885C7.01422 1.80979 9.45529 0.79938 12.0004 0.799805C17.3012 0.799805 21.6004 5.0958 21.6004 10.3934Z" stroke="currentColor" stroke-width="1.5" stroke-linecap="square"/>
</svg>
