<svg viewBox="0 0 24 24" fill="none" xmlns="http://www.w3.org/2000/svg">
<path opacity="0.5" fill-rule="evenodd" clip-rule="evenodd" d="M16.219 4.83766L19.183 7.80466C21.195 9.81866 22.201 10.8257 21.967 11.9117C21.732 12.9967 20.4 13.4967 17.737 14.4977L15.892 15.1907C15.179 15.4587 14.822 15.5927 14.547 15.8307C14.4263 15.936 14.319 16.0533 14.225 16.1827C14.013 16.4797 13.912 16.8467 13.71 17.5827C13.25 19.2547 13.02 20.0907 12.471 20.4037C12.241 20.5357 11.979 20.6037 11.713 20.6037C11.083 20.6037 10.47 19.9897 9.244 18.7637L7.778 17.2957L6.699 16.2157L5.285 14.7997C4.067 13.5807 3.458 12.9717 3.455 12.3447C3.45298 12.0736 3.52304 11.8068 3.658 11.5717C3.971 11.0287 4.801 10.7997 6.461 10.3417C7.198 10.1387 7.566 10.0377 7.863 9.82466C7.99567 9.72866 8.11566 9.618 8.223 9.49266C8.459 9.21466 8.591 8.85566 8.853 8.13766L9.522 6.31466C10.509 3.62166 11.002 2.27466 12.09 2.03466C13.178 1.79466 14.192 2.80866 16.219 4.83766Z" fill="#153860"/>
<path d="M3.30199 21.7768L7.77799 17.2968L6.69899 16.2168L2.22299 20.6968C2.0866 20.8414 2.01192 21.0334 2.01482 21.2322C2.01772 21.4309 2.09796 21.6207 2.23851 21.7613C2.37906 21.9018 2.56886 21.9821 2.7676 21.985C2.96635 21.9879 3.1574 21.9132 3.30199 21.7768Z" fill="#153860"/>
</svg>
