<svg viewBox="0 0 25 24" fill="none" xmlns="http://www.w3.org/2000/svg">
<g clip-path="url(#clip0_482_209056)">
<path d="M10.1001 10.3937C10.1001 9.75713 10.353 9.14668 10.803 8.6966C11.2531 8.24651 11.8636 7.99365 12.5001 7.99365C13.1366 7.99365 13.7471 8.24651 14.1972 8.6966C14.6472 9.14668 14.9001 9.75713 14.9001 10.3937C14.9001 11.0302 14.6472 11.6406 14.1972 12.0907C13.7471 12.5408 13.1366 12.7937 12.5001 12.7937C11.8636 12.7937 11.2531 12.5408 10.803 12.0907C10.353 11.6406 10.1001 11.0302 10.1001 10.3937Z" fill="#64748B"/>
<path opacity="0.4" fill-rule="evenodd" clip-rule="evenodd" d="M2.1001 10.3936C2.10137 7.63633 3.19769 4.99244 5.14798 3.04336C7.09827 1.09427 9.74283 -0.000424431 12.5001 1.23445e-07C18.2425 1.23445e-07 22.9001 4.6544 22.9001 10.3936C22.9001 14.672 20.7593 18.0624 18.4649 20.3536C17.4507 21.3723 16.314 22.2612 15.0809 23C14.5657 23.304 14.0841 23.544 13.6649 23.7072C13.2697 23.864 12.8553 23.9856 12.5001 23.9856C12.1449 23.9856 11.7305 23.864 11.3353 23.7072C10.8459 23.508 10.3725 23.2716 9.9193 23C8.68625 22.2611 7.54958 21.3722 6.5353 20.3536C4.2409 18.0624 2.1001 14.672 2.1001 10.3936ZM12.5001 6.3952C11.4392 6.3952 10.4218 6.81663 9.67167 7.56677C8.92153 8.31692 8.5001 9.33433 8.5001 10.3952C8.5001 11.4561 8.92153 12.4735 9.67167 13.2236C10.4218 13.9738 11.4392 14.3952 12.5001 14.3952C13.561 14.3952 14.5784 13.9738 15.3285 13.2236C16.0787 12.4735 16.5001 11.4561 16.5001 10.3952C16.5001 9.33433 16.0787 8.31692 15.3285 7.56677C14.5784 6.81663 13.561 6.3952 12.5001 6.3952Z" fill="#64748B"/>
</g>
<defs>
<clipPath id="clip0_482_209056">
<rect width="24" height="24" fill="white" transform="translate(0.5)"/>
</clipPath>
</defs>
</svg>
