<svg viewBox="0 0 24 24" fill="none" xmlns="http://www.w3.org/2000/svg">
<path fill-rule="evenodd" clip-rule="evenodd" d="M11.9969 13.5918C12.8453 13.5918 13.659 13.2548 14.2591 12.6551C14.8591 12.0553 15.1965 11.2418 15.1969 10.3934C15.1969 9.54467 14.8597 8.73073 14.2596 8.13062C13.6595 7.5305 12.8456 7.19336 11.9969 7.19336C11.1482 7.19336 10.3342 7.5305 9.73413 8.13062C9.13402 8.73073 8.79688 9.54467 8.79688 10.3934C8.7973 11.2418 9.13463 12.0553 9.7347 12.6551C10.3348 13.2548 11.1485 13.5918 11.9969 13.5918Z" stroke="#00C188" stroke-width="1.5" stroke-linecap="square"/>
<path fill-rule="evenodd" clip-rule="evenodd" d="M21.5984 10.3934C21.5984 18.3886 13.5984 23.1854 11.9984 23.1854C10.3984 23.1854 2.39844 18.3886 2.39844 10.3934C2.39971 7.84831 3.41175 5.40791 5.21201 3.60885C7.01226 1.80979 9.45334 0.79938 11.9984 0.799805C17.2992 0.799805 21.5984 5.0958 21.5984 10.3934Z" stroke="#00C188" stroke-width="1.5" stroke-linecap="square"/>
</svg>
