<svg viewBox="0 0 54 54" fill="none" xmlns="http://www.w3.org/2000/svg">
<circle cx="27" cy="27" r="27" fill="white"/>
<g filter="url(#filter0_d_205_29925)">
<path d="M31.4496 42.7714L14.8044 36.8444C13.653 36.4349 13.0739 35.2237 13.5088 34.1417L22.2228 12.4468C22.6577 11.3627 23.9441 10.8175 25.0932 11.227L35.6498 14.9857L40.6374 25.8267L34.3222 41.5515C33.8873 42.6356 32.6009 43.1809 31.4518 42.7714H31.4496Z" fill="url(#paint0_linear_205_29925)"/>
</g>
<path d="M35.6496 14.9858L33.1981 21.0917C32.793 22.0982 33.3332 23.2254 34.4021 23.6047L40.6372 25.8268L35.6496 14.9858Z" fill="#C5DACC"/>
<path d="M33.0682 21.6582C33.0682 21.6582 32.3907 23.1109 33.9861 24.2337C34.0456 24.2769 34.1097 24.3135 34.1738 24.3501C34.9337 24.7769 39.9327 27.583 39.9785 27.4666C40.0289 27.3416 40.6377 25.8265 40.6377 25.8265L34.4027 23.6066C34.4027 23.6066 32.8668 23.0031 33.0682 21.6582Z" fill="#31513C"/>
<path d="M31.9026 20.3455C31.8705 20.4231 30.1218 19.8735 27.9954 19.117C25.8689 18.3605 24.1705 17.6816 24.2026 17.604C24.2346 17.5264 25.9834 18.076 28.1098 18.8325C30.2362 19.589 31.9346 20.2679 31.9026 20.3455Z" fill="white"/>
<path d="M35.4894 25.5703C35.4574 25.6479 32.5939 24.7017 29.0941 23.456C25.5943 22.2103 22.7812 21.1348 22.8133 21.0572C22.8453 20.9796 25.7065 21.9258 29.2086 23.1715C32.7083 24.4172 35.5192 25.4927 35.4894 25.5703Z" fill="white"/>
<path d="M35.4735 28.8594C35.4415 28.937 32.3239 27.9003 28.5083 26.5425C24.6926 25.1825 21.6254 24.0187 21.6575 23.9411C21.6895 23.8635 24.8071 24.9002 28.6227 26.2602C32.4384 27.618 35.5056 28.784 35.4735 28.8616V28.8594Z" fill="white"/>
<path d="M34.3817 31.5791C34.3497 31.6567 31.2321 30.62 27.4165 29.2622C23.6008 27.9044 20.5336 26.7384 20.5657 26.6608C20.5977 26.5832 23.7153 27.6199 27.5309 28.9799C31.3466 30.3377 34.4138 31.5037 34.3817 31.5813V31.5791Z" fill="white"/>
<path d="M33.2865 34.2984C33.2545 34.376 30.1369 33.3393 26.3213 31.9815C22.5056 30.6215 19.4384 29.4577 19.4705 29.3801C19.5025 29.3025 22.62 30.3392 26.4357 31.6991C30.2514 33.0569 33.3186 34.2229 33.2865 34.3005V34.2984Z" fill="white"/>
<path d="M32.1952 37.0186C32.1632 37.0962 29.0456 36.0595 25.23 34.7017C21.4143 33.3439 18.3471 32.1779 18.3792 32.1003C18.4112 32.0227 21.5287 33.0594 25.3444 34.4193C29.1601 35.7772 32.2272 36.9432 32.1952 37.0207V37.0186Z" fill="white"/>
<defs>
<filter id="filter0_d_205_29925" x="5.7885" y="5.03021" width="42.4245" height="46.9684" filterUnits="userSpaceOnUse" color-interpolation-filters="sRGB">
<feFlood flood-opacity="0" result="BackgroundImageFix"/>
<feColorMatrix in="SourceAlpha" type="matrix" values="0 0 0 0 0 0 0 0 0 0 0 0 0 0 0 0 0 0 127 0" result="hardAlpha"/>
<feOffset dy="1.51515"/>
<feGaussianBlur stdDeviation="3.78788"/>
<feComposite in2="hardAlpha" operator="out"/>
<feColorMatrix type="matrix" values="0 0 0 0 0.772549 0 0 0 0 0.854902 0 0 0 0 0.8 0 0 0 1 0"/>
<feBlend mode="normal" in2="BackgroundImageFix" result="effect1_dropShadow_205_29925"/>
<feBlend mode="normal" in="SourceGraphic" in2="effect1_dropShadow_205_29925" result="shape"/>
</filter>
<linearGradient id="paint0_linear_205_29925" x1="27.0008" y1="11.0908" x2="27.0008" y2="42.9076" gradientUnits="userSpaceOnUse">
<stop stop-color="#6EA480"/>
<stop offset="1" stop-color="#C5DACC"/>
</linearGradient>
</defs>
</svg>
