<svg width="20" height="16" viewBox="0 0 20 16" fill="none" xmlns="http://www.w3.org/2000/svg">
<path d="M12.0948 0H12.1296C12.3605 0 12.5819 0.0925473 12.7451 0.257283C12.9083 0.422018 13 0.645448 13 0.878419C13 1.11139 12.9083 1.33482 12.7451 1.49956C12.5819 1.66429 12.3605 1.75684 12.1296 1.75684C10.6303 1.75684 9.48958 1.75684 8.58093 1.83063C7.66996 1.90441 7.09205 2.04496 6.6824 2.26515C5.83391 2.72928 5.1527 3.45248 4.7363 4.33119C4.51581 4.79265 4.38351 5.36187 4.31504 6.24966C4.24542 7.14448 4.24542 8.28525 4.24542 9.87343V10.0023L5.54514 8.69049C5.71013 8.53533 5.92835 8.45086 6.15383 8.45487C6.37932 8.45889 6.59445 8.55108 6.75391 8.71202C6.91338 8.87296 7.00472 9.09009 7.0087 9.31766C7.01268 9.54523 6.92898 9.76547 6.77524 9.93199L3.99011 12.7429C3.90673 12.827 3.80728 12.8932 3.6978 12.9373C3.58833 12.9814 3.47111 13.0027 3.35326 12.9997C3.23541 12.9968 3.11938 12.9697 3.01222 12.9201C2.90506 12.8705 2.80899 12.7995 2.72984 12.7113L0.210464 9.90037C0.0624217 9.72663 -0.012492 9.50138 0.00170443 9.27268C0.0159009 9.04398 0.118083 8.82993 0.286453 8.6762C0.454822 8.52247 0.676048 8.44123 0.902935 8.4498C1.12982 8.45838 1.3444 8.5561 1.50091 8.72212L2.50471 9.84181V9.83595C2.50471 8.29345 2.50471 7.08357 2.58014 6.11263C2.65673 5.12411 2.81456 4.3066 3.17082 3.56404C3.74774 2.35216 4.68972 1.35553 5.86195 0.71679C6.58724 0.324429 7.45179 0.159286 8.44284 0.0796431C9.42923 -1.91979e-07 10.6373 0 12.0948 0Z" fill="#0A8778"/>
<path d="M16.6458 3.00023C16.7639 3.00317 16.8801 3.03034 16.9875 3.08007C17.0948 3.1298 17.191 3.20106 17.2702 3.2895L19.7895 6.10026C19.9376 6.27399 20.0125 6.49922 19.9983 6.72791C19.9841 6.9566 19.8819 7.17063 19.7135 7.32435C19.5452 7.47808 19.324 7.55931 19.0971 7.55074C18.8702 7.54216 18.6556 7.44445 18.4991 7.27844L17.4941 6.15882V6.16468C17.4941 7.70708 17.4941 8.91688 17.4199 9.88777C17.3433 10.8762 17.1854 11.6937 16.8292 12.4362C16.2523 13.648 15.3103 14.6446 14.138 15.2833C13.4128 15.6756 12.5482 15.8407 11.5572 15.9204C10.5708 16 9.36272 16 7.90517 16H7.87035C7.63952 16 7.41814 15.9075 7.25492 15.7427C7.0917 15.578 7 15.3546 7 15.1216C7 14.8887 7.0917 14.6653 7.25492 14.5005C7.41814 14.3358 7.63952 14.2433 7.87035 14.2433C9.36968 14.2433 10.5104 14.2433 11.4191 14.1695C12.3289 14.0957 12.908 13.9552 13.3176 13.7338C14.1659 13.27 14.8471 12.5473 15.2637 11.6691C15.4842 11.2077 15.6165 10.6385 15.685 9.75191C15.7534 8.85598 15.7546 7.71411 15.7546 6.1272V5.99837L14.4549 7.31006C14.2899 7.46522 14.0716 7.54968 13.8462 7.54567C13.6207 7.54165 13.4056 7.44947 13.2461 7.28854C13.0866 7.12761 12.9953 6.91049 12.9913 6.68294C12.9873 6.45538 13.071 6.23515 13.2248 6.06864L16.0099 3.25788C16.0931 3.17374 16.1924 3.10752 16.3017 3.06323C16.411 3.01895 16.5281 2.99751 16.6458 3.00023Z" fill="#0A8778"/>
</svg>
