<svg viewBox="0 0 60 60" fill="none" xmlns="http://www.w3.org/2000/svg">
<path opacity="0.4" d="M30 55C43.8071 55 55 43.8071 55 30C55 16.1929 43.8071 5 30 5C16.1929 5 5 16.1929 5 30C5 43.8071 16.1929 55 30 55Z" fill="#157EFB"/>
<path d="M18.4449 31.39L17.0399 32.6325C17.2073 32.8213 17.411 32.9743 17.639 33.0825C17.8669 33.1907 18.1144 33.2517 18.3665 33.262C18.6186 33.2723 18.8701 33.2315 19.1061 33.1423C19.3421 33.053 19.5577 32.917 19.7399 32.7425L18.4449 31.39ZM23.7974 28.8525C24.1397 28.5048 24.333 28.0372 24.3362 27.5492C24.3394 27.0612 24.1521 26.5912 23.8143 26.239C23.4765 25.8869 23.0146 25.6803 22.5269 25.6632C22.0392 25.6461 21.564 25.8198 21.2024 26.1475L23.7974 28.8525ZM16.4024 26.2575C16.2423 26.0628 16.0446 25.9023 15.8211 25.7857C15.5977 25.6691 15.353 25.5988 15.1017 25.5789C14.8504 25.559 14.5977 25.59 14.3587 25.6701C14.1196 25.7501 13.8992 25.8775 13.7105 26.0446C13.5218 26.2118 13.3688 26.4153 13.2605 26.6429C13.1523 26.8705 13.0911 27.1177 13.0805 27.3695C13.0699 27.6214 13.1103 27.8728 13.1991 28.1087C13.2879 28.3446 13.4233 28.5601 13.5974 28.7425L16.4024 26.2575ZM37.3274 22.5225C37.4945 22.7034 37.6956 22.8496 37.9192 22.9528C38.1428 23.056 38.3845 23.1141 38.6306 23.1238C38.8767 23.1336 39.1223 23.0948 39.3534 23.0096C39.5844 22.9245 39.7965 22.7946 39.9774 22.6275C40.1583 22.4604 40.3045 22.2593 40.4076 22.0357C40.5108 21.8121 40.5689 21.5703 40.5787 21.3243C40.5884 21.0782 40.5496 20.8326 40.4645 20.6015C40.3793 20.3704 40.2495 20.1584 40.0824 19.9775L37.3274 22.5225ZM30.1124 15.625C22.6474 15.625 16.5724 21.6325 16.5724 29.075H20.3224C20.3224 23.7325 24.6899 19.375 30.1124 19.375V15.625ZM16.5724 29.075V31.39H20.3224V29.075H16.5724ZM19.7449 32.7425L23.7999 28.8525L21.2049 26.1475L17.1499 30.035L19.7449 32.7425ZM19.8499 30.145L16.4024 26.2575L13.5974 28.7425L17.0399 32.6325L19.8499 30.145ZM40.0824 19.9775C38.8109 18.6019 37.2704 17.5049 35.5535 16.7558C33.8367 16.0066 31.9831 15.6216 30.1099 15.625V19.375C31.4662 19.3717 32.8084 19.6499 34.0516 20.1921C35.2949 20.7344 36.412 21.5287 37.3324 22.525L40.0824 19.9775ZM41.5474 28.61L42.9474 27.365C42.7798 27.1764 42.5759 27.0235 42.3478 26.9156C42.1198 26.8077 41.8723 26.7468 41.6202 26.7368C41.3681 26.7268 41.1166 26.7677 40.8807 26.8572C40.6448 26.9467 40.4294 27.0828 40.2474 27.2575L41.5474 28.61ZM36.1999 31.145C35.8412 31.4898 35.6341 31.9629 35.6243 32.4604C35.6144 32.9578 35.8026 33.4388 36.1474 33.7975C36.4921 34.1562 36.9653 34.3633 37.4627 34.3731C37.9602 34.383 38.4412 34.1948 38.7999 33.85L36.1999 31.145ZM43.5999 33.745C43.9344 34.1012 44.3947 34.3128 44.8829 34.3346C45.371 34.3565 45.8484 34.1869 46.2134 33.862C46.5784 33.5371 46.8021 33.0826 46.8369 32.5952C46.8718 32.1077 46.7149 31.626 46.3999 31.2525L43.5999 33.745ZM22.6174 37.5125C22.2752 37.1583 21.8074 36.9529 21.3151 36.9407C20.8227 36.9286 20.3453 37.1106 19.9861 37.4475C19.6269 37.7844 19.4146 38.2491 19.3952 38.7412C19.3758 39.2334 19.5508 39.7133 19.8824 40.0775L22.6174 37.5125ZM29.8374 44.375C37.3199 44.375 43.4224 38.375 43.4224 30.925H39.6724C39.6724 36.2625 35.2899 40.625 29.8374 40.625V44.375ZM43.4224 30.925V28.61H39.6724V30.925H43.4224ZM40.2474 27.2575L36.1999 31.145L38.7999 33.85L42.8449 29.9625L40.2474 27.2575ZM40.1474 29.8575L43.5974 33.7425L46.4024 31.2525L42.9474 27.365L40.1474 29.8575ZM19.8799 40.075C21.1567 41.4346 22.6991 42.5175 24.4114 43.2567C26.1238 43.9959 27.9697 44.3757 29.8349 44.3725V40.6225C26.9774 40.6225 24.4099 39.4225 22.6149 37.51L19.8799 40.075Z" fill="#157EFB"/>
</svg>
