<svg width="180" height="150" viewBox="0 0 180 150" fill="none" xmlns="http://www.w3.org/2000/svg">
<g clip-path="url(#clip0_2003_484567)">
<path d="M142.51 32.6543C141.511 35.2007 140.946 37.8297 140.785 40.5524C140.748 40.5524 140.714 40.5561 140.684 40.5561C138.421 40.5561 136.158 40.5561 133.891 40.5561C133.861 40.5561 133.835 40.5561 133.805 40.5524V40.3574C133.823 40.1774 133.842 40.0011 133.861 39.8211C133.947 38.891 134.104 37.9722 134.321 37.0646C134.68 35.572 135.204 34.1357 135.873 32.7556C135.911 32.6768 135.956 32.6543 136.042 32.6543C138.159 32.6543 140.273 32.6543 142.39 32.6543H142.51Z" fill="#EBEBEB"/>
<path d="M142.296 50.2993H142.184C140.086 50.2993 137.983 50.2993 135.885 50.2993C135.802 50.2993 135.765 50.273 135.727 50.198C134.983 48.6491 134.459 47.0253 134.138 45.3376C133.984 44.5238 133.876 43.7025 133.823 42.8775C133.823 42.8512 133.812 42.8212 133.805 42.795V42.6037C133.838 42.6037 133.876 42.5962 133.909 42.5962H140.662C140.785 42.5962 140.781 42.5962 140.789 42.7237C140.83 43.2862 140.867 43.8488 140.924 44.4076C141.01 45.3001 141.159 46.1815 141.354 47.0553C141.586 48.1241 141.889 49.1742 142.267 50.2018C142.278 50.2318 142.285 50.2618 142.3 50.303L142.296 50.2993Z" fill="#EBEBEB"/>
<path d="M169.263 52.3356C169.241 52.3731 169.226 52.4031 169.207 52.4294C168.672 53.2732 168.048 54.042 167.389 54.7921C166.589 55.7071 165.695 56.5172 164.726 57.2523C163.772 57.9761 162.762 58.6024 161.692 59.1349C160.659 59.6487 159.593 60.065 158.486 60.3837C157.611 60.6388 156.72 60.8225 155.815 60.9538C155.729 60.965 155.639 60.9838 155.553 60.9988H155.4C155.355 60.9688 155.31 60.9425 155.25 60.905C155.314 60.86 155.366 60.8225 155.418 60.785C157.382 59.4349 159.073 57.8036 160.476 55.8684C161.265 54.7808 161.954 53.637 162.541 52.4294C162.575 52.3544 162.616 52.3281 162.702 52.3319C164.849 52.3319 167 52.3319 169.147 52.3319H169.263V52.3356Z" fill="#EBEBEB"/>
<path d="M162.848 40.5486H153.84V32.658C153.877 32.658 153.911 32.6543 153.945 32.6543C156.253 32.6543 158.565 32.6543 160.873 32.6543C160.951 32.6543 160.985 32.6768 161.015 32.7481C161.666 34.2369 162.141 35.7783 162.448 37.3722C162.608 38.201 162.728 39.0335 162.796 39.8773C162.814 40.0986 162.833 40.3199 162.848 40.5524V40.5486Z" fill="#EBEBEB"/>
<path d="M162.797 42.6523C162.79 42.8399 162.786 43.0236 162.771 43.2111C162.73 43.6499 162.7 44.0925 162.64 44.5275C162.554 45.1313 162.464 45.7351 162.345 46.3351C162.079 47.6552 161.682 48.9378 161.177 50.1867C161.144 50.2692 161.106 50.3029 161.013 50.3029C158.649 50.2992 156.284 50.3029 153.92 50.3029H153.793V42.6561H162.801L162.797 42.6523Z" fill="#EBEBEB"/>
<path d="M151.814 32.703V40.6048H143.02C143.031 40.406 143.038 40.2073 143.057 40.0123C143.102 39.5697 143.139 39.1272 143.207 38.6884C143.315 38.0209 143.431 37.3496 143.573 36.6858C143.861 35.3469 144.295 34.0531 144.845 32.7967C144.879 32.7217 144.916 32.6992 144.995 32.6992C147.232 32.6992 149.465 32.6992 151.702 32.6992H151.814V32.703Z" fill="#EBEBEB"/>
<path d="M151.822 42.7574C151.822 45.2326 151.822 47.7115 151.822 50.1867V50.2992H151.702C149.398 50.2992 147.097 50.2992 144.793 50.2992C144.71 50.2992 144.673 50.2729 144.639 50.1942C144.108 48.9078 143.696 47.5802 143.442 46.2114C143.311 45.5101 143.21 44.8013 143.12 44.0925C143.061 43.6312 143.049 43.1624 143.016 42.6936C143.016 42.6824 143.016 42.6674 143.016 42.6449C143.049 42.6449 143.083 42.6411 143.117 42.6411C145.978 42.6411 148.84 42.6411 151.706 42.6411C151.795 42.6411 151.818 42.6674 151.818 42.7536L151.822 42.7574Z" fill="#EBEBEB"/>
<path d="M172.398 40.6049H165.018C164.857 37.8709 164.303 35.2232 163.297 32.6543H163.413C165.669 32.6543 167.921 32.6543 170.176 32.6543C170.259 32.6543 170.3 32.6768 170.337 32.7518C171.127 34.3232 171.695 35.9733 172.039 37.6984C172.223 38.6172 172.335 39.5398 172.398 40.4736C172.398 40.5149 172.398 40.5561 172.398 40.6086V40.6049Z" fill="#EBEBEB"/>
<path d="M172.407 42.5924C172.4 42.7725 172.396 42.9412 172.381 43.11C172.332 43.7775 172.254 44.4451 172.138 45.1014C171.865 46.639 171.408 48.1166 170.78 49.5455C170.679 49.7742 170.57 49.9992 170.469 50.228C170.447 50.2805 170.417 50.2993 170.361 50.2993C168.101 50.2993 165.838 50.2993 163.579 50.2993C163.556 50.2993 163.534 50.2993 163.504 50.2955C163.586 50.0593 163.669 49.8305 163.747 49.598C164.147 48.4204 164.447 47.2165 164.66 45.994C164.813 45.1051 164.925 44.2088 164.978 43.3088C164.989 43.0987 165.004 42.885 165.015 42.6712C165.015 42.6149 165.034 42.5849 165.094 42.5924C165.116 42.5924 165.139 42.5924 165.161 42.5924H172.407Z" fill="#EBEBEB"/>
<path d="M169.062 30.6403C169.062 30.6403 169.054 30.659 169.047 30.6703H168.953C166.802 30.6703 164.651 30.6703 162.5 30.6703C162.426 30.6703 162.381 30.6515 162.347 30.5802C161.479 28.8589 160.42 27.2612 159.141 25.8211C158.397 24.9811 157.57 24.2348 156.683 23.5485C156.242 23.2072 155.785 22.8922 155.337 22.5621C155.314 22.5471 155.292 22.5284 155.262 22.5059C155.295 22.4834 155.322 22.4646 155.352 22.4459C155.34 22.4046 155.325 22.3634 155.31 22.3071C157.607 22.5734 159.788 23.2184 161.838 24.2723C164.782 25.7836 167.225 27.8763 169.069 30.644L169.062 30.6403Z" fill="#EBEBEB"/>
<path d="M150.562 60.9124C150.484 60.9274 150.428 60.9499 150.375 60.9424C149.664 60.8524 148.965 60.7099 148.273 60.5337C146.975 60.2036 145.725 59.7386 144.528 59.1423C143.155 58.4598 141.883 57.6197 140.709 56.6296C139.878 55.9283 139.108 55.167 138.412 54.327C137.892 53.6969 137.417 53.0294 136.979 52.3393C136.972 52.3243 136.964 52.3055 136.949 52.2793H137.054C139.059 52.2793 141.06 52.2793 143.066 52.2793C143.148 52.2793 143.182 52.3093 143.215 52.3768C143.847 53.6444 144.573 54.852 145.422 55.9883C146.2 57.0234 147.072 57.9722 148.011 58.861C148.789 59.5961 149.616 60.2674 150.502 60.8712C150.514 60.8787 150.521 60.8899 150.559 60.9199L150.562 60.9124Z" fill="#EBEBEB"/>
<path d="M150.481 22.4986C150.208 22.7012 149.882 22.9299 149.572 23.1699C148.513 23.9838 147.559 24.9026 146.661 25.8889C145.453 27.2127 144.432 28.6679 143.605 30.258C143.553 30.3592 143.508 30.4605 143.448 30.558C143.433 30.588 143.388 30.6143 143.355 30.618C143.246 30.6255 143.138 30.618 143.025 30.618H137.148C140.422 25.9827 144.817 23.1999 150.414 22.3486C150.402 22.3749 150.387 22.3974 150.376 22.4236C150.414 22.4499 150.455 22.4799 150.481 22.4986Z" fill="#EBEBEB"/>
<path d="M160.164 52.3394C159.326 53.8095 158.338 55.1521 157.19 56.3747C156.168 57.4622 155.054 58.4373 153.793 59.2661V52.3431H160.164V52.3394Z" fill="#EBEBEB"/>
<path d="M151.808 52.3433V59.135C149.219 57.3499 147.207 55.081 145.695 52.3433H151.808Z" fill="#EBEBEB"/>
<path d="M159.96 30.6103H153.844V24.1411C155.108 24.9699 156.253 25.9225 157.274 27.0213C158.295 28.1164 159.178 29.3165 159.96 30.6103Z" fill="#EBEBEB"/>
<path d="M151.815 24.3433V30.6662H145.941C147.43 28.116 149.334 25.9746 151.815 24.3433Z" fill="#EBEBEB"/>
<path d="M12.7581 25.6665H9.23047V50.8309H12.7581V25.6665Z" fill="#EBEBEB"/>
<path d="M18.8206 31.7607H15.293V50.8347H18.8206V31.7607Z" fill="#EBEBEB"/>
<path d="M24.8831 41.2979H21.3555V50.8348H24.8831V41.2979Z" fill="#EBEBEB"/>
<path d="M30.9456 35.8486H27.418V50.831H30.9456V35.8486Z" fill="#EBEBEB"/>
<path d="M37.0081 30.1294H33.4805V50.8347H37.0081V30.1294Z" fill="#EBEBEB"/>
<path d="M43.0706 26.7656H39.543V50.8349H43.0706V26.7656Z" fill="#EBEBEB"/>
<path d="M7.18353 22.4673L7.22468 29.5591L7.24339 36.6509L7.27331 50.8344L7.18353 50.7444C10.4269 50.7369 13.6665 50.7294 16.9098 50.7444L26.6361 50.7632L36.3624 50.7819L46.0887 50.8344L36.3624 50.8869L26.6361 50.9057L16.9098 50.9244C13.6665 50.9357 10.4269 50.9319 7.18353 50.9244H7.09375V50.8344L7.12368 36.6509L7.14238 29.5591L7.18353 22.4673Z" fill="#EBEBEB"/>
<path d="M6.40625 23.8881C6.66437 23.8096 6.92623 23.7909 7.18435 23.7871C7.44247 23.7871 7.70434 23.8096 7.96246 23.8881C7.70434 23.9667 7.44247 23.9854 7.18435 23.9891C6.92623 23.9891 6.66437 23.9667 6.40625 23.8881Z" fill="#EBEBEB"/>
<path d="M6.40625 26.0449C6.66437 25.9663 6.92623 25.9476 7.18435 25.9438C7.44247 25.9438 7.70434 25.9663 7.96246 26.0449C7.70434 26.1234 7.44247 26.1421 7.18435 26.1459C6.92623 26.1459 6.66437 26.1234 6.40625 26.0449Z" fill="#EBEBEB"/>
<path d="M6.40625 28.2011C6.66437 28.1225 6.92623 28.1038 7.18435 28.1001C7.44247 28.1001 7.70434 28.1225 7.96246 28.2011C7.70434 28.2797 7.44247 28.2984 7.18435 28.3021C6.92623 28.3021 6.66437 28.2797 6.40625 28.2011Z" fill="#EBEBEB"/>
<path d="M6.40625 30.3574C6.66437 30.2788 6.92623 30.2601 7.18435 30.2563C7.44247 30.2563 7.70434 30.2788 7.96246 30.3574C7.70434 30.4359 7.44247 30.4546 7.18435 30.4584C6.92623 30.4584 6.66437 30.4359 6.40625 30.3574Z" fill="#EBEBEB"/>
<path d="M6.40625 32.5141C6.66437 32.4355 6.92623 32.4168 7.18435 32.4131C7.44247 32.4131 7.70434 32.4355 7.96246 32.5141C7.70434 32.5926 7.44247 32.6114 7.18435 32.6151C6.92623 32.6151 6.66437 32.5926 6.40625 32.5141Z" fill="#EBEBEB"/>
<path d="M6.40625 34.6669C6.66437 34.5884 6.92623 34.5697 7.18435 34.5659C7.44247 34.5659 7.70434 34.5884 7.96246 34.6669C7.70434 34.7455 7.44247 34.7642 7.18435 34.7679C6.92623 34.7679 6.66437 34.7455 6.40625 34.6669Z" fill="#EBEBEB"/>
<path d="M6.40625 36.8232C6.66437 36.7446 6.92623 36.7259 7.18435 36.7222C7.44247 36.7222 7.70434 36.7446 7.96246 36.8232C7.70434 36.9017 7.44247 36.9204 7.18435 36.9242C6.92623 36.9242 6.66437 36.9017 6.40625 36.8232Z" fill="#EBEBEB"/>
<path d="M6.40625 38.9794C6.66437 38.9009 6.92623 38.8822 7.18435 38.8784C7.44247 38.8784 7.70434 38.9009 7.96246 38.9794C7.70434 39.058 7.44247 39.0767 7.18435 39.0804C6.92623 39.0804 6.66437 39.058 6.40625 38.9794Z" fill="#EBEBEB"/>
<path d="M6.40625 41.1362C6.66437 41.0576 6.92623 41.0389 7.18435 41.0352C7.44247 41.0352 7.70434 41.0576 7.96246 41.1362C7.70434 41.2147 7.44247 41.2334 7.18435 41.2372C6.92623 41.2372 6.66437 41.2147 6.40625 41.1362Z" fill="#EBEBEB"/>
<path d="M6.40625 43.2924C6.66437 43.2139 6.92623 43.1951 7.18435 43.1914C7.44247 43.1914 7.70434 43.2139 7.96246 43.2924C7.70434 43.371 7.44247 43.3897 7.18435 43.3934C6.92623 43.3934 6.66437 43.371 6.40625 43.2924Z" fill="#EBEBEB"/>
<path d="M6.40625 45.4452C6.66437 45.3667 6.92623 45.348 7.18435 45.3442C7.44247 45.3442 7.70434 45.3667 7.96246 45.4452C7.70434 45.5238 7.44247 45.5425 7.18435 45.5462C6.92623 45.5462 6.66437 45.5238 6.40625 45.4452Z" fill="#EBEBEB"/>
<path d="M6.40625 47.6015C6.66437 47.5229 6.92623 47.5042 7.18435 47.5005C7.44247 47.5005 7.70434 47.5229 7.96246 47.6015C7.70434 47.68 7.44247 47.6988 7.18435 47.7025C6.92623 47.7025 6.66437 47.68 6.40625 47.6015Z" fill="#EBEBEB"/>
<path d="M161.402 40.4849H18.5977V136.248H161.402V40.4849Z" fill="#DBDBDB"/>
<path d="M160.361 41.6514H19.6328V135.078H160.361V41.6514Z" fill="#153860"/>
<path d="M179.996 143.43H-0.00390625V150.004H179.996V143.43Z" fill="#C7C7C7"/>
<path d="M-0.00390625 143.43L18.5958 136.249H161.396L179.996 143.43H-0.00390625Z" fill="#DBDBDB"/>
<path d="M20.2578 140.884L32.2586 136.249H147.736L159.737 140.884H20.2578Z" fill="#153860"/>
<path d="M152.404 48.7505H27.582V127.983H152.404V48.7505Z" fill="white"/>
<path d="M152.403 48.7505H27.4766V51.7995H152.403V48.7505Z" fill="#455A64"/>
<path d="M29.1424 51.0312C29.5597 51.0312 29.898 50.6921 29.898 50.2737C29.898 49.8553 29.5597 49.5161 29.1424 49.5161C28.725 49.5161 28.3867 49.8553 28.3867 50.2737C28.3867 50.6921 28.725 51.0312 29.1424 51.0312Z" fill="#C7C7C7"/>
<path d="M32.2205 51.0312C32.6378 51.0312 32.9762 50.6921 32.9762 50.2737C32.9762 49.8553 32.6378 49.5161 32.2205 49.5161C31.8032 49.5161 31.4648 49.8553 31.4648 50.2737C31.4648 50.6921 31.8032 51.0312 32.2205 51.0312Z" fill="white"/>
<path d="M35.2986 51.0312C35.716 51.0312 36.0543 50.6921 36.0543 50.2737C36.0543 49.8553 35.716 49.5161 35.2986 49.5161C34.8813 49.5161 34.543 49.8553 34.543 50.2737C34.543 50.6921 34.8813 51.0312 35.2986 51.0312Z" fill="#6DA37F"/>
<path d="M52.0988 100.156H33.125V113.169H52.0988V100.156Z" fill="#EBEBEB"/>
<path d="M33.1248 101.108C33.9403 101.573 34.7409 102.057 35.5489 102.53C36.3532 103.01 37.1538 103.494 37.9506 103.985C39.5479 104.96 41.1341 105.958 42.7165 106.955H42.5032C44.0856 105.954 45.6718 104.96 47.2691 103.985C48.0659 103.494 48.8702 103.01 49.6708 102.53C50.4788 102.057 51.2793 101.57 52.0948 101.108C51.328 101.648 50.5499 102.166 49.7755 102.695C48.9974 103.216 48.2193 103.734 47.4337 104.247C45.87 105.279 44.2914 106.288 42.7127 107.293L42.608 107.36L42.5032 107.293C40.9246 106.288 39.3459 105.275 37.7822 104.247C37.0004 103.734 36.2185 103.216 35.4404 102.695C34.6661 102.166 33.888 101.648 33.1211 101.108H33.1248Z" fill="white"/>
<path d="M33.168 110.856C33.7441 110.353 34.3426 109.88 34.9486 109.419C35.5547 108.958 36.1719 108.515 36.7929 108.073C37.4176 107.638 38.0461 107.21 38.6858 106.801C39.3255 106.389 39.9726 105.988 40.6423 105.62C40.0662 106.123 39.4676 106.595 38.8616 107.056C38.2556 107.518 37.6383 107.96 37.0173 108.403C36.3926 108.834 35.7641 109.265 35.1245 109.674C34.4848 110.087 33.8376 110.488 33.168 110.856Z" fill="white"/>
<path d="M52.0524 110.856C51.3828 110.488 50.7356 110.087 50.0959 109.674C49.4562 109.265 48.8278 108.834 48.203 108.403C47.5821 107.964 46.9648 107.522 46.3588 107.056C45.7528 106.595 45.1542 106.123 44.5781 105.62C45.2477 105.988 45.8949 106.389 46.5346 106.801C47.1743 107.21 47.8028 107.642 48.4275 108.073C49.0485 108.512 49.6657 108.954 50.2717 109.419C50.8778 109.88 51.4763 110.353 52.0524 110.856Z" fill="white"/>
<path d="M53.2998 116.113L54.5044 119.031L53.2998 119.533L52.0878 116.593L50.0977 118.142V109.914L55.8399 115.73L53.2998 116.113Z" fill="#153860"/>
<path d="M50.0984 109.017C50.0423 108.879 50.0273 108.74 50.0273 108.605C50.0273 108.466 50.0423 108.327 50.0984 108.192C50.1545 108.331 50.1695 108.47 50.1695 108.605C50.1695 108.744 50.1545 108.882 50.0984 109.017Z" fill="#153860"/>
<path d="M49.3883 109.314C49.2499 109.257 49.1451 109.167 49.0441 109.074C48.9468 108.976 48.8608 108.867 48.8047 108.729C48.9431 108.785 49.0478 108.875 49.1488 108.969C49.2461 109.066 49.3322 109.175 49.3883 109.314Z" fill="#153860"/>
<path d="M49.0925 110.026C48.9541 110.082 48.8157 110.097 48.681 110.097C48.5426 110.097 48.4042 110.082 48.2695 110.026C48.4079 109.97 48.5464 109.955 48.681 109.955C48.8194 109.955 48.9579 109.97 49.0925 110.026Z" fill="#153860"/>
<path d="M49.3883 110.739C49.3322 110.878 49.2424 110.983 49.1488 111.084C49.0516 111.181 48.9431 111.268 48.8047 111.324C48.8608 111.185 48.9506 111.08 49.0441 110.979C49.1414 110.881 49.2499 110.795 49.3883 110.739Z" fill="#153860"/>
<path d="M51.1016 110.026C51.24 109.97 51.3784 109.955 51.5131 109.955C51.6515 109.955 51.7899 109.97 51.9246 110.026C51.7861 110.082 51.6477 110.097 51.5131 110.097C51.3746 110.097 51.2362 110.082 51.1016 110.026Z" fill="#153860"/>
<path d="M50.8086 109.314C50.8647 109.175 50.9545 109.07 51.048 108.969C51.1453 108.871 51.2538 108.785 51.3922 108.729C51.3361 108.867 51.2463 108.972 51.1528 109.074C51.0555 109.171 50.947 109.257 50.8086 109.314Z" fill="#153860"/>
<path d="M107.845 118.438L93.7422 114.808L98.3884 96.6602L108.859 99.3566L111.605 103.748L107.845 118.438Z" fill="#EBEBEB"/>
<path d="M108.859 99.3569L111.605 103.749L107.977 102.815L108.859 99.3569Z" fill="#DBDBDB"/>
<path d="M98.8661 100.528L106.707 102.546L106.826 102.081L98.9852 100.063L98.8661 100.528Z" fill="#DBDBDB"/>
<path d="M98.5614 101.701L106.402 103.72L106.521 103.255L98.6805 101.236L98.5614 101.701Z" fill="#DBDBDB"/>
<path d="M98.2567 102.878L106.098 104.896L106.217 104.432L98.3758 102.413L98.2567 102.878Z" fill="#DBDBDB"/>
<path d="M97.9596 104.054L109.449 107.012L109.568 106.547L98.0786 103.589L97.9596 104.054Z" fill="#DBDBDB"/>
<path d="M97.6549 105.231L109.145 108.188L109.264 107.723L97.774 104.766L97.6549 105.231Z" fill="#DBDBDB"/>
<path d="M97.358 106.408L108.848 109.366L108.967 108.901L97.4771 105.943L97.358 106.408Z" fill="#DBDBDB"/>
<path d="M97.0533 107.585L108.543 110.542L108.662 110.077L97.1724 107.12L97.0533 107.585Z" fill="#DBDBDB"/>
<path d="M96.7525 108.762L108.242 111.72L108.361 111.255L96.8716 108.297L96.7525 108.762Z" fill="#DBDBDB"/>
<path d="M96.4518 109.935L107.941 112.893L108.06 112.428L96.5708 109.47L96.4518 109.935Z" fill="#DBDBDB"/>
<path d="M96.151 111.113L107.641 114.07L107.76 113.605L96.2701 110.648L96.151 111.113Z" fill="#DBDBDB"/>
<path d="M95.8541 112.291L107.344 115.248L107.463 114.783L95.9732 111.826L95.8541 112.291Z" fill="#DBDBDB"/>
<path d="M95.5494 113.463L107.039 116.421L107.158 115.956L95.6685 112.998L95.5494 113.463Z" fill="#DBDBDB"/>
<path d="M64.3164 92.8279L82.5308 93.503L82.9684 81.2883L64.7541 80.6133L64.3164 92.8279Z" fill="#EBEBEB"/>
<path d="M65.1016 92.0929L81.8009 92.7117L82.1824 82.0197L65.4794 81.4009L65.1016 92.0929Z" fill="white"/>
<path d="M66.8763 84.7911C66.8389 85.7962 67.6245 86.6437 68.627 86.6812C69.6296 86.7187 70.475 85.9312 70.5124 84.9261C70.5498 83.921 69.7642 83.0735 68.7617 83.036C67.7591 82.9985 66.9137 83.786 66.8763 84.7911Z" fill="#DBDBDB"/>
<path d="M70.2891 92.303L81.7923 92.7305L76.3268 84.7012L70.2891 92.303Z" fill="#DBDBDB"/>
<path d="M65.7734 92.138L75.2715 92.4905L70.7114 87.2251L65.7734 92.138Z" fill="#EBEBEB"/>
<path d="M57.4325 101.514L75.2765 97.7858L72.7739 85.8262L54.9336 89.5539L57.4325 101.514Z" fill="#EBEBEB"/>
<path d="M58.0203 100.613L74.3792 97.193L72.187 86.7222L55.8281 90.1424L58.0203 100.613Z" fill="white"/>
<path d="M57.9948 93.0981C58.2005 94.0844 59.1619 94.7144 60.1458 94.5119C61.1296 94.3057 61.7581 93.3418 61.5561 92.3555C61.3504 91.3692 60.3889 90.7391 59.4051 90.9417C58.4212 91.1479 57.7928 92.1117 57.9948 93.0981Z" fill="#DBDBDB"/>
<path d="M63.1055 99.5673L74.373 97.2121L67.1456 90.7354L63.1055 99.5673Z" fill="#DBDBDB"/>
<path d="M58.6875 100.497L67.9911 98.5509L62.3012 94.5381L58.6875 100.497Z" fill="#EBEBEB"/>
<path d="M119.452 100.508H113.418V124.108H119.452V100.508Z" fill="#6DA37F"/>
<path d="M119.452 125.274H113.418V129.16H119.452V125.274Z" fill="#6DA37F"/>
<path d="M119.452 130.326H113.418V132.723H119.452V130.326Z" fill="#6DA37F"/>
<path d="M119.452 133.889H113.418V135.078H119.452V133.889Z" fill="#6DA37F"/>
<path d="M121.462 100.508H111.406L116.434 93.5322L121.462 100.508Z" fill="#6DA37F"/>
<path d="M131.464 93.0073H125.43V124.108H131.464V93.0073Z" fill="#6DA37F"/>
<path d="M131.464 125.274H125.43V129.16H131.464V125.274Z" fill="#6DA37F"/>
<path d="M131.464 130.327H125.43V132.723H131.464V130.327Z" fill="#6DA37F"/>
<path d="M131.464 133.889H125.43V135.078H131.464V133.889Z" fill="#6DA37F"/>
<path d="M133.473 93.0073H123.418L128.446 86.0317L133.473 93.0073Z" fill="#6DA37F"/>
<path d="M143.475 85.5073H137.441V124.109H143.475V85.5073Z" fill="#6DA37F"/>
<path d="M143.475 125.275H137.441V129.16H143.475V125.275Z" fill="#6DA37F"/>
<path d="M143.475 130.327H137.441V132.724H143.475V130.327Z" fill="#6DA37F"/>
<path d="M143.475 133.89H137.441V135.078H143.475V133.89Z" fill="#6DA37F"/>
<path d="M145.485 85.5073H135.43L140.457 78.5317L145.485 85.5073Z" fill="#6DA37F"/>
<path d="M155.479 78.0063H149.445V124.109H155.479V78.0063Z" fill="#6DA37F"/>
<path d="M155.479 125.275H149.445V129.16H155.479V125.275Z" fill="#6DA37F"/>
<path d="M155.479 130.327H149.445V132.723H155.479V130.327Z" fill="#6DA37F"/>
<path d="M155.479 133.889H149.445V135.078H155.479V133.889Z" fill="#6DA37F"/>
<path d="M157.493 78.0063H147.434L152.461 71.0308L157.493 78.0063Z" fill="#6DA37F"/>
<path opacity="0.6" d="M54.7108 119.196C54.7108 120.666 53.5212 121.855 52.0585 121.855C50.5958 121.855 49.4062 120.662 49.4062 119.196C49.4062 117.729 50.5958 116.537 52.0585 116.537C53.5212 116.537 54.7108 117.729 54.7108 119.196Z" fill="#6DA37F"/>
<path opacity="0.6" d="M57.9363 114.114C57.9363 114.83 57.3565 115.412 56.642 115.412C55.9275 115.412 55.3477 114.83 55.3477 114.114C55.3477 113.398 55.9275 112.816 56.642 112.816C57.3565 112.816 57.9363 113.398 57.9363 114.114Z" fill="#6DA37F"/>
<path opacity="0.6" d="M114.714 117.909C114.714 118.626 114.134 119.207 113.419 119.207C112.705 119.207 112.125 118.626 112.125 117.909C112.125 117.193 112.705 116.612 113.419 116.612C114.134 116.612 114.714 117.193 114.714 117.909Z" fill="#6DA37F"/>
<path opacity="0.6" d="M140.608 129.745C140.608 130.461 140.028 131.042 139.314 131.042C138.599 131.042 138.02 130.461 138.02 129.745C138.02 129.029 138.599 128.447 139.314 128.447C140.028 128.447 140.608 129.029 140.608 129.745Z" fill="#6DA37F"/>
<path opacity="0.6" d="M138.625 133.533C138.625 134.384 137.933 135.078 137.084 135.078H40.9319C40.0827 135.078 39.3906 134.384 39.3906 133.533C39.3906 132.682 40.0827 131.988 40.9319 131.988C41.0591 131.988 41.1825 132.003 41.2985 132.033C41.2985 130.349 42.6602 128.984 44.3398 128.984C45.189 128.984 45.9596 129.336 46.5133 129.903L46.5394 129.891C46.5207 129.704 46.5133 129.513 46.5133 129.321C46.5133 126.145 49.0832 123.565 52.2555 123.565C53.1608 123.565 54.0175 123.775 54.7806 124.153C54.9041 121.997 56.6847 120.287 58.8694 120.287C60.6126 120.287 62.0978 121.371 62.6888 122.905C63.7026 121.288 65.502 120.216 67.5482 120.216C67.9261 120.216 68.2927 120.253 68.6443 120.321C68.5658 119.886 68.5283 119.436 68.5283 118.978C68.5283 114.676 72.0074 111.189 76.2982 111.189C78.2359 111.189 80.0091 111.901 81.3671 113.079C81.6214 112.58 82.1414 112.242 82.7362 112.242C82.9457 112.242 83.1477 112.287 83.3273 112.359L84.7713 73.7046H93.2406L94.6846 112.359C94.8679 112.284 95.0662 112.242 95.2757 112.242C95.8705 112.242 96.3904 112.584 96.6448 113.079C98.0065 111.901 99.7759 111.189 101.714 111.189C106.004 111.189 109.484 114.676 109.484 118.978C109.484 119.436 109.442 119.886 109.368 120.321C109.723 120.253 110.09 120.216 110.464 120.216C112.51 120.216 114.309 121.288 115.323 122.905C115.914 121.371 117.403 120.287 119.142 120.287C121.327 120.287 123.108 121.997 123.231 124.153C123.994 123.775 124.851 123.565 125.756 123.565C128.929 123.565 131.499 126.141 131.499 129.321C131.499 129.513 131.491 129.7 131.472 129.891L131.499 129.903C132.052 129.336 132.823 128.984 133.672 128.984C135.352 128.984 136.713 130.345 136.713 132.033C136.829 132.006 136.953 131.988 137.08 131.988C137.929 131.988 138.621 132.682 138.621 133.533H138.625Z" fill="#6DA37F"/>
<path d="M114.249 120.809L112.247 121.18L111.802 123.291L111.353 121.18L109.355 120.809L111.346 120.321L111.802 118.322L112.258 120.321L114.249 120.809Z" fill="#FCFCFC"/>
<path d="M94.8032 103.861L92.8019 104.232L92.3567 106.348L91.9078 104.232L89.9102 103.861L91.9003 103.374L92.3567 101.378L92.8093 103.374L94.8032 103.861Z" fill="#FCFCFC"/>
<path d="M65.7424 124.832L64.6239 125.039L64.3732 126.22L64.1226 125.039L63.0078 124.832L64.1189 124.559L64.3732 123.445L64.6276 124.559L65.7424 124.832Z" fill="#FCFCFC"/>
<path d="M125.879 128.358L124.761 128.564L124.51 129.745L124.259 128.564L123.145 128.354L124.256 128.084L124.51 126.966L124.764 128.084L125.879 128.358Z" fill="#FCFCFC"/>
<path d="M50.3596 132.495L49.2411 132.701L48.9904 133.882L48.7435 132.701L47.625 132.495L48.736 132.221L48.9904 131.107L49.2448 132.221L50.3596 132.495Z" fill="#FCFCFC"/>
<path d="M98.9768 131.512L97.8583 131.718L97.6076 132.899L97.357 131.718L96.2422 131.512L97.3532 131.238L97.6076 130.124L97.862 131.238L98.9768 131.512Z" fill="#FCFCFC"/>
<path d="M90.7893 100.651L89.6745 100.857L89.4239 102.038L89.1732 100.857L88.0547 100.651L89.1695 100.377L89.4239 99.2593L89.6782 100.377L90.7893 100.651Z" fill="#FCFCFC"/>
<path d="M128.516 130.912C128.101 130.912 128.097 131.561 128.516 131.561C128.935 131.561 128.935 130.912 128.516 130.912Z" fill="#FCFCFC"/>
<path d="M86.4652 96.5518C86.0499 96.5518 86.0462 97.2005 86.4652 97.2005C86.8842 97.2005 86.8842 96.5518 86.4652 96.5518Z" fill="#FCFCFC"/>
<path d="M58.8246 132.495C58.4093 132.495 58.4056 133.143 58.8246 133.143C59.2435 133.143 59.2435 132.495 58.8246 132.495Z" fill="#FCFCFC"/>
<path d="M79.3597 128.032C78.9445 128.032 78.9407 128.681 79.3597 128.681C79.7787 128.681 79.7787 128.032 79.3597 128.032Z" fill="#FCFCFC"/>
<path d="M120.405 125.069C120.11 125.069 120.11 125.53 120.405 125.53C120.701 125.53 120.701 125.069 120.405 125.069Z" fill="#FCFCFC"/>
<path d="M92.0849 121.626C91.7894 121.626 91.7894 122.088 92.0849 122.088C92.3805 122.088 92.3805 121.626 92.0849 121.626Z" fill="#FCFCFC"/>
<path d="M71.3545 117.133C71.0589 117.133 71.0589 117.595 71.3545 117.595C71.65 117.595 71.65 117.133 71.3545 117.133Z" fill="#FCFCFC"/>
<path d="M106.823 118.071C106.023 118.071 106.023 119.316 106.823 119.316C107.624 119.316 107.624 118.071 106.823 118.071Z" fill="#FCFCFC"/>
<path d="M74.2918 115.022C73.4913 115.022 73.4913 116.267 74.2918 116.267C75.0924 116.267 75.0924 115.022 74.2918 115.022Z" fill="#FCFCFC"/>
<path d="M74.5958 43.144C74.2928 43.144 62.9916 48.3719 62.3219 61.2466C61.7084 73.0863 69.871 84.3259 70.926 83.5833C72.2166 82.672 70.0207 75.2952 72.5308 66.8608C73.4211 63.8681 77.3117 61.2129 77.3117 61.2129L74.5958 43.144Z" fill="#6DA37F"/>
<path opacity="0.1" d="M77.3147 61.209C77.3147 61.209 75.6275 62.3603 74.221 64.003C72.5376 60.2414 69.4065 53.2209 67.3789 48.6681C70.6896 44.8315 74.423 43.1401 74.5951 43.1401L77.3147 61.209Z" fill="black"/>
<path d="M103.356 43.1624C103.659 43.1624 114.952 48.4091 115.603 61.2838C116.202 73.1234 108.02 84.3518 106.969 83.6055C105.682 82.6904 107.886 75.3211 105.391 66.8792C104.504 63.8865 100.617 61.2238 100.617 61.2238L103.359 43.1587L103.356 43.1624Z" fill="#6DA37F"/>
<path opacity="0.1" d="M110.605 48.7466C108.559 53.3332 105.417 60.3687 103.756 64.0853C102.342 62.4089 100.613 61.2238 100.613 61.2238L103.355 43.1587C103.527 43.1587 107.294 44.8726 110.605 48.7466Z" fill="black"/>
<path d="M97.5191 72.763L80.4682 72.7517C80.4682 72.7517 72.4365 58.3544 73.3867 41.1856C73.8655 32.6162 76.0989 23.9905 78.7885 16.85C82.492 6.99052 87.0634 0 89.046 0C91.0362 0 95.5926 7.00178 99.2848 16.865C101.956 24.0056 104.178 32.6387 104.642 41.2081C105.57 58.3769 97.5154 72.763 97.5154 72.763H97.5191Z" fill="#EBEBEB"/>
<path d="M99.2246 38.9878C99.2208 44.4332 94.8141 48.8397 89.3861 48.836C83.9543 48.8322 79.5588 44.4144 79.5625 38.9727C79.5662 33.5273 83.973 29.1208 89.401 29.1245C94.8328 29.1283 99.2283 33.5461 99.2246 38.9878Z" fill="#C7C7C7"/>
<path d="M98.873 37.9829C98.8693 43.4283 94.4625 47.8349 89.0345 47.8311C83.6027 47.8274 79.2072 43.4095 79.2109 37.9679C79.2147 32.5225 83.6214 28.1159 89.0495 28.1196C94.4812 28.1234 98.8767 32.5412 98.873 37.9829Z" fill="#6DA37F"/>
<path d="M95.8619 37.9754C95.8619 41.752 92.8094 44.8122 89.0423 44.8122C85.2752 44.8122 82.2227 41.752 82.2227 37.9754C82.2227 34.1989 85.2752 31.1387 89.0423 31.1387C92.8094 31.1387 95.8619 34.1989 95.8619 37.9754Z" fill="white"/>
<path d="M95.8602 37.9752C95.8602 38.849 95.6993 39.6853 95.4001 40.4503L91.5133 44.3469C90.7501 44.6469 89.9122 44.8082 89.0443 44.8082C88.4121 44.8082 87.7986 44.7182 87.2188 44.5569L95.6095 36.145C95.7704 36.7263 95.8602 37.3376 95.8602 37.9752Z" fill="#EBEBEB"/>
<path d="M90.0448 31.2133L82.2975 38.9802C82.2488 38.6539 82.2227 38.3164 82.2227 37.9789C82.2227 34.2023 85.2752 31.1421 89.0423 31.1421C89.3827 31.1421 89.7156 31.1683 90.0411 31.2171L90.0448 31.2133Z" fill="#EBEBEB"/>
<path d="M95.0086 34.6637L85.7425 43.9532C85.5629 43.8556 85.3908 43.7506 85.2188 43.6306L94.6869 34.1387C94.8029 34.3074 94.9076 34.4837 95.0086 34.6637Z" fill="#EBEBEB"/>
<path d="M99.2893 16.865L78.793 16.85C82.4927 6.99052 87.0641 0 89.0467 0C91.0369 0 95.5933 7.00178 99.2855 16.865H99.2893Z" fill="#6DA37F"/>
<path d="M82.3203 14.7314C82.3203 15.0501 82.0622 15.3051 81.7442 15.3051C81.4263 15.3051 81.1719 15.0464 81.1719 14.7276C81.1719 14.4088 81.43 14.1538 81.748 14.1538C82.0659 14.1538 82.3203 14.4126 82.3203 14.7314Z" fill="white"/>
<path d="M85.9688 14.7353C85.9688 15.054 85.7106 15.3091 85.3927 15.3091C85.0747 15.3091 84.8203 15.0503 84.8203 14.7315C84.8203 14.4127 85.0784 14.1577 85.3964 14.1577C85.7144 14.1577 85.9688 14.4165 85.9688 14.7353Z" fill="white"/>
<path d="M89.6133 14.7387C89.6133 15.0575 89.3552 15.3125 89.0372 15.3125C88.7192 15.3125 88.4648 15.0537 88.4648 14.7349C88.4648 14.4162 88.723 14.1611 89.0409 14.1611C89.3589 14.1611 89.6133 14.4199 89.6133 14.7387Z" fill="white"/>
<path d="M93.2578 14.7387C93.2578 15.0575 92.9997 15.3125 92.6817 15.3125C92.3638 15.3125 92.1094 15.0537 92.1094 14.7349C92.1094 14.4162 92.3675 14.1611 92.6855 14.1611C93.0034 14.1611 93.2578 14.4199 93.2578 14.7387Z" fill="white"/>
<path d="M96.9063 14.7426C96.9063 15.0614 96.6481 15.3164 96.3302 15.3164C96.0122 15.3164 95.7578 15.0576 95.7578 14.7388C95.7578 14.4201 96.0159 14.165 96.3339 14.165C96.6519 14.165 96.9063 14.4238 96.9063 14.7426Z" fill="white"/>
<path d="M82.2969 70.123C82.2969 70.4417 82.0388 70.6967 81.7208 70.6967C81.4028 70.6967 81.1484 70.438 81.1484 70.1192C81.1484 69.8004 81.4066 69.5454 81.7245 69.5454C82.0425 69.5454 82.2969 69.8042 82.2969 70.123Z" fill="#C7C7C7"/>
<path d="M85.9453 70.1269C85.9453 70.4456 85.6872 70.7007 85.3692 70.7007C85.0513 70.7007 84.7969 70.4419 84.7969 70.1231C84.7969 69.8043 85.055 69.5493 85.373 69.5493C85.6909 69.5493 85.9453 69.8081 85.9453 70.1269Z" fill="#C7C7C7"/>
<path d="M89.5859 70.1264C89.5859 70.4451 89.3278 70.7002 89.0099 70.7002C88.6919 70.7002 88.4375 70.4414 88.4375 70.1226C88.4375 69.8038 88.6956 69.5488 89.0136 69.5488C89.3316 69.5488 89.5859 69.8076 89.5859 70.1264Z" fill="#C7C7C7"/>
<path d="M93.2344 70.1303C93.2344 70.449 92.9763 70.7041 92.6583 70.7041C92.3403 70.7041 92.0859 70.4453 92.0859 70.1265C92.0859 69.8078 92.3441 69.5527 92.662 69.5527C92.98 69.5527 93.2344 69.8115 93.2344 70.1303Z" fill="#C7C7C7"/>
<path d="M96.8828 70.1342C96.8828 70.453 96.6247 70.708 96.3067 70.708C95.9888 70.708 95.7344 70.4492 95.7344 70.1304C95.7344 69.8117 95.9925 69.5566 96.3105 69.5566C96.6284 69.5566 96.8828 69.8154 96.8828 70.1342Z" fill="#C7C7C7"/>
<path d="M95.9482 77.9011L82.0808 77.8898L81.4336 72.752L96.6029 72.7632L95.9482 77.9011Z" fill="#6DA37F"/>
<path opacity="0.1" d="M96.5991 72.7671L96.2812 75.2685L81.6805 74.7173L81.4336 72.7559L96.5991 72.7671Z" fill="black"/>
</g>
<defs>
<clipPath id="clip0_2003_484567">
<rect width="180" height="150" fill="white"/>
</clipPath>
</defs>
</svg>
