<svg width="25" height="24" viewBox="0 0 25 24" fill="none" xmlns="http://www.w3.org/2000/svg">
<path fill-rule="evenodd" clip-rule="evenodd" d="M6.642 6.142C9.404 3.381 10.784 2 12.5 2C14.216 2 15.596 3.38 18.358 6.142C21.12 8.904 22.5 10.284 22.5 12C22.5 13.716 21.12 15.096 18.358 17.858C15.596 20.62 14.216 22 12.5 22C10.784 22 9.404 20.62 6.642 17.858C3.88 15.096 2.5 13.716 2.5 12C2.5 10.284 3.88 8.904 6.642 6.142ZM14.346 8.452C14.2741 8.38463 14.1896 8.33209 14.0974 8.29736C14.0052 8.26263 13.9071 8.24641 13.8086 8.24961C13.7101 8.25282 13.6132 8.27539 13.5235 8.31603C13.4337 8.35668 13.3529 8.4146 13.2855 8.4865C13.2181 8.5584 13.1656 8.64286 13.1309 8.73507C13.0961 8.82728 13.0799 8.92542 13.0831 9.0239C13.0863 9.12237 13.1089 9.21925 13.1495 9.30901C13.1902 9.39876 13.2481 9.47963 13.32 9.547L14.603 10.75H11.167C10.612 10.75 9.789 10.9 9.08 11.378C8.332 11.883 7.75 12.735 7.75 14C7.75 14.1989 7.82902 14.3897 7.96967 14.5303C8.11032 14.671 8.30109 14.75 8.5 14.75C8.69891 14.75 8.88968 14.671 9.03033 14.5303C9.17098 14.3897 9.25 14.1989 9.25 14C9.25 13.265 9.557 12.867 9.92 12.622C10.2928 12.3841 10.7248 12.2552 11.167 12.25H14.603L13.32 13.453C13.1783 13.5899 13.0962 13.777 13.0913 13.9739C13.0864 14.1709 13.1592 14.3618 13.294 14.5055C13.4288 14.6492 13.6146 14.7341 13.8115 14.7419C14.0083 14.7496 14.2003 14.6796 14.346 14.547L17.013 12.047C17.0878 11.9769 17.1474 11.8921 17.1881 11.798C17.2289 11.704 17.2499 11.6025 17.2499 11.5C17.2499 11.3975 17.2289 11.296 17.1881 11.202C17.1474 11.1079 17.0878 11.0231 17.013 10.953L14.346 8.452Z" fill="white"/>
</svg>
