<svg viewBox="0 0 50 50" fill="none" xmlns="http://www.w3.org/2000/svg">
<path d="M44.6405 5.37154C43.5989 4.30695 42.0572 3.9132 40.6197 4.32987L7.09887 14.0153C5.58221 14.4361 4.50721 15.6382 4.21762 17.1632C3.92179 18.7174 4.95512 20.6924 6.30512 21.5174L16.7864 27.9174C17.8614 28.5757 19.2489 28.4111 20.1385 27.5195L32.1405 15.5174C32.7447 14.8903 33.7447 14.8903 34.3489 15.5174C34.953 16.1195 34.953 17.1007 34.3489 17.7257L22.326 29.7278C21.4343 30.6195 21.2676 32.0028 21.9239 33.0799L28.328 43.6007C29.078 44.8486 30.3697 45.559 31.7864 45.559C31.953 45.559 32.1405 45.559 32.3072 45.5361C33.9322 45.3299 35.2239 44.2236 35.703 42.6611L45.6405 9.39237C46.078 7.9757 45.6822 6.43404 44.6405 5.37154" fill="#14AB63"/>
<path opacity="0.4" fill-rule="evenodd" clip-rule="evenodd" d="M6.27194 35.0164C5.87194 35.0164 5.47194 34.8643 5.16777 34.558C4.55736 33.9476 4.55736 32.9601 5.16777 32.3497L8.01152 29.5039C8.62194 28.8955 9.61152 28.8955 10.2219 29.5039C10.8303 30.1143 10.8303 31.1039 10.2219 31.7143L7.37611 34.558C7.07194 34.8643 6.67194 35.0164 6.27194 35.0164ZM14.1078 37.5005C13.7078 37.5005 13.3078 37.3484 13.0036 37.0422C12.3932 36.4318 12.3932 35.4443 13.0036 34.8339L15.8473 31.988C16.4578 31.3797 17.4473 31.3797 18.0578 31.988C18.6661 32.5984 18.6661 33.588 18.0578 34.1984L15.2119 37.0422C14.9078 37.3484 14.5078 37.5005 14.1078 37.5005ZM14.6363 44.934C14.9404 45.2403 15.3404 45.3924 15.7404 45.3924C16.1404 45.3924 16.5404 45.2403 16.8446 44.934L19.6904 42.0903C20.2988 41.4799 20.2988 40.4903 19.6904 39.8799C19.08 39.2715 18.0904 39.2715 17.48 39.8799L14.6363 42.7257C14.0259 43.3361 14.0259 44.3236 14.6363 44.934Z" fill="#14AB63"/>
</svg>
