<svg viewBox="0 0 20 20" fill="none" xmlns="http://www.w3.org/2000/svg">
<path d="M19.4274 0.578299C18.9274 0.0672987 18.1874 -0.121701 17.4974 0.0782986L1.40742 4.7273C0.67942 4.9293 0.16342 5.5063 0.0244202 6.2383C-0.11758 6.9843 0.37842 7.9323 1.02642 8.3283L6.05742 11.4003C6.57342 11.7163 7.23942 11.6373 7.66642 11.2093L13.4274 5.4483C13.7174 5.1473 14.1974 5.1473 14.4874 5.4483C14.7774 5.7373 14.7774 6.2083 14.4874 6.5083L8.71642 12.2693C8.28842 12.6973 8.20842 13.3613 8.52342 13.8783L11.5974 18.9283C11.9574 19.5273 12.5774 19.8683 13.2574 19.8683C13.3374 19.8683 13.4274 19.8683 13.5074 19.8573C14.2874 19.7583 14.9074 19.2273 15.1374 18.4773L19.9074 2.5083C20.1174 1.8283 19.9274 1.0883 19.4274 0.578299Z" fill="#0A8778"/>
<path opacity="0.4" fill-rule="evenodd" clip-rule="evenodd" d="M1.01147 14.8079C0.819469 14.8079 0.627469 14.7349 0.481469 14.5879C0.188469 14.2949 0.188469 13.8209 0.481469 13.5279L1.84647 12.1619C2.13947 11.8699 2.61447 11.8699 2.90747 12.1619C3.19947 12.4549 3.19947 12.9299 2.90747 13.2229L1.54147 14.5879C1.39547 14.7349 1.20347 14.8079 1.01147 14.8079ZM4.77267 16.0003C4.58067 16.0003 4.38867 15.9273 4.24267 15.7803C3.94967 15.4873 3.94967 15.0133 4.24267 14.7203L5.60767 13.3543C5.90067 13.0623 6.37567 13.0623 6.66867 13.3543C6.96067 13.6473 6.96067 14.1223 6.66867 14.4153L5.30267 15.7803C5.15667 15.9273 4.96467 16.0003 4.77267 16.0003ZM5.02637 19.5683C5.17237 19.7153 5.36437 19.7883 5.55637 19.7883C5.74837 19.7883 5.94037 19.7153 6.08637 19.5683L7.45237 18.2033C7.74437 17.9103 7.74437 17.4353 7.45237 17.1423C7.15937 16.8503 6.68437 16.8503 6.39137 17.1423L5.02637 18.5083C4.73337 18.8013 4.73337 19.2753 5.02637 19.5683Z" fill="#0A8778"/>
</svg>
