<svg viewBox="0 0 24 24" fill="none" xmlns="http://www.w3.org/2000/svg">
<path opacity="0.4" d="M13.7505 9.70254V7.6827C13.354 7.6827 13.0251 7.36328 13.0251 6.9781V4.57307C13.0251 4.25272 12.764 4 12.4352 4H5.7911C3.70213 4 2 5.65252 2 7.6827V10.115C2 10.3038 2.07737 10.4823 2.21277 10.6138C2.34816 10.7444 2.53191 10.8196 2.72534 10.8196C3.46035 10.8196 4.02128 11.3269 4.02128 11.9939C4.02128 12.69 3.45068 13.2443 2.73501 13.2528C2.33849 13.2528 2 13.5252 2 13.9198V16.3258C2 18.355 3.70213 19.9991 5.78143 19.9991H12.4352C12.764 19.9991 13.0251 19.7445 13.0251 19.426V17.3958C13.0251 17.0022 13.354 16.6912 13.7505 16.6912V14.8696C13.354 14.8696 13.0251 14.5492 13.0251 14.165V10.4071C13.0251 10.022 13.354 9.70254 13.7505 9.70254Z" fill="url(#paint0_linear_18_15586)"/>
<path d="M19.9787 11.9948C19.9787 12.69 20.559 13.2443 21.265 13.2537C21.6615 13.2537 22 13.5262 22 13.9113V16.3258C22 18.3559 20.3075 20 18.2186 20H15.0658C14.7466 20 14.4758 19.7454 14.4758 19.426V17.3967C14.4758 17.0022 14.1567 16.6921 13.7505 16.6921V14.8705C14.1567 14.8705 14.4758 14.5502 14.4758 14.1659V10.4081C14.4758 10.022 14.1567 9.70348 13.7505 9.70348V7.6827C14.1567 7.6827 14.4758 7.36328 14.4758 6.9781V4.57401C14.4758 4.25366 14.7466 4 15.0658 4H18.2186C20.3075 4 22 5.64406 22 7.6733V10.0407C22 10.2286 21.9226 10.4081 21.7872 10.5387C21.6518 10.6702 21.4681 10.7453 21.2747 10.7453C20.559 10.7453 19.9787 11.31 19.9787 11.9948Z" fill="url(#paint1_linear_18_15586)"/>
<defs>
<linearGradient id="paint0_linear_18_15586" x1="2.24335" y1="11.9995" x2="13.7505" y2="11.9995" gradientUnits="userSpaceOnUse">
<stop stop-color="#00C188"/>
<stop offset="1" stop-color="#23B9E9"/>
</linearGradient>
<linearGradient id="paint1_linear_18_15586" x1="13.9213" y1="12" x2="22" y2="12" gradientUnits="userSpaceOnUse">
<stop stop-color="#00C188"/>
<stop offset="1" stop-color="#23B9E9"/>
</linearGradient>
</defs>
</svg>
