<svg viewBox="0 0 24 24" fill="none" xmlns="http://www.w3.org/2000/svg">
<path opacity="0.4" d="M9.59961 10.3932C9.59961 9.75664 9.85247 9.1462 10.3026 8.69611C10.7526 8.24602 11.3631 7.99316 11.9996 7.99316C12.6361 7.99316 13.2466 8.24602 13.6967 8.69611C14.1468 9.1462 14.3996 9.75664 14.3996 10.3932C14.3996 11.0297 14.1468 11.6401 13.6967 12.0902C13.2466 12.5403 12.6361 12.7932 11.9996 12.7932C11.3631 12.7932 10.7526 12.5403 10.3026 12.0902C9.85247 11.6401 9.59961 11.0297 9.59961 10.3932Z" fill="url(#paint0_linear_18_10763)"/>
<path fill-rule="evenodd" clip-rule="evenodd" d="M1.59961 10.3936C1.60088 7.63633 2.69721 4.99244 4.64749 3.04336C6.59778 1.09427 9.24234 -0.000424431 11.9996 1.23445e-07C17.742 1.23445e-07 22.3996 4.6544 22.3996 10.3936C22.3996 14.672 20.2588 18.0624 17.9644 20.3536C16.9502 21.3723 15.8135 22.2612 14.5804 23C14.0652 23.304 13.5836 23.544 13.1644 23.7072C12.7692 23.864 12.3548 23.9856 11.9996 23.9856C11.6444 23.9856 11.23 23.864 10.8348 23.7072C10.3454 23.508 9.87202 23.2716 9.41881 23C8.18576 22.2611 7.04909 21.3722 6.03481 20.3536C3.74041 18.0624 1.59961 14.672 1.59961 10.3936ZM11.9996 6.3952C10.9387 6.3952 9.92133 6.81663 9.17118 7.56677C8.42104 8.31692 7.99961 9.33433 7.99961 10.3952C7.99961 11.4561 8.42104 12.4735 9.17118 13.2236C9.92133 13.9738 10.9387 14.3952 11.9996 14.3952C13.0605 14.3952 14.0779 13.9738 14.828 13.2236C15.5782 12.4735 15.9996 11.4561 15.9996 10.3952C15.9996 9.33433 15.5782 8.31692 14.828 7.56677C14.0779 6.81663 13.0605 6.3952 11.9996 6.3952Z" fill="url(#paint1_linear_18_10763)"/>
<defs>
<linearGradient id="paint0_linear_18_10763" x1="9.69902" y1="10.3932" x2="14.3996" y2="10.3932" gradientUnits="userSpaceOnUse">
<stop stop-color="#00C188"/>
<stop offset="1" stop-color="#23B9E9"/>
</linearGradient>
<linearGradient id="paint1_linear_18_10763" x1="2.03038" y1="11.9928" x2="22.3996" y2="11.9928" gradientUnits="userSpaceOnUse">
<stop stop-color="#00C188"/>
<stop offset="1" stop-color="#23B9E9"/>
</linearGradient>
</defs>
</svg>
