<svg viewBox="0 0 24 24" fill="none" xmlns="http://www.w3.org/2000/svg">
<path opacity="0.4" d="M8.7 19.6998C5.6101 19.6998 4.0657 19.6998 2.9558 18.9584C2.4752 18.6373 2.06255 18.2246 1.7414 17.744C1 16.6341 1 15.0908 1 11.9998C1 8.9099 1 7.3655 1.7414 6.2556C2.0625 5.77497 2.47516 5.36231 2.9558 5.0412C4.0657 4.2998 5.609 4.2998 8.7 4.2998H15.3C18.3899 4.2998 19.9343 4.2998 21.0442 5.0412C21.5248 5.36231 21.9375 5.77497 22.2586 6.2556C23 7.3655 23 8.9088 23 11.9998C23 15.0897 23 16.6341 22.2586 17.744C21.9374 18.2246 21.5248 18.6372 21.0442 18.9584C19.9343 19.6998 18.391 19.6998 15.3 19.6998H8.7Z" fill="url(#paint0_linear_336_18389)"/>
<path d="M12.0002 8.7002C12.8754 8.7002 13.7148 9.04787 14.3336 9.66674C14.9525 10.2856 15.3002 11.125 15.3002 12.0002C15.3002 12.8754 14.9525 13.7148 14.3336 14.3336C13.7148 14.9525 12.8754 15.3002 12.0002 15.3002C11.125 15.3002 10.2856 14.9525 9.66674 14.3336C9.04787 13.7148 8.7002 12.8754 8.7002 12.0002C8.7002 11.125 9.04787 10.2856 9.66674 9.66674C10.2856 9.04787 11.125 8.7002 12.0002 8.7002Z" stroke="url(#paint1_linear_336_18389)" stroke-width="1.5"/>
<path d="M4.84961 15.3002V8.7002M19.1496 15.3002V8.7002" stroke="url(#paint2_linear_336_18389)" stroke-width="1.5" stroke-linecap="round"/>
<defs>
<linearGradient id="paint0_linear_336_18389" x1="1.45562" y1="11.9998" x2="23" y2="11.9998" gradientUnits="userSpaceOnUse">
<stop stop-color="#00C188"/>
<stop offset="1" stop-color="#23B9E9"/>
</linearGradient>
<linearGradient id="paint1_linear_336_18389" x1="8.83688" y1="12.0002" x2="15.3002" y2="12.0002" gradientUnits="userSpaceOnUse">
<stop stop-color="#00C188"/>
<stop offset="1" stop-color="#23B9E9"/>
</linearGradient>
<linearGradient id="paint2_linear_336_18389" x1="5.14576" y1="12.0002" x2="19.1496" y2="12.0002" gradientUnits="userSpaceOnUse">
<stop stop-color="#00C188"/>
<stop offset="1" stop-color="#23B9E9"/>
</linearGradient>
</defs>
</svg>
