<svg viewBox="0 0 24 24" fill="none" xmlns="http://www.w3.org/2000/svg">
<path fill-rule="evenodd" clip-rule="evenodd" d="M22.8505 13.3139C22.8483 13.2318 22.8323 13.151 22.8035 13.0745L20.6586 7.40263C20.551 7.11824 20.2789 6.93066 19.9755 6.93066H18.1794V13.8024C18.1794 14.2056 17.8524 14.5324 17.4491 14.5324H1V19.151C1 19.5543 1.32694 19.881 1.73048 19.881H3.36977C3.32024 17.8191 4.97811 16.1232 7.03864 16.1232C9.09917 16.1232 10.757 17.8191 10.7075 19.881H13.3207C13.2712 17.8191 14.9291 16.1232 16.9896 16.1232C19.0501 16.1232 20.708 17.8191 20.6585 19.881H22.2699C22.6803 19.881 23.0108 19.5425 22.9997 19.1323L22.8505 13.3139ZM18.5519 18.2301C19.4147 19.0925 19.4147 20.4912 18.5519 21.3536C17.6892 22.2159 16.29 22.2159 15.4273 21.3536C14.5646 20.4912 14.5646 19.0925 15.4273 18.2301C16.29 17.3677 17.6892 17.3677 18.5519 18.2301ZM8.60097 18.2301C9.46373 19.0925 9.46373 20.4912 8.60097 21.3536C7.73827 22.2159 6.33906 22.2159 5.47635 21.3536C4.61364 20.4912 4.61364 19.0925 5.47635 18.2301C6.33906 17.3677 7.73827 17.3677 8.60097 18.2301Z" fill="url(#paint0_linear_18_15574)"/>
<path opacity="0.4" fill-rule="evenodd" clip-rule="evenodd" d="M16.7188 6.93032V13.072H1V2.72998C1 2.32664 1.32694 2 1.73048 2H15.9885C16.392 2 16.7188 2.32664 16.7188 2.72998V6.93032Z" fill="url(#paint1_linear_18_15574)"/>
<defs>
<linearGradient id="paint0_linear_18_15574" x1="1.45562" y1="14.4655" x2="23" y2="14.4655" gradientUnits="userSpaceOnUse">
<stop stop-color="#00C188"/>
<stop offset="1" stop-color="#23B9E9"/>
</linearGradient>
<linearGradient id="paint1_linear_18_15574" x1="1.32554" y1="7.53601" x2="16.7188" y2="7.53601" gradientUnits="userSpaceOnUse">
<stop stop-color="#00C188"/>
<stop offset="1" stop-color="#23B9E9"/>
</linearGradient>
</defs>
</svg>
