<svg viewBox="0 0 24 24" fill="none" xmlns="http://www.w3.org/2000/svg">
<g clip-path="url(#clip0_18_16222)">
<path opacity="0.4" d="M18.6667 19.5003C18.6667 19.7765 18.4428 20.0003 18.1667 20.0003H11.1667C10.8905 20.0003 10.6667 19.7765 10.6667 19.5003V15.167C10.6667 14.8909 10.4428 14.667 10.1667 14.667H9.83333C9.55719 14.667 9.33333 14.8908 9.33333 15.167V19.5003C9.33333 19.7765 9.10948 20.0003 8.83333 20.0003H5.83333C5.55719 20.0003 5.33333 19.7765 5.33333 19.5003V15.167C5.33333 14.8909 5.10948 14.667 4.83333 14.667H4.5C4.22386 14.667 4 14.8908 4 15.167V20.0003C4 20.3539 4.14048 20.6931 4.39052 20.9431C4.64057 21.1932 4.97971 21.3337 5.33333 21.3337H18.6667C19.0203 21.3337 19.3594 21.1932 19.6095 20.9431C19.8595 20.6931 20 20.3539 20 20.0003V15.167C20 14.8909 19.7761 14.667 19.5 14.667H19.1667C18.8905 14.667 18.6667 14.8908 18.6667 15.167V19.5003Z" fill="url(#paint0_linear_18_16222)"/>
<path d="M22.5268 8.84699L19.8068 3.40699C19.6965 3.18485 19.5263 2.99791 19.3155 2.86718C19.1047 2.73645 18.8616 2.66712 18.6135 2.66699H5.38684C5.13878 2.66712 4.89568 2.73645 4.68487 2.86718C4.47406 2.99791 4.30389 3.18485 4.19351 3.40699L1.47351 8.84699C1.38064 9.03332 1.33269 9.23881 1.33351 9.44699V11.5003C1.3329 11.8119 1.4414 12.1138 1.64017 12.3537C1.93395 12.6904 2.29677 12.96 2.704 13.144C3.11122 13.3281 3.55329 13.4223 4.00017 13.4203C4.72935 13.4215 5.43629 13.1693 6.00017 12.707C6.56405 13.1696 7.27083 13.4224 8.00017 13.4224C8.72951 13.4224 9.4363 13.1696 10.0002 12.707C10.564 13.1696 11.2708 13.4224 12.0002 13.4224C12.7295 13.4224 13.4363 13.1696 14.0002 12.707C14.564 13.1696 15.2708 13.4224 16.0002 13.4224C16.7295 13.4224 17.4363 13.1696 18.0002 12.707C18.6296 13.2238 19.4349 13.4765 20.2468 13.4118C21.0586 13.3472 21.8138 12.9702 22.3535 12.3603C22.5547 12.1214 22.6656 11.8194 22.6668 11.507V9.44699C22.6677 9.23881 22.6197 9.03332 22.5268 8.84699ZM10.0002 9.60033V10.6137L9.45351 11.3337C9.28569 11.5624 9.06637 11.7484 8.8133 11.8766C8.56023 12.0048 8.28053 12.0716 7.99684 12.0716C7.71315 12.0716 7.43345 12.0048 7.18038 11.8766C6.92731 11.7484 6.70799 11.5624 6.54017 11.3337L6.00017 10.587V9.60033L7.72684 4.00033H10.6668L10.0002 9.60033ZM18.0002 10.587L17.4602 11.3337C17.2924 11.5624 17.073 11.7484 16.82 11.8766C16.5669 12.0048 16.2872 12.0716 16.0035 12.0716C15.7198 12.0716 15.4401 12.0048 15.187 11.8766C14.934 11.7484 14.7147 11.5624 14.5468 11.3337L14.0002 10.587V9.60033L13.3335 4.00033H16.3002L18.0002 9.60033V10.587Z" fill="url(#paint1_linear_18_16222)"/>
</g>
<defs>
<linearGradient id="paint0_linear_18_16222" x1="4.33136" y1="18.0003" x2="20" y2="18.0003" gradientUnits="userSpaceOnUse">
<stop stop-color="#00C188"/>
<stop offset="1" stop-color="#23B9E9"/>
</linearGradient>
<linearGradient id="paint1_linear_18_16222" x1="1.77531" y1="8.04469" x2="22.6669" y2="8.04469" gradientUnits="userSpaceOnUse">
<stop stop-color="#00C188"/>
<stop offset="1" stop-color="#23B9E9"/>
</linearGradient>
<clipPath id="clip0_18_16222">
<rect width="24" height="24" fill="white"/>
</clipPath>
</defs>
</svg>
