<svg viewBox="0 0 24 24" fill="none" xmlns="http://www.w3.org/2000/svg">
<path opacity="0.4" d="M12.02 2C6.21 2 2 6.74 2 12C2 13.68 2.49 15.41 3.35 16.99C3.51 17.25 3.53 17.58 3.42 17.89L2.75 20.13C2.6 20.67 3.06 21.07 3.57 20.91L5.59 20.31C6.14 20.13 6.57 20.36 7.081 20.67C8.541 21.53 10.36 21.97 12 21.97C16.96 21.97 22 18.14 22 11.97C22 6.65 17.7 2 12.02 2Z" fill="url(#paint0_linear_18_15552)"/>
<path fill-rule="evenodd" clip-rule="evenodd" d="M11.9807 13.2896C11.2707 13.2796 10.7007 12.7096 10.7007 11.9996C10.7007 11.2996 11.2807 10.7196 11.9807 10.7296C12.6907 10.7296 13.2607 11.2996 13.2607 12.0096C13.2607 12.7096 12.6907 13.2896 11.9807 13.2896ZM7.37033 13.2896C6.67033 13.2896 6.09033 12.7096 6.09033 12.0096C6.09033 11.2996 6.66033 10.7296 7.37033 10.7296C8.08033 10.7296 8.65033 11.2996 8.65033 12.0096C8.65033 12.7096 8.08033 13.2796 7.37033 13.2896ZM15.3105 12.0096C15.3105 12.7096 15.8805 13.2896 16.5905 13.2896C17.3005 13.2896 17.8705 12.7096 17.8705 12.0096C17.8705 11.2996 17.3005 10.7296 16.5905 10.7296C15.8805 10.7296 15.3105 11.2996 15.3105 12.0096Z" fill="url(#paint1_linear_18_15552)"/>
<defs>
<linearGradient id="paint0_linear_18_15552" x1="2.4142" y1="11.985" x2="22" y2="11.985" gradientUnits="userSpaceOnUse">
<stop stop-color="#00C188"/>
<stop offset="1" stop-color="#23B9E9"/>
</linearGradient>
<linearGradient id="paint1_linear_18_15552" x1="6.3343" y1="12.0096" x2="17.8705" y2="12.0096" gradientUnits="userSpaceOnUse">
<stop stop-color="#00C188"/>
<stop offset="1" stop-color="#23B9E9"/>
</linearGradient>
</defs>
</svg>
