<svg viewBox="0 0 24 24" fill="none" xmlns="http://www.w3.org/2000/svg">
<path fill-rule="evenodd" clip-rule="evenodd" d="M23.2753 12.9648L21.9782 7.6739C21.8961 7.33832 21.5953 7.10254 21.2498 7.10254H19.3119L17.7888 13.9024C17.7117 14.2513 17.4024 14.4916 17.0593 14.4913H2.32377L1.44702 18.407C1.34216 18.8733 1.70118 19.3206 2.17869 19.3206H2.78854C2.73787 17.2014 4.44037 15.4596 6.5564 15.4596C8.67243 15.4596 10.3749 17.2014 10.3243 19.3206H13.008C12.9573 17.2014 14.6598 15.4596 16.7759 15.4596C18.8919 15.4596 20.5944 17.2014 20.5437 19.3206H21.3309C21.6819 19.3206 21.9861 19.0772 22.063 18.7346L23.2787 13.3074C23.3037 13.1945 23.3028 13.0773 23.2753 12.9648ZM18.3803 17.6241C19.2663 18.5101 19.2663 19.9471 18.3803 20.8331C17.4943 21.7191 16.0574 21.7191 15.1714 20.8331C14.2854 19.9471 14.2854 18.5101 15.1714 17.6241C16.0574 16.7381 17.4943 16.7381 18.3803 17.6241ZM8.16083 17.6241C9.04682 18.5101 9.04682 19.9471 8.16083 20.8331C7.27485 21.7191 5.8379 21.7191 4.95191 20.8331C4.06593 19.9471 4.06593 18.5101 4.95191 17.6241C5.8379 16.7381 7.27485 16.7381 8.16083 17.6241Z" fill="url(#paint0_linear_18_15564)"/>
<path opacity="0.4" fill-rule="evenodd" clip-rule="evenodd" d="M3.05339 11.2334L2.65978 12.991H16.4618C17.1801 9.78416 17.8747 6.61546 18.5911 3.41695C18.6951 2.95077 18.3374 2.50293 17.8592 2.50293H1.45308C1.03889 2.50293 0.703125 2.83893 0.703125 3.25288C0.703125 3.66726 1.03889 4.00284 1.45308 4.00284H4.67353L4.19948 6.1184H1.81641C1.40203 6.1184 1.06645 6.45398 1.06645 6.86835C1.06645 7.2823 1.40203 7.61831 1.81641 7.61831H3.86348L3.38962 9.73345H1.81641C1.40203 9.73345 1.06645 10.069 1.06645 10.4834C1.06645 10.8978 1.40203 11.2334 1.81641 11.2334L3.05339 11.2334Z" fill="url(#paint1_linear_18_15564)"/>
<defs>
<linearGradient id="paint0_linear_18_15564" x1="1.8816" y1="14.3" x2="23.2967" y2="14.3" gradientUnits="userSpaceOnUse">
<stop stop-color="#00C188"/>
<stop offset="1" stop-color="#23B9E9"/>
</linearGradient>
<linearGradient id="paint1_linear_18_15564" x1="1.07396" y1="7.74695" x2="18.6092" y2="7.74695" gradientUnits="userSpaceOnUse">
<stop stop-color="#00C188"/>
<stop offset="1" stop-color="#23B9E9"/>
</linearGradient>
</defs>
</svg>
