<svg viewBox="0 0 25 24" fill="none" xmlns="http://www.w3.org/2000/svg">
<path opacity="0.4" d="M17.5075 6H7.49148L5.77746 11.3282C5.28057 12.5829 5.45659 13.9811 6.25189 15.0968L11.5476 21.526C11.9981 22.158 13.0009 22.158 13.4514 21.526L18.7471 15.0968C19.5424 13.9811 19.7185 12.5829 19.2216 11.3282L17.5075 6Z" fill="#006F4F"/>
<path d="M17.4995 6H7.49951C6.39494 6 5.49951 5.10457 5.49951 4C5.49951 2.89543 6.39494 2 7.49951 2H17.4995C18.6041 2 19.4995 2.89543 19.4995 4C19.4995 5.10457 18.6041 6 17.4995 6Z" fill="#006F4F"/>
<path d="M13.2495 14.8546C13.9825 14.5579 14.4995 13.8393 14.4995 13C14.4995 11.8954 13.6041 11 12.4995 11C11.3949 11 10.4995 11.8954 10.4995 13C10.4995 13.8393 11.0166 14.5579 11.7495 14.8546V21.7409C12.1751 22.0864 12.8239 22.0864 13.2495 21.7409V14.8546Z" fill="#006F4F"/>
</svg>
