<svg  viewBox="0 0 54 54" fill="none" xmlns="http://www.w3.org/2000/svg">
<circle cx="27" cy="27" r="27" fill="white"/>
<g filter="url(#filter0_d_2332_400455)">
<path fill-rule="evenodd" clip-rule="evenodd" d="M16.7146 35.6172C19.1952 38.4121 22.8147 40.1733 26.8455 40.1733C34.3241 40.1733 40.3867 34.1107 40.3867 26.632C40.3867 19.1534 34.3241 13.0908 26.8455 13.0908C19.3669 13.0908 13.3043 19.1534 13.3043 26.632C13.3043 28.2855 13.6006 29.8697 14.1431 31.3345L9.13851 36.7005C8.78922 37.0751 9.14864 37.6724 9.64473 37.5408L16.7146 35.6172Z" fill="url(#paint0_linear_2332_400455)"/>
</g>
<path d="M27.2213 30.5791L22.2155 33.3413L23.3334 27.7945L19.1211 23.9548L24.8182 23.2887L27.2213 18.1533L29.6245 23.2887L35.3216 23.9548L31.1093 27.7945L32.2271 33.3413L27.2213 30.5791Z" fill="white"/>
<defs>
<filter id="filter0_d_2332_400455" x="0.818184" y="6.54537" width="47.7504" height="43.4462" filterUnits="userSpaceOnUse" color-interpolation-filters="sRGB">
<feFlood flood-opacity="0" result="BackgroundImageFix"/>
<feColorMatrix in="SourceAlpha" type="matrix" values="0 0 0 0 0 0 0 0 0 0 0 0 0 0 0 0 0 0 127 0" result="hardAlpha"/>
<feOffset dy="1.63636"/>
<feGaussianBlur stdDeviation="4.09091"/>
<feComposite in2="hardAlpha" operator="out"/>
<feColorMatrix type="matrix" values="0 0 0 0 0.772549 0 0 0 0 0.854902 0 0 0 0 0.8 0 0 0 1 0"/>
<feBlend mode="normal" in2="BackgroundImageFix" result="effect1_dropShadow_2332_400455"/>
<feBlend mode="normal" in="SourceGraphic" in2="effect1_dropShadow_2332_400455" result="shape"/>
</filter>
<linearGradient id="paint0_linear_2332_400455" x1="24.693" y1="13.0908" x2="24.693" y2="40.1733" gradientUnits="userSpaceOnUse">
<stop stop-color="#6DA37F"/>
<stop offset="1" stop-color="#C5DACC"/>
</linearGradient>
</defs>
</svg>
