<svg viewBox="0 0 60 60" fill="none" xmlns="http://www.w3.org/2000/svg">
<path fill-rule="evenodd" clip-rule="evenodd" d="M0.0585938 24.2957C0.0585938 20.3077 9.12891 17.073 20.3193 17.073C31.5097 17.073 40.5799 20.3077 40.5799 24.2957V50.8317C40.5799 54.8232 31.5097 58.0545 20.3193 58.0545C9.12891 58.0545 0.0585938 54.8232 0.0585938 50.8317C0.0585938 41.9864 0.0585938 33.141 0.0585938 24.2957Z" fill="#FE9923"/>
<path fill-rule="evenodd" clip-rule="evenodd" d="M20.3193 31.5152C31.479 31.5152 40.5799 28.2737 40.5799 24.2957C40.5799 20.3179 31.479 17.073 20.3193 17.073C9.15949 17.073 0.0585938 20.318 0.0585938 24.2957C0.0585938 28.2735 9.15949 31.5152 20.3193 31.5152Z" fill="#FECD3D"/>
<path fill-rule="evenodd" clip-rule="evenodd" d="M20.3193 31.5146C9.12891 31.5146 0.0585938 28.2833 0.0585938 24.2952V30.9283C0.0585938 34.9163 9.12891 38.1512 20.3193 38.1512C31.5097 38.1512 40.5799 34.9165 40.5799 30.9283C40.5799 28.723 40.5799 26.5142 40.5799 24.3089C40.5561 28.2901 31.496 31.5146 20.3193 31.5146Z" fill="#E59C1C"/>
<path fill-rule="evenodd" clip-rule="evenodd" d="M20.3193 38.1518C9.12891 38.1518 0.0585938 34.917 0.0585938 30.929V37.5655C0.0585938 41.5535 9.12891 44.7849 20.3193 44.7849C31.5097 44.7849 40.5799 41.5535 40.5799 37.5655C40.5799 35.3534 40.5799 33.1411 40.5799 30.929C40.5799 34.917 31.5097 38.1518 20.3193 38.1518Z" fill="#F9B938"/>
<path fill-rule="evenodd" clip-rule="evenodd" d="M20.3193 44.7843C9.12891 44.7843 0.0585938 41.5529 0.0585938 37.5649V44.1981C0.0585938 48.1861 9.12891 51.4208 20.3193 51.4208C31.5097 51.4208 40.5799 48.1861 40.5799 44.1981C40.5799 41.986 40.5799 39.7737 40.5799 37.5649C40.5799 41.5529 31.5097 44.7843 20.3193 44.7843Z" fill="#E59C1C"/>
<path fill-rule="evenodd" clip-rule="evenodd" d="M40.5799 44.1987C40.5799 48.1867 31.5097 51.4215 20.3193 51.4215C9.12891 51.4216 0.0585938 48.1869 0.0585938 44.1987V50.8319C0.0585938 54.8234 9.12891 58.0547 20.3193 58.0547C31.5097 58.0547 40.5799 54.8234 40.5799 50.8319C40.5799 48.6231 40.5799 46.411 40.5799 44.1987Z" fill="#F9B938"/>
<path d="M11.9493 34.1846V37.5081C11.2438 37.3956 10.5655 37.2661 9.90758 37.1263V34.1846H11.9493ZM3.64941 35.0333C4.26301 35.3503 4.94469 35.6503 5.68777 35.9264V32.4019H3.64941V35.0333ZM16.1659 37.9988C16.8373 38.0499 17.5156 38.0874 18.2076 38.1113V34.9618H16.1659V37.9988ZM22.4274 38.1113C23.1194 38.0876 23.7977 38.0499 24.4658 37.9988V34.9618H22.4274V38.1113ZM28.6856 37.5079C29.3878 37.3954 30.0695 37.266 30.7273 37.1262V34.1845H28.6856V37.5079ZM34.9471 35.9264C35.6902 35.6503 36.3719 35.3503 36.9855 35.0333V32.4019H34.9471V35.9264Z" fill="#D68F13"/>
<path d="M11.9493 40.8272V44.1505C11.2438 44.038 10.5655 43.9119 9.90758 43.7687V40.8271H11.9493V40.8272ZM3.64941 41.6793C4.26301 41.9929 4.94469 42.2929 5.68777 42.569V39.0445H3.64941V41.6793ZM16.1659 44.6448C16.8373 44.6925 17.5156 44.73 18.2076 44.7573V41.6044H16.1659V44.6448ZM22.4274 44.7573C23.1194 44.73 23.7977 44.6925 24.4658 44.6448V41.6044H22.4274V44.7573ZM28.6856 44.1505C29.3878 44.038 30.0695 43.9119 30.7273 43.7687V40.8271H28.6856V44.1505ZM34.9471 42.569C35.6902 42.2929 36.3719 41.9929 36.9855 41.6793V39.0444H34.9471V42.569Z" fill="#E59C1C"/>
<path d="M11.9493 47.4709V50.7977C11.2438 50.6818 10.5655 50.5557 9.90758 50.4159V47.4709H11.9493ZM3.64941 48.3231C4.26301 48.6401 4.94469 48.9367 5.68777 49.2128V45.6882H3.64941V48.3231ZM16.1659 51.2886C16.8373 51.3363 17.5156 51.3738 18.2076 51.4011V48.2482H16.1659V51.2886ZM22.4274 51.401C23.1194 51.3737 23.7977 51.3362 24.4658 51.2885V48.2481H22.4274V51.401ZM28.6856 50.7977C29.3878 50.6818 30.0695 50.5557 30.7273 50.4159V47.4709H28.6856V50.7977ZM34.9471 49.2128C35.6902 48.9367 36.3719 48.6401 36.9855 48.3231V45.6882H34.9471V49.2128Z" fill="#D68F13"/>
<path d="M11.9493 54.0727V57.3994C11.2438 57.2835 10.5655 57.1574 9.90758 57.0176V54.0726H11.9493V54.0727ZM3.64941 54.9249C4.26301 55.2419 4.94469 55.5385 5.68777 55.8146V52.2902H3.64941V54.9249ZM16.1659 57.8904C16.8373 57.9381 17.5156 57.9756 18.2076 58.0029V54.85H16.1659V57.8904ZM22.4274 58.0029C23.1194 57.9756 23.7977 57.9381 24.4658 57.8904V54.85H22.4274V58.0029ZM28.6856 57.3995C29.3878 57.2836 30.0695 57.1575 30.7273 57.0177V54.0727H28.6856V57.3995ZM34.9471 55.8146C35.6902 55.5385 36.3719 55.2419 36.9855 54.9249V52.29H34.9471V55.8146Z" fill="#E59C1C"/>
<path fill-rule="evenodd" clip-rule="evenodd" d="M40.8595 2.06799C46.1223 0.660214 53.594 11.4825 57.5479 26.2418C61.5053 41.0044 60.4452 54.1138 55.1823 55.5249C52.268 56.3055 49.3503 57.086 46.4325 57.87C41.1696 59.2777 33.698 48.4555 29.7441 33.6928C25.7867 18.9336 26.8468 5.82408 32.1097 4.41303C35.0274 3.63256 37.9451 2.84857 40.8595 2.06799Z" fill="#FE9923"/>
<path fill-rule="evenodd" clip-rule="evenodd" d="M57.5485 26.2418C61.5059 41.0043 60.4458 54.1137 55.183 55.5249C49.9235 56.9327 42.4518 46.1104 38.4945 31.3477C34.5406 16.5886 35.6006 3.47902 40.8601 2.06797C46.1228 0.660312 53.5945 11.4826 57.5485 26.2418Z" fill="#FECD3D"/>
<path fill-rule="evenodd" clip-rule="evenodd" d="M53.0962 27.4351C56.2423 39.1812 56.5218 49.308 53.72 50.0579C50.9181 50.8112 46.0949 41.8978 42.9488 30.1552C39.8027 18.4126 39.5232 8.28563 42.325 7.53235C45.127 6.78246 49.95 15.6926 53.0962 27.4351Z" fill="#FEA832"/>
<path d="M42.6409 51.1382L37.9814 52.3892C38.5132 53.1254 39.0517 53.8037 39.5869 54.407L43.2545 53.4253L42.6409 51.1382ZM34.675 46.8706C34.3239 46.1752 33.9762 45.4492 33.6388 44.7027L38.0802 43.5131L38.6869 45.7969L34.675 46.8706ZM31.3379 38.9149C31.0857 38.1786 30.8404 37.4288 30.6016 36.6653L34.8386 35.5302L35.4452 37.814L31.3379 38.9149ZM28.9997 30.6934C28.8258 29.9128 28.6622 29.139 28.5157 28.3722L32.623 27.2712L33.24 29.5583L28.9997 30.6934ZM27.6123 22.2128C27.5305 21.3947 27.4691 20.5937 27.4248 19.8165L31.4401 18.7395L32.0468 21.0232L27.6123 22.2128ZM27.5306 13.3846C27.6226 12.4779 27.7487 11.6257 27.9124 10.8315L31.5766 9.84985L32.1936 12.137L27.5306 13.3846Z" fill="#C85929"/>
</svg>
