<svg viewBox="0 0 24 24" fill="none" xmlns="http://www.w3.org/2000/svg">
<path fill-rule="evenodd" clip-rule="evenodd" d="M12.9379 2.18665C13.2352 2.30987 13.5054 2.49047 13.7329 2.71815L21.2813 10.2663C21.5092 10.4938 21.6899 10.7641 21.8132 11.0616C21.9365 11.3591 22 11.678 22 12C22 12.322 21.9365 12.6409 21.8132 12.9384C21.6899 13.2359 21.5092 13.5062 21.2813 13.7337L13.7329 21.2819C13.5054 21.5095 13.2352 21.6901 12.9379 21.8134C12.6406 21.9366 12.3219 22 12 22C11.6781 22 11.3594 21.9366 11.0621 21.8134C10.7648 21.6901 10.4946 21.5095 10.2671 21.2819L2.71867 13.7337C2.49084 13.5062 2.3101 13.2359 2.18679 12.9384C2.06347 12.6409 2 12.322 2 12C2 11.678 2.06347 11.3591 2.18679 11.0616C2.3101 10.7641 2.49084 10.4938 2.71867 10.2663L10.2671 2.71815C10.4946 2.49047 10.7648 2.30987 11.0621 2.18665C11.3594 2.06342 11.6781 2 12 2C12.3219 2 12.6406 2.06342 12.9379 2.18665ZM11.1346 14.0888C11.3641 14.3183 11.6754 14.4473 12 14.4473C12.3246 14.4473 12.6358 14.3183 12.8654 14.0888C13.0949 13.8593 13.2238 13.5479 13.2238 13.2233V7.10357C13.2238 6.77895 13.0949 6.46764 12.8654 6.2381C12.6358 6.00857 12.3246 5.87961 12 5.87961C11.6754 5.87961 11.3641 6.00857 11.1346 6.2381C10.9051 6.46764 10.7762 6.77895 10.7762 7.10357V13.2233C10.7762 13.5479 10.9051 13.8593 11.1346 14.0888ZM11.1346 17.7607C11.3641 17.9902 11.6754 18.1192 12 18.1192C12.3246 18.1192 12.6358 17.9902 12.8654 17.7607C13.0949 17.5311 13.2238 17.2198 13.2238 16.8952C13.2238 16.5706 13.0949 16.2593 12.8654 16.0297C12.6358 15.8002 12.3246 15.6712 12 15.6712C11.6754 15.6712 11.3641 15.8002 11.1346 16.0297C10.9051 16.2593 10.7762 16.5706 10.7762 16.8952C10.7762 17.2198 10.9051 17.5311 11.1346 17.7607Z" fill="#D74038"/>
</svg>
