<svg viewBox="0 0 24 24" fill="none" xmlns="http://www.w3.org/2000/svg">
<path fill-rule="evenodd" clip-rule="evenodd" d="M11.0616 4.96735C11.5776 3.99335 12.4196 3.98935 12.9376 4.96735L20.0616 18.4254C20.5776 19.3994 20.1066 20.1964 19.0046 20.1964H4.99458C3.89258 20.1964 3.41958 19.4034 3.93758 18.4254L11.0616 4.96735ZM11.2925 14.7075C11.48 14.895 11.7344 15.0004 11.9996 15.0004C12.2648 15.0004 12.5192 14.895 12.7067 14.7075C12.8942 14.5199 12.9996 14.2656 12.9996 14.0004V9.00035C12.9996 8.73513 12.8942 8.48078 12.7067 8.29324C12.5192 8.10571 12.2648 8.00035 11.9996 8.00035C11.7344 8.00035 11.48 8.10571 11.2925 8.29324C11.1049 8.48078 10.9996 8.73513 10.9996 9.00035V14.0004C10.9996 14.2656 11.1049 14.5199 11.2925 14.7075ZM11.2925 17.7075C11.48 17.895 11.7344 18.0004 11.9996 18.0004C12.2648 18.0004 12.5192 17.895 12.7067 17.7075C12.8942 17.5199 12.9996 17.2656 12.9996 17.0004C12.9996 16.7351 12.8942 16.4808 12.7067 16.2932C12.5192 16.1057 12.2648 16.0004 11.9996 16.0004C11.7344 16.0004 11.48 16.1057 11.2925 16.2932C11.1049 16.4808 10.9996 16.7351 10.9996 17.0004C10.9996 17.2656 11.1049 17.5199 11.2925 17.7075Z" fill="#C27D15"/>
</svg>
