<svg viewBox="0 0 54 54" fill="none" xmlns="http://www.w3.org/2000/svg">
<circle cx="27" cy="27" r="27" fill="white"/>
<g filter="url(#filter0_d_26_25258)">
<path fill-rule="evenodd" clip-rule="evenodd" d="M16.7149 35.6186C19.1955 38.4132 22.8149 40.1742 26.8455 40.1742C34.3241 40.1742 40.3867 34.1116 40.3867 26.633C40.3867 19.1544 34.3241 13.0918 26.8455 13.0918C19.3669 13.0918 13.3043 19.1544 13.3043 26.633C13.3043 28.2866 13.6007 29.8709 14.1432 31.3358L9.13851 36.702C8.78922 37.0766 9.14864 37.6739 9.64473 37.5423L16.7149 35.6186Z" fill="url(#paint0_linear_26_25258)"/>
</g>
<path d="M27.2213 30.58L22.2155 33.3422L23.3334 27.7954L19.1211 23.9558L24.8182 23.2897L27.2213 18.1543L29.6245 23.2897L35.3216 23.9558L31.1093 27.7954L32.2271 33.3422L27.2213 30.58Z" fill="white"/>
<defs>
<filter id="filter0_d_26_25258" x="0.817451" y="6.54634" width="47.7511" height="43.4457" filterUnits="userSpaceOnUse" color-interpolation-filters="sRGB">
<feFlood flood-opacity="0" result="BackgroundImageFix"/>
<feColorMatrix in="SourceAlpha" type="matrix" values="0 0 0 0 0 0 0 0 0 0 0 0 0 0 0 0 0 0 127 0" result="hardAlpha"/>
<feOffset dy="1.63636"/>
<feGaussianBlur stdDeviation="4.09091"/>
<feComposite in2="hardAlpha" operator="out"/>
<feColorMatrix type="matrix" values="0 0 0 0 0.772549 0 0 0 0 0.854902 0 0 0 0 0.8 0 0 0 1 0"/>
<feBlend mode="normal" in2="BackgroundImageFix" result="effect1_dropShadow_26_25258"/>
<feBlend mode="normal" in="SourceGraphic" in2="effect1_dropShadow_26_25258" result="shape"/>
</filter>
<linearGradient id="paint0_linear_26_25258" x1="24.693" y1="13.0918" x2="24.693" y2="40.1742" gradientUnits="userSpaceOnUse">
<stop stop-color="#6DA37F"/>
<stop offset="1" stop-color="#C5DACC"/>
</linearGradient>
</defs>
</svg>
