<svg viewBox="0 0 24 24" fill="none" xmlns="http://www.w3.org/2000/svg">
<path fill-rule="evenodd" clip-rule="evenodd" d="M22.8505 13.3136C22.8483 13.2315 22.8323 13.1507 22.8035 13.0742L20.6586 7.40238C20.551 7.11799 20.2789 6.93042 19.9755 6.93042H18.1794V13.8022C18.1794 14.2053 17.8524 14.5322 17.4491 14.5322H1V19.1507C1 19.5541 1.32694 19.8807 1.73048 19.8807H3.36977C3.32024 17.8188 4.97811 16.123 7.03864 16.123C9.09917 16.123 10.757 17.8189 10.7075 19.8807H13.3207C13.2712 17.8188 14.9291 16.123 16.9896 16.123C19.0501 16.123 20.708 17.8189 20.6585 19.8807H22.2699C22.6803 19.8807 23.0108 19.5423 22.9997 19.1321L22.8505 13.3136ZM18.5519 18.2298C19.4147 19.0922 19.4147 20.4909 18.5519 21.3533C17.6892 22.2157 16.29 22.2157 15.4273 21.3533C14.5646 20.4909 14.5646 19.0922 15.4273 18.2298C16.29 17.3675 17.6892 17.3675 18.5519 18.2298ZM8.60097 18.2298C9.46373 19.0922 9.46373 20.4909 8.60097 21.3533C7.73827 22.2157 6.33906 22.2157 5.47635 21.3533C4.61364 20.4909 4.61364 19.0922 5.47635 18.2298C6.33906 17.3675 7.73827 17.3675 8.60097 18.2298Z" fill="currentColor"/>
<path opacity="0.4" fill-rule="evenodd" clip-rule="evenodd" d="M16.7188 6.93032V13.072H1V2.72998C1 2.32664 1.32694 2 1.73048 2H15.9885C16.392 2 16.7188 2.32664 16.7188 2.72998V6.93032Z" fill="currentColor"/>
</svg>
