<svg viewBox="0 0 24 24" fill="none" xmlns="http://www.w3.org/2000/svg">
<path d="M22.8502 13.1873C22.8481 13.1064 22.8322 13.0264 22.8033 12.9507L20.6584 7.34201C20.551 7.06116 20.279 6.87536 19.9753 6.87536H16.7187V2.72188C16.7187 2.32317 16.3917 2 15.9884 2H1.73029C1.32694 2 1 2.32317 1 2.72188V14.084V18.9593C1 19.358 1.32694 19.6812 1.73029 19.6812H3.39955C3.72832 21.0104 4.94279 22 6.3873 22C7.83182 22 9.04634 21.0104 9.3751 19.6812H14.5925C14.9212 21.0104 16.1357 22 17.5802 22C19.0247 22 20.2393 21.0104 20.568 19.6812H22.2697C22.4666 19.6812 22.6552 19.6026 22.7927 19.4631C22.9302 19.3237 23.0048 19.1353 22.9998 18.9407L22.8502 13.1873ZM2.46058 3.44375H15.2581V13.3621H2.46058V3.44375ZM6.3873 20.5562C5.49649 20.5562 4.77177 19.8399 4.77177 18.9593C4.77177 18.0787 5.49649 17.3624 6.3873 17.3624C7.27812 17.3624 8.00284 18.0787 8.00284 18.9593C8.00284 19.8399 7.27812 20.5562 6.3873 20.5562ZM17.5803 20.5562C16.6895 20.5562 15.9647 19.8399 15.9647 18.9593C15.9647 18.0787 16.6895 17.3624 17.5803 17.3624C18.4711 17.3624 19.1958 18.0787 19.1958 18.9593C19.1958 19.8399 18.4711 20.5562 17.5803 20.5562ZM20.568 18.2374C20.2393 16.9082 19.0248 15.9186 17.5803 15.9186C16.1358 15.9186 14.9212 16.9082 14.5925 18.2374H9.3751C9.04634 16.9082 7.83186 15.9186 6.38735 15.9186C4.94284 15.9186 3.72832 16.9082 3.3996 18.2374H2.46058V14.8058H15.9884C16.3917 14.8058 16.7187 14.4827 16.7187 14.084V8.31911H19.4706L21.3933 13.3467L21.5204 18.2374H20.568Z" fill="#00C188"/>
</svg>
