<svg viewBox="0 0 54 54" fill="none" xmlns="http://www.w3.org/2000/svg">
<circle cx="27" cy="27" r="27" fill="white"/>
<g filter="url(#filter0_d_2332_400580)">
<path d="M38.1914 35.3358C38.1914 36.6302 37.1421 37.6796 35.8476 37.6796C34.5532 37.6796 33.5039 36.6303 33.5039 35.3358C33.5039 34.0415 34.5532 32.9921 35.8476 32.9921C37.1421 32.9921 38.1914 34.0415 38.1914 35.3358ZM34.3828 26.2539V18.9298H32.5078V32.9597C33.2521 31.9165 34.4713 31.2345 35.8476 31.2345C37.9103 31.2345 39.6214 32.7652 39.9067 34.7501H41.1211C41.6064 34.7501 42 34.3567 42 33.8712V30.6484H40.2422C39.7569 30.6484 39.3633 30.2549 39.3633 29.7695C39.3633 29.284 39.7568 28.8905 40.2422 28.8905H42V27.1327H35.2617C34.7764 27.1327 34.3828 26.7393 34.3828 26.2539ZM19.3242 32.9922C18.0299 32.9922 16.9805 34.0415 16.9805 35.3359C16.9805 36.6303 18.0298 37.6797 19.3242 37.6797C20.6187 37.6797 21.668 36.6304 21.668 35.3359C21.668 34.0415 20.6187 32.9922 19.3242 32.9922ZM36.4336 18.9297H36.1407V25.375H42V24.496C42 21.4268 39.503 18.9297 36.4336 18.9297ZM30.75 16.8789V34.7499H23.3833C23.098 32.765 21.3869 31.2343 19.3242 31.2343C17.2616 31.2343 15.5505 32.765 15.2652 34.7499H12.8789C12.3936 34.7499 12 34.3565 12 33.871V16.8789C12 16.3936 12.3935 16 12.8789 16H29.8711C30.3566 16 30.75 16.3935 30.75 16.8789ZM16.1016 20.3945C16.1016 19.9091 15.7082 19.5156 15.2227 19.5156C14.7373 19.5156 14.3438 19.909 14.3438 20.3945V28.5976C14.3438 29.0829 14.7372 29.4765 15.2227 29.4765C15.7081 29.4765 16.1016 29.083 16.1016 28.5976V20.3945ZM20.2032 20.3945C20.2032 19.9091 19.8097 19.5156 19.3242 19.5156C18.8389 19.5156 18.4453 19.909 18.4453 20.3945V28.5976C18.4453 29.0829 18.8388 29.4765 19.3242 29.4765C19.8096 29.4765 20.2032 29.083 20.2032 28.5976V20.3945ZM24.3047 20.3945C24.3047 19.9091 23.9113 19.5156 23.4258 19.5156C22.9403 19.5156 22.5469 19.909 22.5469 20.3945V28.5976C22.5469 29.0829 22.9403 29.4765 23.4258 29.4765C23.9113 29.4765 24.3047 29.083 24.3047 28.5976V20.3945ZM28.4063 20.3945C28.4063 19.9091 28.0128 19.5156 27.5273 19.5156C27.0419 19.5156 26.6484 19.909 26.6484 20.3945V28.5976C26.6484 29.0829 27.0419 29.4765 27.5273 29.4765C28.0128 29.4765 28.4063 29.083 28.4063 28.5976V20.3945Z" fill="url(#paint0_linear_2332_400580)"/>
</g>
<g filter="url(#filter1_d_2332_400580)">
<path d="M27.5274 19.5156C28.0128 19.5156 28.4063 19.9092 28.4063 20.3946V28.5976C28.4063 29.0831 28.0128 29.4766 27.5274 29.4766C27.0419 29.4766 26.6484 29.083 26.6484 28.5976V20.3946C26.6484 19.9091 27.0419 19.5156 27.5274 19.5156Z" fill="white"/>
</g>
<g filter="url(#filter2_d_2332_400580)">
<path d="M23.4258 19.5156C23.9113 19.5156 24.3048 19.9092 24.3048 20.3946V28.5976C24.3048 29.0831 23.9113 29.4766 23.4258 29.4766C22.9403 29.4766 22.5469 29.083 22.5469 28.5976V20.3946C22.5469 19.9091 22.9403 19.5156 23.4258 19.5156Z" fill="white"/>
</g>
<g filter="url(#filter3_d_2332_400580)">
<path d="M19.3242 19.5156C19.8097 19.5156 20.2032 19.9092 20.2032 20.3946V28.5976C20.2032 29.0831 19.8096 29.4766 19.3242 29.4766C18.8388 29.4766 18.4453 29.083 18.4453 28.5976V20.3946C18.4453 19.9091 18.8389 19.5156 19.3242 19.5156Z" fill="white"/>
</g>
<g filter="url(#filter4_d_2332_400580)">
<path d="M15.2227 19.5156C15.7081 19.5156 16.1016 19.9092 16.1016 20.3946V28.5976C16.1016 29.0831 15.708 29.4766 15.2227 29.4766C14.7372 29.4766 14.3438 29.083 14.3438 28.5976V20.3946C14.3438 19.9091 14.7373 19.5156 15.2227 19.5156Z" fill="white"/>
</g>
<defs>
<filter id="filter0_d_2332_400580" x="3.81818" y="9.45455" width="46.3636" height="38.0433" filterUnits="userSpaceOnUse" color-interpolation-filters="sRGB">
<feFlood flood-opacity="0" result="BackgroundImageFix"/>
<feColorMatrix in="SourceAlpha" type="matrix" values="0 0 0 0 0 0 0 0 0 0 0 0 0 0 0 0 0 0 127 0" result="hardAlpha"/>
<feOffset dy="1.63636"/>
<feGaussianBlur stdDeviation="4.09091"/>
<feComposite in2="hardAlpha" operator="out"/>
<feColorMatrix type="matrix" values="0 0 0 0 0.772549 0 0 0 0 0.854902 0 0 0 0 0.8 0 0 0 1 0"/>
<feBlend mode="normal" in2="BackgroundImageFix" result="effect1_dropShadow_2332_400580"/>
<feBlend mode="normal" in="SourceGraphic" in2="effect1_dropShadow_2332_400580" result="shape"/>
</filter>
<filter id="filter1_d_2332_400580" x="18.4666" y="12.9702" width="18.1214" height="26.3246" filterUnits="userSpaceOnUse" color-interpolation-filters="sRGB">
<feFlood flood-opacity="0" result="BackgroundImageFix"/>
<feColorMatrix in="SourceAlpha" type="matrix" values="0 0 0 0 0 0 0 0 0 0 0 0 0 0 0 0 0 0 127 0" result="hardAlpha"/>
<feOffset dy="1.63636"/>
<feGaussianBlur stdDeviation="4.09091"/>
<feComposite in2="hardAlpha" operator="out"/>
<feColorMatrix type="matrix" values="0 0 0 0 0.772549 0 0 0 0 0.854902 0 0 0 0 0.8 0 0 0 1 0"/>
<feBlend mode="normal" in2="BackgroundImageFix" result="effect1_dropShadow_2332_400580"/>
<feBlend mode="normal" in="SourceGraphic" in2="effect1_dropShadow_2332_400580" result="shape"/>
</filter>
<filter id="filter2_d_2332_400580" x="14.3651" y="12.9702" width="18.1214" height="26.3246" filterUnits="userSpaceOnUse" color-interpolation-filters="sRGB">
<feFlood flood-opacity="0" result="BackgroundImageFix"/>
<feColorMatrix in="SourceAlpha" type="matrix" values="0 0 0 0 0 0 0 0 0 0 0 0 0 0 0 0 0 0 127 0" result="hardAlpha"/>
<feOffset dy="1.63636"/>
<feGaussianBlur stdDeviation="4.09091"/>
<feComposite in2="hardAlpha" operator="out"/>
<feColorMatrix type="matrix" values="0 0 0 0 0.772549 0 0 0 0 0.854902 0 0 0 0 0.8 0 0 0 1 0"/>
<feBlend mode="normal" in2="BackgroundImageFix" result="effect1_dropShadow_2332_400580"/>
<feBlend mode="normal" in="SourceGraphic" in2="effect1_dropShadow_2332_400580" result="shape"/>
</filter>
<filter id="filter3_d_2332_400580" x="10.2635" y="12.9702" width="18.1214" height="26.3246" filterUnits="userSpaceOnUse" color-interpolation-filters="sRGB">
<feFlood flood-opacity="0" result="BackgroundImageFix"/>
<feColorMatrix in="SourceAlpha" type="matrix" values="0 0 0 0 0 0 0 0 0 0 0 0 0 0 0 0 0 0 127 0" result="hardAlpha"/>
<feOffset dy="1.63636"/>
<feGaussianBlur stdDeviation="4.09091"/>
<feComposite in2="hardAlpha" operator="out"/>
<feColorMatrix type="matrix" values="0 0 0 0 0.772549 0 0 0 0 0.854902 0 0 0 0 0.8 0 0 0 1 0"/>
<feBlend mode="normal" in2="BackgroundImageFix" result="effect1_dropShadow_2332_400580"/>
<feBlend mode="normal" in="SourceGraphic" in2="effect1_dropShadow_2332_400580" result="shape"/>
</filter>
<filter id="filter4_d_2332_400580" x="6.16193" y="12.9702" width="18.1214" height="26.3246" filterUnits="userSpaceOnUse" color-interpolation-filters="sRGB">
<feFlood flood-opacity="0" result="BackgroundImageFix"/>
<feColorMatrix in="SourceAlpha" type="matrix" values="0 0 0 0 0 0 0 0 0 0 0 0 0 0 0 0 0 0 127 0" result="hardAlpha"/>
<feOffset dy="1.63636"/>
<feGaussianBlur stdDeviation="4.09091"/>
<feComposite in2="hardAlpha" operator="out"/>
<feColorMatrix type="matrix" values="0 0 0 0 0.772549 0 0 0 0 0.854902 0 0 0 0 0.8 0 0 0 1 0"/>
<feBlend mode="normal" in2="BackgroundImageFix" result="effect1_dropShadow_2332_400580"/>
<feBlend mode="normal" in="SourceGraphic" in2="effect1_dropShadow_2332_400580" result="shape"/>
</filter>
<linearGradient id="paint0_linear_2332_400580" x1="27" y1="16" x2="27" y2="37.6797" gradientUnits="userSpaceOnUse">
<stop stop-color="#6DA37F"/>
<stop offset="1" stop-color="#C5DACC"/>
</linearGradient>
</defs>
</svg>
