<svg viewBox="0 0 55 54" fill="none" xmlns="http://www.w3.org/2000/svg">
<circle cx="27.6665" cy="27" r="27" fill="white"/>
<g filter="url(#filter0_d_205_29939)">
<path d="M38.8579 35.3358C38.8579 36.6302 37.8086 37.6796 36.5141 37.6796C35.2197 37.6796 34.1704 36.6303 34.1704 35.3358C34.1704 34.0415 35.2197 32.9921 36.5141 32.9921C37.8086 32.9921 38.8579 34.0415 38.8579 35.3358ZM35.0493 26.2539V18.9298H33.1743V32.9597C33.9187 31.9165 35.1378 31.2345 36.5141 31.2345C38.5768 31.2345 40.2879 32.7652 40.5732 34.7501H41.7876C42.2729 34.7501 42.6665 34.3567 42.6665 33.8712V30.6484H40.9087C40.4234 30.6484 40.0298 30.2549 40.0298 29.7695C40.0298 29.284 40.4233 28.8905 40.9087 28.8905H42.6665V27.1327H35.9282C35.4429 27.1327 35.0493 26.7393 35.0493 26.2539ZM19.9908 32.9922C18.6964 32.9922 17.647 34.0415 17.647 35.3359C17.647 36.6303 18.6963 37.6797 19.9908 37.6797C21.2852 37.6797 22.3345 36.6304 22.3345 35.3359C22.3345 34.0415 21.2852 32.9922 19.9908 32.9922ZM37.1001 18.9297H36.8072V25.375H42.6665V24.496C42.6665 21.4268 40.1695 18.9297 37.1001 18.9297ZM31.4165 16.8789V34.7499H24.0498C23.7645 32.765 22.0534 31.2343 19.9908 31.2343C17.9281 31.2343 16.217 32.765 15.9317 34.7499H13.5454C13.0601 34.7499 12.6665 34.3565 12.6665 33.871V16.8789C12.6665 16.3936 13.06 16 13.5454 16H30.5376C31.0231 16 31.4165 16.3935 31.4165 16.8789ZM16.7681 20.3945C16.7681 19.9091 16.3747 19.5156 15.8892 19.5156C15.4038 19.5156 15.0103 19.909 15.0103 20.3945V28.5976C15.0103 29.0829 15.4037 29.4765 15.8892 29.4765C16.3746 29.4765 16.7681 29.083 16.7681 28.5976V20.3945ZM20.8697 20.3945C20.8697 19.9091 20.4762 19.5156 19.9908 19.5156C19.5054 19.5156 19.1118 19.909 19.1118 20.3945V28.5976C19.1118 29.0829 19.5053 29.4765 19.9908 29.4765C20.4761 29.4765 20.8697 29.083 20.8697 28.5976V20.3945ZM24.9712 20.3945C24.9712 19.9091 24.5778 19.5156 24.0923 19.5156C23.6068 19.5156 23.2134 19.909 23.2134 20.3945V28.5976C23.2134 29.0829 23.6068 29.4765 24.0923 29.4765C24.5778 29.4765 24.9712 29.083 24.9712 28.5976V20.3945ZM29.0728 20.3945C29.0728 19.9091 28.6793 19.5156 28.1938 19.5156C27.7084 19.5156 27.3149 19.909 27.3149 20.3945V28.5976C27.3149 29.0829 27.7084 29.4765 28.1938 29.4765C28.6793 29.4765 29.0728 29.083 29.0728 28.5976V20.3945Z" fill="url(#paint0_linear_205_29939)"/>
</g>
<g filter="url(#filter1_d_205_29939)">
<path d="M28.1939 19.5156C28.6793 19.5156 29.0728 19.9092 29.0728 20.3946V28.5976C29.0728 29.0831 28.6793 29.4766 28.1939 29.4766C27.7084 29.4766 27.3149 29.083 27.3149 28.5976V20.3946C27.3149 19.9091 27.7084 19.5156 28.1939 19.5156Z" fill="white"/>
</g>
<g filter="url(#filter2_d_205_29939)">
<path d="M24.0923 19.5156C24.5778 19.5156 24.9713 19.9092 24.9713 20.3946V28.5976C24.9713 29.0831 24.5778 29.4766 24.0923 29.4766C23.6069 29.4766 23.2134 29.083 23.2134 28.5976V20.3946C23.2134 19.9091 23.6069 19.5156 24.0923 19.5156Z" fill="white"/>
</g>
<g filter="url(#filter3_d_205_29939)">
<path d="M19.9908 19.5156C20.4762 19.5156 20.8697 19.9092 20.8697 20.3946V28.5976C20.8697 29.0831 20.4761 29.4766 19.9908 29.4766C19.5053 29.4766 19.1118 29.083 19.1118 28.5976V20.3946C19.1118 19.9091 19.5054 19.5156 19.9908 19.5156Z" fill="white"/>
</g>
<g filter="url(#filter4_d_205_29939)">
<path d="M15.8892 19.5156C16.3747 19.5156 16.7681 19.9092 16.7681 20.3946V28.5976C16.7681 29.0831 16.3746 29.4766 15.8892 29.4766C15.4037 29.4766 15.0103 29.083 15.0103 28.5976V20.3946C15.0103 19.9091 15.4038 19.5156 15.8892 19.5156Z" fill="white"/>
</g>
<defs>
<filter id="filter0_d_205_29939" x="4.48469" y="9.45455" width="46.3636" height="38.0433" filterUnits="userSpaceOnUse" color-interpolation-filters="sRGB">
<feFlood flood-opacity="0" result="BackgroundImageFix"/>
<feColorMatrix in="SourceAlpha" type="matrix" values="0 0 0 0 0 0 0 0 0 0 0 0 0 0 0 0 0 0 127 0" result="hardAlpha"/>
<feOffset dy="1.63636"/>
<feGaussianBlur stdDeviation="4.09091"/>
<feComposite in2="hardAlpha" operator="out"/>
<feColorMatrix type="matrix" values="0 0 0 0 0.772549 0 0 0 0 0.854902 0 0 0 0 0.8 0 0 0 1 0"/>
<feBlend mode="normal" in2="BackgroundImageFix" result="effect1_dropShadow_205_29939"/>
<feBlend mode="normal" in="SourceGraphic" in2="effect1_dropShadow_205_29939" result="shape"/>
</filter>
<filter id="filter1_d_205_29939" x="19.1331" y="12.9702" width="18.1214" height="26.3246" filterUnits="userSpaceOnUse" color-interpolation-filters="sRGB">
<feFlood flood-opacity="0" result="BackgroundImageFix"/>
<feColorMatrix in="SourceAlpha" type="matrix" values="0 0 0 0 0 0 0 0 0 0 0 0 0 0 0 0 0 0 127 0" result="hardAlpha"/>
<feOffset dy="1.63636"/>
<feGaussianBlur stdDeviation="4.09091"/>
<feComposite in2="hardAlpha" operator="out"/>
<feColorMatrix type="matrix" values="0 0 0 0 0.772549 0 0 0 0 0.854902 0 0 0 0 0.8 0 0 0 1 0"/>
<feBlend mode="normal" in2="BackgroundImageFix" result="effect1_dropShadow_205_29939"/>
<feBlend mode="normal" in="SourceGraphic" in2="effect1_dropShadow_205_29939" result="shape"/>
</filter>
<filter id="filter2_d_205_29939" x="15.0316" y="12.9702" width="18.1214" height="26.3246" filterUnits="userSpaceOnUse" color-interpolation-filters="sRGB">
<feFlood flood-opacity="0" result="BackgroundImageFix"/>
<feColorMatrix in="SourceAlpha" type="matrix" values="0 0 0 0 0 0 0 0 0 0 0 0 0 0 0 0 0 0 127 0" result="hardAlpha"/>
<feOffset dy="1.63636"/>
<feGaussianBlur stdDeviation="4.09091"/>
<feComposite in2="hardAlpha" operator="out"/>
<feColorMatrix type="matrix" values="0 0 0 0 0.772549 0 0 0 0 0.854902 0 0 0 0 0.8 0 0 0 1 0"/>
<feBlend mode="normal" in2="BackgroundImageFix" result="effect1_dropShadow_205_29939"/>
<feBlend mode="normal" in="SourceGraphic" in2="effect1_dropShadow_205_29939" result="shape"/>
</filter>
<filter id="filter3_d_205_29939" x="10.93" y="12.9702" width="18.1214" height="26.3246" filterUnits="userSpaceOnUse" color-interpolation-filters="sRGB">
<feFlood flood-opacity="0" result="BackgroundImageFix"/>
<feColorMatrix in="SourceAlpha" type="matrix" values="0 0 0 0 0 0 0 0 0 0 0 0 0 0 0 0 0 0 127 0" result="hardAlpha"/>
<feOffset dy="1.63636"/>
<feGaussianBlur stdDeviation="4.09091"/>
<feComposite in2="hardAlpha" operator="out"/>
<feColorMatrix type="matrix" values="0 0 0 0 0.772549 0 0 0 0 0.854902 0 0 0 0 0.8 0 0 0 1 0"/>
<feBlend mode="normal" in2="BackgroundImageFix" result="effect1_dropShadow_205_29939"/>
<feBlend mode="normal" in="SourceGraphic" in2="effect1_dropShadow_205_29939" result="shape"/>
</filter>
<filter id="filter4_d_205_29939" x="6.82844" y="12.9702" width="18.1214" height="26.3246" filterUnits="userSpaceOnUse" color-interpolation-filters="sRGB">
<feFlood flood-opacity="0" result="BackgroundImageFix"/>
<feColorMatrix in="SourceAlpha" type="matrix" values="0 0 0 0 0 0 0 0 0 0 0 0 0 0 0 0 0 0 127 0" result="hardAlpha"/>
<feOffset dy="1.63636"/>
<feGaussianBlur stdDeviation="4.09091"/>
<feComposite in2="hardAlpha" operator="out"/>
<feColorMatrix type="matrix" values="0 0 0 0 0.772549 0 0 0 0 0.854902 0 0 0 0 0.8 0 0 0 1 0"/>
<feBlend mode="normal" in2="BackgroundImageFix" result="effect1_dropShadow_205_29939"/>
<feBlend mode="normal" in="SourceGraphic" in2="effect1_dropShadow_205_29939" result="shape"/>
</filter>
<linearGradient id="paint0_linear_205_29939" x1="27.6665" y1="16" x2="27.6665" y2="37.6797" gradientUnits="userSpaceOnUse">
<stop stop-color="#6DA37F"/>
<stop offset="1" stop-color="#C5DACC"/>
</linearGradient>
</defs>
</svg>
