<svg viewBox="0 0 24 24" fill="none" xmlns="http://www.w3.org/2000/svg">
<g clip-path="url(#clip0_7974_90887)">
<path d="M6.59809 3.593L5.51109 1.905C4.54909 2.525 3.68109 3.277 2.93109 4.143L4.44809 5.458C5.07209 4.739 5.79409 4.111 6.59809 3.593ZM12.0001 2V0C10.8501 0 9.71209 0.163 8.61909 0.483L9.18409 2.409C10.0781 2.147 11.0211 2 12.0001 2ZM2.91009 7.85L1.08209 7.014C0.605094 8.056 0.282094 9.16 0.121094 10.294L2.11309 10.578C2.25009 9.618 2.52109 8.702 2.91009 7.85ZM2.11309 13.423L0.121094 13.707C0.283094 14.842 0.606094 15.946 1.08309 16.988L2.91109 16.152C2.52109 15.3 2.25009 14.384 2.11309 13.423ZM20.9201 4H23.0001V2H19.0001C17.8971 2 17.0001 2.897 17.0001 4V8H19.0001V4.877C20.8931 6.744 22.0001 9.312 22.0001 12C22.0001 17.514 17.5141 22 12.0001 22C9.00609 22 6.19409 20.674 4.28509 18.363L2.74309 19.636C5.03309 22.409 8.40709 23.999 12.0001 23.999C18.6171 23.999 24.0001 18.616 24.0001 11.999C24.0001 9.028 22.8711 6.183 20.9201 4Z" fill="url(#paint0_linear_7974_90887)"/>
<path opacity="0.4" d="M10.334 12.0014C9.743 11.4814 8.18 9.91138 7.917 7.64738C7.869 7.23537 8.001 6.82037 8.28 6.50838C8.567 6.18638 8.98 6.00138 9.411 6.00138H14.347C14.779 6.00138 15.191 6.18638 15.478 6.50838C15.756 6.82037 15.889 7.23637 15.841 7.64738C15.582 9.85938 14.12 11.3864 13.42 12.0014C14.557 12.9924 15.871 14.6184 15.871 16.8424L15.93 18.0014H7.927L7.872 16.8924C7.872 14.6184 9.192 12.9914 10.334 12.0014Z" fill="url(#paint1_linear_7974_90887)"/>
</g>
<defs>
<linearGradient id="paint0_linear_7974_90887" x1="0.615629" y1="11.9995" x2="24.0001" y2="11.9995" gradientUnits="userSpaceOnUse">
<stop stop-color="#00C188"/>
<stop offset="1" stop-color="#23B9E9"/>
</linearGradient>
<linearGradient id="paint1_linear_7974_90887" x1="0.494536" y1="12.2424" x2="23.879" y2="12.2424" gradientUnits="userSpaceOnUse">
<stop stop-color="#00C188"/>
<stop offset="1" stop-color="#23B9E9"/>
</linearGradient>
<clipPath id="clip0_7974_90887">
<rect width="24" height="24" fill="white"/>
</clipPath>
</defs>
</svg>
