<svg viewBox="0 0 24 24" fill="none" xmlns="http://www.w3.org/2000/svg">
<g clip-path="url(#clip0_7974_66771)">
<path d="M23 3.75H19.2309C21.6272 5.84092 23 8.80083 23 12C23 18.0656 18.0406 23 11.9443 23C8.55752 23 5.40387 21.4866 3.29222 18.8484L4.01269 18.2773C5.94929 20.6964 8.83944 22.0833 11.9443 22.0833C17.532 22.0833 22.0787 17.5596 22.0787 12C22.0787 8.96583 20.7327 6.1645 18.3934 4.24042V8.33333H17.4721V4.20833C17.4721 3.45025 18.0922 2.83333 18.8541 2.83333H23V3.75ZM11.9443 1.91667V1C10.8848 1 9.8363 1.14942 8.82931 1.44275L9.09096 2.32825C9.99661 2.06425 10.9529 1.91667 11.9443 1.91667ZM6.46891 3.52358L5.96587 2.74625C5.07957 3.31458 4.27987 4.00392 3.58889 4.79775L4.29093 5.40367C4.92294 4.67858 5.65447 4.04517 6.46891 3.52358ZM2.73207 7.8145L1.88538 7.4295C1.44591 8.38467 1.14833 9.39667 1 10.4362L1.92408 10.5673C2.06319 9.59833 2.33774 8.67433 2.73299 7.8145H2.73207ZM10.777 12.3428L11.2081 12L10.777 11.6562C10.2647 11.2493 8.57226 9.74775 8.30047 7.54958C8.26823 7.292 8.3493 7.03992 8.52712 6.841C8.71967 6.62467 8.99975 6.5 9.29549 6.5H14.5949C14.8906 6.5 15.1707 6.62467 15.3632 6.841C15.5411 7.04083 15.6212 7.29292 15.589 7.5505C15.3163 9.73767 13.6201 11.2474 13.1079 11.6572L12.6804 12L13.1079 12.3419C14.2531 13.2586 15.6185 14.7894 15.6185 16.8813L15.6498 17.5H8.28665L8.25625 16.9051C8.25625 14.7894 9.62716 13.2586 10.777 12.3428ZM11.3528 10.9413L11.9443 11.4124L12.5302 10.9431C12.9752 10.5874 14.4447 9.28208 14.675 7.43775L14.5949 7.41667H9.29549C9.44474 9.29217 10.9096 10.5883 11.3528 10.9413ZM9.18862 16.5833H14.6842C14.5507 14.992 13.4571 13.7976 12.5302 13.056L11.9443 12.5876L11.3528 13.0588C10.4176 13.8031 9.31484 15.003 9.18862 16.5833ZM1 13.5647C1.14925 14.6052 1.44684 15.6172 1.8863 16.5723L2.73299 16.1864C2.33774 15.3266 2.06319 14.4026 1.92408 13.4337L1 13.5647Z" fill="#00C188" stroke="#00C188" stroke-width="0.8"/>
</g>
<defs>
<clipPath id="clip0_7974_66771">
<rect width="24" height="24" fill="white"/>
</clipPath>
</defs>
</svg>
