<svg viewBox="0 0 25 24" fill="none" xmlns="http://www.w3.org/2000/svg">
<path opacity="0.4" d="M2.5 11.0781C2.55 13.4161 2.69 17.4151 2.71 17.8561C2.781 18.7991 3.142 19.7521 3.704 20.4241C4.486 21.3671 5.449 21.7881 6.792 21.7881C8.648 21.7981 10.694 21.7981 12.681 21.7981C14.676 21.7981 16.612 21.7981 18.247 21.7881C19.571 21.7881 20.564 21.3561 21.336 20.4241C21.898 19.7521 22.259 18.7891 22.31 17.8561C22.33 17.4851 22.43 13.1441 22.49 11.0781H2.5Z" fill="#6DA37F"/>
<path d="M11.7451 15.3848V16.6788C11.7451 17.0928 12.0811 17.4288 12.4951 17.4288C12.9091 17.4288 13.2451 17.0928 13.2451 16.6788V15.3848C13.2451 14.9708 12.9091 14.6348 12.4951 14.6348C12.0811 14.6348 11.7451 14.9708 11.7451 15.3848Z" fill="#6DA37F"/>
<path fill-rule="evenodd" clip-rule="evenodd" d="M10.711 14.556C10.611 14.919 10.262 15.151 9.884 15.101C7.333 14.745 4.895 13.84 2.837 12.481C2.626 12.343 2.5 12.107 2.5 11.855V8.389C2.5 6.289 4.212 4.581 6.317 4.581H8.284C8.472 3.129 9.702 2 11.204 2H13.786C15.287 2 16.518 3.129 16.706 4.581H18.683C20.782 4.581 22.49 6.289 22.49 8.389V11.855C22.49 12.107 22.363 12.342 22.154 12.481C20.092 13.846 17.644 14.755 15.076 15.11C15.041 15.115 15.007 15.117 14.973 15.117C14.634 15.117 14.331 14.888 14.246 14.552C14.044 13.756 13.321 13.199 12.49 13.199C11.648 13.199 10.933 13.744 10.711 14.556ZM13.786 3.5H11.204C10.531 3.5 9.969 3.96 9.801 4.581H15.188C15.02 3.96 14.458 3.5 13.786 3.5Z" fill="#6DA37F"/>
</svg>
