<svg preserveAspectRatio="none" width="100%" height="100%" overflow="visible" style="display: block;" viewBox="0 0 19 20" fill="none" xmlns="http://www.w3.org/2000/svg">
<path id="Vector" d="M12.1725 4.95085L5.58651 11.5368C5.39549 11.7213 5.24312 11.942 5.13831 12.186C5.03349 12.43 4.97831 12.6925 4.97601 12.958C4.9737 13.2236 5.0243 13.487 5.12486 13.7328C5.22543 13.9785 5.37393 14.2019 5.56172 14.3896C5.7495 14.5774 5.97281 14.7259 6.2186 14.8265C6.46439 14.9271 6.72775 14.9777 6.99331 14.9753C7.25887 14.973 7.52131 14.9179 7.76532 14.8131C8.00932 14.7082 8.23001 14.5559 8.41451 14.3648L14.8285 7.77885C15.5571 7.02444 15.9603 6.01403 15.9512 4.96524C15.9421 3.91646 15.5214 2.91321 14.7798 2.17157C14.0381 1.42994 13.0349 1.00926 11.9861 1.00015C10.9373 0.991038 9.92692 1.39422 9.17251 2.12285L2.75751 8.70785C1.63219 9.83316 1 11.3594 1 12.9508C1 14.5423 1.63219 16.0685 2.75751 17.1938C3.88282 18.3192 5.40907 18.9514 7.00051 18.9514C8.59194 18.9514 10.1182 18.3192 11.2435 17.1938L17.5005 10.9508" stroke="var(--stroke-0, #153860)" stroke-width="1.5" stroke-linecap="round" stroke-linejoin="round"/>
</svg>
