<svg preserveAspectRatio="none" width="100%" height="100%" overflow="visible" style="display: block;" viewBox="0 0 9 9" fill="none" xmlns="http://www.w3.org/2000/svg">
<g id="Calling">
<path id="Fill 1" opacity="0.4" d="M1.01983 3.48994C0.543785 3.402 0.106584 3.70579 0.0159567 4.17047C-0.0746704 4.63515 0.230076 5.08884 0.69317 5.17978C2.08743 5.45159 3.164 6.53085 3.43688 7.92989V7.93089C3.51456 8.33361 3.8691 8.62641 4.27742 8.62641C4.33219 8.62641 4.38697 8.62141 4.44274 8.61142C4.90583 8.51849 5.21058 8.0658 5.11995 7.60012C4.71263 5.51055 3.10425 3.89666 1.01983 3.48994" fill="var(--fill-0, #0A8778)"/>
<path id="Fill 3" opacity="0.4" d="M0.957582 0.00792976C0.7345 -0.0240483 0.510422 0.0419064 0.332155 0.183809C0.14891 0.32771 0.0343809 0.535567 0.00948335 0.768408C-0.0432994 1.23908 0.296303 1.66479 0.766369 1.71776C4.00803 2.07951 6.52766 4.60477 6.89216 7.85654C6.94096 8.29224 7.30645 8.62101 7.74266 8.62101C7.77552 8.62101 7.80739 8.61902 7.84026 8.61502C8.06832 8.59004 8.27148 8.47711 8.41489 8.29724C8.55731 8.11736 8.62204 7.89351 8.59615 7.66467C8.14202 3.60746 5.00194 0.45862 0.957582 0.00792976" fill="var(--fill-0, #0A8778)"/>
</g>
</svg>
