<svg preserveAspectRatio="none" width="100%" height="100%" overflow="visible" style="display: block;" viewBox="0 0 60 60" fill="none" xmlns="http://www.w3.org/2000/svg">
<g id="Layer 14">
<path id="Vector" d="M58.1859 15.218C56.6121 9.4207 50.5816 3.39023 44.7832 1.81523C41.2289 0.929297 36.4652 0.0164063 30 0C23.5359 0.0164063 18.7723 0.929297 15.218 1.81523C9.41953 3.39023 3.38906 9.41953 1.81523 15.218C0.928125 18.7723 0.0164063 23.5359 0 30C0.0164063 36.4652 0.928125 41.2277 1.81523 44.7832C3.38906 50.5816 9.41953 56.6109 15.218 58.1859C18.7723 59.0719 23.5383 59.9848 30 60C36.4652 59.9848 41.2289 59.0719 44.7832 58.1859C50.5816 56.6109 56.6121 50.5816 58.1859 44.7832C59.073 41.2277 59.9848 36.4629 60.0012 30C59.9848 23.5359 59.073 18.7734 58.1859 15.218Z" fill="var(--fill-0, #FFE5E5)"/>
<path id="Vector_2" d="M49.0793 18.0984C48.3293 14.7141 45.048 11.6121 41.6531 10.95C39.5848 10.5469 33.8168 10.0301 30 10.0781C26.1844 10.0359 20.4164 10.5469 18.348 10.9605C14.9496 11.618 11.6684 14.7199 10.9219 18.109C10.4953 20.1656 10.0758 22.9605 10.0687 26.7809C10.0617 30.6012 10.4953 33.3938 10.9219 35.4527C11.6719 38.8383 14.9531 41.9391 18.348 42.6012C19.4648 42.8238 21.6598 43.0758 24.0445 43.2539C24.3156 43.6781 24.6086 44.1297 24.9234 44.6086C26.1891 46.5246 27.157 47.8605 27.8906 48.7898C29.1117 50.3391 30.8895 50.3391 32.1094 48.7898C32.843 47.8605 33.8109 46.5246 35.0766 44.6086C35.393 44.1289 35.6863 43.6773 35.9566 43.2539C38.3402 43.0758 40.5363 42.8238 41.6531 42.6012C45.0516 41.9426 48.3328 38.8418 49.0793 35.4527C49.5059 33.3973 49.9254 30.6012 49.9324 26.7809C49.9395 22.9605 49.5059 20.1563 49.0793 18.0984Z" fill="url(#paint0_linear_0_115)"/>
<path id="Vector_3" d="M32.202 38.0859C32.1496 38.3281 32.0287 38.5501 31.8534 38.7253C31.6782 38.9005 31.4563 39.0215 31.2141 39.0738C30.4098 39.1973 29.5914 39.1973 28.7871 39.0738C28.5449 39.0215 28.3229 38.9005 28.1477 38.7253C27.9725 38.5501 27.8515 38.3281 27.7992 38.0859C27.6742 37.2818 27.6742 36.4631 27.7992 35.659C27.8513 35.4166 27.9722 35.1943 28.1475 35.0189C28.3227 34.8435 28.5448 34.7223 28.7871 34.6699C29.5914 34.5465 30.4098 34.5465 31.2141 34.6699C31.4564 34.7223 31.6785 34.8435 31.8537 35.0189C32.0289 35.1943 32.1498 35.4166 32.202 35.659C32.3269 36.4631 32.3269 37.2818 32.202 38.0859Z" fill="url(#paint1_linear_0_115)"/>
<path id="Vector_4" d="M27.7922 17.4762C27.7925 16.8907 28.0252 16.3293 28.4392 15.9154C28.8532 15.5014 29.4145 15.2687 30 15.2684C30.5857 15.2684 31.1473 15.5009 31.5616 15.9149C31.9758 16.329 32.2087 16.8905 32.209 17.4762V29.8605C32.209 30.1506 32.1518 30.4378 32.0408 30.7057C31.9298 30.9736 31.7671 31.2171 31.5619 31.4221C31.3568 31.6271 31.1133 31.7897 30.8453 31.9006C30.5773 32.0115 30.29 32.0685 30 32.0684C29.4145 32.0684 28.8529 31.8358 28.4388 31.4217C28.0248 31.0077 27.7922 30.4461 27.7922 29.8605V17.4762Z" fill="url(#paint2_linear_0_115)"/>
</g>
<defs>
<linearGradient id="paint0_linear_0_115" x1="44.8125" y1="41.5805" x2="15.1875" y2="11.9555" gradientUnits="userSpaceOnUse">
<stop stop-color="#EF3739"/>
<stop offset="0.54" stop-color="#EF3739"/>
<stop offset="1" stop-color="#FF8C8B"/>
</linearGradient>
<linearGradient id="paint1_linear_0_115" x1="31.8539" y1="38.7246" x2="28.1473" y2="35.0168" gradientUnits="userSpaceOnUse">
<stop stop-color="#FFD2D2"/>
<stop offset="0.57" stop-color="white"/>
<stop offset="1" stop-color="white"/>
</linearGradient>
<linearGradient id="paint2_linear_0_115" x1="34.6582" y1="28.3266" x2="25.343" y2="19.0113" gradientUnits="userSpaceOnUse">
<stop stop-color="#FFD2D2"/>
<stop offset="0.57" stop-color="white"/>
<stop offset="1" stop-color="white"/>
</linearGradient>
</defs>
</svg>
