<svg preserveAspectRatio="none" width="100%" height="100%" overflow="visible" style="display: block;" viewBox="0 0 14 14" fill="none" xmlns="http://www.w3.org/2000/svg">
<g id="close">
<path id="Vector" d="M8.27636 7.00217L13.6884 1.59018C13.7786 1.50611 13.8509 1.40473 13.9011 1.29208C13.9513 1.17943 13.9783 1.05783 13.9805 0.934525C13.9827 0.811221 13.96 0.688742 13.9138 0.574395C13.8676 0.460047 13.7989 0.356174 13.7117 0.268971C13.6245 0.181769 13.5206 0.113024 13.4062 0.0668367C13.2919 0.0206498 13.1694 -0.00203264 13.0461 0.000142916C12.9228 0.00231847 12.8012 0.0293074 12.6886 0.0794993C12.5759 0.129691 12.4745 0.202058 12.3905 0.292282L6.97846 5.70427L1.56647 0.292282C1.39238 0.13007 1.16213 0.0417592 0.924223 0.0459569C0.686315 0.0501545 0.459323 0.146532 0.29107 0.314785C0.122817 0.483038 0.026439 0.71003 0.0222414 0.947939C0.0180438 1.18585 0.106354 1.4161 0.268567 1.59018L5.68056 7.00217L0.268567 12.4142C0.0965948 12.5864 0 12.8198 0 13.0631C0 13.3065 0.0965948 13.5399 0.268567 13.7121C0.440753 13.884 0.67416 13.9806 0.917517 13.9806C1.16087 13.9806 1.39428 13.884 1.56647 13.7121L6.97846 8.30007L12.3905 13.7121C12.5626 13.884 12.796 13.9806 13.0394 13.9806C13.2828 13.9806 13.5162 13.884 13.6884 13.7121C13.8603 13.5399 13.9569 13.3065 13.9569 13.0631C13.9569 12.8198 13.8603 12.5864 13.6884 12.4142L8.27636 7.00217Z" fill="var(--fill-0, #130F26)"/>
</g>
</svg>
