<svg preserveAspectRatio="none" width="100%" height="100%" overflow="visible" style="display: block;" viewBox="0 0 22 15" fill="none" xmlns="http://www.w3.org/2000/svg">
<path id="Vector" d="M1 13.95L5.93 10.64C6.72 10.11 7.86 10.17 8.57 10.78L8.9 11.07C9.68 11.74 10.94 11.74 11.72 11.07L15.88 7.5C16.66 6.83 17.92 6.83 18.7 7.5L20.33 8.9M7.33 5C7.86043 5 8.36914 4.78929 8.74421 4.41421C9.11929 4.03914 9.33 3.53043 9.33 3C9.33 2.46957 9.11929 1.96086 8.74421 1.58579C8.36914 1.21071 7.86043 1 7.33 1C6.79957 1 6.29086 1.21071 5.91579 1.58579C5.54071 1.96086 5.33 2.46957 5.33 3C5.33 3.53043 5.54071 4.03914 5.91579 4.41421C6.29086 4.78929 6.79957 5 7.33 5Z" stroke="var(--stroke-0, #48BB78)" stroke-width="1.5" stroke-linecap="round" stroke-linejoin="round"/>
</svg>
