<svg preserveAspectRatio="none" width="100%" height="100%" overflow="visible" style="display: block;" viewBox="0 0 24 24" fill="none" xmlns="http://www.w3.org/2000/svg">
<g id="Group">
<path id="Fill 1" d="M24 12C24 18.6288 18.6276 24 12 24C5.3724 24 0 18.6288 0 12C0 5.3736 5.3724 0 12 0C18.6276 0 24 5.3736 24 12" fill="var(--fill-0, #0A8778)"/>
<path id="Combined Shape" fill-rule="evenodd" clip-rule="evenodd" d="M6.62588 10.5645C5.83268 10.5645 5.18828 11.2089 5.18828 11.9997C5.18828 12.7917 5.83268 13.4373 6.62588 13.4373C7.41908 13.4373 8.06348 12.7917 8.06348 11.9997C8.06348 11.2089 7.41908 10.5645 6.62588 10.5645ZM12.0013 10.5645C11.2081 10.5645 10.5637 11.2089 10.5637 11.9997C10.5637 12.7917 11.2081 13.4373 12.0013 13.4373C12.7945 13.4373 13.4389 12.7917 13.4389 11.9997C13.4389 11.2089 12.7945 10.5645 12.0013 10.5645ZM15.9391 11.9997C15.9391 11.2089 16.5835 10.5645 17.3767 10.5645C18.1699 10.5645 18.8143 11.2089 18.8143 11.9997C18.8143 12.7917 18.1699 13.4373 17.3767 13.4373C16.5835 13.4373 15.9391 12.7917 15.9391 11.9997Z" fill="var(--fill-0, white)"/>
</g>
</svg>
