<svg preserveAspectRatio="none" width="100%" height="100%" overflow="visible" style="display: block;" viewBox="0 0 23 19" fill="none" xmlns="http://www.w3.org/2000/svg">
<path id="Vector" d="M22.5722 10.4614L21.2752 5.1705C21.1929 4.83502 20.8922 4.59909 20.5468 4.59909H17.0626L17.8881 0.913922C17.9378 0.691734 17.8839 0.458953 17.7416 0.281203C17.5993 0.103453 17.3839 0 17.1562 0H4.90673H0.75C0.335766 0 0 0.335765 0 0.75C0 1.16423 0.335766 1.5 0.75 1.5H3.97012L3.49631 3.61519H1.11309C0.698859 3.61519 0.363094 3.95095 0.363094 4.36519C0.363094 4.77942 0.698859 5.11519 1.11309 5.11519H3.16031L2.6865 7.23033H1.11309C0.698859 7.23033 0.363094 7.56609 0.363094 7.98033C0.363094 8.39456 0.698859 8.73033 1.11309 8.73033H2.3505L1.77389 11.3043L0.743672 15.9034C0.693891 16.1256 0.747797 16.3583 0.890109 16.5361C1.03247 16.7138 1.24786 16.8173 1.47553 16.8173H2.97811C3.3105 18.0748 4.45758 19.0047 5.81812 19.0047C7.17867 19.0047 8.32575 18.0748 8.65814 16.8173H13.4152C13.7476 18.0748 14.8947 19.0047 16.2552 19.0047C17.6157 19.0047 18.7628 18.0748 19.0952 16.8173H20.6279C20.979 16.8173 21.283 16.5738 21.3598 16.2312L22.5756 10.8038C22.6009 10.691 22.5998 10.5737 22.5722 10.4614ZM7.0387 7.23033H4.22367L4.69748 5.11514H8.12503C8.53927 5.11514 8.87503 4.77937 8.87503 4.36514C8.87503 3.95091 8.53927 3.61514 8.12503 3.61514H5.03348L5.5073 1.49995H16.2196L14.1547 10.7182H3.44236L3.88767 8.73033H7.0387C7.45294 8.73033 7.7887 8.39456 7.7887 7.98033C7.7887 7.56609 7.45294 7.23033 7.0387 7.23033ZM5.81817 17.5048C5.02556 17.5048 4.38075 16.86 4.38075 16.0673C4.38075 15.2748 5.02556 14.63 5.81817 14.63C6.61078 14.63 7.25559 15.2748 7.25559 16.0673C7.25559 16.86 6.61078 17.5048 5.81817 17.5048ZM16.2552 17.5048C15.4627 17.5048 14.8178 16.86 14.8178 16.0673C14.8178 15.2748 15.4627 14.63 16.2552 14.63C17.0478 14.63 17.6926 15.2748 17.6926 16.0673C17.6926 16.86 17.0478 17.5048 16.2552 17.5048ZM20.0274 15.3173H19.0952C18.7628 14.0599 17.6158 13.13 16.2552 13.13C14.8947 13.13 13.7476 14.0599 13.4152 15.3173H8.65819C8.3258 14.0599 7.17872 13.13 5.81817 13.13C4.45763 13.13 3.31055 14.0599 2.97816 15.3173H2.41219L3.10641 12.2183H14.7553C15.1064 12.2183 15.4105 11.9748 15.4872 11.6322L16.7266 6.09909H19.9584L21.0734 10.6477L20.0274 15.3173Z" fill="var(--fill-0, #E0FFEA)"/>
</svg>
